<svg width="20" height="17" viewBox="0 0 20 17" fill="none" xmlns="http://www.w3.org/2000/svg">
<path fill-rule="evenodd" clip-rule="evenodd" d="M19.95 5.05908C19.616 5.42683 19.2375 5.75001 18.8367 6.0286C16.9776 7.28787 15.1072 8.55827 13.2926 9.87326C12.3574 10.5642 11.1996 11.4111 9.98615 11.4111H9.97501H9.96388C8.7504 11.4111 7.59259 10.5642 6.65743 9.87326C4.84278 8.54713 2.97246 7.28787 1.12442 6.0286C0.712501 5.75001 0.333985 5.42683 0 5.05908V13.9074C0 14.888 0.801564 15.6904 1.78125 15.6904H18.1688C19.1485 15.6904 19.95 14.888 19.95 13.9074V5.05908Z" fill="#FDCF55"/>
<path fill-rule="evenodd" clip-rule="evenodd" d="M19.95 1.78303C19.95 0.802362 19.1373 0 18.1688 0H1.78125C0.59004 0 0 0.936089 0 2.02819C0 3.04229 1.12442 4.30155 1.91485 4.83646C3.64043 6.04 5.38829 7.24355 7.11388 8.45823C7.83751 8.95971 9.06212 9.98495 9.96388 9.98495H9.97501H9.98615C10.8879 9.98495 12.1125 8.95971 12.8361 8.45823C14.5617 7.24355 16.3096 6.04 18.0463 4.83646C19.026 4.15668 19.95 3.03115 19.95 1.78303Z" fill="#FDCF55"/>
</svg>
