<svg width="14" height="21" viewBox="0 0 14 21" fill="none" xmlns="http://www.w3.org/2000/svg">
<path fill-rule="evenodd" clip-rule="evenodd" d="M7.00001 0C10.8692 0 14 3.13086 14 7.00001C14 7.83399 13.9043 8.69532 13.5488 9.44728L8.57228 20.0293C8.28517 20.6309 7.65626 21 7.00001 21C6.34376 21 5.71485 20.6309 5.44141 20.0293L0.451172 9.44728C0.0957032 8.69532 0 7.83399 0 7.00001C0 3.13086 3.13086 0 7.00001 0ZM7.00006 10.5C8.9278 10.5 10.5001 8.92771 10.5001 6.99998C10.5001 5.07224 8.9278 3.49997 7.00006 3.49997C5.07233 3.49997 3.50006 5.07224 3.50006 6.99998C3.50006 8.92771 5.07233 10.5 7.00006 10.5Z" fill="#FDCF55"/>
</svg>
