<svg width="18" height="19" viewBox="0 0 18 19" fill="none" xmlns="http://www.w3.org/2000/svg">
<path fill-rule="evenodd" clip-rule="evenodd" d="M10.2566 10.7333C12.6591 8.21332 13.534 6.61111 12.8815 5.92667C12.8518 5.89556 12.7925 5.83333 12.7035 5.74C12.2586 5.27333 11.9546 4.9 11.7915 4.62C11.6284 4.34 11.5987 3.92 11.7025 3.36C11.8063 2.8 12.1697 2.11556 12.7925 1.30667C13.0891 0.933331 13.3635 0.630001 13.6156 0.396667C13.8677 0.163332 14.1272 0.038889 14.3942 0.0233333C14.6611 0.0077777 14.8836 0 15.0615 0C15.2395 0 15.4545 0.10111 15.7067 0.303333C15.9588 0.505557 16.1367 0.645555 16.2405 0.723333C16.3444 0.801112 16.5371 0.995554 16.8189 1.30667C17.1007 1.61778 17.2564 1.78889 17.2861 1.82C17.9979 2.56667 17.9534 4.07554 17.1526 6.34667C16.3518 8.61779 14.8391 10.9044 12.6146 13.2067C10.39 15.54 8.20259 17.1344 6.0522 17.99C3.90181 18.8456 2.47071 18.9 1.75886 18.1533C1.7292 18.1222 1.55866 17.9511 1.24722 17.64C0.935784 17.3289 0.750408 17.1344 0.691087 17.0567C0.631766 16.9789 0.498296 16.7922 0.290672 16.4967C0.0830481 16.2011 -0.0133472 15.96 0.00148305 15.7733C0.0163133 15.5867 0.0311434 15.3533 0.0459736 15.0733C0.0608039 14.7933 0.172029 14.5211 0.379653 14.2567C0.587277 13.9922 0.869048 13.7044 1.22497 13.3933C1.84785 12.8644 2.3669 12.4989 2.78214 12.2967C3.19739 12.0944 3.5978 12.0789 3.98339 12.25C4.36898 12.4211 4.6285 12.5611 4.76198 12.67C4.89545 12.7789 5.18463 13.0667 5.62954 13.5333C6.28207 14.2178 7.8244 13.2845 10.2566 10.7333Z" fill="#FDCF55"/>
</svg>
