<svg width="103" height="103" viewBox="0 0 103 103" fill="none" xmlns="http://www.w3.org/2000/svg">
<path fill-rule="evenodd" clip-rule="evenodd" d="M22.4892 0.190651C22.0733 0.450126 21.5482 0.958736 20.9823 1.65019C20.7262 1.96303 20.43 2.31206 20.3241 2.42582C20.0728 2.69574 19.0655 4.183 18.4679 5.1664C18.0337 5.88081 17.7336 6.47856 16.9952 8.0985C16.4977 9.18987 15.9723 10.9016 15.6889 12.3539C15.6223 12.6952 15.5438 13.0675 15.5145 13.1813C15.2932 14.0387 15.1189 17.3799 15.2608 18.0419C15.3219 18.3263 15.3905 18.9002 15.4134 19.3171C15.4651 20.2568 15.3662 20.3207 14.6218 19.8289C13.6301 19.1735 12.5297 18.5333 11.926 18.2602C11.5976 18.1117 11.0677 17.8722 10.7483 17.7281C10.107 17.4385 7.70226 16.6325 6.9688 16.4614C6.53579 16.3604 5.88601 16.2307 4.99632 16.0679C4.79647 16.0313 3.83047 15.9805 2.84973 15.9551C0.851389 15.9031 0.592681 15.9637 0.213029 16.5733C0.0228394 16.8785 0.0100701 17.0456 0.0497275 18.7141C0.0732936 19.7095 0.122813 20.6868 0.159564 20.8859C0.326188 21.7872 0.453673 22.421 0.554789 22.8509C0.690371 23.4273 1.49868 25.8847 1.73205 26.4302C2.44734 28.1014 3.23094 29.4904 4.27314 30.9345C5.01261 31.9591 5.04511 32.2251 4.42533 32.18C4.19694 32.1633 3.36413 32.1249 2.57472 32.0945C1.21142 32.0419 1.12245 32.0507 0.800519 32.2705C0.614171 32.3977 0.357644 32.653 0.23047 32.8378C0.00840917 33.1607 0.00124588 33.2425 0.0492085 34.9156C0.0766157 35.8735 0.146068 36.9829 0.203582 37.3811C0.390553 38.6757 0.895199 40.4635 1.61277 42.3738C2.11337 43.7064 3.50688 46.1604 4.48368 47.4295C4.82274 47.87 5.10013 48.3178 5.10013 48.4247C5.10013 48.6024 5.03618 48.6137 4.34747 48.5584C2.34093 48.3972 1.33891 48.3798 1.04469 48.5012C0.878277 48.5699 0.575136 48.8102 0.371036 49.0352L0 49.4445L0.0493123 51.2208C0.0765119 52.1978 0.14586 53.3229 0.203478 53.7211C0.390864 55.0164 0.895822 56.8055 1.61235 58.7125C2.14036 60.1179 3.82071 63.037 4.78142 64.218C5.18889 64.719 5.10802 64.7576 3.77649 64.697C3.10553 64.6664 2.33657 64.6114 2.06758 64.5747C1.43161 64.488 0.73958 64.7455 0.31591 65.2262L0.000622945 65.584L0.0465092 67.4606C0.0717363 68.4927 0.122502 69.5001 0.15946 69.6992C0.329198 70.6155 0.453984 71.2355 0.554789 71.6641C0.727952 72.4002 1.55567 74.8496 1.77804 75.2838C1.88913 75.5007 2.04568 75.8679 2.12582 76.0997C2.42325 76.9596 4.61666 80.3379 5.43047 81.1895C5.50626 81.2689 5.77825 81.5891 6.03488 81.9015C6.62206 82.6158 6.97846 82.9709 7.69655 83.5571C8.01007 83.813 8.38329 84.1278 8.52603 84.2567C9.59035 85.2176 12.5931 87.0469 13.8935 87.5268C14.1104 87.6067 14.5447 87.7751 14.8588 87.9007C15.9703 88.3455 16.2729 88.4441 17.4541 88.7456C18.7294 89.071 19.5723 89.2236 20.703 89.3341C21.1528 89.3781 21.4438 89.4587 21.5059 89.5568C21.5637 89.6477 21.6059 92.0572 21.6095 95.4502C21.6153 101.156 21.6167 101.193 21.8446 101.654C22.44 102.86 23.9137 102.918 24.6928 101.767L24.9288 101.418L24.9304 95.5642C24.9313 92.092 24.9717 89.648 25.0296 89.5568C25.0918 89.4587 25.3828 89.3781 25.8326 89.3341C27.341 89.1868 29.6097 88.6925 30.7425 88.2642C30.9994 88.1671 31.5265 87.9755 31.9138 87.8384C33.6735 87.2155 36.8655 85.3185 38.125 84.1472C38.321 83.9649 38.7368 83.6063 39.049 83.3503C39.8205 82.7178 40.1356 82.3962 40.8729 81.4888C42.0174 80.0801 42.9765 78.7543 43.4181 77.9701C43.6577 77.5449 43.9921 76.9497 44.1612 76.6475C44.768 75.5635 45.8236 72.5445 46.1206 71.0436C46.4015 69.6249 46.4424 69.2249 46.4873 67.4606L46.535 65.584L46.2197 65.2262C45.7786 64.7257 45.1174 64.4927 44.366 64.5729C44.0388 64.6078 43.2691 64.6626 42.6553 64.6949C41.4342 64.7589 41.3503 64.7145 41.7542 64.218C42.7149 63.037 44.3952 60.1179 44.9232 58.7125C45.423 57.3824 45.6407 56.7084 45.9175 55.6343C46.3245 54.0548 46.4151 53.4657 46.5052 51.8079C46.5468 51.04 46.6137 50.3594 46.6536 50.2954C46.8962 49.9066 45.9691 48.5977 45.3395 48.4403C45.084 48.3765 43.2877 48.4411 42.0843 48.5576C41.4956 48.6144 41.4355 48.6022 41.4355 48.4254C41.4355 48.3181 41.7129 47.87 42.0519 47.4295C43.0287 46.1604 44.4222 43.7064 44.9228 42.3738C45.6404 40.4635 46.145 38.6757 46.332 37.3811C46.3895 36.9829 46.459 35.8735 46.4864 34.9156C46.5343 33.2425 46.5272 33.1607 46.3051 32.8378C46.178 32.653 45.9214 32.3977 45.7351 32.2705C45.4131 32.0507 45.3242 32.0419 43.9609 32.0945C43.1715 32.1249 42.3387 32.1633 42.1103 32.18C41.4905 32.2251 41.523 31.9591 42.2625 30.9345C43.3068 29.4875 44.0787 28.1187 44.809 26.4188C45.3926 25.0606 46.3148 21.8579 46.3148 21.1897C46.3148 20.9731 46.358 20.6827 46.4108 20.5443C46.4636 20.406 46.521 19.5536 46.5381 18.6502C46.5733 16.8063 46.4942 16.5077 45.8685 16.1209C45.5621 15.9315 45.3944 15.9188 43.7194 15.9583C42.7202 15.9817 41.7391 16.0311 41.5393 16.0677C40.6345 16.2337 39.9983 16.3607 39.5668 16.4614C38.8278 16.6339 36.3691 17.4584 35.9332 17.68C35.7155 17.7906 35.3527 17.9445 35.127 18.022C34.6782 18.1761 33.5532 18.8003 32.3422 19.5673C31.9156 19.8376 31.4704 20.0586 31.353 20.0586C31.1461 20.0586 31.1415 20.0222 31.2064 18.8951C31.4218 15.1608 31.0492 12.2216 29.9839 9.2514C29.4917 7.87884 29.3904 7.64015 28.8319 6.53441C28.0605 5.00775 26.8788 3.15699 26.2086 2.42582C26.1042 2.31206 25.8094 1.96303 25.5533 1.65019C24.9874 0.958736 24.4623 0.450126 24.0464 0.190651C23.639 -0.0635503 22.8966 -0.0635503 22.4892 0.190651ZM78.5494 0.190651C77.4225 0.893893 74.9684 4.13811 73.7845 6.48984C73.1751 7.70024 73.0959 7.89042 72.5051 9.56166C72.1058 10.6911 72.0086 11.0316 71.8414 11.8886C71.7802 12.2014 71.6859 12.6668 71.6316 12.9227C71.3314 14.3384 71.1981 17.6897 71.3827 19.1837C71.4463 19.6981 71.4301 19.833 71.2913 19.9477C71.1463 20.0676 71.0468 20.0393 70.5796 19.7455C70.0623 19.4201 69.2421 18.9464 68.0316 18.274C66.9434 17.6695 63.9128 16.618 62.4061 16.3221C60.9932 16.0445 60.5879 16.0022 58.91 15.9569C57.419 15.9166 57.0747 15.9355 56.8087 16.0725C56.452 16.2563 56.2139 16.5716 56.0796 17.0377C55.9932 17.3383 56.0994 20.1158 56.2269 20.8859C56.324 21.4729 56.4975 22.3515 56.615 22.8509C56.7506 23.4273 57.5589 25.8847 57.7923 26.4302C58.5076 28.1014 59.2912 29.4904 60.3334 30.9345C61.0728 31.9591 61.1053 32.225 60.4856 32.1802C60.2572 32.1637 59.4466 32.1251 58.6843 32.0945C57.1151 32.0313 56.869 32.0903 56.3779 32.6475L56.0605 33.0076L56.1095 34.8323C56.1903 37.8353 56.4639 39.1547 57.673 42.3738C58.1736 43.7064 59.5671 46.1604 60.5439 47.4295C60.883 47.87 61.1604 48.3178 61.1604 48.4247C61.1604 48.6023 61.0963 48.6138 60.4077 48.5588C58.7504 48.4263 57.5008 48.3792 57.2583 48.4399C56.627 48.5977 55.6991 49.9059 55.9422 50.2954C55.9822 50.3594 56.049 51.04 56.0906 51.8079C56.2253 54.2861 56.5627 55.7584 57.6726 58.7125C58.2006 60.1179 59.8809 63.037 60.8416 64.218C61.2455 64.7145 61.1616 64.7589 59.9405 64.6949C59.3267 64.6626 58.557 64.6078 58.2299 64.5729C57.4784 64.4927 56.8172 64.7257 56.3761 65.2262L56.0609 65.584L56.1085 67.4606C56.1535 69.2249 56.1944 69.6249 56.4752 71.0436C56.6497 71.9257 56.7405 72.2379 57.2421 73.6808C57.8848 75.5302 58.0784 76.0114 58.4354 76.6475C58.605 76.9497 58.939 77.546 59.1776 77.9726C59.6136 78.7522 60.6769 80.2871 61.1604 80.8349C61.3031 80.9966 61.6301 81.384 61.8871 81.6957C62.4738 82.4075 62.8304 82.763 63.5469 83.3503C63.859 83.6063 64.2748 83.9649 64.4708 84.1472C65.7303 85.3185 68.9223 87.2155 70.682 87.8384C71.0693 87.9755 71.5964 88.1671 71.8533 88.2642C72.9862 88.6925 75.2548 89.1868 76.7633 89.3341C77.213 89.3781 77.504 89.4587 77.5662 89.5568C77.6241 89.648 77.6645 92.092 77.6654 95.5642L77.667 101.418L77.9031 101.767C78.6821 102.918 80.1558 102.86 80.7512 101.654C80.9791 101.193 80.9806 101.156 80.9864 95.4502C80.9899 92.0572 81.0322 89.6477 81.0899 89.5568C81.1521 89.4587 81.443 89.3781 81.8928 89.3341C83.0235 89.2236 83.8664 89.071 85.1417 88.7456C86.3229 88.4441 86.6255 88.3455 87.7371 87.9007C88.0511 87.7751 88.4855 87.6067 88.7023 87.5268C90.0819 87.0176 93.0969 85.1592 94.1852 84.1472C94.3812 83.9649 94.7973 83.6063 95.1099 83.3503C95.8209 82.7681 95.9815 82.6078 96.5609 81.9022C96.8176 81.5894 97.0896 81.2689 97.1653 81.1895C97.5324 80.8054 98.8502 78.9742 99.2384 78.3087C99.479 77.8964 99.8627 77.242 100.091 76.8547C100.319 76.4673 100.506 76.0934 100.506 76.0239C100.506 75.9543 100.622 75.6697 100.764 75.3915C101.031 74.8659 101.85 72.4757 102.041 71.6641C102.142 71.2355 102.267 70.6155 102.436 69.6992C102.473 69.5001 102.524 68.4927 102.549 67.4606L102.595 65.584L102.28 65.2262C101.839 64.7257 101.178 64.4927 100.426 64.5729C100.099 64.6078 99.3294 64.6626 98.7155 64.6949C97.4944 64.7589 97.4106 64.7145 97.8144 64.218C98.7751 63.037 100.455 60.1179 100.983 58.7125C101.7 56.8055 102.205 55.0164 102.392 53.7211C102.45 53.3229 102.519 52.1978 102.547 51.2208L102.596 49.4445L102.225 49.0352C102.021 48.8102 101.718 48.5699 101.551 48.5012C101.257 48.3798 100.255 48.3972 98.2483 48.5584C97.5596 48.6137 97.4957 48.6024 97.4957 48.4247C97.4957 48.3178 97.7731 47.87 98.1121 47.4295C99.0889 46.1604 100.482 43.7064 100.983 42.3738C101.701 40.4635 102.205 38.6757 102.392 37.3811C102.45 36.9829 102.519 35.8735 102.547 34.9156C102.595 33.2425 102.587 33.1607 102.365 32.8378C102.238 32.653 101.982 32.3977 101.795 32.2705C101.473 32.0507 101.384 32.0419 100.021 32.0945C99.2317 32.1249 98.3989 32.1633 98.1705 32.18C97.5507 32.2251 97.5832 31.9591 98.3227 30.9345C99.3649 29.4904 100.148 28.1014 100.864 26.4302C101.097 25.8847 101.905 23.4273 102.041 22.8509C102.142 22.421 102.27 21.7872 102.436 20.8859C102.473 20.6868 102.523 19.7095 102.546 18.7141C102.586 17.0456 102.573 16.8785 102.383 16.5733C102.003 15.9637 101.744 15.9031 99.7461 15.9551C98.7653 15.9805 97.7993 16.0313 97.5995 16.0679C96.7098 16.2307 96.06 16.3604 95.627 16.4614C94.8936 16.6325 92.4888 17.4385 91.8475 17.7281C91.5281 17.8722 90.9982 18.1117 90.6698 18.2602C90.0615 18.5353 88.8636 19.231 88.0817 19.7632C87.843 19.9257 87.5472 20.0586 87.4242 20.0586C87.204 20.0586 87.2016 20.0394 87.2645 18.7917C87.353 17.0347 87.349 16.5871 87.2301 14.9911C87.0449 12.5049 86.6617 10.8634 85.6179 8.08392C85.1101 6.73173 83.0717 3.28502 82.2717 2.42582C82.1658 2.31206 81.8696 1.96303 81.6135 1.65019C81.0476 0.958736 80.5225 0.450126 80.1066 0.190651C79.6993 -0.0635503 78.9568 -0.0635503 78.5494 0.190651ZM23.7529 4.57174C24.5157 5.37716 26.1233 8.12911 26.6518 9.53353C27.6823 12.2727 27.9756 13.894 27.9756 16.8526C27.9756 18.6289 27.8972 19.6428 27.676 20.7308C27.1758 23.1899 26.5217 24.8292 25.3449 26.5726C25.0174 27.058 24.5968 27.7571 24.4104 28.1262C23.9716 28.9953 23.5103 29.573 23.255 29.573C23.0449 29.573 23.0063 29.5179 21.96 27.7305C21.6499 27.2006 21.1561 26.4127 20.8628 25.9796C20.5694 25.5466 20.2382 24.9562 20.1268 24.6679C19.3072 22.5473 18.9626 21.303 18.6782 19.4381C18.5217 18.411 18.5223 14.8095 18.6792 13.9569C18.7472 13.5872 18.8412 13.0753 18.8879 12.8193C19.0062 12.1725 19.4838 10.5968 19.8838 9.53353C20.633 7.54253 22.7452 4.23564 23.2678 4.23564C23.3596 4.23564 23.5779 4.38683 23.7529 4.57174ZM79.8158 4.57174C80.3462 5.1272 81.5251 7.01572 82.0946 8.22229C82.9042 9.93758 83.0446 10.3009 83.3313 11.4232C83.5895 12.4336 83.6656 12.79 83.9171 14.1638C84.0712 15.0059 84.0705 18.3706 83.9159 19.5415C83.7772 20.5917 83.6367 21.325 83.4797 21.8167C83.4162 22.0158 83.2968 22.4346 83.2144 22.7474C83.1321 23.0603 82.9756 23.5257 82.8666 23.7816C82.7577 24.0376 82.6073 24.4094 82.5326 24.6078C82.4578 24.8062 82.0905 25.4344 81.7163 26.004C81.0807 26.9708 80.577 27.7998 79.9102 28.9765C79.7577 29.2456 79.5405 29.5151 79.4276 29.5753C79.1478 29.7244 78.8497 29.3929 78.2812 28.3001C78.0386 27.8342 77.4665 26.896 77.0097 26.2153C76.5528 25.5345 76.0934 24.755 75.9887 24.483C75.8839 24.211 75.7116 23.7631 75.6056 23.4877C75.4996 23.2123 75.317 22.5956 75.1998 22.1174C75.0063 21.3276 74.9413 21.0194 74.6891 19.6966C74.6458 19.4691 74.6103 18.2358 74.6103 16.956C74.6103 15.6762 74.6458 14.443 74.6891 14.2155C74.9413 12.8926 75.0063 12.5845 75.1998 11.7947C75.317 11.3165 75.5045 10.6882 75.6165 10.3985C75.7284 10.1088 75.8854 9.69641 75.9651 9.48182C76.2553 8.70184 77.2891 6.75759 77.8994 5.84378C78.6202 4.76472 79.0902 4.23564 79.328 4.23564C79.4198 4.23564 79.6394 4.38683 79.8158 4.57174ZM5.02082 19.3332C7.02279 19.7943 7.55671 19.9538 9.38863 20.638C10.526 21.0628 13.2486 22.6614 13.9763 23.3319C14.0905 23.437 14.4409 23.7322 14.7549 23.9877C15.7233 24.7757 17.1767 26.3194 17.547 26.9532C17.7407 27.2849 18.0618 27.8356 18.2606 28.1769C18.4593 28.5182 18.9405 29.286 19.3298 29.8833C19.8599 30.6964 20.1325 31.2532 20.4151 32.0994C20.9275 33.6342 21.2949 35.0631 21.4008 35.9332C21.4494 36.3314 21.5191 36.7549 21.5559 36.8744C21.6456 37.1654 21.3405 37.4711 21.0463 37.3851C20.9262 37.3501 20.6646 37.2981 20.4648 37.2697C18.2423 36.9541 16.3675 36.3766 14.4369 35.4128C11.8191 34.106 9.61412 32.4306 8.11077 30.6056C7.85383 30.2936 7.55681 29.9453 7.45082 29.8316C7.00836 29.3568 5.8068 27.4614 5.26094 26.3771C4.6502 25.1639 3.9809 23.2943 3.69458 22.0012C3.60291 21.5869 3.48445 21.0796 3.43151 20.8739C3.32032 20.4421 3.30247 19.4018 3.40452 19.3002C3.50844 19.1967 4.51742 19.2173 5.02082 19.3332ZM43.0757 19.3553C43.2238 19.5028 43.2396 20.3477 43.1041 20.8739C43.0511 21.0796 42.9327 21.5869 42.841 22.0012C42.0642 25.5093 40.0385 29.1377 37.4302 31.6931C36.5741 32.5318 34.8097 33.9142 33.9089 34.4519C31.5064 35.8861 28.5981 36.9662 26.4342 37.2276C26.0345 37.276 25.614 37.3425 25.4998 37.3755C25.0744 37.4985 25.0148 37.331 25.1299 36.3378C25.2669 35.1569 25.3656 34.6325 25.5953 33.8649C26.1547 31.9958 26.4918 31.1263 26.918 30.4524C27.8041 29.0514 28.2953 28.2378 28.513 27.81C28.8803 27.088 29.9382 25.7179 30.7259 24.9439C32.4429 23.2569 35.3441 21.3115 37.1481 20.6376C38.5912 20.0986 39.4235 19.8295 40.2416 19.6378C40.7555 19.5174 41.3161 19.3814 41.4874 19.3356C41.9746 19.2054 42.9373 19.2174 43.0757 19.3553ZM61.081 19.3332C63.0827 19.7942 63.6188 19.9544 65.4477 20.6376C66.6751 21.0961 68.5678 22.2271 70.0746 23.4024C71.9439 24.8606 73.1611 26.1835 73.8014 27.453C74.1967 28.2367 75.1036 29.7115 75.4857 30.1922C75.8881 30.6982 76.5231 32.1217 76.7782 33.0892C76.8606 33.4021 76.9965 33.914 77.0802 34.2268C77.3242 35.1392 77.4414 35.7788 77.5099 36.5709C77.5679 37.2418 77.5552 37.318 77.3746 37.375C77.265 37.4097 77.0493 37.3903 76.8953 37.332C76.7414 37.2736 76.472 37.226 76.2967 37.226C76.1215 37.226 75.8092 37.1828 75.6027 37.1301C75.3962 37.0773 74.8906 36.9603 74.4791 36.8699C72.7611 36.4928 70.5816 35.583 68.687 34.4519C67.7862 33.9142 66.0217 32.5318 65.1656 31.6931C62.5573 29.1377 60.5317 25.5093 59.7548 22.0012C59.6631 21.5869 59.5447 21.0796 59.4917 20.8739C59.3805 20.4421 59.3627 19.4018 59.4647 19.3002C59.5687 19.1967 60.5776 19.2173 61.081 19.3332ZM99.2431 19.8C99.3237 21.009 98.3528 24.3553 97.3349 26.3771C96.789 27.4614 95.5875 29.3568 95.145 29.8316C95.039 29.9453 94.742 30.2936 94.485 30.6056C92.1749 33.4097 87.9464 36.0016 84.3087 36.843C83.5236 37.0246 82.645 37.1967 82.131 37.2697C81.9312 37.2981 81.6696 37.3501 81.5496 37.3851C81.2553 37.4711 80.9502 37.1654 81.0399 36.8744C81.0767 36.7549 81.1462 36.3314 81.1945 35.9332C81.2728 35.2868 81.6153 33.8901 82.0568 32.417C82.3425 31.4634 82.6296 30.818 82.9432 30.4235C83.3521 29.9091 84.2459 28.4547 84.6781 27.6005C85.1293 26.7086 85.6135 26.0884 86.6476 25.0773C88.5231 23.2438 91.3469 21.3329 93.2083 20.6376C94.6515 20.0986 95.4837 19.8295 96.3018 19.6378C96.8157 19.5174 97.3763 19.3804 97.5476 19.3334C97.7189 19.2865 98.1627 19.256 98.5338 19.2655L99.2086 19.2829L99.2431 19.8ZM4.60556 35.4678C8.11503 36.288 8.74373 36.4962 10.682 37.481C15.1637 39.7577 18.2735 43.1837 20.3541 48.1365C20.6121 48.7507 21.2711 51.2902 21.4008 52.1698C21.451 52.5111 21.5216 52.8881 21.5575 53.0076C21.6656 53.3669 21.3393 53.6008 20.8353 53.5254C19.4294 53.3152 19.067 53.2451 18.1289 53.0024C17.558 52.8546 16.8338 52.6372 16.5198 52.5191C16.2058 52.4011 15.7721 52.239 15.5562 52.159C14.7945 51.8767 13.2469 51.0527 12.3193 50.4357C10.9313 49.5124 10.1628 48.8909 9.10854 47.8388C7.27703 46.0111 6.27885 44.6179 5.24163 42.4411C4.17462 40.2018 4.17919 40.2154 3.43826 37.0435C3.29759 36.4411 3.3087 35.6391 3.45985 35.4885C3.61163 35.3373 4.01557 35.33 4.60556 35.4678ZM43.0757 35.4885C43.2269 35.6391 43.238 36.4411 43.0973 37.0435C42.3406 40.283 42.3617 40.2213 41.1756 42.6606C38.9443 47.2496 34.5961 51.0242 29.6702 52.6483C28.9752 52.8773 28.1497 53.1121 27.8357 53.1699C27.5216 53.2276 27.0545 53.3173 26.7975 53.3692C25.8511 53.5602 25.5582 53.59 25.2888 53.5226C25.018 53.4549 25.0144 53.4428 25.0802 52.8119C25.1895 51.7637 25.6602 49.7303 25.9928 48.87C26.1048 48.5803 26.2641 48.1609 26.3469 47.938C26.6784 47.044 28.0794 44.4641 28.691 43.6209C30.6767 40.8834 32.889 38.9871 35.8536 37.481C37.4741 36.6577 38.522 36.2736 40.2935 35.8532C40.893 35.7109 41.5704 35.5486 41.7988 35.4926C42.3939 35.3464 42.9314 35.3448 43.0757 35.4885ZM61.0565 35.559C61.3135 35.6121 61.7807 35.7028 62.0947 35.7605C63.9622 36.1041 67.4006 37.6323 69.1771 38.9083C71.896 40.8613 73.8275 43.0965 75.3267 46.0247C75.7512 46.854 76.1662 47.7149 76.249 47.938C76.3317 48.1609 76.4911 48.5803 76.603 48.87C76.9356 49.7303 77.4063 51.7637 77.5156 52.8119C77.5814 53.4428 77.5778 53.4549 77.3071 53.5226C77.0377 53.59 76.7447 53.5602 75.7983 53.3692C75.5414 53.3173 75.0742 53.2276 74.7601 53.1699C73.7606 52.986 71.7021 52.2514 70.4917 51.6468C66.4922 49.6486 63.2622 46.4491 61.4202 42.6606C60.2341 40.2213 60.2552 40.283 59.4985 37.0435C59.3559 36.4334 59.3695 35.6392 59.5253 35.4797C59.6594 35.3423 60.1247 35.3664 61.0565 35.559ZM99.136 35.4885C99.2871 35.6391 99.2982 36.4411 99.1576 37.0435C98.4008 40.283 98.4219 40.2213 97.2358 42.6606C95.4152 46.4049 92.1489 49.6632 88.2861 51.5881C87.8174 51.8217 87.2334 52.0878 86.9884 52.1794C85.6683 52.6726 84.4014 53.0788 83.8959 53.1708C83.5818 53.2281 83.1147 53.3187 82.8577 53.3724C81.8189 53.5891 81.3482 53.5987 81.1555 53.4067C81.0385 53.2903 80.9964 53.1468 81.0383 53.0076C81.0742 52.8881 81.1448 52.5111 81.195 52.1698C81.3247 51.2902 81.9837 48.7507 82.2417 48.1365C84.3224 43.1837 87.4321 39.7577 91.9138 37.481C93.5343 36.6577 94.5822 36.2736 96.3537 35.8532C96.9532 35.7109 97.6306 35.5486 97.859 35.4926C98.4541 35.3464 98.9917 35.3448 99.136 35.4885ZM21.4475 40.7017C21.5805 40.8342 21.6084 41.05 21.5846 41.7606C21.5443 42.9712 21.4111 42.9798 20.5841 41.8248C19.7263 40.627 19.7333 40.5353 20.6823 40.5353C21.0936 40.5353 21.3327 40.5873 21.4475 40.7017ZM26.6937 40.7342C26.6937 40.8436 26.5847 41.0647 26.4516 41.2254C26.3184 41.3862 26.015 41.8058 25.7772 42.1577C25.5396 42.5097 25.2929 42.8299 25.2292 42.8691C25.0202 42.9977 24.9321 42.6697 24.9304 41.7578C24.9284 40.6145 24.9961 40.5353 25.9744 40.5353C26.6149 40.5353 26.6937 40.5571 26.6937 40.7342ZM77.5039 40.6978C77.6273 40.8209 77.6666 41.0783 77.6654 41.7578C77.6638 42.6697 77.5756 42.9977 77.3666 42.8691C77.3029 42.8299 77.0562 42.5097 76.8186 42.1577C76.5809 41.8058 76.2774 41.3862 76.1442 41.2254C76.0111 41.0647 75.9021 40.8436 75.9021 40.7342C75.9021 40.5571 75.9809 40.5353 76.6215 40.5353C77.1369 40.5353 77.3869 40.5813 77.5039 40.6978ZM82.6279 40.7534C82.6754 41.0024 81.4095 42.7232 81.2072 42.6847C80.9552 42.6368 80.9089 40.9401 81.153 40.6971C81.3909 40.4599 82.5806 40.5054 82.6279 40.7534ZM4.84059 51.9062C5.67693 52.0112 7.38095 52.438 8.21459 52.7514C8.52863 52.8694 8.96226 53.0314 9.1782 53.1115C10.4371 53.5781 12.505 54.8018 14.0282 55.9815C15.0791 56.7955 17.226 59.017 17.9997 60.0912C18.6655 61.0155 19.8626 63.1915 20.188 64.0689C20.2712 64.2931 20.4308 64.7135 20.5427 65.0032C20.8335 65.7554 21.2778 67.613 21.443 68.7684C21.4716 68.9675 21.5237 69.2281 21.5589 69.3477C21.7027 69.8359 20.9311 70.0588 19.9578 69.8101C19.7513 69.7574 19.242 69.6394 18.8262 69.5481C16.5416 69.0461 13.4503 67.6729 11.5431 66.3129C10.2766 65.4097 7.8368 62.9799 6.9688 61.7571C5.97104 60.3514 5.29395 59.1563 4.7892 57.9095C4.66255 57.5967 4.47734 57.1546 4.37747 56.9271C4.22383 56.5768 3.88996 55.3173 3.43826 53.3836C3.29572 52.7733 3.30932 51.9787 3.46504 51.8222C3.5402 51.7466 3.70402 51.7176 3.85435 51.7533C3.99709 51.7873 4.4409 51.8561 4.84059 51.9062ZM43.1842 51.8402C43.4711 52.1846 42.4975 56.4212 41.8224 57.7666C41.683 58.0443 41.5409 58.3878 41.5067 58.53C41.4257 58.8661 40.255 60.8052 39.4906 61.8694C38.6774 63.0014 36.1911 65.458 34.9925 66.3137C34.1501 66.9151 31.7658 68.1816 30.2234 68.847C29.8276 69.0179 28.5994 69.3432 26.6144 69.8034C26.0751 69.9284 25.3419 69.9342 25.1532 69.8151C24.8796 69.6423 25.3079 67.2615 25.9825 65.205C26.3308 64.1434 27.6236 61.521 28.269 60.5672C29.2985 59.0455 31.1803 57.0116 32.5189 55.9733C34.0258 54.8047 36.1012 53.577 37.3574 53.1115C37.5733 53.0314 38.007 52.8698 38.321 52.7522C39.0954 52.4623 41.2682 51.913 41.6761 51.9041C41.8578 51.9 42.0999 51.8568 42.2141 51.8079C42.5329 51.6714 43.0581 51.6889 43.1842 51.8402ZM61.0046 51.9039C61.8104 52.0275 63.5456 52.4772 64.2748 52.7514C64.5889 52.8694 65.0225 53.0314 65.2384 53.1115C66.4946 53.577 68.5701 54.8047 70.0769 55.9733C71.4155 57.0116 73.2973 59.0455 74.3268 60.5672C74.9722 61.521 76.2651 64.1434 76.6134 65.205C77.2879 67.2615 77.7162 69.6423 77.4426 69.8151C77.2539 69.9342 76.5208 69.9284 75.9814 69.8034C73.9964 69.3432 72.7682 69.0179 72.3724 68.847C70.8253 68.1797 68.4459 66.9149 67.6069 66.3141C66.5319 65.5443 64.304 63.4085 63.4787 62.3565C61.7966 60.2127 60.1848 56.9106 59.7935 54.807C59.7354 54.4942 59.6452 54.0288 59.5931 53.7728C59.541 53.5169 59.4551 53.0059 59.4021 52.6373C59.2816 51.7984 59.3707 51.6567 59.9624 51.7453C60.193 51.7799 60.662 51.8512 61.0046 51.9039ZM99.136 51.8286C99.2871 51.9791 99.2982 52.7811 99.1576 53.3836C98.7059 55.3173 98.372 56.5768 98.2183 56.9271C98.1185 57.1546 97.9283 57.5967 97.7955 57.9095C97.34 58.9831 96.3446 60.7544 95.6487 61.7296C94.7555 62.9815 92.3234 65.4067 91.0527 66.3129C90.1162 66.9807 87.5562 68.3609 86.5868 68.7207C85.8012 69.0124 84.2051 69.4546 82.6746 69.8048C82.1359 69.9279 81.4016 69.9339 81.2157 69.8166C80.9252 69.633 81.4667 66.52 82.0531 65.0032C82.165 64.7135 82.3246 64.2931 82.4078 64.0689C82.7333 63.1915 83.9304 61.0155 84.5961 60.0912C85.3699 59.017 87.5168 56.7955 88.5676 55.9815C90.0909 54.8018 92.1588 53.5781 93.4176 53.1115C93.6336 53.0314 94.0672 52.8698 94.3812 52.7522C95.1556 52.4623 97.3284 51.913 97.7363 51.9041C97.918 51.9 98.1601 51.8568 98.2743 51.8079C98.5801 51.677 98.9937 51.6869 99.136 51.8286ZM20.9418 56.831C21.5982 57.0211 21.631 57.0919 21.5859 58.2199C21.5425 59.3014 21.3928 59.2909 20.5467 58.1471C19.6932 56.9934 19.696 56.9986 19.8456 56.8191C20.006 56.6266 20.2453 56.6292 20.9418 56.831ZM26.8409 56.9271C26.832 57.1422 25.2877 59.254 25.1393 59.254C25.0929 59.254 25.0265 59.1803 24.9919 59.0904C24.8995 58.8504 24.918 57.2592 25.015 57.107C25.1373 56.9152 25.9567 56.6814 26.4342 56.7021C26.7774 56.7171 26.848 56.7561 26.8409 56.9271ZM76.9868 56.826C77.2694 56.9113 77.5372 57.0389 77.5822 57.1093C77.6782 57.2599 77.6956 58.8523 77.604 59.0904C77.5693 59.1803 77.501 59.254 77.4522 59.254C77.3148 59.254 75.7983 57.1638 75.7983 56.9743C75.7983 56.6195 76.1558 56.5749 76.9868 56.826ZM82.7502 56.8191C82.8998 56.9986 82.9026 56.9934 82.0491 58.1471C81.203 59.2909 81.0533 59.3014 81.0099 58.2199C80.9657 57.1149 81.0065 57.0171 81.5865 56.8403C82.2373 56.6418 82.597 56.6352 82.7502 56.8191ZM43.1827 68.5616C43.2437 69.5757 42.7564 71.5023 41.7885 74.0735C41.2973 75.3786 39.683 78.009 38.8121 78.9234C38.7414 78.9977 38.4734 79.3139 38.2168 79.6263C37.5346 80.456 37.2358 80.7391 36.032 81.696C34.1941 83.1568 32.7483 84.0007 30.3791 84.9953C29.5987 85.3229 26.7522 86.0034 25.8305 86.0826L25.0192 86.1525L25.0846 85.3978C25.1939 84.1384 25.7114 82.2334 26.5483 80.0102C27.2064 78.2616 29.1738 75.3126 30.7163 73.7626C32.6062 71.8634 34.9312 70.3624 37.9577 69.0877C38.6438 68.7987 41.207 68.1483 42.0584 68.0471C43.1577 67.9165 43.1434 67.9099 43.1827 68.5616ZM62.51 68.4711C63.395 68.6908 64.3527 68.9685 64.6382 69.0884C67.648 70.352 69.9897 71.8635 71.8795 73.7626C73.422 75.3126 75.3894 78.2616 76.0476 80.0102C76.8857 82.2366 77.4019 84.1383 77.5119 85.4038L77.5779 86.1647L76.9217 86.0966C75.7849 85.9787 72.9084 85.3024 72.1648 84.978C69.6109 83.8641 68.3954 83.1519 66.5638 81.696C65.36 80.7391 65.0612 80.456 64.379 79.6263C64.1224 79.3139 63.8545 78.9977 63.7838 78.9234C63.1116 78.2177 61.9383 76.4118 61.1958 74.94C60.6965 73.9506 60.021 72.0164 59.7548 70.8144C59.6631 70.4001 59.5447 69.8929 59.4917 69.6872C59.3835 69.2665 59.3613 68.1131 59.4597 68.015C59.5933 67.8819 60.9594 68.0862 62.51 68.4711ZM99.1565 68.096C99.244 68.201 99.2657 68.4421 99.2238 68.8458C99.039 70.6267 98.7865 71.5872 97.849 74.0735C97.3559 75.3811 95.7429 78.0093 94.8723 78.9234C94.8016 78.9977 94.5336 79.3143 94.277 79.627C93.6953 80.3354 93.5348 80.4953 92.8237 81.0747C92.5098 81.3304 92.192 81.5973 92.1174 81.6677C91.1462 82.5857 88.2733 84.3033 86.7801 84.8589C85.4856 85.3405 82.851 86.0016 81.9055 86.082C81.1809 86.1437 81.1035 86.1321 81.0465 85.9531C81.012 85.8448 81.0317 85.6307 81.0903 85.4773C81.1488 85.324 81.1967 85.0185 81.1967 84.7984C81.1967 84.0443 82.0798 80.9638 82.5846 79.9575C82.7185 79.6906 82.8566 79.3558 82.8915 79.2136C83.026 78.6652 84.4001 76.5077 85.3943 75.284C87.7594 72.3724 91.1875 70.009 94.6927 68.8733C96.0065 68.4476 96.4401 68.3314 97.0804 68.2329C98.4958 68.0153 98.7969 67.9697 98.9105 67.9557C98.9748 67.9476 99.0855 68.0108 99.1565 68.096ZM5.28035 68.1587C5.55235 68.2214 6.03187 68.3405 6.34591 68.4232C6.65995 68.5059 7.17384 68.6409 7.48788 68.723C9.24724 69.1833 12.2922 70.8051 14.225 72.3114C15.4623 73.2757 17.2197 75.1628 18.1495 76.5255C18.7255 77.3696 19.6398 78.9502 19.7043 79.2136C19.7392 79.3558 19.8773 79.6906 20.0112 79.9575C20.516 80.9638 21.3991 84.0443 21.3991 84.7984C21.3991 85.0185 21.447 85.324 21.5055 85.4773C21.5641 85.6307 21.5831 85.8473 21.5476 85.9584C21.4896 86.1402 21.4188 86.154 20.8442 86.0946C19.6511 85.9713 17.161 85.3593 15.8157 84.8589C14.3226 84.3033 11.4496 82.5857 10.4784 81.6677C10.4038 81.5973 10.0861 81.3304 9.77213 81.0747C9.06099 80.4953 8.90049 80.3354 8.31882 79.627C8.06219 79.3143 7.79424 78.9977 7.72354 78.9234C6.85263 78.009 5.23831 75.3786 4.74706 74.0735C4.06125 72.2516 3.90044 71.7176 3.43763 69.7236C3.32126 69.2221 3.3006 68.217 3.40452 68.1135C3.51435 68.004 4.73771 68.0334 5.28035 68.1587ZM21.0225 73.2145C21.2435 73.2591 21.4657 73.359 21.5162 73.4365C21.5667 73.514 21.596 73.9491 21.5814 74.4036C21.5451 75.5338 21.4001 75.5386 20.6017 74.4352C19.8152 73.3482 19.8112 73.3408 19.8862 73.1461C19.9344 73.0211 20.0268 73.0007 20.2847 73.0583C20.4694 73.0995 20.8014 73.1698 21.0225 73.2145ZM26.6354 73.3188C26.6264 73.6726 25.3653 75.4063 25.147 75.3647C25.0127 75.3392 24.975 75.1615 24.951 74.4407C24.9177 73.4483 25.025 73.2214 25.5331 73.2081C25.6862 73.2041 25.9047 73.16 26.0189 73.11C26.389 72.9482 26.6424 73.034 26.6354 73.3188ZM77.0827 73.2145C77.3037 73.2591 77.5259 73.359 77.5763 73.4365C77.6268 73.514 77.6561 73.9724 77.6415 74.4553C77.6054 75.6539 77.47 75.6581 76.6312 74.4869C75.8927 73.4558 75.8552 73.3828 75.9445 73.1511C75.9947 73.0208 76.084 73.0001 76.3449 73.0583C76.5296 73.0995 76.8616 73.1698 77.0827 73.2145ZM82.7304 73.2197C82.7472 73.3074 82.4494 73.8099 82.0687 74.3364C81.1915 75.5498 81.0526 75.5567 81.011 74.3891C80.9776 73.4523 81.0915 73.2213 81.5934 73.2081C81.7464 73.2041 81.9649 73.16 82.0791 73.11C82.3762 72.9801 82.6949 73.0337 82.7304 73.2197Z" fill="black"/>
</svg>
