<svg width="102" height="107" viewBox="0 0 102 107" fill="none" xmlns="http://www.w3.org/2000/svg">
<path fill-rule="evenodd" clip-rule="evenodd" d="M31.5799 0.094554C31.4384 0.141704 31.1144 0.238814 30.8598 0.310424C28.7203 0.91234 26.6565 2.99838 26.0316 5.1908C25.9581 5.44841 25.8571 5.79501 25.8071 5.96092C25.5956 6.66328 25.7205 8.54334 26.0428 9.51028C26.5019 10.8877 26.8469 11.4366 27.9292 12.5115C28.8286 13.4048 29.536 13.8538 30.677 14.2557C31.4475 14.527 31.6577 14.5557 32.8865 14.557C33.7231 14.5578 34.4568 14.5023 34.7975 14.4126C35.4361 14.2443 36.6552 13.6443 37.2619 13.1994C37.492 13.0309 37.7561 12.893 37.849 12.893C38.0755 12.893 41.9707 15.2447 42.2097 15.5258C42.3432 15.6828 42.3804 15.8398 42.3372 16.0636C41.8268 18.7062 42.0102 21.4862 42.8216 23.4054C42.9062 23.6058 43.0849 24.0265 43.2184 24.3404C44.1484 26.5248 46.9905 29.4146 49.121 30.342C49.403 30.4647 49.8354 30.6497 50.0821 30.7531C50.6315 30.9837 50.8679 31.312 50.7685 31.7063C50.7289 31.8636 50.652 32.5778 50.5977 33.2934C50.5432 34.009 50.4563 35.1097 50.4044 35.7394C50.3524 36.3691 50.2602 37.54 50.1994 38.3415C50.1386 39.1429 50.0465 40.3138 49.9945 40.9436C49.9426 41.5733 49.8543 42.6739 49.7982 43.3895C49.6834 44.8551 49.5542 45.7422 49.4383 45.86C49.3953 45.9038 48.519 45.9715 47.4909 46.0106C45.2417 46.0961 44.6536 46.1663 43.1014 46.5347C42.0333 46.7883 39.2188 47.7978 38.3517 48.2384C37.7272 48.5557 37.3399 48.694 37.1858 48.6549C37.0449 48.6191 36.7837 48.3221 36.5153 47.8924C36.2736 47.5053 35.3958 46.1347 34.5648 44.8467C33.7337 43.5587 32.5294 41.6851 31.8885 40.6833C31.2476 39.6815 30.0441 37.808 29.214 36.52C28.3839 35.232 27.0954 33.2296 26.3505 32.0704C25.6056 30.9112 24.4012 29.0377 23.6739 27.9071C22.9466 26.7764 22.0431 25.364 21.6661 24.7683C20.8477 23.4754 20.8476 23.481 21.699 22.4721C21.9506 22.1739 22.3749 21.5544 22.6419 21.0955C23.061 20.3749 23.2477 19.8902 23.7731 18.1597C23.8234 17.9937 23.8646 17.1413 23.8646 16.2653C23.8646 14.4161 23.8182 14.1797 23.0681 12.2092C22.3915 10.4319 19.919 7.93029 18.1625 7.24573C16.2223 6.48966 15.977 6.43981 14.1948 6.43981C12.6433 6.43981 12.3109 6.49154 10.9222 6.94971C9.36894 7.46212 7.72034 8.64461 6.61489 10.0393C5.93852 10.8926 5.06937 12.493 4.83894 13.3093C4.76621 13.5669 4.66581 13.9135 4.61581 14.0794C4.49772 14.4719 4.49772 17.9754 4.61581 18.3679C4.66581 18.5338 4.76682 18.8804 4.84038 19.138C5.07245 19.9511 5.8231 21.3612 6.54031 22.3316C7.05641 23.0299 7.46789 23.4462 8.15805 23.9684C9.11711 24.6941 10.5108 25.4536 11.3144 25.6884C11.569 25.7628 11.9116 25.8651 12.0756 25.9156C12.6174 26.0826 15.6121 26.0263 16.3938 25.8344C16.8717 25.717 17.1552 25.6933 17.2682 25.7611C17.36 25.8162 17.9907 26.7082 18.6697 27.7432C19.8195 29.4963 20.4181 30.4237 23.8646 35.7914C28.0715 42.3436 30.4978 46.1092 32.283 48.8565C33.0279 50.0028 33.6373 51.0394 33.6373 51.16C33.6373 51.2884 33.4876 51.4947 33.276 51.658C32.7741 52.0454 31.6197 53.2175 31.0655 53.9023C30.8109 54.217 30.5167 54.5681 30.4118 54.6826C30.1163 55.0049 29.0643 56.6063 28.4466 57.6741C27.7336 58.9065 27.59 59.1062 27.4167 59.1062C27.3388 59.1062 26.4499 58.5601 25.4412 57.8926C24.4327 57.2253 22.8205 56.1637 21.8586 55.5337C20.067 54.3603 15.8223 51.5637 14.8155 50.8935C14.056 50.388 13.9051 50.1028 14.069 49.4829C14.3793 48.3088 14.1202 46.5 13.442 45.1069C12.2676 42.6948 9.64514 40.9956 7.09674 40.9956C6.0276 40.9956 4.09981 41.5564 3.30329 42.0991C2.34011 42.7554 1.15772 44.0674 0.700871 44.9868C0.113276 46.1693 -0.00152781 46.7142 1.52463e-05 48.3126C0.00124969 49.5559 0.029642 49.7685 0.297825 50.5481C0.698505 51.7129 1.14537 52.4313 2.01885 53.3151C2.89242 54.1989 3.60243 54.6511 4.75366 55.0565C5.52416 55.3278 5.73432 55.3565 6.96311 55.3578C7.79975 55.3586 8.53342 55.3031 8.87413 55.2134C9.43724 55.065 10.7331 54.4503 11.2274 54.097C11.3776 53.9898 11.5977 53.902 11.7165 53.902C11.8354 53.902 12.8003 54.4798 13.8609 55.1862C14.9215 55.8925 16.7383 57.0945 17.8981 57.8575C19.058 58.6204 21.0485 59.932 22.3216 60.7719C23.5946 61.612 24.9009 62.4702 25.2247 62.6794C25.8361 63.0742 26.1937 63.4937 26.079 63.6816C26.006 63.8011 25.8781 64.4617 25.6954 65.6634C25.5422 66.6711 25.5415 71.3103 25.6944 72.3248C26.188 75.601 27.2883 78.5876 29.1023 81.5748C29.4023 82.0689 29.6083 82.5196 29.578 82.6158C29.5157 82.8147 29.3574 82.9232 28.1852 83.5713C27.7043 83.8372 26.9636 84.2562 26.5392 84.5026C26.1149 84.7489 25.3742 85.1705 24.8933 85.4393C24.4124 85.7082 23.6717 86.1297 23.2474 86.3761C22.8231 86.6224 22.0709 87.0511 21.5757 87.3287C19.435 88.5287 18.843 88.8624 18.3096 89.1693C17.9984 89.3483 17.6335 89.4957 17.4988 89.4967C17.3582 89.4978 16.8327 89.1935 16.2643 88.7819C15.3026 88.0852 14.0503 87.3826 13.4233 87.1878C12.2125 86.8117 11.9275 86.7741 10.2857 86.7741C8.32624 86.7741 8.12595 86.8136 6.11227 87.5983C5.42561 87.8659 4.20351 88.7092 3.49061 89.4073C1.95085 90.9151 1.06205 92.5717 0.523111 94.9384C0.315107 95.8519 0.381253 97.7874 0.658283 98.8923C0.794689 99.4364 0.979856 100.026 1.06976 100.201C1.15957 100.377 1.23312 100.589 1.23312 100.671C1.23312 100.963 2.49174 102.755 3.22006 103.499C4.18015 104.481 4.7768 104.926 5.85571 105.465C6.64174 105.857 7.18932 106.057 8.58836 106.463C9.05745 106.599 11.3735 106.549 12.1888 106.386C14.5334 105.916 17.0897 104.196 18.3334 102.252C19.2816 100.77 19.7815 99.4205 19.9732 97.8253C20.1415 96.4248 20.0885 95.511 19.7484 93.9466C19.5908 93.2219 19.6608 93.1118 20.6172 92.5802C20.9605 92.3894 21.6696 91.9926 22.193 91.6986C22.7164 91.4046 23.5496 90.9368 24.0446 90.6593C24.5398 90.3817 25.2919 89.9531 25.7163 89.7068C26.1406 89.4604 26.8929 89.0318 27.3879 88.7542C27.883 88.4767 28.6931 88.0225 29.1882 87.745C29.6833 87.4674 30.4355 87.0385 30.8598 86.7918C32.6036 85.7781 32.5656 85.7812 33.4316 86.5824C34.8341 87.8799 37.8155 89.7449 39.5233 90.3931C43.0951 91.7488 45.0429 92.1327 48.3478 92.1327C51.6527 92.1327 53.6004 91.7488 57.1722 90.3931C58.505 89.8872 60.5477 88.6832 62.1294 87.4712C63.7688 86.2152 66.4414 83.4057 67.1472 82.1968C67.4313 81.7103 67.7019 81.7125 68.7553 82.2098C70.8868 83.2162 75.7124 85.5236 78.9774 87.0979C80.0383 87.6094 81.0603 88.0849 81.2485 88.1547C81.7545 88.3422 81.9262 88.6683 81.8336 89.2665C81.6993 90.1343 81.791 91.3884 82.0468 92.1792C82.2962 92.9506 82.9116 94.085 83.4475 94.7617C84.2248 95.7432 85.7055 96.7651 86.8213 97.0901C87.0759 97.1644 87.4185 97.2665 87.5824 97.317C87.969 97.4362 89.9941 97.4362 90.3807 97.317C90.5447 97.2665 90.8873 97.1643 91.1419 97.0899C92.0185 96.8342 93.2359 96.1462 93.9264 95.5163C94.3847 95.0982 95.2191 93.9464 95.5338 93.2976C96.5391 91.2246 96.5284 88.9924 95.5031 86.8889C94.7435 85.3306 93.503 84.1313 91.8984 83.4039C90.9095 82.9556 90.2977 82.8372 88.969 82.8372C87.9214 82.8372 87.6143 82.8772 86.9636 83.0982C86.0738 83.4004 85.2308 83.8315 84.5212 84.3474C84.2462 84.5472 83.9111 84.7107 83.7764 84.7107C83.6418 84.7107 82.964 84.4354 82.2703 84.0989C81.0845 83.5237 79.7722 82.8961 75.7113 80.9622C71.5575 78.984 69.6902 78.0329 69.6289 77.8641C69.5932 77.7656 69.6324 77.5212 69.716 77.3208C69.9239 76.8228 70.0481 76.4181 70.5779 74.5105C70.6744 74.1631 70.7694 73.6219 70.9981 72.1166C71.1387 71.1908 71.2186 66.9518 71.1019 66.6129C70.9767 66.2494 71.1199 65.8888 71.412 65.8317C72.8492 65.5511 73.8272 65.3478 74.734 65.1413C75.1867 65.0382 75.8347 64.8989 76.1742 64.8318C76.5137 64.7647 76.9766 64.6706 77.2029 64.6226C77.4292 64.5746 77.8922 64.4805 78.2316 64.4134C78.5711 64.3462 79.2192 64.2062 79.6718 64.1022C80.1244 63.9982 80.7725 63.8577 81.112 63.7899C81.4515 63.7222 82.0995 63.5816 82.5522 63.4777C83.0048 63.3737 83.6529 63.2329 83.9924 63.1649C85.3198 62.8991 85.6677 62.8236 86.4806 62.6247C86.9439 62.5115 87.4201 62.4499 87.5389 62.488C87.6576 62.5262 87.8633 62.7293 87.9958 62.9395C89.3859 65.1434 92.6903 66.615 95.0238 66.0693C96.0415 65.8312 96.361 65.7173 97.2259 65.2847C97.9251 64.9348 98.2874 64.6636 98.9233 64.014C100.448 62.4557 101.017 61.0621 101.017 58.8853C101.017 57.9365 100.973 57.6031 100.76 56.9603C99.8917 54.3447 98.6142 53.0374 95.9268 52.0153C95.2777 51.7685 92.9956 51.7393 92.1499 51.9671C90.7667 52.3397 89.257 53.3212 88.4083 54.3996C87.8888 55.0598 87.3413 56.0996 87.136 56.8163C86.6415 58.542 86.8453 58.3758 84.7125 58.7939C84.373 58.8604 83.9101 58.9541 83.6838 59.0021C83.4574 59.0501 82.9945 59.1441 82.6551 59.2113C82.3156 59.2784 81.6675 59.4185 81.2149 59.5225C80.7622 59.6265 80.1142 59.7673 79.7747 59.8353C78.5595 60.0786 78.117 60.1721 77.3058 60.3568C76.8532 60.46 76.2051 60.6 75.8656 60.6679C74.6504 60.9113 74.2079 61.0047 73.3967 61.1895C72.9441 61.2926 72.296 61.4319 71.9565 61.499C71.6171 61.5662 71.1407 61.6708 70.8978 61.7315C70.3132 61.8776 70.0385 61.7432 69.8686 61.2279C69.5642 60.3048 68.7938 58.643 68.1246 57.4662C67.6169 56.5734 66.5304 54.9783 66.1221 54.5265C65.9928 54.3834 65.6788 54.0093 65.4242 53.6953C64.8376 52.9716 64.2864 52.4139 63.5712 51.8204C63.2608 51.5628 62.8911 51.246 62.7496 51.1163C61.9202 50.3557 59.3167 48.6787 58.1663 48.1638C56.9486 47.6189 56.7323 47.535 55.3543 47.0724C54.5842 46.814 53.893 46.5236 53.8181 46.4272C53.6603 46.2238 53.6598 46.2347 54.109 40.8395C54.171 40.0953 54.2633 38.9243 54.3143 38.2374C54.3652 37.5504 54.4576 36.3795 54.5195 35.6353C54.5814 34.8911 54.6647 33.767 54.7046 33.1373C54.7446 32.5076 54.8119 31.9382 54.8544 31.872C54.9684 31.6945 55.8355 31.4199 56.2821 31.4199C56.6876 31.4199 57.3354 31.2652 58.3776 30.9195C58.9636 30.7251 59.2352 30.6153 60.2578 30.159C60.8538 29.8931 61.1001 29.9121 61.4637 30.2526C61.6335 30.4115 62.2584 30.936 62.8525 31.4181C63.4466 31.9002 63.9558 32.321 63.9841 32.3531C64.0124 32.3853 64.2901 32.621 64.6013 32.8771C64.9125 33.1331 65.1902 33.3689 65.2185 33.401C65.2468 33.4331 65.756 33.8531 66.3501 34.3342C66.9442 34.8154 67.4534 35.2354 67.4817 35.2674C67.51 35.2996 67.7877 35.5354 68.0989 35.7914C68.4101 36.0475 68.6878 36.2832 68.7161 36.3154C68.7444 36.3474 69.2536 36.7674 69.8477 37.2486C70.4418 37.7298 70.951 38.1513 70.9793 38.1853C71.0075 38.2194 71.5028 38.6317 72.0799 39.1018C72.6569 39.5717 73.2007 40.0601 73.2886 40.1869C73.3933 40.3382 73.4482 40.6515 73.4482 41.0983C73.4482 42.2007 74.1042 43.6676 74.9124 44.3727C76.655 45.8927 78.9492 45.8642 80.7047 44.3008C81.2535 43.812 81.5034 43.4112 81.8334 42.4908C82.3884 40.9425 82.0144 39.3813 80.7922 38.1446C79.88 37.2216 78.9944 36.8362 77.7806 36.8338C77.3629 36.833 76.8417 36.8866 76.6225 36.9531C76.244 37.0678 76.197 37.055 75.6848 36.6962C75.3882 36.4885 75.0298 36.2104 74.8883 36.0783C74.7469 35.9461 74.1451 35.4432 73.551 34.9609C72.9569 34.4785 72.4477 34.056 72.4194 34.022C72.3912 33.9879 71.882 33.5664 71.2879 33.0852C70.6938 32.604 70.1846 32.1825 70.1563 32.1485C70.128 32.1144 69.6188 31.6929 69.0247 31.2117C68.4306 30.7305 67.9214 30.3106 67.8932 30.2785C67.8649 30.2463 67.5871 30.0106 67.2759 29.7546C66.9647 29.4985 66.687 29.2633 66.6587 29.2318C66.6304 29.2003 66.2369 28.8758 65.7843 28.5105C64.6018 27.5565 64.2927 27.2436 64.293 27.002C64.2932 26.8843 64.481 26.5071 64.7105 26.1637C65.2041 25.4248 66.089 23.689 66.2899 23.0654C66.3681 22.8231 66.487 22.3672 66.5543 22.0524C66.6216 21.7375 66.7188 21.3106 66.7705 21.1035C66.8222 20.8965 66.8652 20.1705 66.866 19.4902C66.8669 18.8099 66.9075 18.1895 66.9564 18.1115C67.0458 17.9686 67.4291 17.8654 68.5618 17.6791C68.9013 17.6233 69.4105 17.5297 69.6934 17.4711C69.9763 17.4125 70.5318 17.3187 70.9278 17.2627C71.8542 17.1317 72.7486 16.9817 73.3967 16.8487C73.9112 16.7432 74.8281 16.5832 75.5056 16.4807C75.7036 16.4507 76.0971 16.3823 76.38 16.3287C76.6628 16.2751 77.1589 16.2059 77.4822 16.175L78.0701 16.1187L78.4724 16.6696C80.2254 19.0705 82.5505 20.1363 85.3297 19.8127C86.7338 19.6493 88.4362 18.8117 89.491 17.7656C90.3195 16.9438 91.0905 15.5788 91.4083 14.3711C91.5985 13.648 91.5991 11.5197 91.4093 10.7824C91.3301 10.4747 91.0926 9.87519 90.8814 9.45022C90.0075 7.69131 89.2877 6.96304 87.5493 6.07885C86.4437 5.51648 85.8836 5.39876 84.3217 5.40032C83.0929 5.40157 82.8827 5.4303 82.1122 5.70165C80.6898 6.2026 79.5783 7.02247 78.6533 8.25295C77.9579 9.17804 77.3614 10.5514 77.3588 11.2338C77.356 11.9035 77.1382 12.0337 75.6084 12.2811C75.2407 12.3405 74.7083 12.4286 74.4254 12.4767C74.1425 12.5247 73.587 12.6184 73.191 12.6848C72.7949 12.7512 72.2394 12.8449 71.9565 12.893C71.6736 12.9411 71.1181 13.0348 70.7221 13.1012C70.326 13.1676 69.7705 13.2616 69.4876 13.3101C67.1221 13.7158 66.1397 13.8503 65.9838 13.7897C65.9131 13.7622 65.7108 13.4673 65.5341 13.1343C65.1913 12.4876 64.1332 10.9601 63.624 10.3765C63.054 9.72323 61.0854 8.21173 60.2159 7.75969C60.0389 7.66768 59.7032 7.52041 59.4701 7.43245C59.237 7.3444 58.8495 7.19743 58.6091 7.10574C57.2877 6.60197 56.2893 6.43981 54.5083 6.43981C52.6718 6.43981 52.3933 6.48071 50.7652 6.99C48.4034 7.72868 46.2889 9.18075 44.708 11.1496C44.4897 11.4215 44.2458 11.644 44.1662 11.644C43.9595 11.644 42.8408 11.0591 42.1755 10.6034C41.8644 10.3901 41.3779 10.097 41.0944 9.9519C40.0247 9.40463 40.0697 9.51225 40.0991 7.57057C40.124 5.92033 40.1155 5.8406 39.8237 5.00585C39.3179 3.55856 38.5097 2.43904 37.2967 1.50562C36.6997 1.04609 35.6264 0.493923 34.9746 0.310736C34.72 0.23923 34.3695 0.13702 34.1958 0.0836252C33.8147 -0.0333648 31.9403 -0.0256626 31.5799 0.094554ZM33.9056 4.31379C34.9762 4.62875 35.6546 5.40699 36.0084 6.72604C36.1723 7.33753 36.1723 7.41601 36.0086 8.03343C35.6715 9.30398 34.8542 10.1056 33.5602 10.4352C32.9757 10.5839 32.8587 10.584 32.2743 10.4355C31.5155 10.2426 31.3435 10.1414 30.7588 9.54431C30.137 8.90919 29.8334 8.20871 29.8321 7.40654C29.8286 5.17498 31.7846 3.69002 33.9056 4.31379ZM15.7467 10.7503C17.5566 11.3061 19.055 12.8222 19.6043 14.6535C19.7919 15.2786 19.7919 17.1688 19.6043 17.7939C18.8927 20.1662 16.5557 21.9706 14.1948 21.9706C13.8478 21.9706 12.6749 21.7773 12.2857 21.656C10.7385 21.1737 9.13861 19.4609 8.76715 17.889C8.35916 16.1624 8.35854 16.3435 8.77805 14.5086C9.10991 13.0564 10.8981 11.2999 12.598 10.7561C13.1711 10.5728 15.1567 10.5691 15.7467 10.7503ZM56.7927 10.8532C59.6553 11.7724 61.5845 13.7238 62.5053 16.6316C62.8675 17.7757 62.8865 19.8312 62.5472 21.1677C62.2734 22.2456 62.0869 22.6545 61.4078 23.6657C60.7966 24.5755 60.4088 24.9949 59.5606 25.6631C58.7148 26.3295 57.639 26.8776 56.7815 27.0791C55.1907 27.4528 54.938 27.4878 54.2534 27.4294C52.5234 27.2819 52.0077 27.1435 50.6496 26.4614C49.7934 26.0315 49.5162 25.8197 48.6112 24.9042C47.6765 23.9583 47.5081 23.7285 47.0449 22.7663C46.5471 21.7323 46.4594 21.4679 46.1841 20.1725C45.9085 18.8758 46.3011 16.6038 47.0663 15.0665C47.3839 14.4285 48.21 13.3205 48.7526 12.8046C49.3095 12.2752 50.5846 11.429 51.1695 11.2005C52.4366 10.7057 52.8851 10.6261 54.4698 10.6145C55.8345 10.6045 56.1046 10.6322 56.7927 10.8532ZM51.5882 50.342C52.4046 50.4856 54.1794 50.9894 55.1143 51.3427C55.7037 51.5654 57.5092 52.4826 58.2748 52.9481C58.8562 53.3017 59.9006 54.0611 60.1978 54.3464C60.2717 54.4173 60.5866 54.6859 60.8977 54.9432C61.6018 55.526 61.7608 55.6869 62.3381 56.4003C62.5928 56.715 62.8871 57.0661 62.9921 57.1806C63.4291 57.6569 64.6203 59.5643 65.1573 60.6477C65.9386 62.224 66.5683 64.196 66.8918 66.0798C67.0226 66.8413 67.0546 71.008 66.9347 71.6482C66.6871 72.9694 66.6205 73.2896 66.4288 74.0846C66.3126 74.5659 66.1269 75.1982 66.0159 75.4898C65.905 75.7813 65.749 76.1976 65.6695 76.4151C65.2578 77.5396 64.1731 79.3603 63.0218 80.8596C61.4045 82.9658 58.0796 85.6021 56.0423 86.3941C54.7482 86.897 53.8199 87.2082 53.0399 87.4004C52.281 87.5874 51.9299 87.6618 50.6624 87.904C50.0471 88.0215 46.5569 87.99 45.6731 87.8587C44.7591 87.7231 42.6043 87.1812 42.0212 86.9403C41.7949 86.8467 41.3899 86.6816 41.1211 86.5732C39.873 86.0698 39.4533 85.8416 38.0429 84.8996C36.7812 84.0569 36.3003 83.6544 35.1111 82.4463C33.4497 80.7583 32.556 79.5442 31.6314 77.719C30.9874 76.4477 30.2152 74.3384 30.0377 73.3656C29.9907 73.108 29.8913 72.6162 29.8167 72.2727C29.6457 71.4843 29.6362 66.8432 29.8036 65.8716C29.9657 64.9314 30.3661 63.4859 30.7553 62.4368C30.9358 61.9502 31.152 61.3669 31.2357 61.1403C31.3193 60.9138 31.5408 60.4688 31.7278 60.1515C31.9148 59.8342 32.1885 59.3572 32.3359 59.0917C32.7217 58.3967 34.3027 56.3646 35.0323 55.626C36.8117 53.8246 39.8119 51.8969 42.0111 51.142C42.7863 50.8758 44.8602 50.3632 45.1915 50.3558C45.3715 50.3518 45.6114 50.307 45.7246 50.2564C45.9986 50.1338 50.8039 50.2039 51.5882 50.342ZM90.3742 87.2468C91.374 87.7178 92.1706 88.9933 92.1706 90.1231C92.1706 91.2529 91.374 92.5284 90.3742 92.9993C89.7464 93.2951 88.6516 93.332 87.9255 93.0817C86.988 92.7585 86.1585 91.7785 85.8889 90.6757C85.7798 90.2294 85.7813 90.0321 85.8976 89.5416C86.0936 88.7152 86.6751 87.8443 87.2943 87.4502C87.9692 87.0206 87.9789 87.0181 88.9816 87.0098C89.693 87.0039 89.9526 87.0481 90.3742 87.2468ZM10.891 90.8444C11.0956 90.8976 11.5403 91.0015 11.8794 91.0751C13.433 91.4131 15.3909 93.3979 15.7251 94.9738C15.7966 95.3114 15.8982 95.7568 15.9508 95.9639C16.0955 96.5332 16.0634 96.9584 15.8026 97.9294C15.2159 100.113 13.9469 101.511 11.9776 102.143C10.5658 102.597 8.94491 102.46 7.59916 101.774C6.84151 101.388 5.53053 100.061 5.14878 99.2945C4.47076 97.9329 4.33559 96.2929 4.7837 94.8644C5.40143 92.8948 6.78257 91.5979 8.89697 91.0018C9.81612 90.7426 10.3405 90.7012 10.891 90.8444Z" fill="black"/>
</svg>
