<svg width="105" height="105" viewBox="0 0 105 105" fill="none" xmlns="http://www.w3.org/2000/svg">
<path fill-rule="evenodd" clip-rule="evenodd" d="M19.5875 0.207389C19.1405 0.480984 18.9312 0.922856 18.9317 1.5921C18.9321 2.24419 19.0927 2.54654 19.8504 3.32141C20.525 4.01147 21.9006 5.7411 22.5878 6.76342C23.3772 7.9378 24.8119 10.8985 25.2724 12.3034C25.6249 13.3787 26.0587 15.0084 26.2715 16.0562C26.3277 16.3333 26.451 17.1795 26.5989 18.3048C26.6763 18.8936 26.5539 18.9757 25.4723 19.0599C24.0475 19.1708 22.9283 19.3705 21.0043 19.8575C20.3396 20.0257 19.7022 20.2136 19.5879 20.275C19.4736 20.3364 19.0565 20.5019 18.6608 20.6429C17.2999 21.1281 17.0487 21.2353 15.778 21.8736C12.8056 23.3666 10.7073 24.8854 8.35614 27.2458C6.044 29.567 4.48685 31.7271 3.05284 34.6025C2.5606 35.5896 2.08315 36.5974 1.99189 36.8421C1.43474 38.3363 1.28952 38.7903 0.795506 40.5815C0.45526 41.8154 0.113139 44.3995 0.0201076 46.4382C-0.0250016 47.4272 -0.00656197 47.5831 0.204816 48.0061C0.516725 48.6301 1.00334 48.9483 1.6456 48.9483C2.22212 48.9483 2.52382 49.1673 2.4236 49.5129C2.0046 50.9587 1.71248 53.6048 1.71248 55.9555C1.71248 59.2829 2.10576 61.7185 3.16066 64.9247C3.62592 66.3386 5.21412 69.7034 5.63323 70.1628C5.95712 70.518 6.36269 70.702 6.82149 70.702C7.51302 70.702 7.61751 70.8587 7.7044 72.0269C7.83222 73.7455 8.01808 74.9 8.40041 76.3496C8.9437 78.4091 9.05236 78.7534 9.55523 80.0101C9.6818 80.3264 9.85099 80.7631 9.93121 80.9803C10.5981 82.787 13.1058 86.8901 14.2799 88.0955C14.403 88.2219 14.7141 88.5839 14.9714 88.9001C15.5566 89.6197 16.2835 90.3322 16.6914 90.5867C17.196 90.9014 17.9701 90.8512 18.47 90.4715C18.695 90.3005 18.96 90.1593 19.0588 90.1577C19.2784 90.1542 19.4841 90.543 19.6659 91.3053C19.7415 91.6216 19.8632 92.0044 19.9366 92.1558C20.0099 92.3073 20.1843 92.7544 20.324 93.1494C20.8006 94.4966 20.9118 94.7626 21.4448 95.8314C22.9837 98.9174 25.6794 102.579 27.4098 103.934C27.7955 104.236 28.6323 104.257 29.0886 103.976C29.6015 103.661 30.917 102.307 31.8271 101.159C33.2548 99.358 34.0215 98.1359 35.1706 95.8297C35.9952 94.1745 36.0194 94.1151 36.7993 91.8282C37.1741 90.7289 37.4059 90.1961 37.5192 90.173C37.6112 90.1543 37.8824 90.2837 38.122 90.4606C38.6492 90.8498 39.4123 90.9041 39.9232 90.5886C40.3198 90.3438 41.4493 89.2301 42.0591 88.4825C42.3169 88.1667 42.6448 87.7745 42.7881 87.6109C43.2674 87.0635 44.2364 85.6499 44.8322 84.6291C45.1566 84.0731 45.603 83.3095 45.824 82.9322C46.0451 82.5548 46.226 82.1889 46.226 82.119C46.226 82.0491 46.3893 81.6663 46.589 81.2683C47.0001 80.4487 47.9696 77.5813 48.2874 76.245C48.6649 74.6578 48.7994 73.8773 48.9271 72.5322C49.0258 71.4937 49.174 70.9177 49.3755 70.7894C49.4481 70.7431 49.7154 70.7045 49.9695 70.7035C50.3843 70.7022 50.4808 70.6505 50.9165 70.1968C51.3853 69.7084 52.5351 67.6248 52.9495 66.5125C53.6404 64.6581 54.1633 62.9841 54.3686 61.9691C54.4268 61.6815 54.5187 61.2344 54.5727 60.9756C54.8211 59.7873 54.9064 58.5303 54.9064 56.0601C54.9064 53.2445 54.7963 52.0217 54.3431 49.8035C54.1825 49.017 54.234 48.9523 55.0226 48.9498C55.6111 48.9481 56.058 48.6954 56.4257 48.1567C56.6487 47.8299 56.6558 47.7481 56.6067 46.0554C56.559 44.4074 56.5211 44.0114 56.2426 42.2548C56.0214 40.8591 55.4116 38.7421 54.6226 36.6315C54.3757 35.971 53.2497 33.7415 52.7088 32.8421C51.7607 31.266 50.3902 29.3639 49.77 28.7633C49.6809 28.677 49.3979 28.3478 49.1411 28.0315C48.5615 27.318 48.4004 27.156 47.6852 26.567C47.3708 26.3082 46.9614 25.9456 46.7753 25.7614C45.7779 24.7734 41.9913 22.2533 40.7025 21.7197C40.2595 21.5362 39.3809 21.1606 38.4647 20.763C37.7397 20.4483 35.814 19.8519 34.9226 19.6661C32.9439 19.2535 32.3037 19.1505 31.1546 19.0599C30.6293 19.0185 30.162 18.9469 30.1162 18.9008C30.0704 18.8547 29.9993 18.5488 29.9581 18.221C29.866 17.4867 29.694 16.2636 29.5654 15.4287C29.5121 15.0836 29.3495 14.3423 29.2039 13.7813C29.0582 13.2204 28.9661 12.6905 28.9993 12.6039C29.089 12.3692 29.5393 12.2952 30.0476 12.4317C30.2953 12.4982 30.6093 12.5526 30.7453 12.5526C31.082 12.5526 34.1606 13.3429 34.8705 13.6115C35.1857 13.7308 35.6228 13.8953 35.8419 13.977C36.0609 14.0588 36.4594 14.2356 36.7274 14.37C36.9954 14.5044 37.3317 14.6431 37.475 14.6781C37.9986 14.8062 41.6 17.0883 42.3193 17.7477C42.4339 17.8528 42.7852 18.1505 43.1 18.4094C43.4148 18.6682 44.0245 19.233 44.4549 19.6644C44.8854 20.0958 45.495 20.6604 45.8099 20.919C46.1247 21.1776 46.4435 21.4475 46.5183 21.5187C47.6611 22.6072 51.5064 24.9795 53.0716 25.5617C53.2887 25.6424 53.7242 25.8122 54.0393 25.9391C54.3545 26.066 55.0519 26.328 55.5893 26.5212C56.4599 26.8344 56.6921 26.9608 57.1152 27.3514C57.3344 27.5539 58.9372 29.6136 59.3353 30.2046C60.2685 31.5895 61.5042 33.8585 61.8952 34.9049C62.7498 37.1916 63.2369 38.9948 63.542 40.9998C63.6751 41.8751 63.7078 47.2335 63.5851 48.0593C63.4418 49.0223 63.4287 49.0528 63.1565 49.0528C62.8906 49.0528 62.5691 48.9306 61.436 48.3987C59.8036 47.6324 59.2911 47.5441 58.7192 47.9311C58.1549 48.3128 57.8939 48.788 57.8939 49.4341C57.8939 49.9234 57.9383 50.0427 58.2476 50.386C58.5899 50.7659 59.4982 51.2541 61.1235 51.9321C61.4959 52.0875 61.8813 52.2915 61.98 52.3856C62.3049 52.6951 63.0884 55.2429 63.3191 56.7399C63.3722 57.085 63.4709 57.7203 63.5382 58.1518C63.6898 59.1232 63.699 63.356 63.5519 64.4516C63.4151 65.4715 63.3031 65.6189 62.7258 65.5395C62.2805 65.4783 61.9443 65.3449 60.4187 64.6243C58.7603 63.8411 57.6871 64.1908 57.4238 65.6002C57.266 66.4443 57.8203 67.1658 59.0416 67.7067C59.4131 67.8712 59.9676 68.1199 60.2738 68.2594C60.8406 68.5176 63.1719 69.3117 64.0622 69.5498C64.6895 69.7174 64.9298 69.6516 65.5757 69.1353C66.1844 68.6488 66.2938 68.63 66.6459 68.9521C67.3386 69.5854 68.5892 70.5395 69.7287 71.3038C70.8929 72.0847 73.967 73.7208 75.0048 74.1119C76.3782 74.6294 77.669 75.0485 78.7296 75.3213C79.8523 75.6102 80.2464 75.6868 81.9591 75.9498C82.3315 76.0071 83.5513 76.076 84.6697 76.103C86.6662 76.1513 86.7096 76.1477 87.0633 75.9084C87.5426 75.5842 87.8973 75.0368 87.8973 74.6213C87.8973 74.4355 87.9712 74.2218 88.0617 74.1465C88.2017 74.0299 88.4846 74.1353 89.9629 74.8551C92.1528 75.9212 92.2291 75.9532 93.876 76.4992C96.7015 77.436 99.1129 77.877 102 77.9851C102.795 78.0149 103.548 78.0134 103.672 77.9819C103.95 77.912 104.633 77.2431 104.845 76.8338C104.967 76.5993 104.987 76.302 104.94 75.4742C104.792 72.9089 104.621 71.3617 104.361 70.2313C104.255 69.7712 104.107 69.1123 104.032 68.7672C103.895 68.1373 103.33 66.4424 102.899 65.3681C102.773 65.0518 102.6 64.6074 102.517 64.3806C102.434 64.154 102.06 63.3656 101.687 62.6289C101.314 61.8922 101.024 61.2071 101.043 61.1064C101.069 60.9733 101.212 60.9078 101.57 60.8664C102.127 60.8019 102.528 60.5448 102.879 60.0263C103.114 59.6799 103.118 59.6263 103.069 57.7351C103.021 55.8673 102.912 54.6451 102.704 53.6546C102.65 53.3957 102.556 52.9251 102.494 52.6087C102.433 52.2924 102.338 51.8688 102.282 51.6675C101.769 49.8007 101.713 49.6274 101.232 48.4253C101.105 48.109 100.936 47.6726 100.856 47.4556C100.609 46.7855 99.5792 44.7669 98.9049 43.6303C98.2859 42.5866 96.5876 40.2246 95.9971 39.5861C95.6358 39.1954 95.6384 39.0819 96.02 38.5983C96.6927 37.7456 96.6825 37.3735 95.9263 35.1953C95.1955 33.0902 95.1346 32.9371 94.6069 31.8714C93.256 29.1432 91.5596 26.7874 89.3552 24.578C87.627 22.8459 86.7456 22.1019 85.1626 21.0391C84.5255 20.6114 84.0427 20.2158 84.0427 20.1217C84.0427 20.0305 84.1839 19.7769 84.3565 19.5582C84.5291 19.3394 84.7403 18.9611 84.826 18.7174C84.974 18.2962 84.9692 18.2481 84.7292 17.7406C84.443 17.1356 84.1357 16.781 83.3137 16.1073C82.9988 15.8491 82.6381 15.5368 82.5123 15.4132C81.2956 14.2189 77.2544 11.7356 75.3726 11.0259C71.0496 9.39541 68.3534 8.86139 64.4572 8.8639C61.8537 8.86568 59.4176 9.13614 57.6856 9.61587C55.8286 10.1301 54.835 10.4452 54.1956 10.7228C53.9664 10.8223 53.4507 11.0447 53.0496 11.2172C50.8657 12.1562 48.4207 13.6519 46.4343 15.2638C46.0046 15.6126 45.5827 15.8979 45.4967 15.8979C45.4108 15.8979 44.9888 15.6125 44.5591 15.2637C42.512 13.6022 38.6387 11.3483 36.838 10.7709C36.5043 10.6638 36.1337 10.5239 36.0147 10.46C35.8063 10.348 35.1739 10.1607 33.5162 9.71993C31.9782 9.31111 30.8228 9.13112 29.021 9.01953C28.0208 8.95761 27.7668 8.90762 27.5768 8.73526C27.45 8.62022 27.0989 8.03193 26.7967 7.42795C26.4945 6.82397 26.0114 5.9443 25.7231 5.47315C25.2553 4.70873 23.8579 2.7782 23.4962 2.39678C23.4201 2.31656 23.1479 1.99214 22.8912 1.67576C22.3242 0.977031 21.7972 0.462472 21.3795 0.199754C20.9509 -0.0697616 20.0338 -0.065892 19.5875 0.207389ZM67.0095 12.3363C67.5825 12.3939 68.2388 12.4689 68.468 12.503C69.1961 12.6117 72.3107 13.41 72.6175 13.5666C72.7796 13.6494 73.1816 13.8035 73.5105 13.909C75.4058 14.5168 80.3138 17.5378 80.5614 18.249C80.6528 18.511 80.1619 18.9589 78.6545 19.989C77.0072 21.1147 75.7574 21.806 73.7811 22.6848C72.844 23.1016 70.1153 23.9501 69.1973 24.1102C68.9681 24.1502 68.5227 24.2273 68.2076 24.2813C67.4441 24.4125 65.1979 24.5956 64.353 24.5956C63.5081 24.5956 61.2619 24.4125 60.4984 24.2813C60.1832 24.2273 59.7379 24.1502 59.5087 24.1102C58.5899 23.95 55.8613 23.1014 54.9248 22.6846C53.2331 21.9319 52.7874 21.7076 51.7642 21.0944C50.4772 20.323 48.5783 18.913 48.3449 18.5554C48.1896 18.3175 48.1916 18.284 48.3739 18.079C49.0159 17.3575 52.5766 15.0107 53.5299 14.6809C53.7635 14.6002 54.1333 14.4425 54.3519 14.3306C54.5704 14.2187 54.9293 14.0599 55.1496 13.9777C55.3698 13.8956 55.8078 13.7305 56.1229 13.6108C56.8228 13.3452 59.3818 12.6795 60.2379 12.5405C60.5817 12.4846 61.3874 12.4047 62.0285 12.363C62.6694 12.3212 63.2315 12.2491 63.2776 12.2028C63.3736 12.1066 65.4674 12.1815 67.0095 12.3363ZM26.4861 22.5573C26.6075 22.6793 26.6405 22.8276 26.5966 23.0541C26.5621 23.2318 26.4892 23.7066 26.4346 24.1093C26.1818 25.9713 25.2339 29.4138 24.6667 30.5301C24.5521 30.7557 24.3924 31.1324 24.3118 31.3673C24.2311 31.6023 23.9651 32.1361 23.7206 32.5536C23.476 32.9712 23.1306 33.5643 22.9528 33.8718C22.2911 35.0164 20.6105 37.124 19.3772 38.3561C17.3938 40.3373 15.6651 41.5914 13.2278 42.8167C11.6091 43.6306 11.5058 43.6755 9.98361 44.2257C8.80712 44.6511 6.29633 45.2705 5.23183 45.3981C4.88804 45.4393 4.43914 45.5068 4.23422 45.548C3.94638 45.6059 3.81959 45.5808 3.67676 45.4374C3.3685 45.1279 3.55165 43.5268 4.17307 41.0985C4.58843 39.4759 4.98858 38.2342 5.28298 37.6548C5.39498 37.4345 5.55041 37.0682 5.62844 36.8409C6.04057 35.6401 8.39468 32.0431 9.55189 30.846C9.76963 30.6208 10.1028 30.2337 10.2923 29.9859C10.4818 29.7382 10.8326 29.3845 11.0719 29.2001C11.3112 29.0157 11.6421 28.736 11.8072 28.5787C12.2555 28.1518 13.6053 27.0677 14.1391 26.7057C15.4015 25.8499 17.7183 24.5883 18.6941 24.2253C18.9104 24.1447 19.3454 23.9746 19.6605 23.8471C20.3511 23.5677 20.8434 23.417 22.2129 23.0652C23.7666 22.6662 24.1099 22.5935 24.4802 22.5855C24.6657 22.5814 24.9111 22.5377 25.0257 22.4882C25.4024 22.3257 26.2976 22.3681 26.4861 22.5573ZM32.3182 22.5827C33.888 22.7895 36.9571 23.6904 38.1816 24.3037C38.5665 24.4966 38.9986 24.683 39.1418 24.7182C39.4619 24.7966 41.8467 26.2219 42.8405 26.9285C44.5312 28.1308 46.1824 29.635 47.2677 30.9617C47.5256 31.2769 47.8222 31.629 47.9269 31.744C48.1945 32.0382 49.2282 33.5157 49.6463 34.2018C50.0651 34.8889 51.2703 37.2792 51.4779 37.8346C52.0272 39.3043 52.3006 40.1614 52.5706 41.2613C52.9722 42.8962 52.9913 42.995 53.0984 43.9805C53.1483 44.4406 53.2201 44.916 53.2577 45.0369C53.376 45.4161 53.0453 45.6371 52.4838 45.554C50.0587 45.1943 47.4419 44.5471 45.9134 43.9289C45.5983 43.8014 45.1628 43.631 44.9457 43.5503C44.7285 43.4695 44.1659 43.2098 43.6956 42.9731C40.8216 41.5271 37.9012 39.283 36.225 37.2328C35.9671 36.9175 35.6491 36.5418 35.5181 36.398C34.5664 35.353 32.5294 31.952 31.997 30.5192C31.1884 28.3431 30.7982 27.0291 30.4972 25.4689C30.4307 25.1238 30.3326 24.6712 30.2794 24.4632C30.137 23.9071 30.1581 22.6597 30.3127 22.5002C30.4463 22.3625 30.7392 22.3745 32.3182 22.5827ZM81.8028 22.8831C82.3455 23.1595 83.9602 24.2767 84.7719 24.9374C85.9902 25.9289 88.3197 28.3293 89.216 29.5167C90.4519 31.1538 91.4966 32.9994 92.4175 35.1727C92.6237 35.6593 92.6317 36.02 92.4399 36.1798C92.112 36.4529 91.0346 36.5504 88.4182 36.5435C86.0629 36.5372 84.6846 36.4485 83.678 36.2381C81.7995 35.8457 79.7316 35.2274 79.4473 34.9732C79.2867 34.8297 79.1729 34.5898 78.7087 33.4174C78.0167 31.6692 76.7141 29.3172 75.6135 27.8284C74.4204 26.2145 74.4535 26.2897 74.8027 25.9852C74.9634 25.8451 75.1633 25.7304 75.2469 25.7304C75.5972 25.7304 78.9062 23.9572 80.1568 23.0992C80.9387 22.563 81.1261 22.5383 81.8028 22.8831ZM71.1834 27.6913C72.1752 28.6099 74.0687 31.4081 74.9641 33.2777C75.8776 35.1857 76.0209 35.5366 76.0209 35.8651C76.0209 36.2686 75.8759 36.3596 75.0833 36.4536C73.9768 36.5849 68.7599 36.5603 67.9992 36.4202C67.6268 36.3516 67.0666 36.2493 66.7545 36.193C66.0342 36.0627 65.7902 35.8151 65.463 34.8816C64.9826 33.511 64.8743 33.2587 64.0962 31.699C63.6682 30.8411 63.0352 29.7069 62.6896 29.1784C62.3439 28.65 62.0611 28.1813 62.0611 28.1372C62.0611 27.8799 62.4879 27.8295 65.0347 27.7861C66.522 27.7608 68.0669 27.6871 68.468 27.6226C69.7667 27.4137 70.3391 27.3288 70.5516 27.3139C70.6663 27.3057 70.9506 27.4757 71.1834 27.6913ZM28.8385 31.6656C29.015 32.0538 29.3937 32.8438 29.6802 33.421L30.201 34.4705L30.1482 35.7219C30.0994 36.8816 30.0242 37.483 29.7759 38.6989C29.7231 38.9578 29.6479 39.3578 29.6089 39.5879C29.4825 40.3341 28.918 42.1995 28.5169 43.1961C28.3896 43.5124 28.2197 43.9496 28.1393 44.1676C27.7861 45.1244 26.7174 47.0717 25.7899 48.4482C24.5833 50.2393 22.5959 52.4301 21.0145 53.7129C19.294 55.1085 19.2961 55.108 18.8764 54.2767C17.9587 52.4586 17.1002 49.102 16.8449 46.3336C16.7047 44.8132 16.7029 44.8378 16.9717 44.641C18.4833 43.5349 19.7719 42.5528 19.9789 42.3491C20.1193 42.211 20.4912 41.8862 20.8054 41.6273C21.5261 41.0335 22.085 40.473 22.6817 39.7457C22.9395 39.4314 23.2912 39.0228 23.4632 38.8377C23.8748 38.3948 25.0551 36.7649 25.7109 35.7339C25.9981 35.2824 26.6766 34.0234 27.2186 32.9363C27.8426 31.6849 28.2617 30.9596 28.3609 30.9596C28.4533 30.9596 28.6494 31.2496 28.8385 31.6656ZM81.3988 39.1752C83.6548 39.7607 84.5209 39.8589 87.9386 39.9165C89.7537 39.947 90.8514 39.925 91.0552 39.8536C91.4468 39.7165 91.5885 39.8025 92.5524 40.7617C94.1359 42.3374 95.7779 44.695 97.0044 47.1534C97.8116 48.7714 97.855 48.8723 98.4073 50.4125C98.8539 51.6582 99.4789 54.2527 99.6166 55.4325C99.7523 56.5963 99.776 57.1679 99.6932 57.2899C99.5232 57.5403 97.034 57.2101 94.8527 56.6476C93.3411 56.2578 92.7823 56.0839 92.1117 55.7949C91.8851 55.6973 91.3716 55.4765 90.9705 55.3042C89.3346 54.6019 87.7895 53.7724 86.5743 52.9439C85.8516 52.4512 85.6053 52.1571 85.6053 51.7871C85.6053 51.6483 85.5625 51.3647 85.5102 51.1567C85.4578 50.9487 85.3587 50.5197 85.29 50.2033C85.1591 49.6013 84.37 47.1423 84.1116 46.5313C84.0292 46.3364 83.8577 45.9179 83.7307 45.6015C83.3033 44.5377 83.0915 44.0884 82.6954 43.4053C81.4873 41.3219 81.0855 40.6695 80.6099 40.0188C80.0885 39.3056 79.9514 38.9081 80.2268 38.9081C80.3054 38.9081 80.8328 39.0283 81.3988 39.1752ZM35.1634 40.8691C36.2517 41.9509 37.2438 42.8214 38.0537 43.4053C38.732 43.8942 39.4474 44.4481 39.6435 44.6361C40.0392 45.0155 40.0312 44.8682 39.7723 47.0134C39.4868 49.3793 38.8591 51.7607 37.9784 53.8192C37.6173 54.6631 37.3853 54.8753 37.0298 54.6868C36.7436 54.535 35.6697 53.7134 35.3591 53.4086C35.2333 53.2851 34.8727 52.9722 34.558 52.7133C33.8448 52.1268 33.6837 51.9651 33.0995 51.2491C32.8417 50.9332 32.53 50.5712 32.4069 50.4449C31.7487 49.769 30.3909 47.7765 30.3909 47.4864C30.3909 47.3905 30.606 46.8684 30.8689 46.326C31.1318 45.7837 31.4556 45.0342 31.5883 44.6603C32.3326 42.5633 32.4832 42.083 32.7847 40.8429C33.2007 39.1314 33.1691 39.2218 33.3517 39.2218C33.4367 39.2218 34.2519 39.963 35.1634 40.8691ZM71.6455 39.8836C73.4503 39.8849 75.1636 39.8491 75.4526 39.8041C75.9294 39.7299 76.0083 39.7477 76.3015 39.9952C76.7484 40.3728 78.1764 42.3227 78.8371 43.4575C79.1386 43.9752 79.5658 44.7075 79.7866 45.0849C80.0074 45.4622 80.1881 45.8261 80.1881 45.8934C80.1881 45.9608 80.324 46.3109 80.4902 46.6715C81.127 48.0536 81.2126 48.295 81.8342 50.4647C81.9495 50.8674 82.0758 51.3851 82.1147 51.6152C82.1537 51.8453 82.2289 52.2453 82.2817 52.5042C82.4225 53.1936 82.5792 54.155 82.6495 54.7601C82.7377 55.5201 82.5529 55.6849 81.7063 55.6011C80.0849 55.4406 79.1838 55.2749 77.5836 54.8429C77.2685 54.7579 76.7528 54.6202 76.4377 54.5372C76.1225 54.454 75.6303 54.2866 75.3438 54.165C75.0573 54.0433 74.5885 53.8508 74.302 53.7369C73.3886 53.3741 71.8268 52.6003 71.0204 52.1108C69.1432 50.9715 67.4006 49.685 67.0613 49.1878C66.8549 48.8854 66.837 48.7741 66.9093 48.243C67.0157 47.461 67.0158 41.4416 66.9093 40.6601C66.7945 39.8168 66.9087 39.6981 67.7346 39.802C68.0807 39.8455 69.8406 39.8822 71.6455 39.8836ZM13.4646 47.0396C13.497 47.1977 13.5682 47.4974 13.6229 47.7054C13.6776 47.9134 13.7224 48.2539 13.7224 48.4622C13.7224 48.8429 13.7434 48.9517 14.1501 50.6739C14.3721 51.6145 15.1395 54.0421 15.4263 54.7119C15.5098 54.9069 15.7046 55.3655 15.8591 55.731L16.1398 56.3956L15.5635 57.5805C14.8901 58.9648 13.3953 61.2556 12.6524 62.0417C12.5815 62.1168 12.3126 62.4371 12.0551 62.7535C10.9711 64.0851 8.16122 66.5186 7.70784 66.5186C7.44322 66.5186 7.21288 66.2551 7.02182 65.7342C6.93744 65.5041 6.7645 65.057 6.63751 64.7406C6.1362 63.4916 5.68563 61.7781 5.37247 59.9297C5.23558 59.1223 5.05879 56.8897 5.05775 55.9555C5.05494 53.6296 5.72168 49.3012 6.14829 48.8754C6.21715 48.8066 6.48457 48.701 6.74242 48.6409C8.93599 48.1292 10.041 47.8395 10.7533 47.5895C11.8724 47.1968 12.6947 46.8773 12.7632 46.8085C12.7941 46.7774 12.9514 46.752 13.1127 46.752C13.3488 46.752 13.4173 46.8079 13.4646 47.0396ZM44.4443 47.0079C44.9265 47.2583 47.4457 48.0695 48.5179 48.3197C50.2863 48.7324 50.3807 48.7612 50.5343 48.9342C50.6797 49.0983 50.8567 49.7495 51.1208 51.0923C51.1887 51.4374 51.268 51.8139 51.2969 51.9289C51.4465 52.5217 51.5681 54.3278 51.5681 55.9555C51.5681 59.1137 51.2341 61.18 50.2431 64.1538C49.6388 65.9668 49.2575 66.6023 48.8518 66.4731C48.441 66.3422 46.7425 64.9432 45.6026 63.7968C44.0973 62.2832 42.3567 59.9557 41.4963 58.3062C41.287 57.9049 40.9998 57.3691 40.858 57.1156C40.5242 56.5185 40.533 56.2833 40.9233 55.3886C41.1008 54.9814 41.3169 54.4834 41.4032 54.2821C42.0865 52.6897 42.886 49.5528 43.0558 47.7978C43.1617 46.7042 43.154 46.7165 43.6808 46.789C43.9366 46.8242 44.2802 46.9228 44.4443 47.0079ZM29.369 52.0074C30.4645 53.3674 32.8294 55.7396 33.9223 56.5748C34.8875 57.3125 35.0198 57.496 34.8705 57.8903C34.8132 58.0415 34.7664 58.451 34.7664 58.8001C34.7664 59.1492 34.7228 59.605 34.6695 59.813C34.6162 60.021 34.5185 60.4735 34.4523 60.8187C34.1989 62.1385 33.6698 64.0498 33.3086 64.9498C33.1816 65.2662 33.0123 65.7022 32.9323 65.9187C32.6899 66.5755 31.4904 68.9205 30.9136 69.8653C29.7765 71.7283 28.6691 73.1074 28.3104 73.1074C27.9972 73.1074 26.6903 71.4796 25.6863 69.839C25.1283 68.9273 23.9286 66.5824 23.6804 65.9187C23.1288 64.443 22.8581 63.5918 22.5904 62.492C22.0966 60.4629 21.9608 59.6939 21.8826 58.4879C21.8124 57.4028 21.9002 57.2569 23.2816 56.1646C24.3833 55.2934 25.717 54.0093 26.4317 53.1317C26.6892 52.8153 26.9581 52.495 27.029 52.4199C27.1001 52.3447 27.3695 52.0075 27.6278 51.6706C28.0538 51.1146 28.2162 50.9681 28.4324 50.9436C28.4725 50.9391 28.894 51.4178 29.369 52.0074ZM67.473 53.8171C68.781 54.7189 69.8307 55.3361 71.1767 55.9952C72.8395 56.8094 73.3017 56.9985 75.0145 57.5657C76.9368 58.2022 77.0732 58.2376 79.1238 58.6344C79.2918 58.6669 79.5975 59.0452 80.1656 59.924C81.1074 61.3809 81.8549 62.6738 81.8549 62.8462C81.8549 62.9131 82.0205 63.2978 82.2227 63.701C82.8274 64.9065 83.6624 67.5694 84.0407 69.4992C84.1084 69.8444 84.2047 70.315 84.2546 70.5451C84.4219 71.3162 84.4417 72.5736 84.2886 72.7012C84.1136 72.8469 82.5421 72.727 81.2299 72.4677C79.5638 72.1385 76.8909 71.3187 75.7015 70.7723C75.3901 70.6292 74.9253 70.4253 74.6686 70.3194C73.8911 69.9986 71.1411 68.2931 69.9951 67.4209C68.9494 66.6251 67.34 65.1047 67.0131 64.6038C66.8864 64.4098 66.8754 64.2896 66.9618 64.0408C67.1016 63.6383 67.0258 58.5999 66.8645 57.5765C66.5364 55.4946 66.404 54.7842 66.2209 54.1252C65.9979 53.323 65.9821 53.0271 66.162 53.0271C66.2528 53.0271 66.8427 53.3826 67.473 53.8171ZM86.9505 57.0967C87.5634 57.4872 88.934 58.127 90.9705 58.9729C91.8316 59.3305 93.4328 59.8042 95.2387 60.2355C95.7527 60.3583 96.2795 60.5287 96.4095 60.6141C96.9497 60.9696 99.0234 64.5079 99.6082 66.0726C100.324 67.9866 100.763 69.5224 101.126 71.3818C101.194 71.7269 101.295 72.1975 101.35 72.4276C101.406 72.6577 101.437 73.2225 101.42 73.6827L101.388 74.5193L100.503 74.4898C100.016 74.4736 99.4298 74.4186 99.2006 74.3676C98.9714 74.3167 98.5026 74.2197 98.1588 74.1522C96.5894 73.8443 95.287 73.4542 93.1308 72.6463C92.4307 72.384 90.1202 71.1976 89.1474 70.6008C88.0545 69.9304 87.5026 69.4067 87.3825 68.926C87.332 68.7235 87.1879 68.1109 87.0624 67.5644C86.8525 66.6506 86.1227 64.3781 85.6349 63.1195C85.5235 62.8319 85.0898 61.9058 84.6713 61.0616C84.2528 60.2174 83.9358 59.46 83.9669 59.3786C83.9981 59.2972 84.3003 59.1526 84.6386 59.0574C85.5249 58.8076 86.022 58.2291 86.022 57.4475C86.022 57.0573 86.1637 56.7921 86.3723 56.7921C86.4275 56.7921 86.6876 56.9293 86.9505 57.0967ZM38.5998 60.0498C39.0259 60.8402 40.4266 62.894 41.2233 63.8964C42.034 64.9166 43.7069 66.6462 45.184 67.9911L45.8248 68.5746L45.7717 70.1351C45.691 72.5047 45.6132 73.0379 44.9597 75.6948C44.5638 77.3045 44.443 77.6887 43.9231 78.9903C43.8026 79.2924 43.6382 79.7174 43.5579 79.935C43.0851 81.2158 41.851 83.3367 40.6589 84.9171C39.7709 86.0942 39.3819 86.4943 39.1257 86.4943C38.5478 86.4943 35.4849 81.7826 34.726 79.7265C34.6456 79.5086 34.4811 79.0832 34.3606 78.7812C33.7735 77.3113 33.6318 76.8226 32.9945 74.0734C32.8082 73.2695 32.8598 73.0851 33.5944 71.9258C34.5671 70.3908 35.192 69.2829 35.3582 68.7985C35.4355 68.5731 35.6378 68.1122 35.8078 67.7743C36.5271 66.3438 37.6953 62.3031 37.9348 60.4172C37.9864 60.0112 38.1495 59.7205 38.326 59.7205C38.3789 59.7205 38.5022 59.8686 38.5998 60.0498ZM18.6597 59.9906C18.6945 60.0816 18.7229 60.2926 18.7229 60.4596C18.7229 60.7764 18.7645 60.9771 19.1874 62.7012C19.5669 64.248 19.8429 65.2287 19.9618 65.4517C20.0198 65.5606 20.1822 65.9745 20.3227 66.3717C20.8004 67.7225 20.9114 67.988 21.4448 69.0576C21.98 70.1309 22.4901 71.0154 23.2921 72.2608C23.6695 72.8469 23.7229 73.0039 23.7194 73.5158C23.7145 74.2286 23.0865 76.6659 22.43 78.5203C22.0332 79.6412 20.4629 82.732 19.7374 83.8204C18.4572 85.7408 17.7766 86.521 17.425 86.471C17.1642 86.434 16.19 85.2756 15.2824 83.9234C14.6277 82.9481 13.1879 80.2193 12.8455 79.305C11.5462 75.8351 10.9792 73.1825 10.8443 69.9416L10.7887 68.6061L11.1413 68.2683C11.3353 68.0824 11.8867 67.5775 12.3668 67.1461C13.8372 65.8246 14.921 64.645 16.007 63.1847C16.686 62.2717 17.0182 61.7742 17.8842 60.3742C18.2272 59.8194 18.5359 59.6668 18.6597 59.9906ZM27.3101 77.0846C27.6517 77.3441 27.8165 77.3954 28.3073 77.3954C28.7981 77.3954 28.9629 77.3441 29.3045 77.0846C29.5295 76.9136 29.7946 76.7724 29.8933 76.7708C30.1129 76.7673 30.3187 77.1561 30.5005 77.9184C30.576 78.2347 30.6978 78.6175 30.7711 78.7689C30.8445 78.9204 31.0189 79.3675 31.1586 79.7625C31.6372 81.1153 31.7466 81.376 32.3067 82.4963C32.8319 83.5468 33.4968 84.6919 34.1916 85.7424C34.6539 86.4414 34.6544 87.005 34.1939 88.8526C33.7731 90.5407 33.5347 91.3365 33.2554 91.9851C33.1563 92.2151 32.9347 92.7328 32.7629 93.1355C32.2997 94.2212 32.0031 94.8253 31.5053 95.6978C30.4237 97.5932 28.7459 99.8017 28.3427 99.8605C28.0686 99.9006 27.518 99.2836 26.5516 97.8539C25.3244 96.0383 24.2918 94.198 23.8915 93.1134C23.8111 92.8955 23.6466 92.4701 23.526 92.1681C22.939 90.6982 22.7972 90.2095 22.16 87.4603C21.9947 86.7473 22.0358 86.4637 22.3836 85.9135C23.4399 84.2427 24.8338 81.6086 25.2442 80.508C25.3726 80.1633 26.2225 77.6939 26.4864 76.8986C26.5578 76.6831 26.8761 76.755 27.3101 77.0846Z" fill="black"/>
</svg>
