<svg width="101" height="100" viewBox="0 0 101 100" fill="none" xmlns="http://www.w3.org/2000/svg">
<path fill-rule="evenodd" clip-rule="evenodd" d="M27.5556 0.241358C27.3619 0.370829 27.0965 0.63412 26.966 0.826357L26.7286 1.17582L26.727 21.1248C26.726 33.4895 26.6879 41.1328 26.6266 41.2292C26.545 41.3574 26.0665 41.3969 23.8876 41.4551C21.4888 41.5193 20.6816 41.5791 19.1864 41.8032C18.3771 41.9245 18.3765 41.9228 18.3765 39.6263C18.3765 37.7262 18.3655 37.6186 18.139 37.2852C18.0085 37.093 17.7432 36.8297 17.5494 36.7002L17.1971 36.4647H11.6948H6.19237L5.84012 36.7002C5.64635 36.8297 5.38096 37.093 5.25046 37.2852L5.01305 37.6347V43.9571V50.2796L4.08638 51.6324C3.11628 53.0485 1.89113 55.3472 1.56247 56.3679C1.4564 56.6971 1.31744 57.0634 1.25365 57.1817C1.11866 57.4319 0.764533 58.6588 0.611376 59.4068C0.55312 59.6916 0.460724 60.1344 0.406122 60.3908C0.0967804 61.8426 0.077257 62.9074 0.039046 80.3903L0 98.2664L0.238244 98.6173C0.369373 98.8101 0.635075 99.074 0.828844 99.2035L1.1811 99.439H33.4103H65.6395L65.9917 99.2035C66.1855 99.074 66.4509 98.8107 66.5814 98.6185L66.8188 98.269V91.6164C66.8188 85.9609 66.8412 84.9452 66.9687 84.8403C67.1461 84.6942 67.2215 84.7285 68.437 85.508C68.8964 85.8026 69.6072 86.2577 70.0168 86.5194C71.9556 87.7584 73.4256 88.2528 75.1709 88.2528C76.0474 88.2528 76.491 88.1886 77.5199 87.9127C78.0718 87.7647 79.4101 87.1039 80.2728 86.5535C82.0006 85.4511 84.0626 84.1355 85.4284 83.2643C86.2466 82.7423 87.3154 82.0584 87.8035 81.7445C89.2467 80.8162 89.6977 80.5755 89.9315 80.6087L90.1525 80.6399L90.2047 89.514C90.2565 98.3155 90.2587 98.3905 90.4753 98.6805C90.5955 98.8414 90.8491 99.0779 91.0389 99.206C91.3813 99.4372 91.414 99.439 95.216 99.439C99.029 99.439 99.0497 99.4379 99.4002 99.2035C99.594 99.074 99.8596 98.8104 99.9904 98.6178L100.228 98.2676L100.19 65.4759C100.152 33.0748 100.142 32.0612 99.8235 30.5608C99.7691 30.3045 99.6744 29.8384 99.6129 29.5251C99.4201 28.5413 99.1229 27.6001 98.4107 25.7172C98.1887 25.1303 96.9971 22.7839 96.5573 22.0676C94.663 18.9825 91.4957 15.7929 88.5343 13.9881C87.5689 13.3997 85.2553 12.2236 84.5424 11.9589C82.9445 11.3656 81.7046 10.9789 80.7698 10.7823C80.5475 10.7356 80.325 10.6339 80.2755 10.5563C80.2259 10.4787 80.1847 9.72843 80.1838 8.88894C80.1818 6.92638 80.009 6.11434 79.2843 4.66013C78.3863 2.85769 77.3076 1.78754 75.4908 0.896582C74.6209 0.469847 74.296 0.356535 73.2641 0.119864C72.567 -0.0399545 52.7184 -0.0399545 52.0213 0.119864C50.9894 0.356535 50.6645 0.469847 49.7946 0.896582C47.9778 1.78754 46.8992 2.85769 46.0011 4.66013C45.571 5.52313 45.4568 5.84546 45.2182 6.8692C45.1371 7.21774 45.1033 12.3197 45.1033 24.2368C45.1033 39.4387 45.087 41.1269 44.9392 41.2736C44.7181 41.4929 43.818 41.4929 43.5968 41.2736C43.4489 41.1267 43.4328 39.1574 43.4328 21.1433V1.17582L43.1954 0.826357C43.0649 0.63412 42.7995 0.370829 42.6058 0.241358L42.2535 0.00582598H35.0807H27.9079L27.5556 0.241358ZM39.928 3.48298C40.0759 3.62975 40.092 5.48687 40.092 22.3783C40.092 39.2697 40.0759 41.1268 39.928 41.2736C39.7837 41.4166 39.1989 41.4363 35.0807 41.4363C30.9625 41.4363 30.3777 41.4166 30.2334 41.2736C30.0855 41.1268 30.0694 39.2697 30.0694 22.3783C30.0694 5.48687 30.0855 3.62975 30.2334 3.48298C30.3777 3.33995 30.9625 3.32027 35.0807 3.32027C39.1989 3.32027 39.7837 3.33995 39.928 3.48298ZM73.1962 3.53581C74.1133 3.8311 74.6159 4.13862 75.3161 4.83341C76.4345 5.94292 76.8413 6.97848 76.8413 8.71597C76.8413 10.1963 76.8878 10.1563 75.1709 10.1563C73.469 10.1563 73.5005 10.1816 73.5005 8.81768C73.5005 7.67907 73.3487 7.32173 72.6734 6.87024L72.3212 6.63471H62.6427H52.9643L52.612 6.87024C52.4183 6.99971 52.1529 7.263 52.0224 7.45524L51.785 7.8047V17.011C51.785 25.2188 51.7669 26.259 51.618 26.6023C51.355 27.2089 50.9054 28.6928 50.7325 29.5251C50.2805 31.7004 50.204 32.6601 50.1312 37.0641C50.0541 41.7356 50.1145 41.432 49.2606 41.4348C48.3606 41.4377 48.4441 43.1841 48.4441 24.356C48.4441 7.66467 48.4449 7.59859 48.6614 6.93663C48.952 6.04784 49.2571 5.54757 49.9084 4.891C50.616 4.17798 51.0837 3.87833 51.9579 3.57786L52.6724 3.33238L62.5994 3.32638C72.3802 3.32037 72.5362 3.32348 73.1962 3.53581ZM69.9956 10.1119C70.3642 10.4775 70.1265 10.6574 68.8418 10.9855C67.8128 11.2484 67.0909 11.4794 65.7994 11.9589C65.0866 12.2236 62.7729 13.3997 61.8075 13.9881C60.0055 15.0863 57.349 17.3932 55.9031 19.1152C55.597 19.4798 55.4308 19.6008 55.3028 19.552C55.1401 19.4901 55.1258 19.1133 55.1258 14.8797C55.1258 10.8314 55.1456 10.255 55.2898 10.1119C55.4359 9.96706 56.2467 9.94915 62.6427 9.94915C69.0388 9.94915 69.8496 9.96706 69.9956 10.1119ZM77.8332 13.6647C78.7928 13.7858 78.91 13.8087 80.391 14.1637C82.1618 14.5881 83.2208 14.9716 84.8657 15.7839C87.357 17.0142 88.4065 17.783 90.6223 20.0005C92.4798 21.8594 93.2893 22.9619 94.4296 25.1859C95.7739 27.808 96.2944 29.4664 96.7013 32.4252C96.8134 33.2391 96.9426 71.4212 96.8349 71.8622C96.8022 71.996 96.5449 72.2427 96.2318 72.4404C95.9316 72.6302 95.0163 73.2127 94.1981 73.7348C93.3799 74.2571 92.0526 75.1038 91.2488 75.6165C90.4449 76.1292 89.1294 76.9682 88.3255 77.4809C87.5216 77.9936 86.2062 78.8325 85.4023 79.3452C81.6357 81.7475 80.9949 82.1554 79.9212 82.8339C79.2896 83.2331 78.4584 83.7572 78.0741 83.9984C77.2006 84.5468 76.0557 84.9384 75.3259 84.9384C74.0653 84.9384 72.884 84.4519 70.697 83.032C69.9708 82.5607 68.6954 81.7403 67.8628 81.2092C67.0302 80.6781 65.5738 79.7459 64.6264 79.1378C63.6789 78.5296 62.3634 77.6908 61.7031 77.2737C61.0428 76.8566 59.7273 76.0176 58.7799 75.4093C57.8324 74.801 56.517 73.962 55.8566 73.5447C55.1963 73.1274 54.4102 72.6307 54.11 72.4408C53.7971 72.2429 53.5395 71.9959 53.507 71.8622C53.4257 71.5297 53.5154 33.0914 53.5987 32.5288C53.7846 31.2738 54.3021 29.1025 54.7126 27.8552C55.2475 26.2299 56.8324 23.3155 57.9725 21.8604C58.7087 20.921 61.1991 18.4855 62.129 17.7957C63.1236 17.0578 64.7105 16.1252 66.0358 15.4997C67.5541 14.783 68.3501 14.5371 71.5966 13.7815C71.8415 13.7245 72.2879 13.6746 72.5884 13.6706C72.8891 13.6666 73.229 13.6218 73.3439 13.5709C73.6018 13.4567 76.6971 13.5214 77.8332 13.6647ZM73.607 31.7637C73.2348 31.9019 72.757 32.1288 72.5452 32.2678C71.8119 32.7493 71.054 33.6276 70.6928 34.4147C70.1402 35.6188 70.1156 35.6632 69.9508 35.7485C69.8647 35.7931 69.207 36.1161 68.4892 36.4662C65.7353 37.8096 63.8381 39.57 62.164 42.3353C61.7936 42.9472 61.4442 43.6185 61.3876 43.8269C61.2225 44.4354 60.9211 44.7124 59.8984 45.1959C58.439 45.886 57.5786 46.803 57.0609 48.2202C56.2108 50.5472 57.3904 53.063 59.8843 54.2423C60.4057 54.4888 60.9053 54.7729 60.9945 54.8736C61.1972 55.1022 61.5987 55.8862 61.5987 56.0533C61.5987 56.2563 62.7101 58.0431 63.3371 58.8482C64.7285 60.6348 66.2659 61.861 68.5299 62.99C69.6349 63.541 70.1432 63.8513 70.2269 64.0258C70.2925 64.1628 70.5022 64.6147 70.6928 65.0302C71.0537 65.8166 71.8123 66.6961 72.5431 67.1754C73.7466 67.9646 75.362 68.165 76.6852 67.6893C77.5928 67.3629 78.0275 67.0809 78.7421 66.3548C79.2832 65.8049 79.884 64.742 80.0226 64.0894C80.0726 63.8536 80.2038 63.7491 80.7333 63.5237C84.0687 62.1031 86.3665 60.1292 88.1644 57.1401C88.4826 56.611 88.7431 56.1224 88.7431 56.0546C88.7431 55.9866 88.8856 55.651 89.0598 55.3088C89.2751 54.8856 89.467 54.6512 89.6601 54.5761C91.1593 53.9923 92.1171 53.2987 92.763 52.3294C93.5584 51.1355 93.7605 49.5329 93.2809 48.2202C92.6829 46.5832 91.6809 45.6557 89.6601 44.8687C89.467 44.7936 89.2751 44.5593 89.0598 44.136C88.8856 43.7938 88.7431 43.4582 88.7431 43.3903C88.7431 43.3224 88.4826 42.8339 88.1644 42.3047C86.3665 39.3157 84.0687 37.3417 80.7333 35.9212C80.2038 35.6957 80.0726 35.5912 80.0226 35.3555C79.804 34.3264 78.7905 32.9199 77.7987 32.2694C76.6 31.4833 74.9107 31.2795 73.607 31.7637ZM76.0858 35.0842C76.2358 35.1953 76.4555 35.415 76.5739 35.5723C76.7819 35.8486 76.7901 36.0006 76.8186 40.1384C76.8448 43.9523 76.8298 44.4368 76.6806 44.5847C76.4372 44.8262 73.9074 44.829 73.6645 44.588C73.5208 44.4455 73.5005 43.9118 73.5005 40.2964C73.5005 37.6232 73.5397 36.0647 73.6119 35.8758C73.7589 35.4909 74.1056 35.1255 74.4923 34.9479C74.9083 34.7568 75.7398 34.828 76.0858 35.0842ZM70.0344 39.5927C70.1245 39.6821 70.1596 40.3782 70.1596 42.0711C70.1596 44.0732 70.1351 44.4496 69.9956 44.588C69.856 44.7264 69.4759 44.7508 67.4505 44.7508C64.6021 44.7508 64.6014 44.7505 65.0986 43.8529C65.8928 42.419 67.5677 40.7288 69.1033 39.8114C69.7335 39.4349 69.8482 39.408 70.0344 39.5927ZM81.2673 39.861C82.8714 40.8208 84.4311 42.3867 85.2433 43.8529C85.7404 44.7505 85.7397 44.7508 82.8913 44.7508C80.8659 44.7508 80.4858 44.7264 80.3462 44.588C80.2067 44.4496 80.1822 44.0732 80.1822 42.0711C80.1822 39.7689 80.2214 39.4684 80.522 39.4684C80.5711 39.4684 80.9065 39.6451 81.2673 39.861ZM14.8716 39.9418C15.0037 40.073 15.0353 40.3606 15.034 41.4178C15.0331 42.1401 14.9967 42.7869 14.9529 42.8551C14.9091 42.9235 14.1934 43.3125 13.3624 43.7197C11.563 44.6013 10.8914 44.9968 9.71551 45.8669C8.3279 46.8936 8.41122 47.0545 8.37854 43.2837C8.35432 40.4982 8.37123 40.0873 8.51645 39.9434C8.66001 39.801 9.08356 39.7791 11.6948 39.7791C14.2943 39.7791 14.73 39.8014 14.8716 39.9418ZM49.2598 44.9214C49.6308 44.9761 49.961 45.0846 50.0151 45.1695C50.0718 45.2584 50.112 48.8814 50.113 53.9876C50.1143 61.73 50.097 62.6721 49.9505 62.8175C49.8023 62.9644 47.5523 62.9802 26.742 62.9802C9.67072 62.9802 3.66679 62.9496 3.57889 62.8624C3.33041 62.6159 3.8519 59.7258 4.40167 58.3029C4.50827 58.0271 4.68283 57.5752 4.78963 57.2986C4.89654 57.0222 5.28324 56.202 5.64917 55.4761C7.53675 51.7318 11.2022 48.2916 15.14 46.5685C15.6281 46.355 16.2153 46.0984 16.445 45.9984C16.7986 45.8445 18.0656 45.5124 20.0222 45.0607C20.2672 45.0042 20.6665 44.9546 20.9097 44.9507C21.1529 44.9466 21.4459 44.903 21.5607 44.8537C21.8434 44.7324 48.4185 44.7973 49.2598 44.9214ZM20.2035 48.1688C20.0886 48.2178 19.8442 48.2611 19.6605 48.2651C19.2519 48.274 18.3654 48.4986 17.8022 48.7359C14.1156 50.2892 12.2989 52.0909 10.6979 55.7816C10.4049 56.4573 10.2048 57.3889 10.0626 58.7409C9.97025 59.6189 10.0528 59.6657 11.6948 59.6657C13.1613 59.6657 13.3652 59.5937 13.3652 59.0748C13.3652 58.9288 13.4081 58.6409 13.4605 58.4349C13.513 58.2288 13.6133 57.804 13.6837 57.4906C13.9273 56.4052 14.9101 54.7082 15.8152 53.8103C16.7202 52.9124 18.4307 51.9373 19.5249 51.6957C19.8407 51.6259 20.2689 51.5263 20.4766 51.4742C20.6842 51.4222 20.9745 51.3796 21.1217 51.3796C21.6446 51.3796 21.7173 51.1774 21.7173 49.7224C21.7173 48.1615 21.6676 48.0611 20.9008 48.0725C20.632 48.0765 20.3183 48.1198 20.2035 48.1688ZM69.9956 48.2279C70.1277 48.3591 70.1596 48.6499 70.1596 49.7224C70.1596 50.795 70.1277 51.0858 69.9956 51.2169C69.8519 51.3595 69.313 51.3796 65.6595 51.3796C61.09 51.3796 61.0406 51.3737 60.5279 50.7693C60.0223 50.1732 60.0221 49.2719 60.5275 48.676C61.0364 48.0761 61.0567 48.0737 65.6369 48.0692C69.3146 48.0657 69.8518 48.0853 69.9956 48.2279ZM76.6773 48.2279C76.8094 48.3591 76.8413 48.6499 76.8413 49.7224C76.8413 50.795 76.8094 51.0858 76.6773 51.2169C76.5452 51.348 76.252 51.3796 75.1709 51.3796C74.0898 51.3796 73.7967 51.348 73.6645 51.2169C73.4242 50.9785 73.4242 48.4664 73.6645 48.2279C73.7967 48.0969 74.0898 48.0652 75.1709 48.0652C76.252 48.0652 76.5452 48.0969 76.6773 48.2279ZM89.4338 48.3306C89.9816 48.7365 90.1525 49.0674 90.1525 49.7224C90.1525 50.3774 89.9816 50.7084 89.4338 51.1143C89.1553 51.3207 89.002 51.3288 84.8313 51.3571C80.987 51.3831 80.4986 51.3682 80.3495 51.2201C80.2134 51.0851 80.1822 50.806 80.1822 49.7224C80.1822 48.6388 80.2134 48.3598 80.3495 48.2247C80.4986 48.0767 80.987 48.0618 84.8313 48.0878C89.002 48.1161 89.1553 48.1241 89.4338 48.3306ZM40.1985 49.9931C39.3673 50.3017 38.923 50.5878 38.2732 51.2325C37.2619 52.2358 36.7511 53.3974 36.7511 54.6941C36.7511 55.9908 37.2619 57.1524 38.2732 58.1557C39.2845 59.1591 40.4554 59.6657 41.7624 59.6657C43.0694 59.6657 44.2403 59.1591 45.2516 58.1557C45.9152 57.4974 46.1904 57.0686 46.509 56.1964C46.9867 54.8888 46.7864 53.2809 45.9987 52.0986C45.6834 51.6253 44.8556 50.8041 44.3786 50.4913C43.1915 49.7128 41.497 49.5109 40.1985 49.9931ZM42.4232 53.1782C43.4958 53.6228 43.7573 55.018 42.9231 55.8456C41.7502 57.0093 39.8281 55.967 40.1367 54.3346C40.3211 53.3595 41.465 52.7809 42.4232 53.1782ZM69.9956 54.8568C70.1351 54.9953 70.1596 55.3724 70.1596 57.3818C70.1596 60.2077 70.1593 60.2084 69.2546 59.7152C68.2642 59.1752 66.8997 58.0133 66.1356 57.0595C65.7361 56.5609 65.2695 55.9005 65.0986 55.592C64.6014 54.6944 64.6021 54.6941 67.4505 54.6941C69.4759 54.6941 69.856 54.7184 69.9956 54.8568ZM76.6806 54.8601C76.8298 55.008 76.8448 55.4926 76.8186 59.3064C76.7901 63.4442 76.7819 63.5963 76.5739 63.8726C76.1647 64.4161 75.8311 64.5856 75.1709 64.5856C74.5107 64.5856 74.1771 64.4161 73.768 63.8726C73.5599 63.5963 73.5518 63.4442 73.5232 59.3064C73.497 55.4926 73.5121 55.008 73.6613 54.8601C73.7974 54.7251 74.0787 54.6941 75.1709 54.6941C76.2632 54.6941 76.5444 54.7251 76.6806 54.8601ZM85.4022 54.8494C85.5561 55.0333 85.4494 55.3454 85.0076 56.0039C83.9834 57.5305 81.9394 59.4083 80.7855 59.8824C80.2093 60.1191 80.1822 60.0064 80.1822 57.3818C80.1822 55.3724 80.2067 54.9953 80.3462 54.8568C80.5858 54.6192 85.2039 54.6124 85.4022 54.8494ZM49.9505 66.4573C50.1908 66.6958 50.1908 69.2079 49.9505 69.4464C49.8023 69.5933 47.5511 69.6091 26.7286 69.6091C5.9061 69.6091 3.65489 69.5933 3.50664 69.4464C3.26631 69.2079 3.26631 66.6958 3.50664 66.4573C3.65489 66.3104 5.9061 66.2946 26.7286 66.2946C47.5511 66.2946 49.8023 66.3104 49.9505 66.4573ZM49.9505 73.0862C50.0976 73.2323 50.1145 74.4121 50.1145 84.524C50.1145 94.636 50.0976 95.8158 49.9505 95.9619C49.8023 96.1088 47.5511 96.1246 26.7286 96.1246C5.9061 96.1246 3.65489 96.1088 3.50664 95.9619C3.35954 95.8158 3.34262 94.636 3.34262 84.524C3.34262 74.4121 3.35954 73.2323 3.50664 73.0862C3.65489 72.9392 5.9061 72.9235 26.7286 72.9235C47.5511 72.9235 49.8023 72.9392 49.9505 73.0862ZM10.1883 76.4007C10.0421 76.5459 10.0243 77.4252 10.0243 84.524C10.0243 91.6229 10.0421 92.5022 10.1883 92.6474C10.4287 92.8859 12.9608 92.8859 13.2012 92.6474C13.3474 92.5022 13.3652 91.6229 13.3652 84.524C13.3652 77.4252 13.3474 76.5459 13.2012 76.4007C12.9608 76.1622 10.4287 76.1622 10.1883 76.4007ZM54.3823 76.5672C55.3494 77.1099 56.4582 77.8768 56.6326 78.1239C56.7781 78.3298 56.7962 79.3264 56.7962 87.0773C56.7962 94.8681 56.7787 95.8165 56.6322 95.9619C56.5 96.0929 56.2069 96.1246 55.1258 96.1246C54.0447 96.1246 53.7516 96.0929 53.6194 95.9619C53.4726 95.8161 53.4554 94.7831 53.4554 86.1428C53.4554 76.7076 53.4694 76.2379 53.7506 76.2379C53.7753 76.2379 54.0594 76.3862 54.3823 76.5672ZM96.7612 76.3622C96.8568 76.4571 96.8864 78.7705 96.8864 86.1428C96.8864 94.7831 96.8692 95.8161 96.7224 95.9619C96.5903 96.0929 96.2971 96.1246 95.216 96.1246C94.1349 96.1246 93.8418 96.0929 93.7096 95.9619C93.5631 95.8165 93.5456 94.8673 93.5456 87.0682C93.5456 78.5222 93.55 78.3318 93.7524 78.0765C93.8662 77.9331 94.1833 77.6777 94.4571 77.5088C94.731 77.3401 95.3039 76.9851 95.7304 76.72C96.5902 76.1854 96.5848 76.1873 96.7612 76.3622ZM61.9935 81.4015C62.6906 81.8649 63.3099 82.3345 63.3696 82.4451C63.4412 82.5779 63.4779 84.8742 63.4779 89.2226C63.4779 95.0631 63.4596 95.8173 63.3139 95.9619C63.0736 96.2003 60.5414 96.2003 60.3011 95.9619C60.155 95.8169 60.1371 94.9761 60.1371 88.2662C60.1371 80.4223 60.1379 80.4066 60.5619 80.5165C60.652 80.5399 61.2962 80.9381 61.9935 81.4015Z" fill="black"/>
</svg>
