<svg width="30" height="28" viewBox="0 0 30 28" fill="none" xmlns="http://www.w3.org/2000/svg">
<path fill-rule="evenodd" clip-rule="evenodd" d="M30 3.81818C30 3.12216 29.4772 2.54545 28.8462 2.54545H7.19351C7.1663 2.4014 7.14279 2.24286 7.11826 2.07748L7.11826 2.07746C6.98027 1.14696 6.81018 0 5.76923 0H1.15385C0.522837 0 0 0.576705 0 1.27273C0 1.96875 0.522837 2.54545 1.15385 2.54545H4.83173L8.02284 18.9119C7.96197 19.051 7.86652 19.2456 7.7567 19.4694C7.41106 20.1739 6.92308 21.1685 6.92308 21.6364C6.92308 22.3324 7.44591 22.9091 8.07692 22.9091H26.5385C27.1695 22.9091 27.6923 22.3324 27.6923 21.6364C27.6923 20.9403 27.1695 20.3636 26.5385 20.3636H9.95192C9.98566 20.2892 10.0219 20.2141 10.0586 20.1382C10.2178 19.8082 10.3846 19.4627 10.3846 19.0909C10.3846 18.7862 10.3126 18.4637 10.2432 18.1531C10.2084 17.9975 10.1743 17.8449 10.1502 17.6989L28.9724 15.2727C29.5673 15.1932 30 14.6364 30 14V3.81818ZM27.6923 25.4546C27.6923 24.0427 26.6646 22.9092 25.3846 22.9092C24.1045 22.9092 23.0769 24.0427 23.0769 25.4546C23.0769 26.8666 24.1045 28.0001 25.3846 28.0001C26.6646 28.0001 27.6923 26.8666 27.6923 25.4546ZM9.23067 22.9092C10.5107 22.9092 11.5384 24.0427 11.5384 25.4546C11.5384 26.8666 10.5107 28.0001 9.23067 28.0001C7.95062 28.0001 6.92297 26.8666 6.92297 25.4546C6.92297 24.0427 7.95062 22.9092 9.23067 22.9092Z" fill="#FDCF55"/>
</svg>
