<svg width="28" height="28" viewBox="0 0 28 28" fill="none" xmlns="http://www.w3.org/2000/svg">
<path fill-rule="evenodd" clip-rule="evenodd" d="M11.5331 0.015624C11.5179 0.0307956 11.3379 0.0560334 11.1331 0.0717156C10.4686 0.122482 10.1351 0.178719 9.46544 0.352974C8.84955 0.513224 8.55313 0.597471 8.38909 0.658887C8.30882 0.688975 8.14463 0.74875 8.02423 0.791785C7.90382 0.83482 7.66575 0.932961 7.49517 1.00988C7.3246 1.08679 7.10294 1.18574 7.0026 1.22972C6.90227 1.2737 6.70933 1.37414 6.57389 1.45288C6.43845 1.53162 6.20859 1.6651 6.06308 1.74949C5.18266 2.26022 4.18844 3.04215 3.57438 3.70682C3.4933 3.79464 3.32612 3.96893 3.20291 4.0942C2.76011 4.54436 2.13575 5.38689 1.74338 6.06367C1.66198 6.20408 1.52847 6.43385 1.44663 6.57426C1.36483 6.71467 1.26187 6.91161 1.21786 7.0119C1.17386 7.11219 1.07487 7.33375 0.997923 7.50425C0.920974 7.67475 0.822606 7.91272 0.779369 8.03307C0.736133 8.15342 0.659694 8.36677 0.609525 8.50718C0.447307 8.96127 0.188691 10.0312 0.120242 10.5313C-0.00195104 11.4242 -0.038948 13.0301 0.0462843 13.7407C0.105429 14.2337 0.154248 14.5724 0.19358 14.7618C0.212298 14.8521 0.245172 15.0162 0.266662 15.1265C0.305812 15.3279 0.315737 15.3669 0.447635 15.8377C0.529182 16.1287 0.73409 16.7262 0.85413 17.023C0.898753 17.1333 0.95819 17.2854 0.986211 17.361C1.15857 17.8258 1.83445 19.0257 2.25441 19.6124C2.49069 19.9425 2.87617 20.4335 2.97016 20.5241C3.00136 20.5542 3.10049 20.6688 3.19043 20.7787C3.40008 21.0349 3.88214 21.5168 4.13915 21.7271C4.24912 21.8172 4.3473 21.9005 4.35734 21.9123C4.36737 21.9242 4.54586 22.0689 4.75402 22.234C5.15391 22.5511 5.58343 22.8486 6.03571 23.1218C6.33447 23.3022 7.41209 23.8486 7.63178 23.931C7.70716 23.9593 7.90838 24.0345 8.07895 24.0982C8.24953 24.1619 8.45477 24.2388 8.53504 24.2691C8.66339 24.3175 8.84298 24.371 9.31949 24.5023C9.38973 24.5217 9.5375 24.5551 9.64787 24.5765C9.75824 24.598 9.92243 24.6306 10.0127 24.649C10.253 24.6979 10.5731 24.7501 10.9249 24.7977C11.3389 24.8537 13.5102 24.853 13.9168 24.7967C14.0874 24.7731 14.3336 24.7396 14.4641 24.7222C14.8821 24.6663 15.1561 24.6042 15.9053 24.3953C16.1846 24.3174 16.5593 24.1883 16.8722 24.0621C16.9826 24.0176 17.1345 23.9583 17.2099 23.9304C17.4257 23.8504 18.5038 23.3043 18.806 23.1219C19.1335 22.9242 19.5665 22.6361 19.7872 22.469C19.8754 22.4023 19.9859 22.3477 20.0327 22.3477C20.0968 22.3477 20.7721 23.0013 22.7644 24.9915C24.22 26.4457 25.4723 27.676 25.5473 27.7255C25.7965 27.8902 26.1668 28.0006 26.468 28C26.903 27.9992 27.2159 27.8652 27.5405 27.5407C27.8651 27.2163 27.9992 26.9034 28 26.4686C28.0006 26.1676 27.8901 25.7975 27.7254 25.5484C27.6758 25.4734 26.445 24.2217 24.9902 22.7667C22.9991 20.7753 22.3451 20.1003 22.3451 20.0362C22.3451 19.9894 22.3998 19.879 22.4665 19.7909C22.6337 19.5702 22.9219 19.1374 23.1197 18.81C23.3022 18.508 23.8486 17.4304 23.9286 17.2147C23.9565 17.1393 24.0158 16.9874 24.0604 16.8771C24.3027 16.2768 24.5713 15.3612 24.6486 14.8712C24.6693 14.7409 24.7013 14.5439 24.7199 14.4336C24.82 13.8405 24.8383 13.5296 24.8383 12.4277C24.8383 11.1968 24.8071 10.8036 24.6475 10.0207C24.6291 9.93043 24.5965 9.76632 24.575 9.656C24.5359 9.45461 24.5259 9.41544 24.394 8.94483C24.3156 8.66484 24.186 8.28956 24.0604 7.97836C24.0158 7.86804 23.9565 7.71614 23.9286 7.64079C23.8485 7.42485 23.3021 6.34727 23.1196 6.04544C22.8464 5.59335 22.5487 5.16402 22.2315 4.76431C22.0663 4.55625 21.9215 4.37783 21.9096 4.36781C21.8978 4.35778 21.8144 4.25963 21.7244 4.14971C21.514 3.89282 21.0318 3.41097 20.7755 3.20141C20.6655 3.11151 20.5509 3.01242 20.5208 2.98124C20.4302 2.88729 19.9389 2.50199 19.6087 2.2658C19.0217 1.84603 17.8213 1.17046 17.3563 0.99817C17.2807 0.970161 17.1285 0.91075 17.0181 0.866147C16.7212 0.74616 16.1235 0.541343 15.8323 0.459832C15.3613 0.327992 15.3223 0.318072 15.1208 0.278939C15.0105 0.257458 14.8463 0.224708 14.756 0.206108C14.5577 0.165298 14.1545 0.107019 13.7344 0.0584405C13.3425 0.0131444 11.57 -0.0213569 11.5331 0.015624ZM13.6979 3.19372C13.8283 3.21396 14.0417 3.24733 14.1722 3.26786C14.6542 3.34372 15.6404 3.63679 16.0749 3.83326C16.1823 3.88184 16.3523 3.95755 16.4526 4.0015C16.5529 4.04548 16.75 4.14829 16.8904 4.23002C17.0309 4.31171 17.2336 4.42948 17.3409 4.49173C17.9937 4.87044 19.163 5.91181 19.7407 6.62896C20.2607 7.27452 20.7722 8.14386 21.0604 8.87188C21.1001 8.97218 21.1673 9.13629 21.2097 9.23659C21.2521 9.33688 21.3109 9.5092 21.3404 9.61952C21.3698 9.72985 21.4282 9.9432 21.4702 10.0936C21.7301 11.0251 21.8274 12.2102 21.7307 13.2666C21.6773 13.8489 21.6386 14.0694 21.465 14.7801C21.3712 15.1636 21.2764 15.4604 21.0832 15.975C20.9965 16.2058 20.5764 17.0237 20.382 17.34C20.2181 17.6066 19.7287 18.2798 19.602 18.4127C19.5754 18.4407 19.4798 18.5536 19.3896 18.6636C19.1808 18.9182 18.9142 19.1847 18.6594 19.3934C18.5494 19.4836 18.4365 19.5791 18.4085 19.6057C18.2755 19.7323 17.6019 20.2216 17.3352 20.3854C17.0189 20.5796 16.2005 20.9996 15.9697 21.0863C15.3069 21.3348 14.7567 21.4931 14.1357 21.6137C12.847 21.8641 11.2949 21.8102 10.0857 21.4731C9.9352 21.4312 9.72176 21.3728 9.61138 21.3433C9.50101 21.3139 9.33274 21.257 9.2374 21.217C9.14206 21.1769 8.97787 21.1097 8.87253 21.0677C8.12099 20.7679 7.25819 20.2605 6.61968 19.7429C5.89572 19.156 4.85512 17.9894 4.48132 17.3456C4.41904 17.2383 4.29932 17.0336 4.21522 16.8906C4.13116 16.7476 4.03257 16.5506 3.9962 16.4529C3.95982 16.3553 3.8967 16.2015 3.85598 16.1112C3.81522 16.021 3.75436 15.8829 3.72072 15.8043C3.55869 15.4262 3.32298 14.6036 3.25997 14.1965C3.24136 14.0762 3.20678 13.8546 3.18313 13.7042C3.1268 13.3458 3.12632 11.5139 3.18248 11.1513C3.20579 11.0008 3.24016 10.8039 3.25884 10.7136C3.27756 10.6234 3.30405 10.4839 3.31769 10.4036C3.35878 10.1622 3.58853 9.40355 3.75134 8.97185C3.87754 8.6372 4.37664 7.69185 4.61325 7.33937C5.35247 6.23811 6.22847 5.3625 7.33022 4.62361C7.68286 4.3871 8.62862 3.88822 8.96342 3.76207C9.39531 3.59934 10.1543 3.36969 10.3958 3.32862C10.4761 3.31498 10.6157 3.2885 10.706 3.26979C10.7963 3.25112 10.9898 3.22184 11.1361 3.20477C11.2823 3.1877 11.413 3.16268 11.4265 3.14919C11.4631 3.11261 13.4232 3.15105 13.6979 3.19372Z" fill="#FDCF55"/>
</svg>
