<svg width="263" height="364" viewBox="0 0 263 364" fill="none" xmlns="http://www.w3.org/2000/svg">
<path d="M121.134 358.212C131.083 360.707 140.026 358.87 148.71 355.023C151.154 353.931 153.095 352.145 154.741 350.066C155.833 348.696 156.873 347.292 157.688 346.218C161.934 345.161 165.834 344.242 169.699 343.202C174.639 341.868 179.197 339.666 183.443 336.789C186.494 334.727 189.561 332.699 192.699 330.81C194.397 329.787 195.229 328.314 195.281 326.511C195.35 324.241 195.16 321.97 194.917 319.717C194.414 315.159 194.449 310.635 195.558 306.146C197.17 299.577 200.723 294.759 207.327 292.506C210.967 291.258 214.554 289.889 218.177 288.571C218.506 288.45 218.87 288.415 219.182 288.277C225.352 285.798 231.54 283.389 237.658 280.789C247.866 276.456 253.933 268.328 257.52 258.223C259.878 251.602 260.918 244.669 261.871 237.719C262.807 230.925 262.876 224.096 262.963 217.267C263.136 203.575 262.703 189.917 261.715 176.277C260.744 162.637 258.907 149.1 255.666 135.789C254.886 132.566 253.881 129.376 252.841 126.222C249.877 117.261 244.175 110.346 236.791 104.644C232.632 101.437 228.541 98.1094 224.659 94.591C221.556 91.7832 218.471 88.8368 215.958 85.5263C210.395 78.1602 206.911 69.7542 205.195 60.6721C204.779 58.4536 204.831 56.1312 204.848 53.8607C204.883 50.0129 205.039 46.1479 205.23 42.3001C205.351 39.9257 204.744 37.8458 203.323 35.9046C199.839 31.2249 195.905 27.0826 190.965 23.9109C184.032 19.4565 176.944 15.2621 169.37 12.0037C162.263 8.95325 154.793 6.97739 147.184 5.66016C138.553 4.18692 129.922 2.71368 121.221 1.70844C108.326 0.217865 95.3443 -0.579376 82.3799 0.495209C74.7192 1.13651 67.0757 2.34973 59.6576 4.53357C46.5199 8.38129 33.6248 12.8357 21.8737 20.0631C15.8595 23.7722 10.3999 28.1052 6.22283 33.9114C3.64036 37.5165 1.69918 41.4336 0.555267 45.6799C0.0699694 47.4998 -0.0513508 49.4756 0.0179775 51.3821C0.347287 59.4416 0.8672 67.4837 1.21384 75.5258C1.64714 86.2023 1.88981 96.8961 2.37511 107.573C2.79108 116.845 3.48437 126.101 3.90034 135.373C4.16032 141.145 4.16033 146.934 4.28165 152.723C4.5243 165.34 4.78427 177.941 5.02692 190.559C5.06158 192.656 4.99225 194.77 5.02692 196.867C5.06158 198.687 4.74961 200.213 3.24172 201.547C1.42185 203.159 1.14455 205.551 1.14455 207.856C1.10989 215.031 1.05785 222.224 1.21384 229.4C1.31783 234.305 1.71651 239.192 2.01115 244.08C2.63511 254.393 3.32835 264.723 3.86564 275.035C4.24695 282.384 4.36831 289.733 4.71495 297.081C5.20025 307.221 5.39091 317.395 7.21077 327.43C7.3321 328.123 7.43605 328.834 7.66137 329.475C9.82788 335.489 12.9823 340.897 17.5753 345.403C21.1284 348.887 25.3228 350.932 30.3491 350.534C34.1101 350.239 37.1432 351.591 40.1417 353.567C42.6202 355.196 45.168 356.756 47.7678 358.212C57.7511 363.758 67.8383 363.498 77.9429 358.506C78.5669 358.194 79.1562 357.778 79.7975 357.501C81.6693 356.704 83.5065 356.617 85.3263 357.726C86.5223 358.454 87.7355 359.148 88.9661 359.841C96.1936 363.845 103.889 364.625 111.896 363.203C115.432 362.545 118.465 360.829 121.134 358.212ZM6.36147 268.432C5.0269 267.184 5.37358 265.52 5.32158 263.995C4.74963 248.066 4.19498 232.121 3.67502 216.193C3.57103 212.882 3.623 209.572 4.52427 205.811C4.81892 206.799 5.0616 207.249 5.09626 207.735C5.33891 212.449 5.61623 217.181 5.75489 221.895C5.89354 226.8 5.78954 231.705 5.91087 236.593C6.13619 246.403 6.46548 256.212 6.70813 266.005C6.72546 266.837 6.41347 267.686 6.25748 268.536C7.54005 270.217 7.05479 272.193 7.10678 274.065C7.21078 277.375 7.14143 280.685 7.14143 283.996C7.14143 285.764 7.14143 287.532 7.14143 289.299C6.43082 285.642 6.44814 282.003 6.43081 278.346C6.39615 275.052 6.3788 271.742 6.36147 268.432ZM64.2159 184.284C63.2106 183.868 63.2973 182.933 63.124 182.101C62.4654 178.842 61.9281 175.566 61.0268 172.377C60.3855 170.124 58.9296 169.379 56.6591 169.361C54.354 169.344 52.4994 170.228 51.4768 172.308C50.6276 174.024 49.8303 175.826 49.3623 177.664C47.8718 183.643 47.0225 189.779 47.7331 195.897C48.4958 202.379 48.2531 208.844 48.3224 215.326C48.3571 218.238 48.6344 221.254 47.6984 224.096C45.5319 224.893 43.6254 226.072 41.1296 226.107C41.0603 223.663 40.9563 221.583 40.9563 219.486C40.9216 207.215 41.2509 194.961 41.5109 182.707C41.9789 161.163 41.7189 139.602 41.7362 118.041C41.7362 116.291 41.7189 114.523 41.5282 112.79C41.4416 111.975 40.9909 111.16 40.5576 110.432C40.107 109.67 38.6858 109.809 38.3391 110.588C38.1312 111.056 37.8712 111.542 37.8192 112.044C37.5419 114.661 37.1259 117.279 37.1086 119.878C37.0566 128.995 37.1259 138.094 37.1779 147.211C37.2299 155.617 37.4552 164.023 37.3686 172.429C37.1952 187.855 36.7272 203.263 36.5886 218.689C36.4846 229.382 36.5193 240.076 36.9006 250.753C37.2819 261.256 38.1658 271.725 38.8418 282.211C38.8765 282.713 38.9111 283.302 39.1711 283.701C39.4138 284.065 39.9857 284.446 40.4017 284.446C40.835 284.429 41.5109 284.048 41.6322 283.684C41.9269 282.696 42.1176 281.639 42.1002 280.616C41.8229 269.056 41.4936 257.495 41.1643 245.952C41.0256 240.891 40.9563 235.83 41.3376 230.284C43.5388 230.145 45.0986 227.944 47.6984 228.689C47.8718 234.27 48.0971 239.643 48.1664 245.033C48.2011 247.824 47.7851 250.632 47.8718 253.422C48.0451 258.847 48.1491 264.307 48.7904 269.679C49.3103 274.099 49.033 278.398 48.617 282.765C48.1491 287.722 46.4332 291.917 42.3948 295.019C39.0844 297.549 37.7499 301.051 37.7499 305.141C37.7499 306.874 37.6632 308.607 37.6112 310.514C29.5864 313.946 21.1458 315.661 13.225 319.145C12.9304 318.331 12.6184 317.88 12.6184 317.412C12.445 310.41 12.3064 303.39 12.1851 296.388C12.1677 295.73 12.4277 295.071 12.6357 293.962C13.8143 295.504 14.6809 296.787 15.6861 297.931C17.7313 300.253 20.5391 300.496 23.3816 300.548C25.9294 300.583 27.6453 299.213 28.9278 297.151C29.3265 296.492 29.3958 295.92 28.6505 295.452C28.4772 295.522 28.3039 295.556 28.1652 295.66C27.7493 295.972 27.3333 296.302 26.9347 296.631C24.5255 298.676 22.411 298.832 19.8978 297.081C18.1299 295.834 16.882 294.135 16.2234 292.09C15.7901 290.773 15.5128 289.403 15.1662 288.017C14.2649 287.93 13.4676 287.861 12.393 287.757C12.3237 286.908 12.1677 286.076 12.1677 285.226C12.1504 281.379 12.1504 277.531 12.1851 273.666C12.445 253.335 11.7171 233.039 10.6425 212.726C9.91454 199.259 9.86254 185.758 9.44657 172.273C9.04793 158.789 8.68396 145.305 8.14667 131.838C7.55738 116.967 6.76013 102.096 6.11884 87.2249C5.7722 79.3561 5.52957 71.47 5.26959 63.5839C5.23493 62.5613 5.40824 61.5214 5.47757 60.4468C10.6772 56.3911 15.8074 52.4394 21.527 49.337C27.3853 46.1825 33.2782 43.0801 39.2751 40.2376C45.1333 37.4645 51.2689 35.402 57.5258 33.6515C63.9733 31.8489 70.5595 30.9477 77.1803 30.341C83.5932 29.7691 90.0754 29.7517 97.1815 29.4744C96.1936 28.7292 95.7429 28.1052 95.2056 28.0186C93.4724 27.7932 91.7046 27.6199 89.9714 27.6892C83.6798 27.9666 77.3883 28.4692 71.0794 28.6598C62.9334 28.8851 55.1339 30.653 47.4731 33.2702C44.8213 34.1714 42.1869 35.09 39.5351 35.9912C28.4945 39.7177 18.182 44.796 8.99597 52.0234C7.78273 52.9767 6.56945 53.9126 5.16555 55.0045C4.83624 54.2246 4.42032 53.7393 4.50698 53.3754C4.78429 52.3875 5.06161 51.2955 5.70289 50.5329C9.89725 45.5759 14.3342 40.8443 19.3952 36.7712C27.2466 30.4623 36.086 25.8694 45.5493 22.4896C47.1958 21.9003 48.8944 21.467 50.5236 20.843C51.1302 20.6004 51.6328 20.0458 52.1355 19.5951C52.2394 19.5085 52.2741 19.2312 52.2048 19.1098C52.0488 18.8499 51.8235 18.4513 51.5982 18.4339C50.9222 18.3646 50.1596 18.2952 49.5356 18.5032C46.0692 19.6991 42.4815 20.6524 39.2231 22.299C33.2782 25.2801 27.5239 28.6252 21.7523 31.9183C15.4608 35.506 10.0012 40.1337 5.32158 45.6799L5.09626 45.7319L5.46022 45.7492C4.76694 44.2587 5.52957 43.0454 6.18819 41.7975C10.1226 34.4834 16.0501 29.1277 22.8963 24.6734C33.4342 17.8272 45.064 13.3903 57.0058 9.88916C72.4313 5.34818 88.2728 3.80563 104.322 4.53357C118.153 5.15753 131.88 6.94272 145.503 9.35187C151.725 10.4611 157.844 11.8824 163.823 13.9449C174.517 17.654 184.206 23.2176 193.34 29.8037C194.05 30.3064 194.813 30.809 195.368 31.4676C195.836 32.0049 196.806 32.6288 195.957 33.4088C191.988 31.7276 188.209 29.821 184.24 28.5211C176.58 26.0427 168.815 23.8762 161.067 21.7097C159.473 21.259 157.74 20.6351 155.677 21.7617C156.509 22.2469 157.029 22.7149 157.636 22.8709C167.688 25.4361 177.221 29.4051 186.511 33.9461C190.913 36.0953 195.246 38.4178 199.458 40.9136C202.058 42.4562 201.711 44.6053 198.799 46.3558C195.974 45.0559 193.062 43.8427 190.255 42.4215C180.341 37.4125 169.855 34.1194 159.04 31.7276C147.722 29.2144 136.283 27.6719 124.74 26.8919C123.162 26.7879 121.585 26.7186 120.025 26.8746C119.54 26.9266 119.124 27.7239 118.673 28.1745C119.159 28.6078 119.575 29.2664 120.147 29.4397C120.961 29.6824 121.88 29.6131 122.746 29.6131C127.149 29.5957 131.499 30.0637 135.797 30.9303C141.292 32.0396 146.769 33.2008 152.245 34.3621C167.619 37.6205 182.005 43.4961 195.714 51.0702C197.066 51.8155 198.366 52.682 199.857 53.6006C199.909 55.6111 200.099 57.5177 199.978 59.4243C199.718 64.1385 199.285 68.8355 198.99 73.5499C198.279 85.4397 197.586 97.3294 196.945 109.219C196.408 119.376 195.94 129.532 195.472 139.672C194.934 151.405 194.345 163.122 193.912 174.856C193.426 187.993 193.115 201.131 192.664 214.269C192.456 220.404 192.127 226.523 191.797 232.641C191.745 233.611 191.416 234.582 191.173 235.709C185.228 233.351 179.561 231.116 173.859 228.863C173.859 228.187 173.807 227.493 173.859 226.8C174.309 220.855 174.933 214.928 175.21 208.983C175.817 195.152 176.25 181.321 176.77 167.49C176.805 166.623 176.926 165.739 176.996 164.872C177.464 158.945 178.053 153.017 178.365 147.072C178.937 136.223 179.179 125.355 179.855 114.523C180.289 107.538 181.121 100.571 182.057 93.6377C182.473 90.5353 183.512 87.5195 184.5 84.521C185.038 82.8918 185.8 81.228 187.568 80.656C188.92 80.4134 190.203 82.3372 191.572 80.3094C190.341 78.9748 189.093 77.6056 187.967 76.375C184.674 76.2017 182.698 77.6576 181.363 80.2054C179.249 84.2784 177.62 88.5248 176.926 93.0658C176.285 97.2082 175.904 101.402 175.332 105.562C173.876 116.152 173.165 126.811 172.836 137.488C172.42 150.799 172.143 164.11 171.796 177.438C171.692 181.286 171.553 185.151 171.432 188.999C171.137 198.445 170.825 207.908 170.548 217.354C170.461 220.162 170.461 222.97 170.34 225.76C170.15 230.301 169.907 234.859 169.664 239.4C169.56 241.463 169.976 243.387 170.773 245.224C172.091 244.895 172.437 244.115 172.541 243.213C172.819 240.596 173.044 237.979 173.339 235.362C173.443 234.409 173.651 233.455 173.859 232.277C177.117 233.594 180.046 234.738 182.941 235.969C185.8 237.182 188.955 237.789 191.52 239.851C191.572 240.822 191.659 241.671 191.659 242.537C191.399 260.407 191.433 278.294 190.393 296.146C190.22 299.04 189.197 301.189 187.031 302.905C185.8 303.893 184.431 304.708 183.201 305.678C182.767 306.007 181.918 306.319 182.473 307.203C185.263 307.533 186.858 304.708 189.717 304.326C190.047 308.971 190.081 313.27 189.111 317.741C188.279 317.377 187.62 317.152 187.031 316.823C179.925 312.906 172.403 310.115 164.517 308.243C150.668 304.95 136.629 303.026 122.434 302.298C117.183 302.021 111.931 301.692 106.679 301.38C105.813 301.328 104.825 301.414 104.114 301.016C101.255 299.421 98.4987 297.671 95.7083 295.972L95.9163 296.111C94.1657 296.076 92.4152 296.094 90.6646 295.99C85.7597 295.712 80.8894 295.348 76.1057 294.1C72.4487 293.147 69.9528 291.119 68.133 287.844C67.145 286.076 66.729 284.256 66.4864 282.384C65.1518 272.661 64.5279 262.868 64.1293 253.058C63.8 245.189 64.4932 237.269 63.436 229.417C63.2453 228.048 63.384 226.609 63.5573 225.223C63.6266 224.599 64.1119 223.957 65.1692 224.547C65.2385 225.119 65.2905 225.795 65.3772 226.471C65.4985 227.32 65.5158 228.256 65.8798 229.001C66.1398 229.521 66.9544 230.058 67.509 230.041C68.0289 230.024 68.6876 229.4 68.9822 228.88C69.3115 228.308 69.3809 227.528 69.3982 226.835C69.5889 218.065 69.8662 209.312 69.8662 200.542C69.8662 192.656 69.4675 184.77 69.4329 176.884C69.2942 148.84 69.2249 120.78 69.1209 92.7191C69.1209 90.9686 68.9649 89.218 68.7223 87.5022C68.6009 86.6182 67.9943 85.925 66.8851 85.977C66.7984 86.081 66.6077 86.185 66.6077 86.3063C66.4344 88.3861 66.3304 90.4833 66.0878 92.5458C64.7012 105.112 64.6666 117.747 64.4586 130.347C64.1986 147.176 64.5799 164.006 64.6319 180.835C64.6319 182.031 64.3026 183.21 64.1293 184.406C64.3026 184.666 64.5106 184.908 64.6492 185.186C64.6839 185.255 64.5452 185.428 64.4759 185.55C64.3546 185.099 64.2852 184.7 64.2159 184.284ZM182.715 327.673C183.114 328.678 182.49 330.48 181.727 331.156C178.608 333.947 175.99 337.483 172.004 339.06C167.654 340.793 163.321 342.942 158.381 342.284C156.665 342.058 155.313 342.838 154.187 344.034C153.476 344.797 152.713 345.559 152.107 346.409C148.259 351.677 142.799 354.312 136.681 355.647C133.284 356.374 129.8 357.137 126.265 356.478C125.086 356.253 123.821 356.184 123.232 354.78C122.677 353.48 121.55 353.601 120.632 354.208C119.471 354.971 118.431 355.924 117.356 356.842C114.6 359.217 111.411 360.43 107.771 360.569C103.508 360.725 99.348 360.361 95.4483 358.541C92.4325 357.137 89.5381 355.508 86.609 353.948C84.6158 352.891 82.6399 351.781 80.8201 350.794C77.7696 352.821 74.9965 354.641 72.2407 356.478C67.509 359.616 62.4654 359.754 57.1271 358.35C50.5756 356.617 45.2373 352.631 38.8418 349.13C41.1296 348.454 42.7242 347.916 44.3534 347.518C46.3986 347.015 48.4784 346.669 50.5062 346.149C51.1475 345.993 51.7195 345.525 52.2741 345.109C52.3781 345.022 52.2395 344.311 52.1008 344.277C51.4595 344.103 50.7489 343.861 50.1423 343.982C46.0346 344.831 41.8922 345.629 37.8365 346.721C34.7167 347.57 31.597 347.518 28.4598 347.518C26.8133 347.518 25.3401 346.98 24.0402 346.045C18.3726 341.902 11.7864 333.652 15.1488 323.166C17.5407 321.034 20.6084 320.185 23.5895 319.284C27.7666 318.019 32.0476 317.048 36.2246 315.748C41.4416 314.136 42.5855 314.154 41.4243 307.689C40.5403 302.853 42.0309 298.728 45.9306 295.556C49.813 292.384 51.7022 288.381 51.6329 283.216C51.4769 271.465 51.7022 259.731 51.6329 247.98C51.5289 230.977 51.2516 213.974 51.1476 196.971C51.1129 192.95 51.2689 188.912 51.5982 184.891C51.9101 181.043 52.7421 177.265 54.6313 173.816C55.1166 172.949 55.6365 171.927 57.2311 172.325C57.4564 173.001 57.8897 173.799 57.9591 174.613C58.3057 178.097 58.7043 181.598 58.7737 185.082C58.9123 192.448 58.8083 199.797 58.8603 207.163C58.947 217.51 58.895 227.857 59.2936 238.187C59.7269 249.73 60.0389 261.291 61.1655 272.817C61.6681 277.895 62.6387 282.869 64.3719 287.653C65.8971 291.865 68.7396 294.846 73.2459 295.816C77.1803 296.665 81.1147 297.619 85.1011 297.983C96.6269 299.005 95.4309 299.231 102.936 304.482C103.074 304.586 103.23 304.673 103.369 304.794C104.738 306.042 106.385 306.371 108.205 306.406C118.899 306.614 129.54 307.411 140.182 308.486C151.552 309.63 162.679 311.866 173.581 315.246C177.238 316.389 180.722 318.105 184.206 319.735C187.343 321.208 189.371 323.756 190.549 327.049C187.811 327.586 187.742 327.655 186.979 327.049C181.97 322.976 175.938 321.086 170.028 318.903C169.092 318.556 168.104 317.949 166.804 318.885C168.07 320.774 170.305 320.844 172.056 321.676C173.945 322.577 175.904 323.357 177.828 324.206C179.734 325.021 181.953 325.801 182.715 327.673ZM241.228 204.199C241.09 204.216 240.951 204.216 240.83 204.234C240.899 205.1 241.02 205.984 241.055 206.851C241.471 218.775 241.61 230.7 237.745 242.208C233.914 253.613 227.605 262.781 215.404 266.768C207.569 269.333 199.961 265.537 197.881 257.478C197.188 254.774 196.598 252.035 196.044 249.297C195.836 248.292 195.784 247.217 195.836 246.177C196.442 231.67 197.084 217.146 197.673 202.639C197.829 198.965 197.725 195.273 197.863 191.599C198.366 178.998 198.938 166.415 199.458 153.815C199.666 148.91 199.718 144.005 199.961 139.117C200.065 137.211 200.082 135.131 200.879 133.484C202.075 130.988 203.826 128.752 205.49 126.499C207.639 123.605 210.603 122.998 213.93 123.934C215.785 124.454 217.639 125.043 219.373 125.858C223.914 127.973 227.848 130.815 229.806 135.685C230.985 138.597 232.32 141.492 233.152 144.507C235.769 153.971 237.623 163.607 238.646 173.348C239.738 183.591 240.396 193.904 241.228 204.199ZM204.242 75.4564C205.316 77.2763 205.992 78.1082 206.339 79.0788C208.644 85.561 212.96 90.5873 217.899 95.111C222.544 99.3573 227.207 103.638 232.25 107.399C240.154 113.292 245.475 120.814 248.317 130.156C248.924 132.167 249.565 134.177 250.033 136.223C252.685 147.852 254.453 159.656 255.423 171.528C256.966 190.247 257.416 209 256.654 227.753C256.238 237.944 254.366 247.945 251.038 257.616C247.485 267.929 240.951 275.52 230.534 279.42C229.061 279.975 227.623 280.651 226.115 281.101C217.535 283.701 209.441 287.48 201.261 291.015C199.094 291.951 197.084 293.251 194.622 294.586C194.622 293.078 194.588 292.038 194.622 290.998C194.969 283.666 195.333 276.335 195.732 269.004C195.749 268.57 196.096 268.154 196.338 267.652C197.638 268.05 198.817 268.328 199.943 268.796C207.24 271.846 214.242 270.893 221.314 267.808C227.328 265.208 231.713 260.771 235.89 256.039C238.473 253.127 240.483 249.834 241.592 246.073C244.071 237.65 245.821 229.088 246.064 220.266C246.324 211.149 245.631 202.05 245.267 192.95C244.764 180.125 243.239 167.455 240.743 154.889C239.339 147.852 237.727 140.868 234.694 134.264C232.545 129.602 229.425 125.997 224.884 123.692C222.406 122.426 219.823 121.057 217.137 120.537C211.694 119.48 206.252 119.376 202.266 124.402C202.092 124.627 201.659 124.645 201.226 124.818C201.105 124.35 200.879 123.882 200.897 123.432C201.313 114.523 201.763 105.614 202.231 96.7055C202.248 96.4456 202.56 96.1855 202.751 95.9256C203.08 95.9949 203.566 95.9256 203.722 96.1335C208.384 101.94 214.294 106.342 220.066 110.9C220.932 111.576 221.539 113.015 223.099 112.426C223.983 112.096 223.428 110.866 221.574 109.098C220.932 108.491 220.204 108.006 219.598 107.365C216.079 103.708 212.492 100.103 209.112 96.3069C206.27 93.1178 204.519 89.2874 203.566 85.1104C202.907 82.2159 202.855 79.3214 204.242 75.4564ZM64.3719 193.02C64.5279 193.02 64.7012 193.037 64.8572 193.037C64.8918 202.258 64.9438 211.478 64.9612 220.699C64.9612 220.855 64.8399 221.046 64.7186 221.15C64.6492 221.219 64.4759 221.167 64.0426 221.167C63.8519 220.439 63.54 219.642 63.4706 218.827C63.3146 217.267 63.1933 215.707 63.2453 214.148C63.4533 208.411 63.7133 202.691 63.9906 196.954C64.0599 195.637 64.2332 194.337 64.3719 193.02ZM64.4586 189.744L64.5452 189.38L64.6319 189.744H64.4586Z" fill="#262626"/>
<path d="M95.691 295.955C98.2908 295.678 100.908 295.504 103.49 295.088C104.946 294.863 105.432 293.736 105.033 292.021C104.374 291.847 103.577 291.622 102.78 291.449C99.6947 290.842 96.4882 290.617 93.5591 289.577C87.3369 287.376 83.7838 282.956 83.9918 276.075C84.1305 271.187 84.3038 266.282 84.5291 261.395C84.8584 254.393 85.3611 247.425 84.9971 240.406C84.7545 235.865 84.9798 231.306 85.0317 226.748C85.0317 226.436 85.309 226.141 85.4477 225.847C93.9231 224.304 112.711 223.802 119.661 225.032C119.817 225.864 120.129 226.835 120.181 227.823C120.684 237.286 120.025 246.715 119.332 256.143C118.968 261.031 118.465 265.901 117.824 270.771C116.749 278.727 114.098 286.024 108.534 292.003C109.123 293.164 110.094 292.818 110.753 292.506C113.872 291.067 116.229 288.762 117.824 285.729C120.372 280.876 121.966 275.711 122.885 270.321C125.086 257.304 125.086 244.167 124.67 231.029C124.428 223.334 124.116 215.638 123.786 207.925C123.578 203.211 123.11 198.497 123.076 193.782C122.989 182.049 123.058 170.315 123.093 158.581C123.093 156.83 123.301 155.08 123.388 153.347C123.422 152.653 123.44 151.96 123.318 151.284C123.162 150.348 121.862 149.516 120.857 149.846C120.302 150.019 119.627 150.608 119.471 151.145C119.176 152.133 119.159 153.208 119.107 154.265C118.535 170.211 118.569 186.139 119.453 202.067C119.8 208.185 119.835 214.321 119.973 220.439C119.973 220.751 119.748 221.08 119.505 221.687C119.003 221.739 118.361 221.912 117.72 221.878C109.141 221.479 100.579 221.115 91.9992 221.947C89.7807 222.155 87.4929 222.363 85.0664 221.652C84.9104 220.04 84.7718 218.498 84.6158 216.955C84.5638 216.435 84.6331 215.811 84.3731 215.413C84.0438 214.91 83.4719 214.529 82.9172 214.252C82.8132 214.2 82.1026 214.91 82.068 215.291C81.8773 217.389 81.756 219.486 81.704 221.583C81.496 228.932 81.392 236.281 81.132 243.629C80.7507 254.653 80.2481 265.676 80.0748 276.699C79.9361 285.382 85.3437 292.419 92.6232 294.742C93.7498 295.106 94.8244 295.66 95.9336 296.111L95.691 295.955Z" fill="#262626"/>
<path d="M164.725 119.428C162.177 119.636 161.605 119.965 161.362 121.3C161.275 121.82 161.241 122.34 161.223 122.86C160.755 135.633 160.01 148.407 159.889 161.181C159.75 177.126 160.149 193.072 160.253 209.017C160.287 214.269 160.201 219.521 160.149 224.772C160.149 225.448 159.941 226.107 159.802 227.06C157.428 226.661 155.261 226.245 153.06 225.968C150.634 225.656 148.19 225.413 145.746 225.223C143.51 225.049 141.274 224.963 138.865 224.842C138.761 219.347 138.83 214.113 139.177 208.896C139.437 205.048 139.662 201.201 139.836 197.353C140.113 190.871 140.356 184.406 140.546 177.924C140.633 174.942 140.598 171.961 140.546 168.98C140.442 162.671 140.321 156.363 140.148 150.071C140.096 147.991 140.321 145.877 139.558 143.918C138.328 143.606 137.704 144.282 137.6 145.166C137.236 148.476 136.837 151.787 136.768 155.097C136.595 164.561 136.699 174.024 136.439 183.487C136.092 196.278 135.399 209.052 135.052 221.826C134.931 226.54 135.364 231.272 135.555 236.003C135.572 236.333 135.659 236.714 135.849 236.991C136.005 237.234 136.335 237.511 136.595 237.529C136.872 237.546 137.357 237.338 137.444 237.113C137.756 236.315 138.068 235.483 138.137 234.651C138.328 232.572 138.38 230.492 138.484 228.516C143.805 227.303 153.753 228.603 159.82 231.237C159.872 231.809 160.01 232.502 159.993 233.178C159.941 239.834 160.097 246.507 159.733 253.145C159.161 263.44 159.109 273.805 156.925 283.979C156.041 288.121 154.741 292.073 151.829 295.331C152.713 296.579 153.701 295.851 154.499 295.4C156.405 294.326 157.497 292.523 158.416 290.599C160.617 285.92 161.397 280.893 161.969 275.85C163.182 264.879 163.477 253.855 163.702 242.815C164.291 216.002 164.031 189.189 163.893 162.359C163.841 152.029 164.586 141.7 164.932 131.387C165.036 128.406 165.123 125.425 165.123 122.461C165.158 121.421 164.863 120.416 164.725 119.428Z" fill="#262626"/>
<path d="M82.2586 200.958C83.9398 201.547 85.0491 201.183 85.4304 199.727C85.7771 198.393 85.9503 196.971 85.985 195.585C86.1237 188.756 86.2624 181.927 86.245 175.098C86.2104 164.058 86.453 153 85.8117 141.994C85.0145 128.163 85.3264 114.332 85.1011 100.501C84.9798 93.1524 85.1878 85.8036 86.0717 78.4721C86.557 74.3471 88.2382 70.7594 90.1448 67.2063C91.0114 65.5944 92.4152 64.6065 94.2351 64.1732C99.6947 62.8906 105.033 63.5839 110.25 65.2824C113.612 66.3744 115.935 68.7488 117.096 72.0766C118.188 75.1964 119.02 78.4201 119.939 81.6092C120.285 82.8225 120.701 83.9317 122.486 84.105C123.526 82.0425 123.284 79.7374 122.885 77.6402C122.365 74.9191 121.55 72.1806 120.389 69.6674C118.5 65.5251 114.6 63.6186 110.545 62.4053C104.634 60.6375 98.6028 59.8748 92.3805 61.1401C88.6368 61.9027 85.8811 63.7052 84.5118 67.2756C83.6279 69.5461 82.7613 71.886 82.328 74.2778C80.9241 82.2159 80.2135 90.2406 80.3348 98.3C80.4561 107.053 80.8721 115.805 81.0454 124.558C81.2707 135.928 82.0853 147.298 81.8947 158.685C81.7387 167.784 82.12 176.901 82.1893 186C82.224 189.848 82.016 193.696 81.9987 197.561C81.9813 198.722 82.172 199.901 82.2586 200.958Z" fill="#262626"/>
<path d="M27.3853 107.885C27.0386 108.422 26.4494 108.942 26.38 109.514C26.1894 111.247 26.1374 112.998 26.1547 114.748C26.2934 129.983 26.38 145.218 26.6573 160.453C26.8827 172.707 27.316 184.96 27.6799 197.214C27.9399 205.794 28.2519 214.356 28.4772 222.935C28.5292 225.171 28.8931 227.459 28.2519 229.625C25.0974 230.994 22.047 232.277 19.0659 233.681C18.1646 234.114 17.298 234.807 16.6567 235.57C16.2927 236.003 16.0848 236.991 16.3447 237.442C16.5354 237.806 17.6273 237.996 18.1299 237.806C19.5858 237.234 20.9551 236.419 22.3763 235.726C24.0922 234.877 25.7734 233.923 28.1305 233.906C28.4078 234.773 28.8931 235.691 28.9451 236.627C29.1531 240.648 29.3265 244.669 29.3611 248.708C29.4825 259.731 29.5344 270.771 29.6038 281.795C29.6211 283.857 29.6038 285.937 29.6038 288.467C30.3664 287.792 31.0944 287.462 31.2677 286.942C31.753 285.452 32.2036 283.909 32.3076 282.349C32.6369 277.982 32.9835 273.614 32.9835 269.246C32.9835 260.667 32.8102 252.087 32.5849 243.508C32.1169 226.003 31.5796 208.497 31.077 190.992C30.8517 182.95 30.6264 174.89 30.5051 166.848C30.4184 161.077 30.4877 155.305 30.4877 149.256C31.441 148.996 32.5502 148.684 33.7288 148.338C34.9074 146.015 34.3354 143.537 34.2141 141.145C33.7981 133.467 33.2608 125.771 32.8102 118.093C32.6889 116.169 32.7582 114.246 32.6716 112.322C32.6369 111.715 32.3596 111.126 31.857 109.41C30.5917 115.372 31.4063 120.225 31.337 125.061C31.2676 129.758 31.3197 134.472 31.3197 140.088C30.5224 139.03 30.0891 138.718 30.0718 138.389C29.7251 129.48 29.4478 120.554 29.1012 111.646C29.0318 110.311 29.1878 108.786 27.3853 107.885Z" fill="#262626"/>
<path d="M138.085 135.789C139.385 136.049 139.905 135.373 140.026 134.455C140.338 132.202 140.581 129.948 140.737 127.678C141.569 115.979 141.968 104.28 142.124 92.5458C142.176 88.0048 142.765 83.4811 143.216 78.9575C143.527 75.9243 144.689 73.2899 147.081 71.1754C151.5 67.2583 157.532 68.0556 160.409 73.2725C161.414 75.0751 162.09 77.1549 162.437 79.1828C162.887 81.7479 162.957 84.3997 162.991 87.0169C163.113 94.539 163.13 102.061 163.251 109.583C163.269 111.091 162.905 112.79 164.569 113.83C166.284 113.639 166.978 112.478 167.151 111.004C167.48 108.231 167.914 105.441 167.879 102.65C167.775 95.8389 167.584 89.0101 167.099 82.2159C166.926 79.6507 165.972 77.1029 165.123 74.6418C164.621 73.1859 163.754 71.7993 162.818 70.5514C159.386 66.0104 155.764 64.7105 150.408 66.5477C144.81 68.4715 140.789 72.1113 139.61 78.2815C138.622 83.4812 138.571 88.7327 138.657 93.967C138.813 104.297 138.882 114.61 138.033 124.922C137.721 128.545 137.392 132.219 138.085 135.789Z" fill="#262626"/>
<path d="M131.43 165.947C131.724 161.094 132.106 156.241 132.279 151.388C132.678 140.729 133.094 130.052 133.267 119.393C133.371 112.408 133.042 105.406 132.955 98.4214C132.92 95.4576 132.886 92.4938 133.024 89.53C133.406 81.1413 133.908 72.7699 134.324 64.3812C134.532 60.1868 135.139 56.0618 136.369 52.0581C135.659 51.2088 135.069 51.8501 134.584 52.2314C133.302 53.254 132.539 54.6059 132.331 56.2351C131.759 60.7415 130.823 65.2304 130.719 69.7541C130.424 82.5278 130.494 95.3016 130.407 108.058C130.32 122.929 130.234 137.8 130.147 152.671C130.13 156.345 130.095 160.02 130.13 163.694C130.13 164.526 130.407 165.34 130.546 166.172C130.823 166.086 131.118 166.016 131.43 165.947Z" fill="#262626"/>
<path d="M38.9631 101.784C40.1937 102.477 41.0603 102.338 41.4763 101.437C41.8403 100.674 41.8923 99.7732 42.0136 98.924C42.7242 93.915 43.0362 88.802 44.2494 83.9144C45.2027 80.0667 47.1092 76.4269 48.9118 72.8565C49.657 71.366 51.1129 70.1354 52.4648 69.0782C55.3419 66.7903 58.7564 66.825 61.6335 69.0435C62.2921 69.5461 62.8121 70.326 63.1934 71.0886C63.748 72.1806 64.0426 73.3938 64.5973 74.4684C64.7879 74.8497 65.6718 75.3177 65.7758 75.231C66.2438 74.8151 66.8851 74.1911 66.8505 73.6884C66.4692 67.9689 65.3599 66.5823 60.3162 64.8144C56.1912 63.3759 52.1355 63.8092 48.4785 66.825C43.0709 71.3313 40.367 77.3282 39.0325 83.9144C38.2005 87.9874 38.4432 92.2684 38.2006 96.4454C38.0966 98.3693 38.5645 100.189 38.9631 101.784Z" fill="#262626"/>
<path d="M138.38 251.1C137.375 249.02 138.969 246.732 137.253 244.704C136.733 245.103 135.919 245.38 135.745 245.883C135.243 247.356 134.844 248.898 134.705 250.441C133.943 258.968 133.215 267.496 132.574 276.023C132.383 278.623 132.4 281.275 132.556 283.874C132.834 288.797 134.757 293.043 138.501 296.284C139.784 297.394 141.396 298.208 142.99 298.867C143.666 299.144 144.654 298.78 145.469 298.572C146.11 298.399 146.37 297.22 145.902 296.822C145.503 296.492 145.087 296.163 144.637 295.903C140.858 293.788 138.813 290.391 137.86 286.37C137.184 283.511 136.681 280.512 136.751 277.583C136.924 269.905 137.444 262.244 137.86 254.167C139.35 254.809 140.408 255.346 141.517 255.675C141.898 255.797 142.678 255.537 142.817 255.225C142.99 254.878 142.817 254.063 142.522 253.838C141.274 252.902 139.922 252.105 138.38 251.1Z" fill="#262626"/>
<path d="M77.0243 72.0766C74.9618 74.6938 74.9444 76.6523 74.8231 78.5241C74.5631 82.1985 74.3032 85.873 74.3205 89.5474C74.4765 107.243 74.6845 124.939 74.9445 142.635C75.1524 157.004 75.4297 171.355 75.6897 185.723C75.7244 187.37 75.3777 189.103 76.3483 190.611C77.8736 190.368 77.7349 189.363 77.7349 188.565C77.6829 180.853 77.7696 173.14 77.4576 165.444C76.6777 145.305 76.5217 125.165 76.591 105.008C76.6084 98.0054 76.6777 90.9859 76.8336 83.9837C76.903 81.1933 77.2843 78.4028 77.4403 75.6124C77.4923 74.8151 77.267 74.0005 77.0243 72.0766Z" fill="#262626"/>
<path d="M194.154 96.3415C192.681 96.7922 192.699 98.1267 192.595 99.2533C192.127 104.488 191.624 109.705 191.364 114.956C190.879 125.095 190.497 135.235 190.168 145.374C189.96 151.839 189.943 158.321 189.804 164.786C189.718 168.807 189.509 172.828 189.388 176.849C189.371 177.698 189.457 178.565 189.544 180.263C190.393 178.998 191.121 178.409 191.173 177.768C191.433 174.804 191.468 171.823 191.641 168.859C192.283 158.373 193.08 147.904 193.6 137.419C194.068 128.163 194.241 118.891 194.588 109.618C194.709 106.29 194.986 102.98 195.142 99.6693C195.212 98.4907 195.437 97.2081 194.154 96.3415Z" fill="#262626"/>
<path d="M191.503 86.7222C191.121 86.8262 190.48 86.8262 190.307 87.0862C189.232 88.8714 188.019 90.6219 187.308 92.5631C185.402 97.6588 184.292 102.928 183.859 108.37C182.802 122.166 182.698 135.963 182.854 149.794C182.923 157.316 182.733 164.821 182.715 172.343C182.715 173.521 182.958 174.7 183.166 176.606C184.015 175.549 184.691 175.098 184.726 174.596C184.951 172.169 185.072 169.708 185.09 167.264C185.176 156.414 185.09 145.582 185.298 134.732C185.471 125.997 185.766 117.244 186.407 108.526C186.892 101.905 188.071 95.3536 191.069 89.2873C191.381 88.6634 191.572 87.9875 191.797 87.3115C191.815 87.2249 191.659 87.0515 191.503 86.7222Z" fill="#262626"/>
<path d="M172.143 256.386C170.722 255.883 169.786 256.178 169.456 257.408C169.092 258.76 168.85 260.147 168.728 261.533C167.983 270.442 167.03 279.333 167.48 288.277C167.619 291.067 167.966 293.858 168.538 296.596C169.006 298.849 169.976 300.999 172.42 301.848C172.923 302.021 173.599 301.692 174.292 301.57C171.293 294.464 171.137 294.256 171.241 286.041C171.311 280.616 171.796 275.208 172.073 269.783C172.264 266.109 172.437 262.435 172.559 258.76C172.559 257.946 172.264 257.114 172.143 256.386Z" fill="#262626"/>
<path d="M19.9671 129.688C19.7245 138.181 19.4125 147.956 20.1231 157.732C20.2271 159.101 20.6258 160.453 20.9724 161.787C21.0244 161.995 21.5097 162.238 21.7523 162.203C22.0296 162.169 22.3936 161.874 22.4803 161.614C22.6536 161.146 22.7229 160.609 22.7229 160.106C22.6536 152.601 22.5496 145.097 22.4803 137.592C22.4629 136.015 22.4283 134.437 22.6016 132.878C23.7975 122.062 23.1909 111.23 23.0522 100.397C23.0522 99.8773 23.0176 99.3573 22.9656 98.82C22.8616 97.7454 22.1163 96.8442 21.4923 97.0521C20.5391 97.3641 20.1231 98.1441 20.1231 99.0627C20.1058 101.853 20.1231 104.661 20.1924 107.451C20.3658 114.436 20.8857 121.421 19.9671 129.688Z" fill="#262626"/>
<path d="M121.862 91.6099C120.822 91.4712 120.32 91.9219 120.268 92.6845C120.077 95.9949 119.938 99.3053 119.834 102.616C119.557 112.564 119.297 122.53 119.072 132.496C119.037 134.056 119.089 135.633 119.332 137.176C119.401 137.609 120.302 138.042 120.892 138.181C121.221 138.25 121.932 137.782 122.053 137.401C122.365 136.413 122.59 135.373 122.59 134.351C122.694 122.288 122.764 110.224 122.833 98.1787C122.833 95.9082 122.712 93.6551 121.862 91.6099Z" fill="#262626"/>
<path d="M13.9702 65.2305C22.5843 60.4122 31.5969 57.691 40.5923 54.9352C45.4279 53.462 50.2982 52.0928 55.1339 50.6195C56.4338 50.2209 57.907 49.9263 58.323 48.1411C57.855 48.0371 57.335 47.7424 56.9191 47.8464C44.3013 51.2262 31.4756 53.93 19.3778 59.0603C17.454 59.8749 15.5994 60.8455 13.7969 61.8681C12.9303 62.388 13.017 63.5146 13.9702 65.2305Z" fill="#262626"/>
<path d="M21.0764 224.581C22.6709 224.893 23.4335 224.217 23.6588 223.091C23.9188 221.722 24.0575 220.318 24.0575 218.931C24.0575 213.87 24.0055 208.809 23.8842 203.748C23.6935 195.55 23.4335 187.352 23.1735 179.154C23.1389 178.183 22.8789 177.213 22.6709 175.93C21.995 176.52 21.423 176.78 21.319 177.161C21.0937 177.993 21.0417 178.877 21.0417 179.743C21.111 189.692 21.2324 199.641 21.2844 209.589C21.3017 213.073 21.1457 216.557 21.0764 220.058C21.0417 221.583 21.0764 223.108 21.0764 224.581Z" fill="#262626"/>
<path d="M180.289 54.7619C179.318 53.6007 178.833 52.6647 178.053 52.1621C177.048 51.5208 175.835 51.1742 174.691 50.7582C167.463 48.1584 160.08 46.1652 152.523 44.8306C150.148 44.4147 147.687 44.5013 145.261 44.4147C145.07 44.4147 144.741 44.8653 144.706 45.1426C144.671 45.4373 144.827 45.9052 145.053 46.0439C145.642 46.3732 146.283 46.6505 146.942 46.7892C157.324 49.0077 167.584 51.6595 177.724 54.8486C178.348 55.0392 179.058 54.8139 180.289 54.7619Z" fill="#262626"/>
<path d="M9.32527 101.091C9.32527 101.316 9.30794 101.662 9.32527 102.026C9.3946 102.876 9.32525 103.777 10.3305 104.21C11.0931 104.522 12.0811 103.656 12.2024 102.217C12.6184 97.6241 13.7449 93.2564 16.0848 89.2527C16.6047 88.3514 17.1247 87.4155 17.7833 86.6183C19.0312 85.0584 20.8164 85.0237 22.2896 86.4796C22.9136 87.0862 23.3469 87.8835 24.0228 88.4208C24.3348 88.6634 25.1147 88.6461 25.4787 88.4381C25.86 88.2301 26.2413 87.5889 26.2067 87.1729C25.9814 84.3824 24.1268 82.4932 21.5097 82.4759C17.974 82.4412 14.9582 83.5505 13.277 86.9822C11.1105 91.3672 9.51592 95.9776 9.32527 101.091Z" fill="#262626"/>
<path d="M181.138 299.525C182.299 300.357 183.079 299.612 183.461 299.005C184.292 297.705 185.038 296.284 185.471 294.811C187.395 288.433 187.828 281.847 188.054 275.226C188.071 274.723 188.002 274.134 187.742 273.735C187.499 273.337 186.996 272.886 186.58 272.886C186.182 272.869 185.523 273.285 185.402 273.649C185.124 274.446 185.09 275.33 184.968 276.179C184.24 281.691 184.344 287.306 182.993 292.731C182.438 295.019 181.762 297.289 181.138 299.525Z" fill="#262626"/>
<path d="M74.5979 286.37C74.7539 284.429 75.0138 282.887 74.9792 281.361C74.6672 269.16 75.0138 256.923 73.5926 244.791C72.05 244.791 71.9114 245.657 71.9287 246.559C72.05 250.216 72.2753 253.89 72.3447 257.547C72.5007 265.936 72.5873 274.324 72.7433 282.713C72.778 283.822 72.362 285.174 74.5979 286.37Z" fill="#262626"/>
<path d="M184.726 188.444C182.906 188.392 182.975 189.588 182.923 190.593C182.646 196.192 182.369 201.79 182.161 207.388C181.97 212.64 181.814 217.891 181.71 223.143C181.693 224.321 181.901 225.517 182.022 226.956C182.767 226.557 183.339 226.436 183.565 226.089C183.825 225.691 183.807 225.084 183.825 224.581C184.206 213.905 184.587 203.228 184.934 192.552C184.968 191.183 184.795 189.796 184.726 188.444Z" fill="#262626"/>
<path d="M109.123 119.341C108.239 119.411 107.459 119.237 107.009 119.549C105.865 120.346 104.79 121.265 103.837 122.288C98.932 127.522 94.079 132.808 89.226 138.077C88.7754 138.562 88.4981 139.204 88.2034 139.672C88.7927 141.11 89.6247 141.388 90.7686 140.677C90.9073 140.59 91.0633 140.469 91.1673 140.348C96.8348 133.917 102.52 127.505 108.17 121.057C108.499 120.676 108.673 120.156 109.123 119.341Z" fill="#262626"/>
<path d="M38.6165 62.232C37.2126 62.908 36.4673 63.0466 36.1034 63.4973C35.1328 64.6932 34.0755 65.9411 33.5036 67.345C30.7824 74.1218 30.2971 81.1066 31.9437 89.166C32.6543 87.6755 33.2262 86.9822 33.2782 86.2542C33.4342 84.0011 33.5383 81.7132 33.3823 79.4601C33.001 73.8098 34.6128 68.8008 37.8539 64.2252C38.0272 63.9305 38.0966 63.5666 38.6165 62.232Z" fill="#262626"/>
<path d="M129.558 191.2C129.436 192.379 129.263 193.557 129.211 194.736C129.038 199.242 128.882 203.748 128.795 208.255C128.761 209.797 128.917 211.357 129.124 212.9C129.159 213.212 129.887 213.714 130.164 213.645C130.546 213.541 131.1 212.986 131.1 212.622C131.152 205.863 131.135 199.086 131.083 192.326C131.083 191.928 130.65 191.529 130.424 191.131C130.13 191.165 129.835 191.183 129.558 191.2Z" fill="#262626"/>
<path d="M133.059 295.886C132.764 295.21 132.678 294.655 132.348 294.378C130.234 292.575 128.258 290.686 126.681 288.346C125.606 286.734 124.167 286.942 122.92 288.554C121.758 290.045 120.51 291.483 119.349 292.974C118.743 293.754 118.223 294.586 117.72 295.314C118.5 296.302 119.176 295.955 119.661 295.522C121.204 294.152 122.66 292.696 124.289 291.154C127.131 292.852 128.726 296.804 133.059 295.886Z" fill="#262626"/>
<path d="M188.643 245.172C188.036 245.553 187.308 245.761 187.066 246.229C186.684 246.974 186.476 247.876 186.459 248.708C186.303 252.677 186.199 256.663 186.147 260.632C186.147 261.083 186.494 261.533 186.684 261.967C187.1 261.863 187.603 261.863 187.69 261.672C189.007 258.778 189.596 249.158 188.643 245.172Z" fill="#262626"/>
<path d="M16.1714 122.825C14.5596 122.912 14.057 123.934 13.9876 124.922C13.7623 128.735 13.6583 132.548 13.6583 136.379C13.6583 136.829 14.4902 137.626 14.9235 137.626C15.4435 137.626 16.0328 136.985 16.4835 136.517C16.6914 136.309 16.6741 135.859 16.6914 135.529C16.7261 131.872 16.7607 128.233 16.7261 124.575C16.7087 123.951 16.3448 123.362 16.1714 122.825Z" fill="#262626"/>
<path d="M165.453 59.9096C168.728 63.6706 169.266 64.4506 170.098 68.9743C170.704 72.2327 170.895 75.5778 171.259 78.8709C171.363 79.8415 171.449 80.812 171.553 81.7653C172.784 81.696 173.027 80.8814 172.992 80.2748C172.715 75.2138 173.044 70.0662 171.293 65.2132C170.6 63.272 169.318 61.5561 168.278 59.7536C168.018 59.3723 167.931 59.407 165.453 59.9096Z" fill="#262626"/>
<path d="M94.0791 44.224C93.2992 44.1026 92.5192 43.7907 91.7566 43.86C86.505 44.328 81.1494 44.0506 75.3951 45.5239C76.1751 46.1998 76.5044 46.7198 76.8164 46.7025C81.8427 46.5812 86.8517 46.4425 91.878 46.1998C92.6579 46.1652 93.4205 45.5759 94.1831 45.2466C94.1484 44.9 94.1138 44.5706 94.0791 44.224Z" fill="#262626"/>
<path d="M37.4206 297.567C36.7619 297.428 36.2593 297.22 36.1726 297.341C35.6353 298.017 35.0807 298.711 34.7687 299.491C33.1222 303.581 29.8118 305.193 25.7388 305.678C24.3869 305.834 22.9829 305.695 21.6484 305.695C21.5097 306.839 22.0297 307.134 22.7576 307.273C25.6348 307.827 28.3732 307.203 30.9557 306.059C34.5087 304.517 37.1952 302.142 37.4206 297.567Z" fill="#262626"/>
<path d="M124.791 44.0507C124.254 43.7214 123.717 43.1321 123.162 43.1321C119.367 43.0974 115.571 43.1494 111.792 43.2534C111.428 43.2707 110.822 43.8253 110.787 44.172C110.752 44.5013 111.324 45.2119 111.636 45.2119C115.917 45.2466 120.233 45.5586 124.791 44.0507Z" fill="#262626"/>
<path d="M82.744 54.4326C82.432 54.4672 81.9987 54.3806 81.8427 54.5539C78.931 57.847 76.8684 61.5907 76.0365 65.9411C75.9672 66.3051 76.4005 66.981 76.7471 67.1197C77.0764 67.241 77.8737 66.9637 78.0124 66.6344C79.7456 62.8906 81.3921 59.1122 83.0387 55.3165C83.1427 55.1259 82.848 54.7445 82.744 54.4326Z" fill="#262626"/>
<path d="M115.467 11.0158C113.63 11.1891 113.075 11.085 112.694 11.293C108.898 13.3902 105.293 15.7474 101.983 18.4339C102.208 19.4911 102.953 19.8897 103.542 19.5951C107.615 17.6192 111.273 15.0368 115.467 11.0158Z" fill="#262626"/>
<path d="M47.1439 103.985C48.0798 105.354 48.9811 104.99 49.605 104.453C52.2395 102.2 54.7873 99.8426 57.3525 97.5027C57.4391 97.4161 57.3698 97.1734 57.3698 97.0001C54.6833 96.6361 52.7421 97.9707 47.1439 103.985Z" fill="#262626"/>
<path d="M73.1593 235.743C74.4592 230.006 74.4766 226.939 73.402 223.594C72.0154 225.223 72.0154 225.223 71.842 227.407C71.4607 232.398 71.5474 233.074 73.1593 235.743Z" fill="#262626"/>
<path d="M153.857 247.304C153.892 246.871 153.979 246.68 153.909 246.559C152.696 243.993 150.252 244.149 148.034 244.063C146.214 244.011 144.619 244.791 143.701 246.524C143.129 247.598 143.094 248.534 144.463 249.037C145.937 248.205 147.34 246.957 148.918 246.663C150.478 246.403 152.211 247.061 153.857 247.304Z" fill="#262626"/>
<path d="M163.39 293.598C159.976 295.314 159.144 298.451 156.873 300.115C157.462 301.189 158.086 301.241 158.676 300.739C159.837 299.716 160.946 298.624 162.073 297.549C163.927 297.74 164.257 300.704 166.596 300.045C166.683 299.768 166.926 299.404 166.822 299.231C165.782 297.463 164.69 295.712 163.39 293.598Z" fill="#262626"/>
<path d="M94.4431 141.838C95.3963 142.185 95.8469 142.497 96.0029 142.393C100.059 139.55 102.97 135.685 105.882 131.942C105.206 130.85 104.565 130.988 104.062 131.543C100.943 134.819 97.8575 138.164 94.4431 141.838Z" fill="#262626"/>
<path d="M103.092 260.632C101.948 257.651 99.7467 257.408 97.8401 257.426C95.2403 257.443 93.3338 258.882 92.5192 261.845C93.2818 262.001 93.9058 262.279 94.4951 262.227C94.9457 262.175 95.431 261.793 95.743 261.412C97.3029 259.558 99.1054 259.142 101.255 260.32C101.549 260.494 101.93 260.459 103.092 260.632Z" fill="#262626"/>
<path d="M154.204 180.922C151.535 180.159 151.518 180.177 144.359 185.151C145.399 185.463 146.266 186.035 146.942 185.862C149.906 185.151 152.193 183.366 154.204 180.922Z" fill="#262626"/>
<path d="M55.9831 108.197C52.638 109.566 50.1769 111.767 47.2651 115.545C47.7677 115.719 48.357 116.135 48.6517 115.979C51.8928 114.159 54.2846 111.49 55.9831 108.197Z" fill="#262626"/>
<path d="M150.53 279.039C150.79 278.172 151.171 277.618 151.032 277.288C149.524 273.683 145.815 272.626 142.609 274.879C142.314 275.087 142.262 275.746 142.297 276.196C142.314 276.387 142.817 276.682 143.094 276.699C143.579 276.716 144.134 276.63 144.567 276.439C146.682 275.468 148.19 276.04 149.247 278.068C149.386 278.311 149.75 278.467 150.53 279.039Z" fill="#262626"/>
<path d="M104.686 12.2117C103.906 11.5011 103.092 11.7784 102.294 12.177C99.2614 13.7196 96.9389 15.6434 95.639 17.6886C96.1416 17.8446 96.7136 18.2086 97.0949 18.0873C99.4694 17.2553 102.901 14.5342 104.686 12.2117Z" fill="#262626"/>
<path d="M104.825 143C104.704 142.878 104.582 142.739 104.444 142.653C104.305 142.566 104.114 142.514 103.976 142.532C103.646 142.583 103.23 142.601 103.005 142.809C100.908 144.837 98.8628 146.899 96.3669 149.378C97.6322 149.551 98.3601 149.898 98.8281 149.672C101.099 148.65 103.386 145.998 104.825 143Z" fill="#262626"/>
<path d="M19.2393 69.0955C21.1631 71.47 23.0003 73.7231 24.8202 75.9936C26.0854 76.011 26.2067 75.2137 25.9641 74.2778C25.2188 71.5393 23.2083 69.9621 20.8165 68.7835C20.4698 68.6102 19.8632 68.9568 19.2393 69.0955Z" fill="#262626"/>
<path d="M120.874 12.9223C120.666 12.1424 120.06 11.6397 119.367 11.8997C116.732 12.8703 114.358 14.2916 112.607 16.5447C112.468 16.7354 112.902 17.3766 113.196 18.1219C115.918 16.2674 118.483 14.5169 121.048 12.7837L120.874 12.9223Z" fill="#262626"/>
<path d="M146.977 95.3882C148.276 97.3467 149.368 97.1734 150.304 96.7401C152.089 95.9255 154.221 95.4576 155.175 93.0137C151.76 92.0778 149.871 94.6256 146.977 95.3882Z" fill="#262626"/>
<path d="M103.594 232.398C104.513 232.017 105.57 231.376 106.697 231.15C107.823 230.925 109.019 231.098 110.042 231.098C110.544 229.954 110.007 229.556 109.349 229.278C107.009 228.273 104.912 228.811 103.092 230.474C102.502 231.029 102.624 231.705 103.594 232.398Z" fill="#262626"/>
<path d="M20.8684 287.393C21.839 288.242 22.4803 288.745 23.0349 289.334C23.5895 289.906 24.0575 290.582 24.6121 291.241C26.172 289.421 26.4147 288.519 25.5827 287.514C24.3522 286.024 22.8963 286.18 20.8684 287.393Z" fill="#262626"/>
<path d="M183.045 268.848C180.843 266.248 178.989 266.022 177.186 267.998C176.996 268.206 176.909 268.657 176.978 268.934C177.065 269.194 177.377 269.454 177.654 269.593C177.949 269.732 178.33 269.783 178.642 269.714C180.081 269.454 181.502 269.142 183.045 268.848Z" fill="#262626"/>
<path d="M18.1646 266.924C18.5632 267.132 18.8579 267.392 19.1699 267.392C20.6951 267.426 22.2377 267.409 23.7282 267.409C24.1615 265.416 22.9136 264.931 21.7524 264.827C20.1925 264.705 18.5806 264.896 18.1646 266.924Z" fill="#262626"/>
<path d="M103.213 242.018C103.386 239.886 101.896 239.886 100.839 239.782C99.0014 239.608 97.1295 239.678 95.9683 242.26C97.4935 242.087 98.6201 241.896 99.764 241.862C100.908 241.827 102.034 241.948 103.213 242.018Z" fill="#262626"/>
<path d="M171.831 92.1125C173.963 89.4607 172.992 86.7915 172.108 84.1224C170.912 86.7569 171.311 89.426 171.831 92.1125Z" fill="#262626"/>
<path d="M94.6164 162.29C95.7603 162.29 96.5749 162.533 96.9909 162.238C98.1001 161.423 99.0707 160.401 100.041 159.413C100.232 159.222 100.18 158.806 100.249 158.512C99.764 158.442 99.1921 158.165 98.8108 158.338C97.1989 159.118 96.0723 160.436 94.6164 162.29Z" fill="#262626"/>
<path d="M121.048 12.7663C121.03 15.1234 121.914 15.9901 123.457 15.0195C124.428 14.4128 125.259 13.5636 126.663 12.4023C125.433 12.1597 124.826 11.865 124.306 11.969C123.145 12.1943 122.018 12.6103 120.874 12.9396C120.874 12.9223 121.048 12.7663 121.048 12.7663Z" fill="#262626"/>
<path d="M153.268 189.103C150.772 189.033 148.883 190.056 147.375 192.413C150.478 193.037 151.847 191.061 153.268 189.103Z" fill="#262626"/>
<path d="M40.7309 288C39.847 287.844 39.327 287.67 39.2577 287.774C38.4604 289.074 37.7498 290.426 37.0739 291.622C38.0618 292.904 38.8591 292.645 39.3271 291.778C39.8817 290.703 40.1937 289.49 40.7309 288Z" fill="#262626"/>
<path d="M150.599 99.9293C151.535 100.051 152.401 100.415 153.008 100.172C153.875 99.8253 154.585 99.028 155.331 98.3867C155.4 98.3174 155.383 98.0054 155.279 97.9188C155.036 97.7108 154.689 97.3641 154.481 97.4161C153.077 97.8147 151.448 97.9188 150.599 99.9293Z" fill="#262626"/>
<path d="M151.31 199.589C148.467 198.757 147.427 200.577 145.919 201.547C146.682 202.691 147.583 202.587 148.294 202.136C149.264 201.495 150.079 200.646 151.31 199.589Z" fill="#262626"/>
<path d="M104.929 265.035C106.662 265.468 108.257 265.866 109.955 266.3C110.406 264.723 109.349 264.463 108.482 264.116C107.147 263.613 105.865 263.492 104.929 265.035Z" fill="#262626"/>
<path d="M54.718 119.376C51.8929 119.029 50.125 119.809 49.5877 121.473C49.5357 121.629 49.9171 122.132 50.1077 122.132C52.1009 122.114 53.4355 121.04 54.718 119.376Z" fill="#262626"/>
<path d="M113.318 232.069C114.098 232.641 114.652 233.057 115.207 233.456C115.796 233.872 116.385 234.149 117.096 233.681C117.668 233.3 117.512 232.086 116.732 231.428C115.658 230.526 114.6 230.353 113.318 232.069Z" fill="#262626"/>
<path d="M95.2057 234.669C93.1778 234.513 92.3632 234.253 91.6353 234.426C90.682 234.651 89.6248 235.015 89.6074 236.333C89.6074 236.471 89.6768 236.662 89.7808 236.749C90.7687 237.632 91.6526 237.095 92.5192 236.541C93.0565 236.177 93.5765 235.795 95.2057 234.669Z" fill="#262626"/>
<path d="M148.935 265.19C148.051 264.411 147.722 263.995 147.306 263.787C146.214 263.267 145.07 262.972 143.978 263.839C143.891 263.908 143.822 264.133 143.874 264.255C144.377 265.78 145.781 265.364 146.855 265.589C147.271 265.693 147.791 265.433 148.935 265.19Z" fill="#262626"/>
<path d="M147.306 254.913C149.455 255.987 150.946 255.519 152.505 255.034C151.899 253.439 150.738 253.457 149.802 253.647C148.935 253.838 148.138 254.479 147.306 254.913Z" fill="#262626"/>
<path d="M90.7512 277.687C92.4324 277.687 93.8017 277.687 95.1709 277.687C95.5696 277.011 95.6562 276.387 94.8069 276.023C93.4377 275.434 92.0858 275.486 90.8379 276.3C90.6819 276.404 90.7859 276.924 90.7512 277.687Z" fill="#262626"/>
<path d="M21.1111 257.911C22.723 257.911 24.1962 257.911 25.7041 257.911C26.016 256.247 24.7508 256.282 23.8842 256.143C22.6363 255.935 21.5617 256.264 21.1111 257.911Z" fill="#262626"/>
<path d="M180.965 251.1C179.821 249.886 178.573 250.112 177.342 250.909C177.134 251.048 177.065 251.446 176.996 251.741C176.978 251.845 177.134 252.087 177.256 252.139C178.659 252.694 179.717 252.399 180.965 251.1Z" fill="#262626"/>
<path d="M100.388 273.354C102.762 273.354 104.045 273.354 105.501 273.354C103.802 271.326 103.282 271.274 100.388 273.354Z" fill="#262626"/>
<path d="M149.524 232.52C147.635 231.289 146.439 231.705 145.434 233.334C147.202 234.478 148.363 233.958 149.524 232.52Z" fill="#262626"/>
<path d="M22.9829 248.118C21.4577 246.697 20.539 247.2 19.6898 247.841C19.4818 247.997 19.3258 248.5 19.4124 248.742C19.4818 248.968 19.9844 249.228 20.2097 249.176C21.0244 248.933 21.8043 248.569 22.9829 248.118Z" fill="#262626"/>
<path d="M174.933 245.709C176.84 246.749 177.654 247.286 178.556 247.598C178.833 247.702 179.335 247.2 179.734 246.974C179.474 246.541 179.283 245.813 178.972 245.761C178.053 245.605 177.082 245.709 174.933 245.709Z" fill="#262626"/>
<path d="M25.4787 275.468C23.0002 273.874 21.891 274.411 20.5911 275.624C22.099 276.543 23.2429 275.798 25.4787 275.468Z" fill="#262626"/>
<path d="M176.302 285.469C178.694 285.469 179.855 285.469 181.086 285.469C180.219 283.354 180.081 283.337 176.302 285.469Z" fill="#262626"/>
<path d="M149.472 286.162C149.004 286.7 148.415 287.22 148.484 287.324C148.796 287.826 149.212 288.381 149.732 288.606C150.27 288.849 151.171 287.913 150.894 287.462C150.564 286.994 150.027 286.665 149.472 286.162Z" fill="#262626"/>
<path d="M112.33 256.455C112.607 256.594 112.902 256.906 113.162 256.871C113.751 256.784 114.306 256.524 114.878 256.351C114.687 256.074 114.566 255.71 114.323 255.554C113.612 255.138 113.006 255.433 112.52 256.004C112.416 256.108 112.382 256.282 112.33 256.455Z" fill="#262626"/>
<path d="M114.236 247.269C114.704 244.756 114.722 244.739 111.636 244.687C112.624 245.657 113.37 246.403 114.236 247.269Z" fill="#262626"/>
<path d="M155.331 273.111C155.851 272.713 156.197 272.435 156.544 272.175C156.076 271.777 155.608 271.049 155.123 271.049C154.655 271.049 154.187 271.759 153.719 272.175C154.239 272.47 154.759 272.782 155.331 273.111Z" fill="#262626"/>
<path d="M51.2862 131.335C51.2689 130.486 50.7489 130.139 50.0209 130.33C49.6223 130.434 49.3104 130.884 48.7557 131.335C49.4837 131.508 49.9343 131.682 50.385 131.682C50.6796 131.682 50.9742 131.456 51.2862 131.335Z" fill="#262626"/>
<path d="M48.6171 144.213C48.7731 144.178 48.9465 144.161 49.0851 144.091C49.8824 143.762 50.333 142.895 49.8304 142.653C49.4318 142.462 48.8945 142.549 48.4265 142.549C48.2879 142.549 48.1145 142.722 48.0452 142.843C47.9239 143.121 47.7159 143.502 47.8025 143.71C47.9238 143.953 48.3398 144.057 48.6171 144.213Z" fill="#262626"/>
<path d="M23.9882 240.839C23.2082 239.123 22.3243 239.886 20.8511 240.544C21.7177 240.908 22.0643 241.151 22.4109 241.151C22.8789 241.168 23.3469 240.978 23.9882 240.839Z" fill="#262626"/>
<path d="M177.533 260.892C177.256 260.788 176.788 260.511 176.736 260.58C176.476 260.875 176.337 261.273 176.164 261.637C176.458 261.672 176.84 261.828 177.048 261.689C177.273 261.568 177.377 261.187 177.533 260.892Z" fill="#262626"/>
<path d="M89.4688 249.332C90.2314 249.332 90.7513 249.47 91.1153 249.297C91.4273 249.141 91.5313 248.604 91.7392 248.24C91.3059 248.222 90.8206 248.084 90.4393 248.222C90.11 248.344 89.9021 248.794 89.4688 249.332Z" fill="#262626"/>
<path d="M181.866 241.22C183.582 241.22 184.483 241.22 186.06 241.22C184.604 239.834 183.669 239.73 181.866 241.22Z" fill="#262626"/>
<path d="M103.386 285.244C104.201 285.244 105.033 285.244 105.969 285.244C104.79 283.909 104.79 283.909 103.386 285.244Z" fill="#262626"/>
<path d="M93.8884 285.14C94.4431 285.192 94.9977 285.278 95.5523 285.261C95.7257 285.261 95.8643 284.914 96.0376 284.724C95.899 284.637 95.7777 284.464 95.6563 284.464C95.067 284.481 94.4951 284.55 93.9058 284.602C93.8884 284.776 93.8884 284.966 93.8884 285.14Z" fill="#262626"/>
<path d="M24.8374 294.066C24.2481 293.996 23.6762 293.892 23.0869 293.91C22.9136 293.91 22.7403 294.291 22.6016 294.516C22.5843 294.534 22.8442 294.811 22.9829 294.811C23.6069 294.794 24.2135 294.707 24.8201 294.655C24.8374 294.447 24.8374 294.256 24.8374 294.066Z" fill="#262626"/>
<path d="M21.1976 282.592C21.7523 282.367 22.1856 282.176 22.6189 281.985C22.3416 281.708 22.0816 281.24 21.7696 281.223C21.3363 281.188 20.8684 281.465 20.4177 281.621C20.6604 281.933 20.903 282.228 21.1976 282.592Z" fill="#262626"/>
<path d="M152.228 104.02C151.968 103.864 151.691 103.586 151.431 103.586C151.171 103.586 150.928 103.898 150.668 104.072C150.946 104.228 151.223 104.505 151.483 104.505C151.726 104.505 151.968 104.21 152.228 104.02Z" fill="#262626"/>
<path d="M26.7093 252.347C26.7093 252.226 26.7093 252.105 26.7093 251.983C26.2934 252.053 25.8774 252.122 25.4614 252.209C25.5828 252.33 25.7214 252.538 25.8427 252.538C26.1374 252.521 26.432 252.417 26.7093 252.347Z" fill="#262626"/>
<path d="M60.5415 299.057C59.9002 296.926 58.2363 296.908 56.7978 296.683C55.2206 296.423 53.7127 296.735 52.4301 297.809C52.1701 298.035 51.9275 298.277 51.7021 298.537C50.4369 299.941 50.1076 301.778 51.0609 302.125C52.5168 302.628 53.2621 301.57 53.9553 300.565C55.0646 298.936 56.5031 298.399 58.427 299.04C59.0163 299.213 59.7269 299.057 60.5415 299.057Z" fill="#262626"/>
<path d="M68.3409 324.172C68.8782 324.137 69.2769 324.241 69.5368 324.085C70.1088 323.738 70.7154 323.322 71.1314 322.82C72.2753 321.398 73.5752 321.086 75.2564 321.814C75.499 321.918 76.019 321.416 76.4003 321.19C76.1057 320.809 75.8977 320.254 75.5337 320.098C72.102 318.712 69.0515 319.89 67.925 323.028C67.821 323.322 68.2196 323.808 68.3409 324.172Z" fill="#262626"/>
<path d="M129.887 320.168C127.755 317.152 124.913 316.511 122.798 318.417C122.278 318.885 122.174 319.96 122.105 320.757C122.088 321.104 122.59 321.589 122.989 321.849C123.18 321.97 123.734 321.849 123.925 321.641C124.532 321.034 125.034 320.324 125.537 319.717C126.958 319.873 128.275 320.012 129.887 320.168Z" fill="#262626"/>
<path d="M94.339 309.075C94.4257 308.659 94.7723 308.018 94.599 307.775C92.6751 305.228 89.6767 304.448 86.8689 305.713C86.4356 305.904 86.089 306.372 85.8117 306.787C85.6557 307.013 85.6383 307.481 85.777 307.706C85.9156 307.949 86.4356 308.261 86.5742 308.174C89.2087 306.597 91.4619 307.827 93.7151 309.058C93.8364 309.127 94.0271 309.075 94.339 309.075Z" fill="#262626"/>
<path d="M96.5229 320.462C97.9095 320.358 99.244 320.133 100.561 320.168C101.757 320.202 102.953 320.566 104.149 320.688C104.357 320.705 104.738 320.289 104.79 320.029C104.842 319.769 104.669 319.336 104.461 319.18C101.878 317.412 99.2787 317.464 96.7482 319.249C96.5576 319.371 96.6269 319.838 96.5229 320.462Z" fill="#262626"/>
<path d="M26.1721 335.576C28.0786 334.796 29.2919 334.085 30.5918 333.808C31.701 333.583 32.9142 333.86 34.5781 333.929C32.5156 331.416 30.4011 331.364 28.1133 332.04C27.1774 332.335 26.7961 333.028 26.1721 335.576Z" fill="#262626"/>
<path d="M164.43 325.887C165.401 327.066 166.336 328.279 167.394 329.388C167.636 329.648 168.347 329.562 168.78 329.44C168.988 329.388 169.214 328.851 169.179 328.574C169.023 326.875 168.191 325.558 166.614 324.917C165.73 324.553 164.898 324.899 164.43 325.887Z" fill="#262626"/>
<path d="M82.4146 320.514C84.1998 320.618 85.8116 320.757 87.4408 320.757C87.6488 320.757 88.1341 319.839 87.9955 319.579C87.5275 318.573 86.5743 318.175 85.4824 318.14C84.0265 318.088 83.6971 318.331 82.4146 320.514Z" fill="#262626"/>
<path d="M113.37 324.899C114.462 325.697 115.345 326.425 116.333 327.031C116.94 327.413 117.703 327.395 118.032 326.65C118.188 326.286 118.015 325.645 117.755 325.298C117.009 324.31 115.935 323.773 114.687 323.964C114.271 323.998 113.924 324.483 113.37 324.899Z" fill="#262626"/>
<path d="M76.1577 331.382C78.7229 331.815 80.664 332.144 82.7612 332.491C80.5427 329.7 79.5721 329.492 76.1577 331.382Z" fill="#262626"/>
<path d="M133.388 319.544C136.439 320.393 138.328 319.925 140.2 319.752C138.328 317.932 136.456 318.296 133.388 319.544Z" fill="#262626"/>
<path d="M65.9491 308.555C64.0253 305.99 62.9853 305.904 60.1949 307.931C60.3855 308.139 60.5589 308.538 60.7495 308.538C62.4307 308.573 64.1119 308.555 65.9491 308.555Z" fill="#262626"/>
<path d="M75.8458 302.541C74.4246 300.687 73.2113 300.149 71.8594 300.409C71.0101 300.583 70.2649 301.259 68.809 302.09C71.4261 302.264 73.2114 302.368 75.8458 302.541Z" fill="#262626"/>
<path d="M179.959 329.388C178.452 328.557 177.828 328.071 177.134 327.898C176.788 327.811 176.025 328.158 175.904 328.47C175.574 329.371 176.372 329.544 177.013 329.596C177.654 329.631 178.296 329.51 179.959 329.388Z" fill="#262626"/>
<path d="M150.946 321.953C149.94 319.873 148.502 319.908 146.439 320.445C147.878 321.398 148.883 322.265 150.946 321.953Z" fill="#262626"/>
<path d="M87.1636 329.198C87.4582 328.557 87.7355 328.141 87.8395 327.69C87.9955 326.945 87.0595 326.338 86.0369 326.598C85.7076 326.685 85.2397 327.465 85.309 327.551C85.6557 328.037 86.1756 328.366 87.1636 329.198Z" fill="#262626"/>
<path d="M53.5393 316.268C52.9154 316.233 52.2394 316.043 51.6501 316.199C51.2688 316.285 51.0089 316.857 50.6969 317.204C51.0609 317.447 51.4075 317.845 51.8061 317.88C52.7594 317.967 53.4527 317.585 53.5393 316.268Z" fill="#262626"/>
<path d="M111.22 334.501C112.486 335.611 113.699 335.195 114.947 334.519C113.387 333.773 113.387 333.773 111.22 334.501Z" fill="#262626"/>
<path d="M142.574 333.479C142.522 333.323 142.505 333.15 142.436 333.011C142.002 332.162 141.274 331.832 140.425 332.127C140.148 332.231 139.818 333.149 139.94 333.305C140.512 333.947 141.309 334.172 142.158 333.756C142.314 333.687 142.436 333.583 142.574 333.479Z" fill="#262626"/>
<path d="M55.29 328.869C54.3194 327.257 53.1408 327.257 51.7022 328.019C52.7075 329.146 53.7474 329.718 55.29 328.869Z" fill="#262626"/>
<path d="M57.8551 330.03C57.9938 330.134 58.0977 330.29 58.2537 330.342C59.311 330.74 60.5936 330.186 60.6802 329.302C60.6976 329.18 60.6456 329.007 60.5589 328.938C59.8829 328.297 58.531 328.609 57.9937 329.544C57.8897 329.666 57.8898 329.856 57.8551 330.03Z" fill="#262626"/>
<path d="M114.219 316.511C114.15 316.407 114.098 316.251 113.994 316.199C113.214 315.835 112.468 315.765 111.862 316.511C111.792 316.597 111.81 316.84 111.879 316.961C112.191 317.499 113.439 317.499 114.063 316.979C114.15 316.875 114.167 316.667 114.219 316.511Z" fill="#262626"/>
<path d="M166.77 333.635C166.354 333.375 165.834 332.959 165.244 332.716C165.037 332.63 164.551 332.855 164.378 333.08C164.257 333.254 164.361 333.756 164.534 333.912C164.898 334.259 165.331 334.553 165.799 334.709C166.042 334.779 166.406 334.519 166.683 334.345C166.77 334.311 166.735 334.085 166.77 333.635Z" fill="#262626"/>
<path d="M43.5042 326.459C43.2095 326.598 42.9149 326.737 42.6202 326.875C42.9669 327.066 43.2962 327.343 43.6602 327.395C43.8682 327.43 44.1454 327.066 44.3881 326.875C44.1108 326.737 43.8162 326.598 43.5042 326.459Z" fill="#262626"/>
<path d="M94.9977 332.508C95.2923 332.63 95.5696 332.838 95.8469 332.803C96.0203 332.786 96.1762 332.456 96.3322 332.248C96.0549 332.144 95.7776 331.936 95.5003 331.954C95.327 331.988 95.171 332.318 94.9977 332.508Z" fill="#262626"/>
<path d="M246.879 161.475C245.891 163.105 246.445 164.613 246.671 166.086C247.884 174.405 248.958 182.725 249.6 191.113C250.38 201.252 250.414 211.409 250.605 221.566C250.761 230.353 250.085 239.019 247.45 247.39C249.218 248.517 250.085 248.552 250.536 247.564C250.761 247.096 251.021 246.611 251.073 246.108C251.61 240.527 252.425 234.963 252.563 229.382C252.91 214.841 252.407 200.299 251.298 185.792C250.796 179.154 249.946 172.551 249.166 165.947C249.028 164.751 248.594 163.573 248.161 162.446C248.005 162.065 247.399 161.857 246.879 161.475Z" fill="#262626"/>
<path d="M232.146 117.296C231.938 117.539 231.54 117.833 231.574 118.024C231.661 118.509 231.869 119.029 232.198 119.41C235.925 123.917 238.611 128.943 240.24 134.576C240.587 135.789 240.57 137.453 242.459 138.094C243.464 136.829 242.84 135.581 242.459 134.333C240.015 126.187 236.427 120.277 232.146 117.296Z" fill="#262626"/>
<path d="M227.709 276.89C223.827 276.838 220.759 279.16 217.241 279.767C213.67 280.373 210.117 281.067 206.356 281.743C206.703 282.245 206.997 282.991 207.223 282.973C214.138 282.401 221.019 281.639 227.189 278.034C227.415 277.895 227.449 277.479 227.709 276.89Z" fill="#262626"/>
<path d="M244.227 152.601C245.024 152.099 245.683 151.943 245.787 151.596C246.428 149.69 245.96 147.835 245.215 146.05C245.128 145.859 244.608 145.721 244.313 145.773C244.019 145.825 243.655 146.102 243.533 146.362C242.58 148.511 243.863 150.331 244.227 152.601Z" fill="#262626"/>
</svg>
