<svg width="239" height="267" viewBox="0 0 239 267" fill="none" xmlns="http://www.w3.org/2000/svg">
<path d="M147.75 184.936C141.365 182.06 135.46 179.401 128.879 176.46C129.598 179.532 130.317 181.798 130.622 184.108C130.927 186.265 130.993 188.51 130.818 190.689C130.579 193.739 130.361 196.855 129.511 199.754C128.051 204.809 126.351 209.821 124.303 214.658C121.557 221.108 118.398 227.362 115.216 234.095C113.909 233.572 112.667 233.289 111.708 232.614C109.943 231.35 108.374 229.868 106.217 228.038C104.517 234.945 101.205 240.349 97.3046 245.383C95.2999 247.976 92.9683 250.351 90.5932 252.617C88.9371 254.208 86.758 253.685 85.6249 251.637C84.6879 249.915 83.9035 248.107 83.1626 246.538C81.3104 245.84 80.4824 247.104 79.5018 247.845C75.9935 250.525 72.1802 252.683 68.1054 254.382C61.2414 257.237 58.5829 257.52 51.1524 255.82C48.5158 259.045 45.7702 262.423 42.7631 266.106C41.8261 265.495 40.5404 265.169 40.1918 264.384C38.9062 261.551 37.6641 258.828 34.4827 257.673C29.0133 252.443 24.263 246.756 22.4326 239.173C22.3236 238.737 22.2583 238.301 22.0839 237.909C22.0186 237.734 21.7789 237.604 21.4738 237.299C19.7306 237.124 17.813 236.928 15.4814 236.71C15.1328 235.25 14.4573 233.812 14.479 232.396C14.5662 226.403 13.5421 220.585 12.3872 214.745C11.9732 212.588 11.6245 210.409 11.4502 208.23C11.2976 206.313 11.4284 204.351 11.4284 201.998C9.85948 202.151 8.39952 202.39 6.93956 202.434C3.16981 202.521 1.73162 200.843 2.38533 197.182C2.62503 195.875 2.86472 194.589 3.16979 193.304C5.436 183.847 6.54733 174.281 6.28584 164.562C6.11152 157.437 6.6345 150.485 10.4478 143.774C9.16219 143.207 8.07266 142.51 6.89597 142.227C4.5426 141.682 2.16743 141.355 0.0755478 139.786C0.0755478 139.133 -0.120557 138.392 0.119138 137.869C0.467785 137.106 1.05612 136.387 1.70983 135.82C8.44309 130.046 13.6728 122.986 18.9897 115.969C21.3648 112.81 23.8925 109.759 26.5074 106.795C34.1123 98.2318 43.5475 92.283 54.1595 88.2518C57.3845 87.0315 60.9799 86.465 64.4446 86.2907C70.8074 85.942 77.192 85.942 83.4677 87.4673C84.5354 87.7288 85.7339 87.7506 86.6491 88.2736C91.334 90.9974 96.2805 90.7577 101.663 89.7336C102.425 88.4479 103.384 86.988 104.19 85.4408C114.367 65.7205 124.543 46.0001 134.675 26.2579C138.489 18.8274 142.258 11.375 146.05 3.94449C146.355 3.35615 146.551 2.70244 146.943 2.20126C147.88 0.959208 148.948 -0.173896 150.735 0.0222178C153.306 0.305494 155.158 1.72186 155.638 3.77016C156.117 5.7531 155.943 7.67066 155.093 9.56643C149.732 21.7037 148.621 34.5601 148.795 47.6344C148.839 51.1644 149.253 54.6509 150.648 57.9413C151.323 59.5102 152.565 60.36 154.308 60.1421C155.812 59.946 157.272 59.423 158.732 59.009C164.441 57.4619 170.128 55.7404 175.903 54.4112C184.859 52.3411 193.292 54.0625 201.398 58.2899C207.325 61.3624 212.489 65.4372 217.196 70.0568C220.508 73.3036 223.079 77.1604 224.822 81.5185C226.696 86.2035 228.57 90.9102 230.401 95.617C230.64 96.2053 231.011 97.0987 230.749 97.4692C229.464 99.3649 230.728 100.694 231.512 102.198C234.715 108.255 236.873 114.705 238.659 121.286C239.575 124.664 238.703 126.145 235.347 127.257C233.539 127.867 231.665 128.259 229.551 128.804C230.117 131.724 230.749 134.251 231.033 136.823C231.294 139.22 231.381 141.682 231.163 144.057C230.728 148.873 230.052 153.645 229.442 158.439C229.398 158.853 229.289 159.419 229.006 159.659C226.064 161.947 227.089 165.216 226.74 168.157C226.37 171.208 225.825 174.259 225.04 177.2C223.515 182.931 221.772 188.597 220.072 194.284C219.309 196.79 217.784 197.313 215.583 195.875C213.971 194.807 212.663 193.195 210.528 193.129C208.349 198.729 202.4 208.579 199.153 211.804C192.921 209.08 186.166 207.119 180.217 203.327C179.302 202.739 178.322 201.802 177.363 201.802C171.109 201.78 166.337 197.749 160.824 195.766C155.551 193.783 151.955 190.231 147.75 184.936ZM126.852 103.57C126.852 104.42 127.07 105.096 128.138 104.987C127.593 106.469 128.748 107.406 129.228 108.582C130.971 112.831 132.714 117.059 134.239 121.395C134.675 122.615 134.305 124.141 134.305 125.775C133.542 125.274 133.019 125.099 132.867 124.773C132.169 123.182 131.407 121.591 130.949 119.913C129.751 115.424 127.724 111.306 125.262 107.406C123.497 104.638 121.579 101.936 118.572 100.324C118.115 100.084 117.461 100.171 116.349 100.04C116.894 101.217 117.156 101.98 117.548 102.677C122.799 111.698 125.458 121.635 127.681 131.68C128.421 135.08 128.683 138.61 128.988 142.096C129.075 143.077 128.835 144.297 127.267 144.166C125.785 142.597 125.719 140.571 125.48 138.653C124.586 131.68 122.712 124.947 120.424 118.323C120.097 117.386 119.335 116.601 118.768 115.751C118.594 115.25 118.42 114.749 118.245 114.248C118.18 114.422 118.006 114.684 118.071 114.771C118.311 115.076 118.637 115.337 118.921 115.621C118.725 117.146 118.594 118.671 118.311 120.175C116.502 129.872 117.003 139.372 120.163 148.742C120.294 149.134 119.792 149.766 119.422 150.638C115.434 147.369 116.066 142.51 114.083 138.392C111.577 141.137 110.575 144.537 108.527 147.326C109.42 149.548 110.357 151.531 111.011 153.601C112.667 158.831 115.979 162.819 120.01 166.327C125.501 171.099 131.428 175.218 138.292 177.811C139.687 178.334 140.886 179.597 142.585 178.944C142.694 179.031 142.803 179.118 142.912 179.205C142.76 179.162 142.607 179.118 142.454 179.053C142.476 178.203 142.672 177.309 142.52 176.481C141.038 169.116 141.147 161.664 141.931 154.299C142.672 147.478 142.215 140.767 141.016 134.099C140.014 128.521 138.598 123.029 137.159 117.538C136.571 115.228 135.699 112.94 134.545 110.849C133.085 108.234 131.45 105.553 127.964 105.139C127.506 104.704 127.049 104.268 126.569 103.81L126.46 103.527L126.852 103.57ZM192.725 205.419C192.464 204.068 191.396 203.916 190.306 203.807C187.953 201.737 185.512 199.884 182.113 200.146C181.503 198.206 179.934 197.771 178.147 197.64L177.995 197.269L178.234 197.509C179.237 198.86 180.239 200.189 182.2 200.015C183.943 202.891 186.733 203.894 189.87 204.242C190.546 205.484 191.657 205.484 192.834 205.223C193.204 206.901 194.664 206.16 195.645 206.487C196.647 207.228 197.628 207.969 198.892 208.906C202.509 203.066 206.366 197.771 206.715 190.602C205.451 189.599 204.143 188.553 202.749 187.442C202.422 188.183 202.204 188.532 202.117 188.924C201.005 194.045 199.981 199.187 198.805 204.308C198.434 205.92 197.41 207.032 195.471 206.661C194.577 206.247 193.662 205.833 192.725 205.419ZM155.812 177.68C155.725 177.506 155.681 177.288 155.551 177.157C155.485 177.092 155.311 177.135 155.18 177.113C155.442 177.244 155.703 177.397 155.965 177.527C155.376 179.728 157.359 181.036 157.773 182.888C157.926 183.563 157.86 184.261 157.926 185.285C155.006 183.716 153.916 181.319 152.587 179.118C151.476 177.309 150.364 175.479 149.275 173.67C149.013 173.561 149.166 172.45 148.469 173.322C148.795 173.365 149.101 173.431 149.427 173.474C149.297 174.324 148.97 175.218 149.101 176.024C150.081 182.408 153.066 187.595 158.775 190.798C162.175 192.715 165.814 194.241 169.387 195.853C170.259 196.245 171.283 197.117 172.438 195.81C171.61 193.456 170.76 191.037 169.998 188.902C165.792 187.987 165.77 187.987 164.027 185.895C161.499 182.931 159.429 179.532 155.812 177.68ZM34.3737 230.456C30.9744 230.87 28.6864 233.246 26.0934 234.727C26.4202 243.966 30.7347 251.898 36.6835 254.361C37.4898 251.179 38.0345 247.911 39.1676 244.86C40.9327 240.131 41.0416 235.555 38.819 230.565C38.2742 231.459 37.6641 232.112 37.4898 232.875C37.1193 234.357 37.0322 235.904 36.7707 237.408C36.6182 238.323 36.1824 238.976 34.7442 238.715C34.6134 236.013 34.4827 233.224 34.352 230.435C34.5481 230.391 34.7442 230.369 34.9403 230.326C34.766 230.173 34.5917 230.021 34.4173 229.868C34.4173 230.064 34.3955 230.26 34.3737 230.456ZM133.433 69.4902C132.801 69.5774 132.039 69.4684 131.559 69.7953C123.192 75.6351 117.483 83.5451 113.909 93.0239C113.56 93.9391 113.865 95.0722 113.865 96.6847C121.034 96.0746 126.678 99.6482 132.692 102.742C133.39 101.697 134.305 100.912 134.545 99.9315C135.852 94.571 136.048 89.1016 135.808 82.7606C134.457 84.1988 133.542 85.0486 132.779 86.0292C130.492 88.9927 128.334 92.0216 126.024 94.9415C125.327 95.8131 124.281 96.2489 123.322 94.571C126.569 89.7771 129.903 84.8961 133.215 79.9714C134.436 78.141 135.699 76.3324 136.724 74.4149C137.159 73.5868 137.029 72.4755 137.159 71.4949C134.741 73.4779 133.085 75.7876 131.45 78.0756C130.295 79.6881 129.249 81.3442 128.007 82.8695C127.484 83.5233 126.613 83.9809 125.763 82.7606C126.635 79.6228 128.901 77.1822 130.579 74.3931C131.559 72.737 133.324 71.4949 133.324 69.3159C133.738 69.1852 134.719 69.4466 133.847 68.4879C133.695 68.8583 133.564 69.1851 133.433 69.4902ZM147.858 115.708C147.815 115.555 147.771 115.381 147.684 115.25C147.641 115.185 147.488 115.163 147.401 115.119C147.597 115.272 147.815 115.424 148.011 115.555C148.272 117.037 148.381 118.584 148.795 120.022C149.515 122.55 150.517 125.012 151.258 127.54C151.933 129.85 152.478 132.225 152.892 134.578C153.066 135.602 152.892 136.801 150.975 136.627C148.12 128.433 146.507 119.543 140.036 111.219C141.125 115.272 141.997 117.952 142.563 120.676C144.503 130.155 146.573 139.612 146.246 149.374C146.181 151.531 146.9 153.209 148.73 154.408C150.495 155.563 152.129 156.979 154.635 157.24C156.139 151.771 157.599 146.52 159.037 141.246C159.451 139.764 159.8 138.261 160.148 136.779C161.739 130.068 159.364 124.25 155.921 118.737C155.442 117.974 154.374 117.102 153.35 118.366C153.263 121.003 155.79 123.073 155.028 125.797C153.393 126.167 152.957 125.034 152.5 124.119C151.04 121.264 150.386 117.974 147.858 115.708ZM33.1099 193.543C31.2795 193.064 30.1464 194.132 29.3183 195.461C28.2942 197.139 27.5315 198.991 26.5728 200.712C26.0716 201.628 25.3743 202.434 24.1104 204.199C24.1104 201.301 24.1104 199.536 24.1104 197.487C22.694 197.989 21.6481 198.315 20.6458 198.729C16.1569 200.647 14.2829 203.785 14.8495 208.513C14.9802 209.603 15.3725 210.649 15.5468 211.738C16.3312 216.728 17.1593 221.697 17.8566 226.687C18.1834 229.04 18.2706 231.415 18.4885 234.226C25.9844 231.459 32.2819 227.863 36.6182 221.261C36.3567 220.041 36.0952 218.755 35.8119 217.491C35.4851 215.988 35.0928 214.506 34.8749 212.98C34.6788 211.673 34.657 210.344 34.6352 209.036C34.6134 207.511 34.8749 205.942 34.7006 204.439C34.5699 203.349 35.9209 201.976 34.0687 200.974C30.19 206.639 29.2094 213.547 25.6576 219.888C24.4155 216.859 24.9821 214.571 25.8537 212.348C27.8802 207.25 30.0156 202.194 32.0422 197.095C32.4998 195.918 32.6741 194.655 32.9792 193.413C33.5457 193.413 34.2212 193.5 33.4803 192.65C33.3496 192.955 33.2188 193.26 33.1099 193.543ZM89.7433 214.724L89.5254 214.266L89.8741 214.593C89.8741 216.772 89.8087 218.951 89.8741 221.13C89.9612 225.292 90.1573 229.454 90.2009 233.616C90.2009 234.509 89.6779 235.425 88.9371 237.8C87.4771 227.253 88.0873 217.992 85.0148 207.685C84.6662 211.717 84.4918 214.266 84.1868 216.794C84.0778 217.796 83.8381 218.929 81.9641 218.755C81.9641 216.401 81.9641 214.07 81.9641 211.586C81.354 211.782 81.0489 211.782 80.9618 211.934C79.2621 214.484 77.606 217.055 75.9282 219.583C73.4005 223.418 73.2915 227.362 76.0371 231.132C78.1072 233.965 80.7003 236.383 82.7268 239.238C84.8405 242.223 86.5401 245.514 88.6102 248.978C92.0749 246.407 94.1014 243.008 96.2151 239.783C98.2416 236.688 99.7233 233.246 101.336 229.89C101.684 229.149 101.663 228.168 101.684 227.297C101.75 224.791 100.486 223.44 97.6751 222.808C97.6097 224.66 97.5879 226.164 97.4789 227.667C97.4135 228.561 97.1303 229.389 95.8882 229.345C94.5808 227.427 95.1474 225.161 94.8859 223.048C94.3847 219.496 93.6002 216.162 89.7433 214.724ZM204.71 120.829C204.666 120.022 204.47 119.499 203.642 120.306C203.969 120.523 204.274 120.72 204.601 120.937C205.124 122.31 205.494 123.77 206.213 125.034C207.608 127.475 209.286 129.741 210.702 132.16C211.051 132.748 210.898 133.641 211.007 134.84C209.94 134.186 209.264 133.968 208.872 133.489C207.891 132.356 206.998 131.114 206.126 129.893C203.424 126.036 200.766 122.136 198.086 118.257C197.977 118.192 197.889 118.127 197.78 118.061C197.933 118.083 198.085 118.083 198.238 118.105C196.865 124.228 197.933 129.893 201.855 134.796C204.71 138.37 207.695 141.9 211.051 145.016C215.038 148.742 219.462 152.011 223.733 155.432C224.517 156.064 225.454 156.478 226.522 157.11C228.701 146.89 229.703 137.215 224.408 127.78C221.924 127.671 219.745 125.644 216.804 126.298C217.348 129.85 221.053 132.16 219.941 136.038C217.849 135.297 217.326 133.532 216.411 132.072C214.799 129.479 213.165 126.886 211.291 124.468C209.678 122.354 207.586 120.763 204.71 120.829ZM171.523 143.469C171.523 143.295 171.567 143.12 171.523 142.968C171.501 142.88 171.327 142.815 171.218 142.75C171.37 142.946 171.523 143.142 171.675 143.338C173.244 149.527 175.554 155.454 179.433 160.553C181.263 162.971 183.508 165.172 185.839 167.133C189.217 169.988 197.475 173.975 203.533 176.089C204.906 173.213 206.366 170.315 207.652 167.329C211.617 158.09 210.07 149.81 203.293 142.423C202.269 141.29 201.31 140.091 199.829 138.348C199.219 141.922 200.635 144.319 200.918 146.825C201.223 149.439 202.967 151.967 201.528 154.778C199.415 154.059 199.589 152.272 198.979 150.943C198.717 150.398 198.238 149.941 197.78 149.374C196.081 149.766 194.468 150.159 192.573 150.616C193.924 153.057 195.144 155.149 196.233 157.284C197.279 159.332 198.979 161.184 198.739 163.712C198.347 163.821 198.064 163.995 197.977 163.93C193.466 160.226 192.464 154.059 188.214 150.006C186.253 149.287 184.227 148.502 182.135 147.827C181.438 147.609 180.653 147.718 179.367 147.631C180.958 150.246 182.331 152.229 183.464 154.342C184.532 156.325 186.558 158.047 185.905 160.836C183.333 160.335 182.68 158.33 181.612 156.739C179.041 152.904 176.578 149.025 174.007 145.19C173.419 144.362 172.939 143.186 171.523 143.469ZM51.5882 179.074C49.4527 179.423 48.5375 181.362 46.9904 182.517C44.6806 184.239 43.809 186.505 43.8308 189.381C43.8526 192.737 44.3538 195.831 45.9009 198.904C48.5375 204.177 51.2396 209.32 55.358 213.896C56.3603 213.155 57.0576 212.697 57.7113 212.131C62.6795 207.816 67.5824 203.393 72.616 199.165C82.5307 190.841 90.4188 181.014 95.8229 169.203C97.784 164.889 99.9848 160.662 101.205 156.064C100.639 155.868 100.377 155.715 100.268 155.78C96.1279 158.243 92.0095 160.749 88.5666 162.819C85.2763 169.029 82.3346 174.673 79.2839 180.229C78.3469 181.951 77.1484 183.563 75.9064 185.089C75.2962 185.829 74.5554 186.854 72.5071 185.938C76.0589 179.576 80.5477 173.714 83.1844 165.935C78.5212 167.831 75.013 169.835 72.1584 171.993C70.7856 175.806 69.6525 179.118 68.3451 182.387C68.1272 182.953 67.2555 183.258 65.8827 184.282C66.4929 180.774 66.9069 178.312 67.4299 175.326C62.7667 177.157 59.9776 181.776 54.8786 181.101C52.4816 185.764 52.6995 191.19 50.5423 196.485C49.8232 195.439 49.1913 194.96 49.2131 194.48C49.2131 192.737 49.322 190.994 49.6053 189.272C50.1501 185.829 50.8256 182.408 51.4357 178.965C51.5446 178.857 51.6536 178.748 51.7408 178.617C51.6972 178.769 51.6318 178.922 51.5882 179.074ZM99.135 97.273C96.4984 97.1423 95.2999 99.2778 93.9925 100.868C89.4383 106.49 84.9058 112.156 80.7439 118.039C76.1679 124.489 72.4635 131.484 69.1295 138.653C68.4322 140.157 67.9529 141.856 65.9481 142.924C65.1855 140.178 66.166 138.217 67.0594 136.256C73.662 121.787 81.7026 108.277 92.9683 96.8808C93.9271 95.9003 95.1691 95.094 95.6921 93.6123C93.2734 92.8932 91.9224 94.1788 90.7457 95.3991C88.3051 97.9268 85.93 100.52 83.751 103.265C81.2886 106.36 79.1314 109.672 76.7344 112.81C76.0371 113.725 75.4488 115.163 73.6402 114.596C73.7273 113.965 73.6838 113.289 73.9452 112.766C74.7297 111.219 75.5795 109.672 76.5383 108.212C78.7174 104.943 80.9836 101.74 83.228 98.4933C83.7509 97.9921 83.1408 98.8202 83.4023 98.6458C82.5743 98.6458 81.5937 98.3844 80.9182 98.733C78.9788 99.7354 77.083 100.868 75.318 102.154C63.8562 110.5 58.6919 122.441 57.014 135.951C55.358 149.352 57.3191 162.644 59.5853 176.329C60.8927 175.588 61.8297 175.087 62.7014 174.542C69.2385 170.511 75.7538 166.436 82.3345 162.448C85.7121 160.4 89.2857 158.657 92.6632 156.63C100.203 152.054 105.846 145.735 109.442 137.673C110.51 135.276 111.447 132.813 112.362 130.329C114.519 124.38 114.846 118.323 113.386 112.178C113.277 111.742 112.667 111.437 111.926 110.696C109.769 118.606 106.827 125.644 103.144 132.399C96.3022 144.907 94.1668 147.958 89.7433 150.79C89.7433 150.071 89.5254 149.352 89.7869 148.895C90.6367 147.369 91.6173 145.909 92.5979 144.449C97.6533 136.953 101.881 129.022 105.345 120.676C107.459 115.577 108.919 110.282 109.464 104.791C109.856 100.803 108.527 97.5563 104.953 94.9197C103.123 97.6871 101.336 100.193 99.7451 102.808C93.2298 113.507 87.1938 124.489 82.0731 135.929C80.7656 138.871 79.6761 142.009 76.6472 144.646C75.9717 141.573 77.2356 139.481 78.129 137.389C83.228 125.688 89.1114 114.4 95.7139 103.483C96.9342 101.457 97.9148 99.256 99.0043 97.1423C99.1786 97.0769 99.3747 97.0116 99.5272 96.9026C99.5926 96.8372 99.5926 96.6629 99.6144 96.554C99.4401 96.7719 99.2876 97.0116 99.135 97.273ZM122.059 64.8488C122.865 63.4761 123.453 62.5826 123.933 61.6238C127.898 53.7793 131.995 46.0001 135.787 38.0684C138.249 32.9258 140.297 27.5871 142.563 22.3356C143.217 20.8103 143.261 18.7838 145.353 18.2826C146.42 18.0211 146.529 20.0912 145.374 23.4905C143.588 28.742 142.563 34.1461 142.912 39.6591C143.239 44.6927 143.871 49.7263 144.699 54.6945C145.244 58.0502 145.374 61.2098 143.914 64.3476C142.76 66.8535 142.912 69.3595 143.457 72.0615C144.525 77.4873 146.464 82.6081 148.447 87.7288C149.297 89.9079 150.713 91.978 150.255 95.3773C145.048 89.2759 144.067 81.9108 140.406 74.8724C139.317 82.2376 139.317 88.5787 140.254 94.8979C140.994 99.9533 142.912 104.551 146.377 108.539C150.343 113.071 155.594 115.185 161.042 116.906C167.513 118.955 174.094 120.741 180.631 122.594C180.936 122.681 181.372 122.397 181.83 122.267C182.178 116.383 182.658 110.5 182.876 104.573C183.028 100.411 183.203 96.2053 182.723 92.0869C181.438 80.8213 175.62 72.4319 165.661 66.9843C163.94 66.0473 162.109 65.2629 160.301 64.4784C159.996 64.3477 159.495 64.6091 158.71 64.7617C159.821 65.9819 160.824 67.0279 161.783 68.1174C167.296 74.4802 171.61 81.5839 174.792 89.3849C175.489 91.1281 176.251 92.8714 174.879 95.4645C173.68 93.1547 172.634 91.4986 171.937 89.7118C169.082 82.4773 164.855 76.0491 159.843 70.1875C157.73 67.7034 155.354 65.1321 152.565 63.6068C149.297 61.82 147.75 59.3359 146.791 56.0673C145.854 52.8859 145.287 49.7045 145.244 46.3487C145.113 35.715 146.573 25.3209 149.711 15.1666C150.103 13.9027 150.495 12.6607 150.735 11.375C150.996 9.95867 150.604 9.47927 148.076 7.5835C147.684 8.08468 147.183 8.54228 146.9 9.08704C138.924 24.7544 131.014 40.4435 123.017 56.0891C121.623 58.7911 121.318 61.4495 122.059 64.8488ZM47.6659 138.457C34.7442 141.791 37.1629 140.418 31.0834 149.527C28.8826 152.795 27.0739 156.325 25.0256 159.703C24.6334 160.356 24.0015 161.184 22.7812 160.182C23.8707 154.059 28.2506 149.439 30.9744 143.665C27.8802 143.033 25.1564 143.207 23.0863 143.861C20.7765 145.561 20.7765 148.263 18.6628 149.265C16.8106 147.565 19.4037 145.822 18.1616 144.231C16.9414 143.36 15.634 143.382 14.8059 144.711C13.6728 146.563 12.6922 148.546 11.8424 150.551C10.2735 154.277 10.1645 158.286 10.3171 162.23C10.7529 173.954 9.55442 185.459 6.56913 196.79C6.30764 197.749 5.71927 198.882 7.28819 200.059C9.48902 199.405 12.0385 198.795 14.479 197.88C24.5898 194.001 34.0033 188.815 42.1529 181.624C45.4215 178.748 48.1889 175.283 51.1088 172.036C54.312 168.484 54.9221 164.279 53.9416 159.725C53.7237 158.7 53.6801 157.545 52.0676 157.24C50.1282 159.768 48.1671 162.383 46.1188 164.954C41.8043 170.358 41.8043 170.336 38.0345 171.23C39.0587 169.639 39.7778 168.354 40.6494 167.199C43.6565 163.146 46.8597 159.245 49.736 155.105C53.3315 149.919 53.6147 147.108 51.7408 139.438C49.3438 141.747 47.7313 144.34 45.9445 146.781C44.1141 149.265 42.5016 151.88 40.6494 154.32C38.8626 156.674 38.0999 159.877 34.8531 161.381C34.7878 160.509 34.5481 159.79 34.7442 159.267C37.5116 151.706 43.1117 145.909 47.6659 138.457ZM108.418 159.485C108.854 166.109 109.485 171.971 109.551 177.854C109.638 183.629 112.057 189.338 110.248 195.722C109.377 194.938 108.636 194.589 108.527 194.132C107.938 191.342 107.35 188.531 107.067 185.699C106.413 179.14 105.955 172.559 105.324 166C105.193 164.584 105.629 162.841 103.646 161.86C101.074 166.501 98.83 171.143 98.7646 176.634C98.6992 182.343 98.3723 188.03 98.1109 193.739C98.0673 194.916 98.3723 196.311 96.5419 197.095C95.7575 196.333 95.4524 195.374 95.3653 194.262C95.2999 193.173 95.2127 192.062 95.1691 190.972C95.1256 189.665 95.082 188.335 95.0602 187.006C95.0384 185.917 95.1474 184.805 95.0166 183.716C94.9077 182.801 95.5396 181.58 93.8399 180.818C91.2904 184.326 88.741 187.834 86.4965 190.95C86.9977 206.552 97.0431 221.893 112.798 229.214C114.911 224.922 116.894 220.542 119.16 216.314C121.884 211.237 123.649 205.811 125.284 200.342C127.288 193.63 127.114 186.854 125.262 180.164C124.15 176.133 122.233 172.537 118.136 169.312C118.42 172.93 118.637 175.697 118.834 178.486C119.248 184.304 119.248 184.304 117.744 187.507C116.829 184.326 116.546 181.537 116.197 178.748C115.761 175.261 115.216 171.796 114.693 168.31C114.192 164.627 111.991 162.078 108.418 159.485ZM47.2955 122.964C48.4504 120.829 48.8426 119.565 49.6489 118.693C59.0841 108.452 70.437 100.651 83.0755 93.4161C81.0272 93.4161 79.6761 93.1764 78.4559 93.4597C67.4952 95.9874 56.8833 99.4521 47.0558 105.074C45.16 106.164 43.1553 107.057 41.1724 107.994C40.4751 108.321 39.647 108.887 38.9062 107.536C40.6712 105.357 42.981 103.767 45.4433 102.307C53.4404 97.5346 62.0912 94.4185 71.0035 91.9344C72.616 91.4768 74.3375 91.3242 75.6013 89.5156C69.086 88.9927 62.9628 89.4285 57.123 91.6075C46.0317 95.7477 36.3349 101.958 28.5557 111.045C20.9944 119.848 14.3701 129.436 5.8936 137.847C9.72872 140.287 13.9779 139.764 18.0309 139.786C31.1488 139.873 42.872 135.188 53.8762 129.065C55.7066 124.25 57.4281 119.761 59.1495 115.25C59.2149 115.054 59.2367 114.793 59.1713 114.596C59.1059 114.4 58.9098 114.27 58.7355 114.052C54.7914 116.122 52.7649 120.741 47.2955 122.964ZM166.969 64.2387C170.194 66.4613 172.089 68.0303 175.053 68.0738C185.338 68.2482 194.882 71.4514 204.078 75.8094C205.146 76.3106 206.017 77.2258 207.129 78.0539C205.189 79.1652 203.86 78.3371 202.422 77.8142C197.454 76.0709 192.507 74.2405 187.474 72.7806C184.205 71.8218 180.849 70.8412 176.905 71.1681C178.736 73.8701 180.784 76.0274 181.808 78.5986C183.617 83.1528 187.016 85.4844 191.374 86.7483C194.73 87.7288 198.129 88.7312 201.572 89.167C209.199 90.1476 216.869 90.7359 224.147 93.5469C224.452 93.6558 224.91 93.4379 225.28 93.3508C224.604 87.8378 220.748 79.0998 216.804 74.5892C212.01 69.0762 206.431 64.522 200.003 60.9701C188.846 54.8034 177.493 54.9995 165.923 59.6845C168.233 60.0767 170.564 60.1203 172.896 60.1639C180.457 60.2728 187.713 61.82 194.577 64.9578C195.689 65.459 196.582 66.4177 198.325 67.7252C192.159 68.3353 187.909 64.7181 182.963 64.3695C178.016 64.0644 173.07 62.4519 166.969 64.2387ZM210.92 105.401C210.484 105.75 210.288 106.033 210.157 106.011C203.076 104.464 199.153 97.8832 192.376 94.7671C192.856 98.1011 194.512 100.454 195.667 102.982C202.487 117.778 215.213 123.618 230.379 125.601C232.318 125.862 234.367 125.731 235.936 123.879C234.41 117.081 231.904 110.565 228.788 104.268C226.544 99.7354 223.362 96.3361 218.198 95.1594C216.716 94.8325 215.322 94.0481 213.862 93.6123C212.968 93.3508 211.901 92.806 211.356 93.6776C214.167 96.6411 216.912 99.4957 219.593 102.394C220.203 103.048 220.53 103.854 219.309 104.834C217.893 103.592 216.455 102.285 214.93 101.043C212.38 98.9509 209.961 96.6411 207.172 94.9415C203.904 92.915 200.265 91.5857 195.819 92.2177C200.265 97.7089 206.802 100.193 210.92 105.401ZM161.565 120.676C165.552 133.598 182.418 149.265 194.272 146.759C194.425 146.367 194.686 145.975 194.686 145.583C194.49 137.259 194.621 128.913 193.945 120.611C193.444 114.531 192.093 108.495 190.764 102.525C190.176 99.8879 189.391 97.0552 186.624 94.9197C186.275 101.239 186.079 107.101 185.6 112.919C185.273 117.081 184.968 121.199 185.817 125.339C186.384 128.194 184.75 129.349 181.895 128.281C179.433 127.366 177.079 126.189 174.639 125.23C170.608 123.661 166.707 121.744 161.565 120.676ZM61.0888 225.466C61.6554 219.474 66.1442 214.942 67.4952 208.165C60.8927 213.547 54.9222 217.905 52.7213 225.575C52.4162 226.621 51.4575 227.493 50.4333 228.996C50.2154 227.58 49.9321 226.905 50.0847 226.338C50.564 224.442 51.1524 222.546 51.7843 220.694C53.4404 215.9 52.4598 213.089 47.9492 209.843C45.9881 212.501 48.4068 216.271 45.4651 219.605C44.3974 215.966 44.5935 212.937 44.7896 209.973C45.0511 205.92 44.3538 202.172 42.2619 198.664C41.7389 197.771 41.5428 196.594 40.0175 197.073C37.5987 211.433 39.9957 224.834 47.4916 237.429C48.4504 237.081 49.1041 236.972 49.6053 236.623C53.9852 233.681 58.4522 230.87 62.6578 227.711C72.3109 220.455 78.5212 210.845 81.3976 199.122C81.5937 198.359 81.4194 197.487 81.4194 196.245C79.9158 197.487 78.7827 198.512 77.5407 199.383C74.381 201.606 72.4853 204.547 71.1125 208.208C69.2821 213.133 66.798 217.796 64.4664 222.525C63.8562 223.81 63.3333 225.423 61.0888 225.466ZM146.42 157.676C146.725 159.398 146.747 160.247 147.009 161.032C148.447 165.346 151.65 168.354 154.766 171.47C158.645 175.326 162.415 179.292 166.25 183.171C166.794 183.716 167.557 184.021 168.211 184.435C176.099 171.426 176.382 161.795 168.995 150.311C169.366 152.49 169.693 153.95 169.867 155.432C169.954 156.26 169.954 157.219 168.342 157.48C165.334 152.817 165.487 146.89 162.916 141.442C160.519 145.953 159.037 150.05 160.911 154.865C162.022 157.698 162.698 160.727 163.395 163.712C163.722 165.107 163.591 166.589 163.678 168.136C163.046 168.005 162.785 168.027 162.632 167.896C160.039 165.826 160.758 162.187 158.819 159.79C154.091 160.923 154.091 160.923 146.42 157.676ZM182.091 168.789C181.481 170.576 182.375 171.905 182.854 173.278C183.66 175.544 184.51 177.789 185.338 180.055C185.621 180.839 186.057 181.668 184.466 182.234C183.682 181.123 182.636 180.011 182.004 178.726C181.024 176.786 180.326 174.695 179.498 172.668C179.15 171.84 178.714 171.165 177.711 171.491C176.469 174.346 175.467 177.244 174.007 179.902C172.264 183.084 172.7 185.873 175.009 188.335C177.232 190.711 179.498 193.216 182.2 194.981C186.558 197.836 191.287 200.102 196.081 202.761C198.26 197.03 199.415 191.56 199.24 185.786C199.175 183.236 198.173 181.101 196.778 179.14C195.58 177.462 194.381 175.675 191.418 174.847C192.05 177.593 192.856 179.576 193.488 181.602C194.163 183.825 194.969 186.091 193.836 188.466C192.158 187.791 192.071 186.374 191.614 185.198C190.197 181.537 188.868 177.832 187.386 174.193C186.362 171.666 184.859 169.639 182.091 168.789ZM213.208 162.339C211.508 164.279 210.833 166.218 211.378 168.571C211.835 170.489 212.271 172.407 212.576 174.346C212.729 175.283 212.358 176.046 211.138 175.806C209.809 175.218 210.288 172.908 208.174 172.559C207.543 174.433 207.303 176.307 206.322 177.593C205.407 178.769 203.686 179.314 202.095 180.251C205.56 186.047 210.789 189.381 216.477 192.083C217.021 191.539 217.479 191.277 217.588 190.928C219.266 185.241 221.031 179.576 222.491 173.845C223.145 171.317 223.45 168.637 223.471 166.022C223.537 159.223 221.467 156.521 214.407 153.645C215.387 157.545 216.542 161.337 217.239 165.194C218.002 169.291 218.394 173.431 218.808 177.571C218.917 178.617 218.416 179.706 216.76 179.663C215.67 174.041 215.54 168.092 213.208 162.339ZM72.2238 231.175C70.9164 233.681 70.0883 235.381 69.1513 237.015C68.1707 238.715 67.1684 240.415 65.9917 241.984C65.5777 242.55 64.7279 243.356 63.7473 242.114C64.1395 239.543 65.8828 237.473 66.8851 235.076C67.9529 232.548 69.6307 230.195 69.5436 226.708C66.3186 229.214 63.5512 231.35 60.7402 233.529C61.0453 240.763 58.1907 247.148 55.4451 253.903C59.6289 254.513 62.8103 252.901 65.9699 251.571C71.4393 249.262 76.2768 245.993 80.6131 241.461C79.0442 239.696 77.6496 238.148 76.1897 236.536C75.0566 238.083 74.2067 239.238 73.0736 240.807C72.5724 239.739 72.0713 239.151 72.1366 238.671C72.3981 237.168 73.0082 235.708 73.2043 234.204C73.3351 233.551 72.7903 232.788 72.2238 231.175ZM123.41 70.972C128.814 67.6162 133.978 64.5002 139.055 61.2098C141.365 59.7063 141.539 57.2876 141.256 54.7381C140.755 50.38 140.406 46.0001 139.927 41.642C139.818 40.7268 140.45 39.5501 139.186 38.9182C136.549 42.9058 125.066 66.1563 123.41 70.972ZM44.1141 241.635C41.3903 250.46 41.1941 254.23 43.0028 259.699C48.0799 255.755 52.7213 250.264 54.726 245.274C55.8373 242.55 57.3627 239.783 56.4475 236.405C53.484 237.451 51.4139 239.412 49.2566 241.177C47.6441 242.506 46.0752 242.289 44.1141 241.635ZM151.977 6.6465C152.304 6.60292 152.609 6.55935 152.936 6.51577C152.936 5.68773 153.023 4.8597 152.914 4.05345C152.783 3.07288 151.672 2.33199 151.236 2.83317C150.887 3.24719 150.604 4.00986 150.735 4.48925C150.953 5.2955 151.541 5.94921 151.977 6.6465ZM159.821 60.8612C161.26 61.1445 161.783 61.3188 162.327 61.3406C162.523 61.3406 162.72 60.9265 162.937 60.7086C162.785 60.5997 162.611 60.4036 162.458 60.4036C161.87 60.4689 161.281 60.5997 159.821 60.8612ZM168.298 147.87C168.363 147.435 168.385 147.217 168.429 146.999C168.342 147.042 168.211 147.086 168.211 147.151C168.189 147.326 168.233 147.478 168.298 147.87Z" fill="#262626"/>
<path d="M105.215 106.774C102.6 115.468 99.026 123.378 95.0602 131.114C94.1014 132.988 93.3387 135.101 91.0289 136.387C90.92 135.603 90.6585 134.992 90.811 134.513C91.3558 132.857 92.0095 131.244 92.685 129.654C95.6921 122.637 98.6992 115.642 101.728 108.648C102.229 107.493 102.469 106.011 105.215 106.774Z" fill="#262626"/>
<path d="M71.8097 152.926C72.4416 153.841 73.1172 154.364 73.03 154.756C72.8121 155.824 72.093 156.696 70.8727 156.565C70.5023 156.521 69.8704 155.584 69.9793 155.388C70.3715 154.582 71.0252 153.906 71.8097 152.926Z" fill="#262626"/>
<path d="M167.23 99.038C162.567 95.0504 154.112 82.8695 149.471 73.3688C148.381 71.1244 146.529 68.989 147.205 66.1344C147.248 65.9819 147.51 65.8729 147.684 65.7422C148.076 65.8729 148.686 65.8729 148.817 66.1344C154.156 76.9861 160.955 86.9443 167.405 97.1204C167.557 97.4255 167.339 97.9703 167.23 99.038Z" fill="#262626"/>
<path d="M173.833 108.343C171.24 107.275 170.564 105.248 169.845 103.222C170.826 102.328 171.915 102.176 172.591 103.287C173.462 104.638 174.944 105.924 173.833 108.343Z" fill="#262626"/>
<path d="M19.3165 171.208C20.2535 173.474 19.5998 175.087 17.7476 176.242C17.4643 176.416 16.876 176.394 16.5491 176.22C16.244 176.046 15.9172 175.544 15.9608 175.218C16.1569 173.191 16.9631 171.644 19.3165 171.208Z" fill="#262626"/>
<path d="M115.369 204.961C113.016 202.761 113.277 200.494 114.105 198.206C114.192 197.989 115.195 197.967 115.718 198.097C116.044 198.185 116.393 198.664 116.502 199.034C117.09 200.93 117.221 202.782 115.369 204.961Z" fill="#262626"/>
<path d="M32.0858 122.594C30.19 127.453 29.885 127.627 26.4203 127.017C28.5122 125.361 30.299 123.988 32.0858 122.594Z" fill="#262626"/>
<path d="M64.7714 191.364C64.0305 193.042 63.3986 194.655 62.5706 196.158C62.3309 196.594 61.481 197.052 61.0016 196.964C59.9775 196.746 59.7814 195.853 60.13 194.916C60.653 193.5 61.1324 192.04 61.8079 190.689C62.0258 190.275 62.9192 189.926 63.4204 189.991C63.8998 190.1 64.2484 190.798 64.7714 191.364Z" fill="#262626"/>
<path d="M217.828 84.0899C217.457 84.6129 217.348 84.8961 217.239 84.8961C216.651 84.8525 215.954 84.9179 215.496 84.6346C215.038 84.3514 214.842 83.6758 214.559 83.1529C214.559 83.1311 214.951 82.7825 215.082 82.826C215.975 83.1965 216.869 83.6323 217.828 84.0899Z" fill="#262626"/>
<path d="M223.188 116.34C224.888 115.315 226.021 115.773 227.002 116.775C227.241 117.015 227.481 117.625 227.35 117.821C227.176 118.105 226.522 118.432 226.304 118.323C225.28 117.778 224.321 117.081 223.188 116.34Z" fill="#262626"/>
<path d="M201.245 170.206C200.984 170.402 200.744 170.75 200.526 170.729C200.243 170.707 200.003 170.38 199.72 170.206C199.85 170.053 200.025 169.792 200.134 169.813C200.504 169.879 200.853 170.053 201.245 170.206Z" fill="#262626"/>
<path d="M218.765 145.43C219.919 144.842 220.246 144.537 220.595 144.537C221.554 144.537 222.099 145.408 221.576 146.062C221.401 146.28 220.9 146.389 220.617 146.302C220.072 146.127 219.571 145.822 218.765 145.43Z" fill="#262626"/>
<path d="M23.7183 210.06C22.9556 210.889 22.3454 211.717 21.561 212.327C21.4085 212.457 20.3407 211.847 20.1446 211.39C19.6216 210.191 20.4279 209.341 21.2995 208.666C21.5828 208.448 22.2365 208.295 22.4544 208.448C22.8902 208.775 23.1735 209.341 23.7183 210.06Z" fill="#262626"/>
<path d="M165.966 173.038C166.489 173.692 167.056 174.259 167.426 174.956C167.557 175.196 167.361 175.806 167.121 176.024C166.882 176.242 166.162 176.329 166.053 176.198C165.596 175.566 165.225 174.847 164.964 174.106C164.899 173.932 165.443 173.561 165.966 173.038Z" fill="#262626"/>
<path d="M186.776 185.764C189.108 186.352 189.522 188.226 190.023 190.013C189.326 190.885 188.52 190.928 187.909 190.144C186.951 188.902 185.382 187.725 186.776 185.764Z" fill="#262626"/>
<path d="M212.729 180.447C213.099 180.839 213.557 181.188 213.796 181.667C213.905 181.885 213.622 182.496 213.382 182.626C212.75 182.975 211.617 182.081 211.792 181.341C211.835 181.057 212.293 180.861 212.729 180.447Z" fill="#262626"/>
</svg>
