<svg width="115" height="129" viewBox="0 0 115 129" fill="none" xmlns="http://www.w3.org/2000/svg">
<path fill-rule="evenodd" clip-rule="evenodd" d="M74.425 0.12572C74.2754 0.192367 73.8961 0.251221 73.5821 0.256461C72.9708 0.266539 71.9301 0.507865 70.9927 0.856957C70.6751 0.975336 70.163 1.16493 69.855 1.27861C69.1073 1.5542 68.5887 1.82522 67.727 2.39078C67.0249 2.85153 66.994 2.85852 66.367 2.69822C63.6922 2.01414 61.9381 1.98418 59.7446 2.58468C58.2523 2.99316 55.8018 4.51731 54.8511 5.628C53.9387 6.69395 53.8544 6.75012 53.3141 6.6523C52.283 6.46566 49.5496 6.42159 48.8022 6.57947C45.9447 7.18319 44.7707 7.65429 42.7298 9.01558C40.0233 10.8208 37.8003 14.0594 37.1143 17.1964C37.0254 17.6029 36.8969 18.154 36.8286 18.4213C36.6679 19.0501 36.6679 21.7923 36.8286 22.4212C36.8969 22.6885 37.0254 23.2396 37.1143 23.6461C37.8003 26.7831 40.0233 30.0217 42.7298 31.8269C44.4436 32.97 45.9511 33.6426 47.5788 33.9905C47.99 34.0784 48.5476 34.2054 48.818 34.273C49.0883 34.3404 49.798 34.3956 50.395 34.3956C51.2991 34.3956 51.5572 34.3446 51.9392 34.0901C53.3507 33.1499 53.3888 31.4465 52.0208 30.4441C51.7352 30.2349 51.3358 30.139 50.4576 30.0691C48.333 29.8998 47.2757 29.6207 46.1143 28.9226C43.5041 27.3535 42.244 25.8097 41.3818 23.1245C40.9099 21.6543 40.9099 19.1881 41.3818 17.718C41.8029 16.4067 42.2999 15.443 43.0578 14.468C43.8409 13.4608 44.0452 13.2743 45.2585 12.4592C47.6892 10.8263 50.4449 10.3561 53.2536 11.0948C53.9817 11.2863 54.6172 11.4673 54.6658 11.497C54.7143 11.5268 55.0198 11.4584 55.3444 11.3451C56.0112 11.1127 56.6106 10.6036 56.9191 10.0076C57.253 9.36279 58.0157 8.49665 58.865 7.79807C59.7728 7.05111 61.4565 6.44685 62.6298 6.44685C63.4942 6.44685 64.8426 6.77968 65.687 7.20147C66.3877 7.55163 67.5036 7.63333 67.9997 7.37091C68.1566 7.28787 68.6572 6.94858 69.1122 6.61709C70.1909 5.83077 72.0553 4.91423 72.9977 4.7069C73.4089 4.61634 73.9665 4.48721 74.2368 4.41962C74.8731 4.2608 76.566 4.26187 77.1958 4.4215C77.4661 4.49003 78.1391 4.64482 78.6914 4.76535C79.2437 4.88602 80.2365 5.25311 80.8975 5.58138C82.4494 6.35185 83.0205 6.37563 83.9592 5.70903C85.3235 4.74009 86.9856 4.03277 87.905 4.02968C88.4775 4.02767 89.9367 4.40188 90.5422 4.70583C91.1711 5.02173 92.5199 6.35749 92.844 6.98554C92.9832 7.25508 93.2024 7.90744 93.3313 8.43524C93.554 9.3468 93.5537 9.4453 93.3257 10.4017C93.1773 11.0247 92.8623 11.7821 92.4997 12.3878C91.4133 14.2024 91.7243 15.6307 93.3233 16.1693C95.014 16.7387 96.3752 15.1196 97.408 11.3111C97.6233 10.517 97.6657 8.57821 97.481 7.97852C97.4149 7.76434 97.2814 7.31689 97.1842 6.98433C97.087 6.65176 96.7467 5.85804 96.4278 5.22046C95.6083 3.58183 93.9747 1.96698 92.317 1.15687C91.672 0.841639 90.8691 0.505179 90.5326 0.409105C90.1962 0.313031 89.7436 0.18108 89.5269 0.115776C88.9121 -0.0693843 86.6814 -0.0236988 85.8837 0.190486C84.7161 0.503835 84.395 0.618586 83.4631 1.05542L82.5783 1.47022L81.3562 1.05206C79.9031 0.55503 79.4478 0.432753 78.3669 0.249474C77.2334 0.0571913 74.7531 -0.0207425 74.425 0.12572ZM100.853 8.90231C100.148 9.37153 99.7759 10.0092 99.7759 10.7467C99.7759 11.4841 100.148 12.1218 100.853 12.591C101.212 12.8306 101.505 12.8975 102.209 12.9006C103.622 12.9071 105.316 13.4248 106.556 14.2294C107.135 14.6055 107.812 15.1092 108.06 15.3487C108.668 15.9364 109.48 17.1379 109.893 18.0617C110.677 19.8127 110.659 19.4618 110.619 32.1351C110.583 43.6604 110.579 43.7858 110.302 44.1529C109.769 44.858 109.335 45.078 108.475 45.078C107.616 45.078 107.181 44.858 106.649 44.153C106.378 43.7945 106.366 43.5794 106.3 37.6444C106.251 33.1914 106.187 31.4288 106.068 31.2228C105.977 31.0666 105.685 30.7493 105.417 30.5173C104.98 30.138 104.844 30.0958 104.055 30.0958C103.573 30.0958 102.908 30.1673 102.577 30.2546C102.108 30.3788 101.803 30.3764 101.182 30.2438C99.5336 29.8914 99.1433 29.774 98.3865 29.4026C97.8273 29.1281 97.4072 29.021 96.8913 29.0214C96.0725 29.0219 95.6988 29.2136 94.6785 30.1564C93.969 30.8121 92.2863 31.737 91.2215 32.0565C90.3903 32.3059 87.4127 32.3059 86.5814 32.0565C84.2137 31.346 82.1463 29.6187 81.017 27.4075C80.5589 26.5103 79.8405 25.8404 79.2193 25.7308C78.9748 25.6878 78.316 25.7248 77.7553 25.8132C75.1037 26.2311 72.5149 25.774 70.3951 24.5136C69.5009 23.9819 69.3065 23.9191 68.5508 23.9171C67.795 23.9151 67.6544 23.9596 67.2174 24.3388C66.9487 24.572 66.6146 24.9844 66.4748 25.2552C66.181 25.8246 64.8229 27.21 64.3088 27.4647C64.1161 27.5601 63.4526 27.7679 62.8344 27.9263L61.7102 28.2141L60.4556 27.8649C58.2366 27.2473 57.8926 27.284 57.0275 28.2308C56.5961 28.7027 56.5502 28.8286 56.5502 29.5406C56.5502 30.8655 57.2888 31.5571 59.2415 32.0602C59.6591 32.1678 60.6417 32.2457 61.5796 32.2457C63.2125 32.2457 64.2856 32.0645 65.0916 31.6524C65.3207 31.5353 65.5933 31.4395 65.6976 31.4395C65.993 31.4395 67.4202 30.471 68.1722 29.7602C69.3333 28.6628 69.2119 28.6859 70.9006 29.2412C72.7279 29.8424 73.4332 29.9648 75.5124 30.0418C76.4095 30.075 77.2794 30.1317 77.4455 30.1678C77.6204 30.2057 77.9774 30.5683 78.2948 31.0304C79.3072 32.5041 81.335 34.2598 83.0072 35.1105C83.6551 35.4401 86.1635 36.2327 86.9305 36.3503C87.9299 36.5034 90.064 36.4805 91.0764 36.3058C93.1415 35.9496 94.3672 35.469 95.9981 34.3759C97.197 33.5722 97.2268 33.5685 98.8995 34.0003C99.718 34.2116 100.643 34.387 100.956 34.3901C101.979 34.4001 101.973 34.3759 101.897 38.2076C101.819 42.1147 101.605 44.7414 101.147 47.4294C101.078 47.8359 100.955 48.5615 100.875 49.0419C100.794 49.5222 100.673 50.1874 100.605 50.5199C100.536 50.8525 100.417 51.4572 100.34 51.8636C100.213 52.5257 99.7937 54.1427 99.1827 56.3221C99.065 56.7419 98.4409 58.6466 97.7958 60.5548C96.7709 63.5867 95.9723 66.2246 95.7491 67.3161C95.7113 67.5008 95.5676 68.1357 95.4298 68.727C95.292 69.3182 95.1071 70.1647 95.0191 70.6081C94.9313 71.0516 94.8307 71.5353 94.7958 71.6831C94.6368 72.3563 94.267 74.8655 94.0633 76.6547C93.2624 83.6837 93.576 92.1786 94.8692 98.4897C94.9375 98.8223 95.0656 99.4572 95.1543 99.9006C95.2429 100.344 95.3652 100.949 95.4261 101.244C95.487 101.54 95.6094 102.145 95.698 102.588C95.7866 103.031 95.9148 103.666 95.983 103.999C96.0511 104.331 96.168 104.966 96.2428 105.41C96.3175 105.853 96.4145 106.403 96.4584 106.631C96.5138 106.92 96.4697 107.114 96.3121 107.269C96.1117 107.467 95.63 107.492 92.0382 107.492C88.0527 107.492 87.9831 107.497 87.5316 107.798C86.0853 108.761 86.0853 110.523 87.5316 111.487C87.9852 111.789 88.039 111.792 92.4218 111.794C94.8592 111.796 96.9393 111.85 97.0442 111.916C97.4176 112.149 97.5245 113.595 97.5287 118.467C97.5329 123.171 97.5239 123.341 97.2527 123.699C97.0986 123.904 96.8036 124.195 96.5972 124.347C96.2243 124.623 96.117 124.625 80.202 124.692C64.2127 124.759 64.1814 124.759 63.7984 125.04C62.4303 126.042 62.4683 127.746 63.8798 128.686L64.3384 128.992H80.3926H96.4468L97.3976 128.651C98.5683 128.232 99.1314 127.87 100.044 126.954C100.866 126.128 101.263 125.488 101.67 124.332C101.951 123.532 101.959 123.344 101.895 119.092C101.83 114.707 101.683 111.899 101.412 109.844C101.081 107.342 100.856 105.898 100.605 104.671C100.536 104.338 100.408 103.703 100.32 103.26C100.231 102.816 100.109 102.212 100.048 101.916C99.9868 101.621 99.8645 101.016 99.7759 100.572C99.6872 100.129 99.5649 99.5244 99.504 99.2288C98.982 96.6962 98.7465 95.274 98.4019 92.5775C97.6251 86.4968 97.9632 77.8782 99.219 71.7503C99.2872 71.4177 99.4064 70.813 99.4842 70.4066C99.6123 69.7361 100.37 66.8011 100.913 64.8714C101.031 64.4505 101.594 62.7272 102.164 61.0419C103.423 57.3189 104.068 55.0553 104.531 52.737C104.619 52.2936 104.743 51.689 104.805 51.3933C104.868 51.0977 104.991 50.4931 105.078 50.0496C105.345 48.6964 105.4 48.6661 106.706 49.1619C107.782 49.5701 109.208 49.5482 110.447 49.1044C111.592 48.6943 112.154 48.3401 113.018 47.486C113.882 46.632 114.241 46.0757 114.655 44.9442L115 44.0042V32.0131C115 23.7856 114.953 19.821 114.851 19.3818C114.362 17.2857 113.439 15.1483 112.492 13.9225C111.862 13.1062 110.438 11.6988 109.612 11.0757C107.802 9.70933 104.554 8.59676 102.377 8.59676C101.494 8.59676 101.233 8.64903 100.853 8.90231ZM18.1501 36.6799C18.0005 36.7435 17.6748 36.7996 17.4264 36.8049C17.1779 36.81 16.5177 36.9659 15.9593 37.1511C14.0488 37.7852 12.6751 38.6183 11.4363 39.8946C10.7669 40.5841 9.24666 42.7913 9.24666 43.0736C9.24666 43.1744 9.13057 43.5154 8.98866 43.8314C8.84675 44.1475 8.6279 44.7589 8.5023 45.1899C8.30058 45.8831 8.21631 45.9975 7.77494 46.1785C6.71768 46.6118 4.54851 48.0548 3.71391 48.8798C3.10943 49.4774 1.76413 51.3464 1.33826 52.1803C0.927075 52.9855 0.550821 54.0236 0.196452 55.3302C-0.0654842 56.2962 -0.0654842 59.793 0.196452 60.759C0.550821 62.0656 0.927075 63.1037 1.33826 63.9089C1.76413 64.7428 3.10943 66.6119 3.71391 67.2094C4.54797 68.0339 7.31985 69.8691 7.73104 69.8691C7.82293 69.8691 8.1251 69.9798 8.40253 70.1153C8.67983 70.2506 9.27384 70.4363 9.72241 70.5278C10.171 70.6193 10.7591 70.7504 11.0295 70.8191C11.702 70.99 14.1278 70.9767 14.9198 70.7977C16.0569 70.5408 17.3116 70.1386 18.1097 69.7754C19.1736 69.2912 19.3055 69.4108 19.3055 70.8603C19.3055 72.6328 19.9442 74.1072 21.2872 75.4348C22.1511 76.2889 22.7139 76.6431 23.8586 77.0532C25.5745 77.6679 27.6847 77.4102 29.2363 76.3964C29.8574 75.9906 30.9352 74.9251 31.3457 74.3112C32.3016 72.8817 32.6398 70.7301 32.0456 69.8586C31.0986 68.4694 29.3708 68.4258 28.3667 69.7658C28.2037 69.9833 28.0515 70.4699 27.9929 70.96C27.8287 72.3372 27.107 73.0268 25.8301 73.0268C24.9706 73.0268 24.5364 72.8069 24.0035 72.102C23.7394 71.7528 23.7192 71.5041 23.6552 67.8104C23.6099 65.2 23.5346 63.7999 23.4298 63.6209C23.0785 63.0211 22.0462 62.3444 21.4825 62.3444C20.9721 62.3444 19.9264 62.9758 19.4482 63.5728C18.4318 64.8417 17.0176 65.7739 15.3122 66.2993C13.3005 66.9192 10.7734 66.7331 8.96392 65.8318C5.98733 64.3495 4.0835 61.3986 4.07997 58.2623C4.07901 57.4365 4.17824 56.6425 4.3839 55.8275C5.10324 52.9792 7.62175 50.5392 10.606 49.7997C12.1725 49.4117 12.78 48.7163 12.7823 47.3088C12.7871 44.4357 15.1351 41.5977 17.9273 41.0902C18.3489 41.0136 19.0147 40.9089 19.407 40.8575C20.9419 40.6566 21.9058 39.2186 21.2885 38.0505C20.7097 36.9552 19.1279 36.2644 18.1501 36.6799ZM32.1508 36.6814C31.9265 36.7409 31.4066 36.8593 30.9954 36.9442C29.1794 37.3195 26.1913 38.8059 25.01 39.9216C24.1107 40.7709 23.9271 41.0962 23.9276 41.8377C23.9283 42.7906 24.2897 43.3313 25.2022 43.7442C25.8794 44.0507 25.9621 44.0596 26.4724 43.8817C26.7726 43.777 27.6108 43.2858 28.3349 42.7902C31.5805 40.5688 35.4515 40.2267 39.0634 41.8421C40.7368 42.5905 42.4075 43.978 43.5 45.5264C44.1896 46.5038 44.3038 46.6351 44.7767 46.9958C45.1355 47.2697 45.3198 47.2955 46.9515 47.2991C49.3206 47.3045 50.6767 47.6498 52.1928 48.6338C53.5281 49.5003 54.0475 50.0138 54.9241 51.3337C56.7222 54.0412 56.7246 57.7446 54.9301 60.4467C54.1003 61.6961 53.6083 62.2106 52.5891 62.8947C50.4247 64.3477 48.2719 64.764 45.594 64.2475C44.6241 64.0605 43.0501 63.2838 42.0057 62.4772C41.5198 62.1019 40.9387 61.6767 40.7144 61.5326C40.1935 61.1979 39.2953 61.1925 38.636 61.5202C38.3587 61.6581 37.7953 61.8447 37.3841 61.935C36.9729 62.0252 36.4153 62.1542 36.145 62.2218C35.1633 62.4668 33.1854 62.3597 31.879 61.9909C29.7937 61.4021 29.4339 61.406 28.6891 62.0253C28.2031 62.4296 27.732 63.2649 27.7353 63.7163C27.7387 64.1841 28.2938 65.0544 28.8067 65.396C29.7931 66.0532 32.1781 66.5593 34.2577 66.5531C35.8319 66.5483 36.6993 66.444 38.1771 66.082L39.31 65.8044L40.284 66.4744C40.8197 66.8427 41.45 67.2414 41.6845 67.36C42.4436 67.7445 44.9059 68.494 45.7438 68.5957C47.9883 68.8682 50.5583 68.6025 52.0985 67.9389C52.3789 67.8181 52.8377 67.6241 53.118 67.5078C53.3984 67.3916 54.098 66.9933 54.6727 66.623C55.2475 66.2526 55.8286 65.9705 55.9641 65.9963C56.2007 66.0415 56.2117 67.0821 56.2449 92.5794L56.2794 119.115L55.9968 119.989C55.6135 121.174 55.2109 121.821 54.2925 122.729C53.3809 123.63 52.7265 124.029 51.5324 124.412C50.6666 124.69 50.5289 124.692 32.3547 124.692C14.1805 124.692 14.0428 124.69 13.1771 124.412C11.9829 124.029 11.3286 123.63 10.4169 122.729C9.50506 121.828 9.10148 121.181 8.71395 120C8.4323 119.142 8.43108 119.049 8.43108 97.95V76.7617L8.12197 76.3083C7.14736 74.8787 5.36505 74.8787 4.39043 76.3083L4.08132 76.7617V98.1046C4.08132 113.166 4.12537 119.636 4.23098 120.088C4.54158 121.416 4.69029 121.834 5.25032 122.954C6.41959 125.292 7.82402 126.68 10.1895 127.836C11.322 128.39 11.745 128.537 13.0886 128.844C14.0013 129.052 50.7081 129.052 51.6208 128.844C52.9644 128.537 53.3874 128.39 54.52 127.836C56.8854 126.68 58.2898 125.292 59.4591 122.954C60.4442 120.984 60.6276 120.04 60.6301 116.93C60.6314 115.545 60.6902 114.322 60.7609 114.211C60.869 114.042 61.5755 113.996 65.1426 113.924C67.4817 113.877 69.732 113.777 70.1432 113.702C70.5544 113.628 71.1355 113.523 71.4345 113.469C72.3624 113.304 74.7299 112.485 75.7508 111.977C80.3037 109.71 84.1139 105.439 85.6647 100.862C86.0697 99.6668 86.1382 99.3901 86.4841 97.5492C86.6013 96.9254 86.6482 94.2367 86.6482 88.1433C86.6482 82.0499 86.6013 79.3612 86.4841 78.7375C86.1382 76.8965 86.0697 76.6198 85.6642 75.4233C83.7999 69.9212 79.047 65.224 73.4959 63.3971C70.8743 62.5344 70.3607 62.4709 65.1426 62.3642C61.5766 62.2914 60.8688 62.2447 60.7609 62.0757C60.6882 61.9616 60.6314 60.2569 60.6301 58.1473C60.6289 55.9278 60.5677 54.1616 60.4788 53.7803C59.9903 51.6843 59.0669 49.5468 58.1203 48.321C57.49 47.5047 56.0663 46.0973 55.2405 45.4742C53.4961 44.158 50.1801 42.9953 48.1707 42.9953C47.2903 42.9953 47.2594 42.9832 46.7113 42.4226C46.4035 42.1076 45.9069 41.5712 45.6079 41.2306C44.8049 40.3159 42.8479 38.9129 41.3123 38.1511C39.8637 37.4327 39.2398 37.2019 38.0638 36.9507C37.6526 36.8628 37.095 36.7358 36.8246 36.6682C36.2299 36.5197 32.7217 36.5297 32.1508 36.6814ZM72.5793 39.001C71.8748 39.4702 71.5025 40.1079 71.5025 40.8454C71.5025 41.5828 71.8748 42.2205 72.5793 42.6897C73.5265 43.3207 74.8218 42.9891 75.5431 41.9308C76.442 40.6124 75.3367 38.6955 73.6774 38.6955C73.2374 38.6955 72.8948 38.7907 72.5793 39.001ZM84.6904 43.3464C83.6083 43.7468 83.0297 44.1179 82.1837 44.9542C80.867 46.2559 80.202 47.7628 80.202 49.445C80.202 51.1272 80.867 52.6341 82.1837 53.9357C83.5005 55.2374 85.0249 55.8947 86.7266 55.8947C88.4283 55.8947 89.9528 55.2374 91.2695 53.9357C92.1335 53.0817 92.4918 52.5254 92.9067 51.3939C93.5285 49.6976 93.2678 47.6117 92.2422 46.0778C91.8317 45.4639 90.7539 44.3985 90.1329 43.9927C88.5872 42.9828 86.3811 42.7209 84.6904 43.3464ZM87.5869 47.4784C88.9835 48.0552 89.324 49.8652 88.2379 50.9389C86.7107 52.4485 84.2081 51.0964 84.6099 48.9786C84.8501 47.7136 86.3393 46.9631 87.5869 47.4784ZM68.2296 54.0504C67.525 54.5196 67.1527 55.1573 67.1527 55.8947C67.1527 56.6321 67.525 57.2698 68.2296 57.7391C69.1767 58.3701 70.472 58.0384 71.1934 56.9801C72.0923 55.6617 70.9869 53.7448 69.3276 53.7448C68.8876 53.7448 68.5451 53.8401 68.2296 54.0504ZM69.3597 66.7761C71.8026 67.3315 72.6628 67.6165 74.1962 68.3787C75.1366 68.846 76.9429 70.074 77.695 70.7573C78.3992 71.3969 79.9918 73.5377 80.5337 74.5727C81.3706 76.1716 81.6623 77.0142 82.2435 79.512C82.4221 80.2798 82.4216 96.0106 82.2428 96.7747C81.629 99.3989 81.4716 99.8711 80.7305 101.311C78.4735 105.699 74.4358 108.633 69.5315 109.45C69.2325 109.5 67.2056 109.566 65.0273 109.597C61.515 109.647 61.042 109.629 60.8475 109.437C60.5291 109.122 60.5244 105.867 60.8416 105.554C61.0253 105.372 61.5691 105.343 64.7137 105.343C69.0635 105.343 69.7943 105.225 71.919 104.187C74.2844 103.031 75.6889 101.643 76.8581 99.3046C77.4181 98.185 77.5669 97.7668 77.8774 96.4387C78.0843 95.5538 78.0843 80.7328 77.8774 79.8479C77.5669 78.5198 77.4181 78.1016 76.8581 76.9821C75.6889 74.6438 74.2844 73.2555 71.919 72.0996C69.7943 71.0612 69.0635 70.9441 64.7137 70.9441C61.5691 70.9441 61.0253 70.9144 60.8416 70.733C60.5287 70.4236 60.5287 67.1647 60.8416 66.8553C61.0258 66.6734 61.5876 66.6442 64.9176 66.6442C67.0419 66.6442 69.0408 66.7035 69.3597 66.7761ZM69.1199 75.5827C70.4266 75.9928 70.5818 76.0892 71.6398 77.1481C72.6092 78.1183 73.0038 78.745 73.3945 79.9354C73.667 80.7658 73.6774 81.0673 73.6774 88.1433C73.6774 95.2193 73.667 95.5209 73.3945 96.3513C73.0038 97.5416 72.6092 98.1683 71.6398 99.1385C70.5818 100.197 70.4266 100.294 69.1199 100.704C68.0814 101.03 67.9046 101.043 64.5475 101.043C61.554 101.043 61.0247 101.013 60.8416 100.832C60.6505 100.643 60.6281 99.307 60.6281 88.1433C60.6281 76.9797 60.6505 75.6439 60.8416 75.455C61.0247 75.274 61.554 75.2439 64.5475 75.2439C67.9046 75.2439 68.0814 75.257 69.1199 75.5827ZM18.2074 81.9991C17.9551 82.1671 17.6096 82.5087 17.4397 82.7581L17.1306 83.2114V97.8179V112.424L17.4397 112.878C18.4143 114.307 20.1966 114.307 21.1712 112.878L21.4803 112.424V97.8179V83.2114L21.1712 82.7581C20.6966 82.0616 20.0514 81.6936 19.3055 81.6936C18.8655 81.6936 18.5229 81.7889 18.2074 81.9991ZM31.2567 81.9991C31.0044 82.1671 30.6589 82.5087 30.4889 82.7581L30.1798 83.2114V97.8179V112.424L30.4889 112.878C31.4636 114.307 33.2459 114.307 34.2205 112.878L34.5296 112.424V97.8179V83.2114L34.2205 82.7581C33.7458 82.0616 33.1007 81.6936 32.3547 81.6936C31.9147 81.6936 31.5722 81.7889 31.2567 81.9991ZM44.3059 81.9991C44.0536 82.1671 43.7081 82.5087 43.5382 82.7581L43.2291 83.2114V97.8179V112.424L43.5382 112.878C44.5128 114.307 46.2951 114.307 47.2697 112.878L47.5788 112.424V97.8179V83.2114L47.2697 82.7581C46.7951 82.0616 46.1499 81.6936 45.404 81.6936C44.964 81.6936 44.6214 81.7889 44.3059 81.9991Z" fill="#FDCF55"/>
</svg>
