<svg width="77" height="134" viewBox="0 0 77 134" fill="none" xmlns="http://www.w3.org/2000/svg">
<path fill-rule="evenodd" clip-rule="evenodd" d="M28.2544 0.16153C28.0025 0.241789 27.4257 0.414922 26.9724 0.546188C25.596 0.944556 22.5571 2.53492 21.2953 3.51704C18.6399 5.5842 17.6473 6.95975 16.5934 10.0339C16.161 11.295 15.6665 12.4298 15.4946 12.5554C15.3226 12.6812 14.7238 12.7852 14.1639 12.7866C11.9544 12.7923 9.25889 14.3216 7.4435 16.5992C6.42271 17.8799 6.04674 18.5918 5.4424 20.3893C5.01735 21.6531 4.9745 22.0157 5.04647 23.7397C5.09097 24.803 5.18986 25.858 5.26641 26.0844C5.37959 26.4187 5.25982 26.6412 4.62655 27.2727C2.37273 29.5205 0.46467 32.5341 0.141258 34.3569C-0.147543 35.9852 0.0165453 38.2334 0.541587 39.8399C1.07011 41.4564 2.3209 43.7323 3.43875 45.1115C5.6997 47.901 10.3758 50.5091 13.7869 50.8832C16.1551 51.143 17.0734 51.2883 17.2113 51.4256C17.2918 51.5061 17.4158 54.2184 17.4867 57.4529C17.7063 67.4788 18.211 72.0013 19.6154 76.5249C19.9654 77.652 21.4986 80.3626 22.7538 82.0733C26.812 87.6044 27.2076 88.3726 28.3098 92.8598C28.7668 94.72 29.188 96.5711 29.246 96.9733C29.3041 97.3755 29.437 98.1159 29.5414 98.6187C30.1611 101.603 30.4148 109.704 29.9562 111.873C29.62 113.465 29.0116 115.198 28.5384 115.913C27.9807 116.756 26.5128 119.671 26.1337 120.689C25.9732 121.119 25.7172 121.8 25.5645 122.203C24.4276 125.198 24.0099 129.6 24.749 130.795C25.2849 131.662 26.0822 132.369 26.9418 132.739C27.7006 133.066 28.6102 133.081 47.6908 133.081C69.4188 133.081 68.0916 133.145 69.1217 132.046C69.9328 131.18 70.1918 130.291 70.1918 128.372C70.1918 127.415 70.1165 126.335 70.0246 125.972C69.9325 125.608 69.7587 124.858 69.6384 124.305C69.0956 121.812 67.7004 118.563 66.2132 116.327C65.8528 115.785 65.4691 114.911 65.3605 114.384C65.1027 113.134 65.13 101.446 65.3966 98.8929C65.7821 95.2021 66.624 91.2224 67.3109 89.8432C67.6874 89.0873 69.1276 87.1698 70.0147 86.2431C71.0503 85.1612 73.4574 81.9499 73.9204 81.0325C74.8618 79.1666 75.8193 75.6771 76.1427 72.9322C76.5692 69.3125 76.6514 67.5097 76.6432 61.9629C76.6328 54.8791 76.3361 49.0301 75.6973 43.3151C75.6017 42.4604 75.4363 40.9796 75.3298 40.0243C74.9988 37.0582 74.8265 35.9465 74.5361 34.9053C74.3819 34.3523 74.074 33.1182 73.8522 32.163C72.9745 28.3833 71.7801 25.3951 70.4484 23.6472C69.4787 22.3744 68.8075 21.8113 67.4448 21.1268C65.9627 20.3825 65.5014 20.2503 62.1938 19.6238C61.8949 19.5671 61.5686 19.0733 60.8822 17.6389C60.0927 15.9888 58.122 13.1514 57.7638 13.1486C57.6997 13.1483 57.3999 12.9164 57.0978 12.6338C56.0193 11.6246 54.7198 10.7325 53.2644 10.0015C51.1267 8.92783 50.4244 8.74428 47.2815 8.43842C46.5158 8.36401 45.7448 8.18338 45.5683 8.03694C45.3918 7.89068 44.928 7.30182 44.538 6.7283C44.1479 6.15497 43.3535 5.21143 42.7728 4.6317C41.6556 3.51649 39.0129 1.6837 37.952 1.28863C37.604 1.15901 37.031 0.927187 36.6785 0.773434C35.2658 0.157325 34.0992 -0.0136137 31.4044 0.000829165C29.9238 0.0086905 28.5062 0.0810884 28.2544 0.16153ZM34.6688 6.37472C37.7782 7.69579 40.2442 10.0926 40.9696 12.4991C41.1507 13.0995 41.1793 13.5117 41.0616 13.8209C40.9674 14.068 40.8905 14.5955 40.8905 14.9929C40.8905 16.346 39.6535 20.3876 38.6006 22.4749C38.2485 23.1729 37.9604 23.9971 37.9604 24.3062C37.9604 25.4483 38.9724 26.6533 40.3349 27.1332C41.1297 27.4131 41.1698 27.4084 42.1616 26.9118C43.2324 26.3758 43.576 25.937 44.2008 24.3066C44.3946 23.8011 44.7268 22.9556 44.939 22.4277C45.7305 20.4589 46.484 17.9907 46.9486 15.8438C47.074 15.2644 47.2723 14.711 47.3894 14.6141C47.7164 14.343 49.5071 14.7008 50.6063 15.2569C51.945 15.9341 53.6895 17.3698 54.5147 18.4733C55.5282 19.8284 55.8988 20.7611 55.9034 21.9681C55.9074 23.0234 55.8552 23.3205 55.1785 26.0889C54.7068 28.0182 54.7041 29.1558 55.169 29.917C55.5444 30.5319 57.0731 31.4317 57.7417 31.4317C58.3295 31.4317 59.0749 30.9787 59.794 30.184C60.5004 29.4035 60.491 29.4254 60.959 27.4411C61.3988 25.575 61.6741 25.4108 63.4334 25.9652C65.1604 26.5094 65.6523 26.9568 66.4956 28.7499C67.5204 30.9291 67.9094 32.2815 67.614 32.6369C67.3596 32.9427 67.041 32.9367 61.493 32.5208C54.4907 31.9959 50.6821 32.3758 47.6648 33.8998C44.575 35.4606 42.8815 37.6815 42.6466 40.4814C42.503 42.193 42.4964 41.7443 42.7198 45.4176C42.8874 48.1687 43.0266 49.6345 43.4758 53.3703C43.769 55.809 43.8825 63.5321 43.6425 64.7053C43.1996 66.8689 43.0647 67.122 41.9433 67.8907C41.0773 68.4844 40.6971 68.6266 39.8044 68.6909C38.36 68.7953 37.9608 68.4169 37.5209 66.5265C37.2427 65.3312 37.2169 64.4945 37.3119 59.7691C37.4918 50.8316 37.4799 46.2322 37.2727 44.5949C37.0581 42.8985 36.1578 39.2146 35.709 38.1961C35.5538 37.8442 35.3282 37.2902 35.2075 36.965C34.9301 36.2169 32.6512 33.9099 31.7225 33.4369C30.0326 32.5764 29.5225 32.502 25.9084 32.5904C20.6959 32.7179 19.9414 32.9067 19.0726 34.3018C18.606 35.051 18.4937 35.8405 18.1939 40.4814C17.9907 43.6287 17.7813 44.7654 17.3473 45.0823C16.5582 45.6583 13.536 45.2073 11.5746 44.2208C8.76224 42.8063 7.0591 40.8492 6.16065 37.9996C5.72717 36.6248 5.69915 36.377 5.89291 35.6388C6.11267 34.802 7.09243 33.2082 7.75519 32.6095C8.10589 32.2926 8.1361 32.295 8.61774 32.6778C9.70189 33.5396 10.2778 33.7206 11.7202 33.6532C12.5276 33.6153 13.5041 32.7193 13.8535 31.6961C14.2039 30.6693 14.0156 30.0512 12.6741 27.8263C11.8008 26.3776 10.8545 23.9227 10.8586 23.1155C10.8611 22.5859 11.6279 21.0231 12.241 20.2981C13.1203 19.2584 14.124 18.6342 14.9164 18.6342C16.0692 18.6342 19.2905 19.5531 20.8887 20.3377C22.4813 21.1197 23.248 21.2884 24.0073 21.0239C25.5202 20.497 26.2381 19.6225 26.2392 18.3051C26.2404 16.8279 25.6302 16.1286 23.3475 14.9911C22.512 14.5748 21.7828 14.1152 21.7268 13.9699C21.5936 13.6231 22.1397 11.8628 22.7829 10.5655C24.0705 7.96856 28.0137 5.88348 31.6982 5.85149C33.1944 5.83851 33.5566 5.90231 34.6688 6.37472ZM29.2718 8.04279C28.0729 8.49692 26.4069 9.53809 26.026 10.0712C25.4378 10.8946 25.4387 11.2809 26.0298 11.8711C26.766 12.606 27.4096 12.5821 28.5424 11.7782C29.602 11.0261 31.2057 10.512 31.9991 10.6703C32.3065 10.7317 32.9969 11.0729 33.5335 11.4285C34.5499 12.1022 35.0319 12.8764 35.0283 13.8293C35.0259 14.4372 34.6221 15.8204 34.2206 16.5954C33.783 17.4402 33.8481 18.3848 34.3811 18.9167C35.2489 19.7831 36.0826 19.4434 36.8596 17.9067C37.7293 16.1869 37.9549 15.3493 37.9576 13.8291C37.9609 12.1056 37.5341 11.1268 36.1976 9.79239C34.2717 7.86984 31.5458 7.18115 29.2718 8.04279ZM28.6206 38.6363C29.6297 38.9976 30.1468 40.0165 31.088 43.4979C31.3905 44.6172 31.5899 46.7518 31.6685 49.7139C31.7383 52.3388 31.7051 52.9789 31.4843 53.2789C31.2028 53.6612 31.2682 53.653 25.5828 54.0257C23.3594 54.1716 23.2433 54.0652 23.3894 52.0187C23.4475 51.2035 23.5762 48.8912 23.6751 46.8801C24.0355 39.555 24.098 38.9228 24.4893 38.6378C24.9395 38.31 27.7064 38.3089 28.6206 38.6363ZM65.705 38.6965C68.1691 38.8736 69.2113 39.2104 69.3539 39.8751C69.4514 40.3296 69.5336 41.0419 69.8352 44.0464C69.9411 45.1022 70.1077 46.7476 70.2055 47.7028C70.3031 48.6581 70.4289 50.4351 70.485 51.6518C70.5731 53.5687 70.5456 53.9051 70.2788 54.1714C69.9973 54.4524 69.3362 54.4713 62.6185 54.3899C54.6791 54.2937 49.7963 54.0968 49.5639 53.8637C49.3057 53.6045 48.8443 49.3609 48.626 45.2347C48.5515 43.827 48.4358 42.5917 48.3689 42.4895C48.1895 42.2155 48.7077 40.3909 49.0826 39.977C49.4637 39.5563 50.5513 38.9797 51.5939 38.6455C52.4288 38.3778 61.7413 38.4115 65.705 38.6965ZM30.9867 59.7563C31.1907 59.8852 31.259 60.5844 31.3033 62.9984C31.3724 66.7514 31.6885 68.5864 32.5739 70.3727C33.5478 72.3371 34.8517 73.5454 36.7433 74.2356C37.899 74.6573 40.9389 74.7032 42.408 74.3213C43.9778 73.9131 45.4991 73.0452 46.6385 71.9077C47.8047 70.7435 48.3228 69.8248 48.8965 67.9046C49.5699 65.6506 49.6809 64.9259 49.6809 62.7831C49.6809 60.8976 49.7199 60.6442 50.0631 60.3016C50.3962 59.9691 50.579 59.9358 51.4824 60.0428C52.0528 60.1104 56.5812 60.2205 61.5455 60.2874C69.2741 60.3914 70.5976 60.4484 70.7523 60.6832C71.0181 61.0867 70.7088 68.6359 70.2879 72.0181C70.0032 74.3061 69.3219 77.0591 68.7723 78.1423C68.3288 79.0167 66.7315 81.0956 65.4843 82.4219C64.1163 83.8767 61.7288 87.5042 61.3869 88.6474C59.7012 94.2836 59.3325 97.4883 59.325 106.571C59.3179 115.161 59.5261 117.026 60.6592 118.527C61.4924 119.632 63.0236 122.71 63.5265 124.292C64.0105 125.814 64.0801 126.677 63.7455 127.011C63.427 127.329 31.1733 127.329 30.8548 127.011C30.4093 126.566 30.5701 125.705 31.6273 122.879C32.0027 121.876 32.9849 119.938 33.795 118.602C34.421 117.57 35.5394 114.355 35.945 112.422C36.1906 111.251 36.0844 102.731 35.7969 100.538C35.5938 98.9905 35.2751 96.9729 35.1469 96.4248C35.0999 96.2237 34.964 95.5655 34.8451 94.9622C34.4562 92.9901 33.5348 89.3229 33.0869 87.9633C32.2553 85.4396 31.2722 83.7743 27.8835 79.1482C25.9187 76.466 25.1618 74.9208 24.749 72.7494C24.6439 72.1964 24.4798 71.3737 24.3844 70.9212C24.0927 69.5365 23.8531 67.3048 23.6879 64.431C23.6013 62.9227 23.4726 61.4706 23.4021 61.2039C23.3059 60.8399 23.3698 60.6232 23.6581 60.3355C23.9907 60.0035 24.2703 59.9502 25.7363 59.9391C26.6679 59.932 27.5951 59.8555 27.7965 59.7691C28.2866 59.5588 30.6593 59.5493 30.9867 59.7563ZM51.2375 79.3012C50.5634 79.7116 49.5738 80.8148 49.4058 81.3431C49.1267 82.221 49.9171 83.4585 51.1617 84.0924C52.4446 84.7456 53.5245 84.4855 54.5984 83.2646C55.4886 82.2523 55.3729 81.3492 54.1915 80.0924C53.1161 78.9485 52.2138 78.7068 51.2375 79.3012ZM45.2714 97.6632C43.7355 98.6964 43.3595 100.367 44.3971 101.547C45.5225 102.826 46.5402 103.03 48.0322 102.275C49.0806 101.745 49.3146 101.395 49.3146 100.355C49.3146 99.4975 49.1117 99.0258 48.4224 98.2825C47.4029 97.1828 46.3059 96.9672 45.2714 97.6632Z" fill="#FDCF55"/>
</svg>
