<svg width="120" height="129" viewBox="0 0 120 129" fill="none" xmlns="http://www.w3.org/2000/svg">
<path fill-rule="evenodd" clip-rule="evenodd" d="M83.7807 0.211103C83.5958 0.396809 83.5703 1.14944 83.5703 6.45C83.5703 11.7506 83.5958 12.5032 83.7807 12.6889C83.9503 12.8589 84.3263 12.9 85.7131 12.9C87.1076 12.9 87.4755 12.9406 87.6477 13.1134C87.8394 13.3057 87.8557 14.4429 87.8124 24.636C87.782 31.7916 87.7123 36.2415 87.6223 36.7516C87.2516 38.8556 86.1346 41.4189 84.804 43.2194C83.749 44.6472 83.3359 45.0479 81.4304 46.4916C77.0482 49.8117 74.6883 53.1953 73.369 58.05C72.968 59.5254 72.9488 60.9099 72.9021 91.9684L72.8546 123.535L73.1376 124.353C73.5333 125.496 73.9268 126.139 74.7346 126.962C75.6339 127.879 76.1888 128.24 77.3422 128.659L78.279 129H96.4273H114.576L115.512 128.659C116.666 128.24 117.221 127.879 118.12 126.962C118.928 126.139 119.321 125.496 119.717 124.353L120 123.535L119.954 91.9684C119.922 70.4988 119.862 60.1652 119.766 59.6625C119.688 59.256 119.58 58.6816 119.527 58.3859C119.474 58.0903 119.226 57.2253 118.976 56.4637C117.691 52.5482 115.367 49.4785 111.424 46.4916C109.518 45.0476 109.106 44.6473 108.049 43.218C106.605 41.2627 105.616 38.9365 105.186 36.4828C105.135 36.1872 105.07 30.8561 105.043 24.636C104.999 14.4418 105.015 13.3057 105.207 13.1134C105.379 12.9406 105.747 12.9 107.141 12.9C108.528 12.9 108.904 12.8589 109.074 12.6889C109.259 12.5032 109.284 11.7506 109.284 6.45C109.284 1.14944 109.259 0.396809 109.074 0.211103C108.886 0.0221718 107.554 0 96.4273 0C85.3004 0 83.969 0.0221718 83.7807 0.211103ZM104.788 4.5111C104.958 4.68122 104.999 5.05855 104.999 6.45C104.999 7.84145 104.958 8.21878 104.788 8.3889C104.601 8.57622 103.658 8.6 96.4273 8.6C89.1964 8.6 88.2532 8.57622 88.0664 8.3889C87.7581 8.07957 87.7581 4.82043 88.0664 4.5111C88.2532 4.32378 89.1964 4.3 96.4273 4.3C103.658 4.3 104.601 4.32378 104.788 4.5111ZM100.445 13.0316C100.62 13.1424 100.657 14.6543 100.728 24.7536C100.807 35.7929 100.863 37.3643 101.226 38.7C102.55 43.5728 104.783 46.7714 109.334 50.313C110.276 51.0462 111.219 51.8323 111.43 52.0598C113.554 54.3515 114.979 57.1517 115.47 59.9984C115.547 60.4419 115.636 62.0215 115.669 63.5087C115.721 65.8786 115.701 66.2396 115.51 66.4314C115.311 66.6312 113.674 66.65 96.4273 66.65C79.1806 66.65 77.544 66.6312 77.3447 66.4314C77.1536 66.2395 77.1342 65.8796 77.1871 63.5087C77.2203 62.0215 77.2871 60.5628 77.3356 60.2672C77.7241 57.8979 78.7452 55.4907 80.1927 53.532C81.2488 52.1027 81.6616 51.7024 83.5674 50.2584C87.5597 47.2336 89.9466 44.0477 91.1696 40.1109C91.3991 39.3719 91.6559 38.4044 91.7398 37.9609C91.8238 37.5175 91.9486 36.9361 92.0171 36.6688C92.0891 36.3881 92.1416 31.3575 92.1416 24.7525C92.1416 14.5406 92.164 13.2998 92.352 13.1111C92.5338 12.9289 93.0885 12.9003 96.4033 12.902C98.5889 12.9032 100.331 12.959 100.445 13.0316ZM29.9326 47.4621C27.8932 47.9498 25.7804 48.8702 24.5678 49.7988C23.6955 50.467 22.0489 52.165 21.5274 52.9343C21.2985 53.2722 21.0469 53.5929 20.9684 53.6472C20.8899 53.7015 20.2108 53.7468 19.4594 53.748C18.708 53.7491 17.7697 53.8345 17.3742 53.9379C16.5337 54.1576 14.7752 55.0236 13.9648 55.617C12.8669 56.4211 11.5658 58.3975 11.1246 59.9313C11.029 60.2638 10.8975 60.7113 10.8324 60.9255C10.6796 61.4289 10.6796 63.2711 10.8324 63.7745C10.8975 63.9887 11.029 64.4362 11.1246 64.7688C11.5754 66.3372 12.7796 68.1554 13.927 69.0005C14.9403 69.7469 14.9998 69.8784 14.9998 71.3734C14.9998 72.3799 14.9517 72.7259 14.7894 72.8889C14.6065 73.0723 13.998 73.1 10.153 73.1C5.04221 73.1 4.78735 73.1451 2.94639 74.3766C2.14283 74.9141 1.80801 75.25 1.2723 76.0563C0.904006 76.6105 0.467003 77.465 0.301335 77.9551L0 78.8463L0.00174111 90.3176L0.00361608 101.789L0.381959 102.88C1.08253 104.899 2.5959 106.415 4.61405 107.12L5.69189 107.496L10.1354 107.498C13.9948 107.5 14.6066 107.528 14.7894 107.711C14.9758 107.898 14.9998 108.812 14.9998 115.741V123.559L15.3393 124.499C15.748 125.631 16.1011 126.187 16.9523 127.041C17.8036 127.895 18.358 128.249 19.4858 128.659L20.4226 129H38.5709H56.7192L57.656 128.659C58.7838 128.249 59.3383 127.895 60.1895 127.041C61.0407 126.187 61.3938 125.631 61.8025 124.499L62.142 123.559V96.1379C62.142 74.4006 62.1767 68.6744 62.3094 68.5111C62.4016 68.3978 62.7493 68.15 63.0822 67.9603C63.7774 67.5643 64.9565 66.4413 65.4271 65.727C66.0228 64.8228 66.4278 63.4536 66.4259 62.3505C66.4238 61.191 65.864 59.344 65.3335 58.7466C64.0611 57.3136 63.2552 56.7183 61.9417 56.2406C61.0253 55.9074 60.9253 55.9 57.3658 55.9H53.7267L52.2091 55.1142C50.752 54.3598 50.3988 54.2266 48.9818 53.8979C48.2201 53.7214 45.948 53.7015 45.5103 53.8677C45.3398 53.9325 44.8298 54.0284 44.3772 54.0808L43.5541 54.1762L42.9597 53.2577C42.3087 52.2516 40.7534 50.5926 39.7171 49.7988C38.4699 48.8437 36.3552 47.9342 34.2499 47.4475C33.4889 47.2716 30.6895 47.2811 29.9326 47.4621ZM34.0086 51.8099C35.0908 52.0881 36.1531 52.569 37.0788 53.1997C38.8942 54.4367 39.7933 55.8847 40.7782 59.1586C41.0709 60.1317 41.1785 60.3344 41.4025 60.3344C41.6569 60.3344 42.2852 59.9975 43.861 59.0162C44.6012 58.5551 46.31 58.05 47.129 58.05C48.3502 58.05 50.1384 58.7371 51.4073 59.6939L51.9892 60.1328L56.3865 60.2C60.5629 60.2638 60.8024 60.2812 61.1532 60.5443C61.856 61.071 62.0751 61.5004 62.0751 62.35C62.0751 63.1997 61.856 63.6288 61.1534 64.1557C60.8092 64.4139 60.5515 64.4374 57.3845 64.5C55.2396 64.5423 53.9324 64.6201 53.8424 64.7108C53.7638 64.7898 53.5805 65.2724 53.4349 65.7831C53.0314 67.1989 52.5783 68.0083 51.6795 68.9184C50.7315 69.8785 50.0928 70.2803 48.8947 70.6704C47.3395 71.1766 45.4943 70.9503 43.9734 70.0669C42.8988 69.4428 41.95 68.304 41.0681 66.5796C40.0625 64.6134 39.9754 64.5748 38.9251 65.6286C37.8883 66.6688 37.0823 67.2591 35.849 67.8813C34.6724 68.4748 33.9569 68.6523 32.3187 68.7569C29.827 68.916 27.012 67.5811 25.3467 65.451C24.4159 64.2604 24.1309 63.9625 23.9224 63.9625C23.8266 63.9625 23.3318 64.3607 22.8227 64.8474C21.8177 65.808 21.0754 66.2478 19.9994 66.5201C19.3949 66.6731 19.1768 66.6645 18.2802 66.4526C16.3168 65.9887 14.9998 64.3416 14.9998 62.35C14.9998 60.0159 16.9736 58.0456 19.3061 58.0515C20.0383 58.0532 20.8813 58.3079 21.9537 58.851C23.0564 59.4096 23.2859 59.3638 23.6093 58.5203C24.7735 55.4844 25.5586 54.3255 27.2197 53.1914C29.2826 51.783 31.862 51.258 34.0086 51.8099ZM57.646 69.0111C57.8278 69.1937 57.8561 69.7623 57.8544 73.2103C57.8532 75.4137 57.7969 77.2862 57.7286 77.3946C57.6006 77.5978 57.2595 77.5531 55.7805 77.1396C54.4065 76.7554 51.8815 76.4433 50.0886 76.436C49.3313 76.4328 47.1197 76.6483 46.4056 76.7948C45.5016 76.9801 44.7591 77.1751 44.0619 77.4101C42.4652 77.9484 41.6523 78.1129 40.0441 78.2233C37.9362 78.3679 38.1894 78.3679 36.6959 78.224C35.4408 78.1031 34.5224 77.8964 33.0799 77.4101C32.3923 77.1783 31.6991 76.9955 30.7362 76.7924C30.174 76.6736 27.4033 76.4395 26.5175 76.436C25.1298 76.4302 22.724 76.7585 21.3613 77.1396C19.8824 77.5531 19.5413 77.5978 19.4132 77.3946C19.3452 77.2867 19.2887 75.8876 19.2875 74.2853C19.2852 71.0822 19.3172 70.95 20.0921 70.95C20.587 70.95 21.821 70.6279 22.3217 70.3682C22.5352 70.2574 22.9297 70.1253 23.1984 70.0748C23.633 69.993 23.7804 70.0494 24.5331 70.5852C26.0405 71.6584 27.902 72.4594 30.035 72.9525C30.8582 73.1427 33.4267 73.1427 34.2499 72.9525C35.4775 72.6687 36.7692 72.2405 37.5291 71.8656C38.5585 71.3577 38.8303 71.3804 39.4973 72.0297C40.405 72.9136 41.2296 73.491 42.4462 74.0944C44.1523 74.9407 45.4093 75.25 47.1422 75.25C48.8751 75.25 50.1321 74.9407 51.8382 74.0944C53.7736 73.1344 55.2862 71.7772 56.1404 70.2341C56.6079 69.3895 57.0867 68.8 57.305 68.8C57.3768 68.8 57.5301 68.895 57.646 69.0111ZM115.502 71.1611C115.691 71.3506 115.713 72.8812 115.713 86C115.713 99.1188 115.691 100.649 115.502 100.839C115.313 101.029 113.398 101.05 96.4273 101.05C79.4562 101.05 77.5416 101.029 77.3522 100.839C77.1635 100.649 77.1418 99.1188 77.1418 86C77.1418 72.8812 77.1635 71.3506 77.3522 71.1611C77.5416 70.9712 79.4562 70.95 96.4273 70.95C113.398 70.95 115.313 70.9712 115.502 71.1611ZM94.2175 73.2621C92.1943 73.7461 90.066 74.6696 88.8785 75.5791C88.0649 76.2022 86.6621 77.6096 86.0411 78.426C85.1085 79.6519 84.1987 81.7894 83.7174 83.8855C83.6365 84.2377 83.5703 85.1892 83.5703 86C83.5703 88.0385 83.9926 89.7588 84.9906 91.7867C85.6526 93.132 86.2021 93.8862 87.3847 95.0729C88.5674 96.2594 89.3191 96.8107 90.6599 97.475C92.6811 98.4763 94.3956 98.9 96.4273 98.9C97.2354 98.9 98.1837 98.8336 98.5348 98.7525C100.624 98.2695 102.754 97.3567 103.976 96.4209C104.79 95.7978 106.192 94.3904 106.813 93.5741C107.746 92.3481 108.656 90.2106 109.137 88.1145C109.327 87.2885 109.327 84.7115 109.137 83.8855C108.656 81.7894 107.746 79.6519 106.813 78.426C106.192 77.6096 104.79 76.2022 103.976 75.5791C102.754 74.6433 100.624 73.7305 98.5348 73.2476C97.7738 73.0717 94.9743 73.0811 94.2175 73.2621ZM14.7894 77.6111C14.9777 77.8 14.9998 79.1359 14.9998 90.3C14.9998 101.464 14.9777 102.8 14.7894 102.989C14.6071 103.172 14.0245 103.2 10.4455 103.2C7.84262 103.2 6.17242 103.147 5.93497 103.057C5.37247 102.843 4.95663 102.405 4.604 101.655L4.28833 100.983V90.3V79.6172L4.604 78.9453C4.94659 78.2165 5.36738 77.7612 5.89291 77.5509C6.08845 77.4727 7.96355 77.4134 10.4033 77.4085C14.0283 77.4011 14.6066 77.4278 14.7894 77.6111ZM98.3249 77.6169C100.194 78.095 102.127 79.3071 103.104 80.614C105.203 83.4205 105.565 86.6708 104.116 89.6953C103.187 91.6334 102.029 92.7877 100.057 93.7405C98.4133 94.5348 96.2001 94.801 94.5946 94.3975C92.6764 93.9154 90.7434 92.7136 89.7506 91.386C87.2458 88.0365 87.2458 83.9636 89.7506 80.614C90.6984 79.3466 92.5121 78.1813 94.3514 77.6579C95.4021 77.3589 97.2421 77.3399 98.3249 77.6169ZM28.7273 80.8778C29.9292 80.9982 30.8803 81.2167 32.2764 81.6929C32.6815 81.831 33.3444 82.0154 33.7495 82.1025C34.1547 82.1895 34.7239 82.322 35.0145 82.3967C35.3051 82.4716 36.9625 82.5302 38.6975 82.5269C41.6026 82.5216 41.9527 82.495 43.1244 82.1909C43.8242 82.0092 44.6679 81.7669 44.9994 81.6524C46.6704 81.0754 48.656 80.7357 50.3565 80.7357C51.5064 80.7357 53.5088 80.999 54.4758 81.2774C55.0104 81.4314 55.8843 81.6772 56.4177 81.8236C58.0357 82.2679 57.864 79.6824 57.8242 103.005C57.7894 123.303 57.789 123.337 57.5132 123.708C57.3614 123.912 57.0708 124.203 56.8673 124.356C56.4981 124.632 56.4677 124.633 38.5709 124.633C20.6741 124.633 20.6437 124.632 20.2745 124.356C20.0711 124.203 19.7804 123.912 19.6286 123.708C19.3528 123.337 19.3524 123.303 19.3176 103.034C19.2793 80.6456 19.2193 82.2202 20.1179 82.0367C20.3598 81.9874 20.8892 81.8338 21.2944 81.6956C22.7579 81.1962 24.1182 80.8936 24.9415 80.8843C25.4031 80.8791 25.9014 80.8204 26.0488 80.7537C26.1961 80.6871 26.5878 80.6605 26.9193 80.6947C27.2508 80.7289 28.0644 80.8112 28.7273 80.8778ZM45.136 84.2011C44.0698 84.6016 43.4998 84.9727 42.6663 85.8091C41.3689 87.1107 40.7137 88.6178 40.7137 90.3C40.7137 91.9822 41.3689 93.4893 42.6663 94.791C43.9636 96.0926 45.4656 96.75 47.1422 96.75C48.8189 96.75 50.3208 96.0926 51.6182 94.791C52.4694 93.9369 52.8225 93.3806 53.2312 92.249C53.8439 90.5526 53.5871 88.4666 52.5766 86.9327C52.1721 86.3187 51.1102 85.2533 50.4983 84.8475C48.9754 83.8375 46.8018 83.5756 45.136 84.2011ZM47.9898 88.3333C49.3658 88.9102 49.7013 90.7202 48.6312 91.794C47.1266 93.3037 44.6608 91.9515 45.0567 89.8336C45.2934 88.5686 46.7607 87.818 47.9898 88.3333ZM27.9934 94.9511C26.9272 95.3516 26.3572 95.7227 25.5236 96.5591C24.2263 97.8607 23.5711 99.3678 23.5711 101.05C23.5711 102.732 24.2263 104.239 25.5236 105.541C26.8225 106.844 28.325 107.501 29.9991 107.498C31.1547 107.496 32.9955 106.934 33.591 106.402C35.0192 105.125 35.6125 104.317 36.0886 102.999C36.7013 101.303 36.4444 99.2166 35.4339 97.6827C35.0295 97.0687 33.9676 96.0033 33.3557 95.5975C31.8328 94.5875 29.6592 94.3256 27.9934 94.9511ZM30.8472 99.0833C32.2232 99.6602 32.5587 101.47 31.4886 102.544C29.9839 104.054 27.5182 102.701 27.9141 100.584C28.1507 99.3186 29.618 98.568 30.8472 99.0833ZM38.7075 105.701C37.6413 106.102 37.0713 106.473 36.2378 107.309C34.9404 108.611 34.2853 110.118 34.2853 111.8C34.2853 113.482 34.9404 114.989 36.2378 116.291C37.5351 117.593 39.0371 118.25 40.7137 118.25C42.3904 118.25 43.8924 117.593 45.1897 116.291C46.0409 115.437 46.394 114.881 46.8027 113.749C47.4154 112.053 47.1586 109.967 46.1481 108.433C45.7436 107.819 44.6817 106.753 44.0698 106.347C42.5469 105.338 40.3733 105.076 38.7075 105.701ZM115.505 105.564C115.697 105.756 115.715 106.675 115.682 114.557C115.646 123.186 115.641 123.343 115.37 123.708C115.218 123.912 114.927 124.203 114.724 124.356C114.354 124.632 114.324 124.633 96.4273 124.633C78.5305 124.633 78.5001 124.632 78.1309 124.356C77.9274 124.203 77.6368 123.912 77.4849 123.708C77.2135 123.343 77.2081 123.186 77.1725 114.557C77.1399 106.675 77.158 105.756 77.3494 105.564C77.5425 105.37 79.3507 105.35 96.4273 105.35C113.504 105.35 115.312 105.37 115.505 105.564ZM41.5614 109.833C42.9373 110.41 43.2728 112.22 42.2027 113.294C40.6981 114.804 38.2323 113.451 38.6282 111.334C38.8649 110.069 40.3322 109.318 41.5614 109.833Z" fill="#FDCF55"/>
</svg>
