<svg width="99" height="135" viewBox="0 0 99 135" fill="none" xmlns="http://www.w3.org/2000/svg">
<path fill-rule="evenodd" clip-rule="evenodd" d="M56.1458 0.263315C54.5824 0.858344 53.444 2.10803 53.1484 3.55418C52.9562 4.49475 52.9565 8.98791 53.149 9.93031C53.3211 10.7729 53.5212 11.1093 54.4778 12.164L55.1738 12.9315V21.3773C55.1738 26.6074 55.1214 29.9211 55.0362 30.08C54.9605 30.2213 54.6278 30.4956 54.2968 30.6896C53.2632 31.2958 51.8085 32.5329 51.0968 33.4113C50.3881 34.286 49.1718 36.5412 48.9461 37.3991C48.6178 38.6471 48.5075 40.6264 48.5075 45.2746C48.5075 49.7851 48.596 51.4698 48.9193 53.1163C49.0281 53.6702 48.8021 53.994 48.3071 53.994C48.1125 53.994 47.7242 54.0518 47.444 54.1224C47.1639 54.1932 46.5862 54.3261 46.1602 54.4181C44.9446 54.6805 44.2956 54.9222 42.8148 55.6642C41.2883 56.4291 39.4312 57.7414 38.4963 58.7157C36.9509 60.3263 35.1425 63.4256 34.7531 65.1311C34.5246 66.1317 34.6736 66.554 35.5342 67.3461C36.1941 67.9535 36.6895 68.1466 37.1839 67.9888C38.424 67.5933 49.6028 67.4211 52.3571 67.7549C54.761 68.0465 56.5847 68.3221 57.9906 68.6065C58.3392 68.6771 58.9729 68.8004 59.399 68.8807C60.0944 69.0117 61.702 69.4234 64.1171 70.0892C64.5818 70.2173 65.6909 70.5641 66.5818 70.8597C67.4726 71.1553 68.5183 71.4753 68.9056 71.5705C69.2929 71.6657 70.0217 71.8582 70.5252 71.9983C76.0246 73.5274 82.3171 74.1613 89.8201 73.9419C91.563 73.891 93.1848 73.8062 93.424 73.7534C94.0226 73.6217 94.3868 73.9825 94.2629 74.5846C94.1472 75.1466 93.8398 78.3075 93.4819 82.6133C93.3984 83.6189 93.2722 85.0744 93.2015 85.8479C93.1308 86.6214 93.0035 88.0137 92.9186 88.9419C92.8336 89.8701 92.7063 91.2624 92.6356 92.0359C92.5649 92.8094 92.4407 94.2333 92.3593 95.2002C92.1828 97.2981 91.98 99.5358 91.7919 101.458C91.7162 102.232 91.5876 103.656 91.5062 104.623C91.4248 105.59 91.3005 107.014 91.2298 107.787C91.1591 108.561 91.0318 109.953 90.9468 110.881C90.8619 111.809 90.7352 113.202 90.6652 113.975C89.9915 121.423 89.9035 122.104 89.4935 123.047C89.3762 123.317 89.2014 123.75 89.1052 124.008C88.3244 126.106 85.1151 129.044 82.7782 129.801C80.8974 130.41 80.9266 130.409 66.793 130.463C52.8203 130.517 52.7017 130.513 50.8078 129.978C49.4637 129.598 48.965 129.595 48.417 129.965C47.0255 130.904 46.8851 132.595 48.113 133.627C48.6364 134.066 49.5796 134.37 51.9345 134.856C52.9934 135.074 80.4986 134.975 81.7219 134.748C82.5614 134.592 83.1659 134.442 83.9753 134.187C85.4581 133.721 88.5936 131.8 89.8989 130.558C90.9249 129.582 92.8159 126.887 93.2366 125.802C94.4368 122.705 94.4796 122.487 94.8917 117.35C94.96 116.499 95.0858 115.044 95.1712 114.116C95.5108 110.425 95.5892 109.545 95.7353 107.787C95.8815 106.029 95.9598 105.149 96.2995 101.458C96.3849 100.53 96.5112 99.0747 96.5804 98.2239C96.6495 97.373 96.7759 95.9174 96.8612 94.9892C97.2009 91.2984 97.2792 90.4186 97.4254 88.6607C97.5089 87.6551 97.6351 86.1995 97.7058 85.426C97.7765 84.6525 97.9038 83.2603 97.9888 82.3321C98.0737 81.4039 98.201 80.0116 98.2717 79.2381C98.3424 78.4646 98.4666 77.0407 98.548 76.0738C98.6293 75.1069 98.7644 73.5881 98.848 72.6985C99.3604 67.2513 98.6194 64.0876 95.9791 60.4495C94.721 58.7159 94.6681 58.6589 93.2707 57.5373C91.8026 56.359 90.1136 55.4444 88.2488 54.8179C86.7013 54.2981 85.8614 54.1435 84.0457 54.0447C82.8088 53.9773 82.6709 53.9968 82.2182 54.3027C80.7052 55.3253 80.6983 57.1616 82.2038 58.1746C82.5926 58.4361 82.8738 58.4952 83.7497 58.4986C86.322 58.5089 89.5518 59.9695 91.4912 61.9996C92.3476 62.896 93.4819 64.605 93.7813 65.4499C94.2433 66.7533 94.626 68.3914 94.5443 68.7163C94.4926 68.9218 94.3246 69.0668 94.0784 69.1181C93.8666 69.1624 93.4397 69.2613 93.1298 69.3378C92.428 69.5113 82.2167 69.4056 80.5248 69.2073C79.4261 69.0786 77.9595 68.8783 76.7221 68.6882C74.7981 68.3924 69.9054 67.1858 67.7789 66.4825C65.4053 65.6974 61.7494 64.6972 60.1032 64.3825C59.6771 64.3011 59.0434 64.1767 58.6948 64.1061C57.4218 63.8486 56.0165 63.6318 53.2725 63.2691C50.962 62.9638 45.7809 62.7819 42.4303 62.8885C41.4685 62.9192 41.2994 62.8899 41.2597 62.6861C41.1529 62.1387 44.0732 59.8318 45.5205 59.3205C47.4931 58.6233 48.326 58.4944 50.8549 58.4944C53.1663 58.4944 53.3274 58.4768 53.7764 58.1746C55.0123 57.343 55.1971 56.2794 54.3854 54.6699C54.1067 54.1172 53.7264 53.1861 53.5404 52.6008C53.2039 51.5422 53.2021 51.5014 53.2021 45.1872V38.838L53.7567 37.7318C54.0618 37.1234 54.5509 36.3464 54.8434 36.0051C55.5111 35.2267 56.8392 34.3609 57.7889 34.0853C58.7541 33.8051 59.4632 33.0931 59.7466 32.1198C59.9301 31.4897 59.9623 30.0737 59.9623 22.656C59.9623 14.9136 59.9873 13.9082 60.1836 13.712C60.3782 13.5178 61.1671 13.4911 66.7226 13.4911C72.2781 13.4911 73.0669 13.5178 73.2616 13.712C73.4582 13.9085 73.4828 14.9641 73.4828 23.2119C73.4828 31.0836 73.5141 32.5512 73.689 32.889C73.9328 33.3597 74.6862 34.0238 74.9764 34.0238C75.2223 34.0238 76.7057 34.7596 77.4463 35.2492C77.9974 35.6133 78.8927 36.6998 79.3174 37.5197C79.901 38.6468 79.9583 39.1587 79.9599 43.2534C79.9616 47.5588 80.0086 47.8699 80.7843 48.6976C81.8175 49.8 82.9906 49.7581 84.0249 48.5818C84.4549 48.0928 84.4683 48.0377 84.4683 46.7565C84.4683 45.2808 84.6074 44.9934 85.3213 44.9934C86.3354 44.9934 89.1228 44.1334 90.2314 43.4786C91.1763 42.9204 92.8672 41.3579 93.6794 40.2924C94.2934 39.4869 95.0416 38.0247 95.3037 37.1178C95.4042 36.7697 95.5425 36.3014 95.611 36.0772C95.7731 35.5458 95.7731 27.439 95.611 26.9075C95.5425 26.6834 95.4042 26.215 95.3037 25.867C94.8176 24.1855 93.7878 22.6121 92.1276 21.0145C90.896 19.8295 89.9131 19.2132 88.4507 18.7093C86.3601 17.989 86.0879 17.9604 81.8291 18.0128C78.6125 18.0523 77.838 18.0258 77.78 17.8744C77.7404 17.7714 77.708 16.6883 77.708 15.4674C77.708 13.0132 77.666 13.1471 78.811 11.9446C79.0691 11.6736 79.4336 11.1533 79.6209 10.7885C79.9532 10.1411 79.9614 10.0437 79.9614 6.74056C79.9614 3.42114 79.9548 3.34323 79.6158 2.69265C79.0136 1.53705 78.0625 0.657798 76.9923 0.267113C76.263 0.000889972 75.851 -0.00937641 66.5133 0.00342141C57.6108 0.0156567 56.739 0.0375957 56.1458 0.263315ZM75.2333 4.71133C75.4115 4.88937 75.4546 5.28428 75.4546 6.74056C75.4546 8.19684 75.4115 8.59174 75.2333 8.76978C75.0369 8.96583 74.0449 8.99072 66.4409 8.99072C58.8369 8.99072 57.845 8.96583 57.6485 8.76978C57.3243 8.44604 57.3243 5.03507 57.6485 4.71133C57.845 4.51528 58.8369 4.49039 66.4409 4.49039C74.0449 4.49039 75.0369 4.51528 75.2333 4.71133ZM86.3321 22.7585C88.312 23.2985 89.6814 24.447 90.6133 26.3489L91.2285 27.6045V31.5011V35.3975L90.6626 36.5266C89.9803 37.8879 89.1375 38.853 88.0729 39.492C87.3498 39.926 85.7273 40.4788 85.1472 40.489C84.7032 40.4967 84.4683 40.0883 84.4683 39.3086C84.4683 38.9002 84.4122 38.3827 84.3439 38.1584C84.2755 37.9342 84.1371 37.4659 84.0366 37.1178C83.7742 36.2101 83.0261 34.7482 82.412 33.9432C81.603 32.883 80.0058 31.4036 79.1478 30.9201C77.6346 30.0673 77.708 30.2873 77.708 26.6035C77.708 24.2512 77.7552 23.3262 77.884 23.1542C78.2791 22.6266 79.0585 22.5118 82.2853 22.5058C84.8685 22.5009 85.5415 22.5429 86.3321 22.7585ZM1.08081 72.3152C0.819412 72.491 0.455908 72.8549 0.273099 73.1238C-0.0856169 73.6515 -0.0866022 73.7744 0.244509 76.7066C0.314365 77.3254 0.43943 78.4329 0.522525 79.1678C0.60562 79.9026 0.73505 81.0101 0.810117 81.6289C0.940252 82.7015 1.07405 83.876 1.38713 86.6918C1.83218 90.694 2.06048 92.7027 2.2185 94.0048C2.29357 94.6236 2.42033 95.6995 2.50018 96.3956C2.58004 97.0917 2.70679 98.1676 2.78186 98.7864C2.9296 100.004 3.14832 101.923 3.34324 103.709C3.4107 104.327 3.5383 105.403 3.62689 106.099C3.77801 107.288 3.91195 108.478 4.11743 110.459C4.24743 111.713 4.29686 111.874 4.70078 112.353C5.17006 112.91 6.01255 113.342 6.62844 113.342C7.20912 113.342 7.94078 112.873 8.38864 112.214C8.78905 111.624 8.78961 111.637 8.13964 105.888C8.05655 105.154 7.92669 104.046 7.85106 103.427C7.71896 102.347 7.62107 101.495 7.29348 98.5754C7.21095 97.8406 7.08208 96.7331 7.00702 96.1143C6.93195 95.4955 6.80519 94.4197 6.72534 93.7235C6.64548 93.0274 6.51746 91.9515 6.44084 91.3327C6.36423 90.7139 6.26381 89.7597 6.21762 89.2122C6.08551 87.6457 5.83961 87.723 10.7201 87.7963C12.977 87.8302 15.2355 87.9206 15.739 87.9971C17.127 88.2081 17.7075 88.3054 18.5558 88.4695C19.8616 88.7221 22.2176 89.3049 23.1209 89.5988C26.8546 90.8132 30.7352 91.6839 33.6959 91.9715C36.9687 92.2895 37.449 92.2852 38.0577 91.9331C38.6366 91.5984 39.2068 90.8865 39.3488 90.3214C39.4576 89.8887 39.335 89.4476 38.9457 88.8709C38.4512 88.1379 37.8003 87.8305 36.5127 87.7213C33.5474 87.4703 30.7731 87.0229 28.837 86.4838C28.256 86.3219 27.4379 86.095 27.0188 85.9794C26.5998 85.864 25.7759 85.6063 25.1879 85.4069C22.006 84.3275 18.1914 83.5619 14.3306 83.2276C12.2744 83.0496 7.98317 83.016 6.86463 83.1691C6.20438 83.2596 6.03776 83.2344 5.7482 83.0002C5.45131 82.7603 5.39272 82.5557 5.29104 81.4034C5.1495 79.7998 4.93443 77.9866 4.81571 77.3973C4.75388 77.0903 4.79684 76.8945 4.96232 76.7293C5.17809 76.5138 6.71323 76.4957 24.7527 76.4957C42.7921 76.4957 44.3273 76.5138 44.543 76.7293C44.7088 76.8948 44.7513 77.0897 44.6891 77.3973C44.6406 77.6362 44.539 78.4013 44.4629 79.0975C44.387 79.7936 44.2635 80.8695 44.1884 81.4883C44.0407 82.7062 43.822 84.6244 43.627 86.4105C43.5596 87.0293 43.432 88.1051 43.3434 88.8013C43.2548 89.4974 43.1272 90.5733 43.0597 91.1921C42.8648 92.9782 42.6461 94.8964 42.4984 96.1143C42.3506 97.3322 42.1319 99.2505 41.937 101.037C41.8695 101.655 41.7419 102.731 41.6533 103.427C41.5647 104.124 41.4371 105.199 41.3697 105.818C41.1747 107.604 40.956 109.522 40.8083 110.74C40.7332 111.359 40.6044 112.467 40.5218 113.202C40.1942 116.121 40.0963 116.973 39.9642 118.053C39.8886 118.672 39.7614 119.748 39.6816 120.444C39.6017 121.14 39.475 122.216 39.3999 122.835C39.2282 124.251 39.0003 126.279 38.8391 127.828C38.6739 129.415 38.4873 130.226 38.2538 130.374C38.0031 130.533 11.5023 130.533 11.2516 130.374C11.0171 130.226 10.8357 129.426 10.6583 127.757C10.5842 127.061 10.4622 125.985 10.3871 125.366C10.1877 123.723 9.9673 121.737 9.83294 120.374C9.6852 118.875 9.50986 118.324 9.01678 117.805C7.94543 116.68 6.75506 116.718 5.70144 117.912C5.21583 118.462 5.00626 118.992 5.09584 119.443C5.19189 119.927 5.41202 121.658 5.59863 123.398C5.66497 124.016 5.79172 125.092 5.88031 125.788C5.96889 126.485 6.09565 127.56 6.16198 128.179C6.22832 128.798 6.35141 129.842 6.43521 130.5C6.51915 131.157 6.63577 132.119 6.6945 132.638C6.81139 133.672 7.09152 134.168 7.85064 134.684L8.31625 135H24.7527H41.1891L41.6547 134.684C42.4138 134.168 42.694 133.672 42.8109 132.638C42.8696 132.119 42.9862 131.157 43.0702 130.5C43.154 129.842 43.2779 128.798 43.3454 128.179C43.5403 126.393 43.759 124.475 43.9067 123.257C44.0545 122.039 44.2732 120.121 44.4681 118.335C44.5356 117.716 44.6632 116.64 44.7518 115.944C44.8404 115.248 44.968 114.172 45.0354 113.553C45.2303 111.767 45.4491 109.849 45.5968 108.631C45.7445 107.413 45.9633 105.495 46.1582 103.709C46.2256 103.09 46.3532 102.014 46.4418 101.318C46.5304 100.622 46.658 99.5458 46.7255 98.927C46.9204 97.141 47.1391 95.2227 47.2869 94.0048C47.3619 93.386 47.4908 92.2785 47.5733 91.5437C47.9009 88.6239 47.9988 87.7718 48.1309 86.6918C48.277 85.4959 48.4917 83.6162 48.6933 81.7695C48.7607 81.1507 48.8883 80.0749 48.9769 79.3787C49.2026 77.6049 49.3848 75.9025 49.4814 74.6674C49.5559 73.7156 49.5316 73.565 49.2318 73.1238C49.0492 72.8549 48.686 72.491 48.4246 72.3152L47.9494 71.9954H24.7527H1.556L1.08081 72.3152ZM72.2857 79.054C71.5912 79.4185 69.7939 80.8596 69.0801 81.6241C68.4927 82.2534 67.2672 83.921 66.5961 85.0046C66.0628 85.8658 65.2682 87.8782 64.8896 89.326C64.6665 90.1797 64.4727 90.3365 63.8022 90.2061C63.5106 90.1494 62.0996 90.0746 60.6665 90.0399C57.3863 89.9603 56.3249 90.1469 54.2584 91.1665C50.8101 92.868 48.8859 95.4881 47.9849 99.7091C47.813 100.515 47.8667 102.085 48.1146 103.498C48.1892 103.923 48.3237 104.714 48.4136 105.256C48.5034 105.797 48.6302 106.557 48.6953 106.943C48.7603 107.33 48.8871 108.089 48.9769 108.631C49.0668 109.172 49.1944 109.932 49.2607 110.318C49.3269 110.705 49.4239 111.338 49.4763 111.725C49.6884 113.291 50.6176 115.514 51.5968 116.799C52.4085 117.864 54.0998 119.426 55.0443 119.984C55.8437 120.456 57.3403 120.988 58.8728 121.343C59.8318 121.566 62.7508 121.539 63.6717 121.3C64.4768 121.09 65.1355 120.792 65.7584 120.355C66.2853 119.985 66.5912 120.023 67.7364 120.599C68.2901 120.877 69.0839 121.194 69.5002 121.302C70.505 121.563 73.6475 121.563 74.6379 121.302C77.2279 120.619 78.4629 119.97 80.0155 118.476C82.2333 116.342 83.1732 114.573 83.6403 111.655C83.7207 111.152 83.8398 110.424 83.9049 110.037C83.97 109.65 84.0967 108.891 84.1866 108.35C84.2764 107.808 84.4036 107.049 84.4692 106.662C85.2798 101.887 85.3123 101.502 85.0564 99.7005C84.8791 98.452 84.7287 97.8484 84.4169 97.1339C84.2902 96.8439 84.0998 96.4002 83.9936 96.1479C83.64 95.3071 81.9033 93.1437 81.1317 92.5826C79.8193 91.6283 78.7064 91.0115 77.7352 90.7001C75.608 90.0182 75.3653 89.986 72.475 90.0026C70.9427 90.0115 69.6301 89.9823 69.5584 89.938C69.3523 89.8109 69.5887 89.0391 70.211 87.8073C71.0882 86.0711 72.0837 84.889 74.1042 83.1847C75.1032 82.3422 75.4533 81.7999 75.454 81.0945C75.4549 80.2083 74.9297 79.4687 73.9476 78.9733C73.3572 78.6754 72.9712 78.6942 72.2857 79.054ZM15.8827 94.8645C14.7615 95.2836 14.162 95.672 13.2855 96.5473C11.9212 97.9097 11.2322 99.4869 11.2322 101.248C11.2322 103.008 11.9212 104.585 13.2855 105.948C14.1806 106.842 14.7637 107.212 15.9497 107.642C17.7277 108.285 19.914 108.015 21.5217 106.954C22.1652 106.529 23.2819 105.414 23.7072 104.772C24.6976 103.275 25.048 101.024 24.4324 100.111C23.4512 98.6574 21.661 98.6119 20.6206 100.014C20.4518 100.242 20.294 100.751 20.2333 101.264C20.0632 102.706 19.3155 103.427 17.9924 103.427C16.6214 103.427 15.8094 102.617 15.8094 101.248C15.8094 99.9264 16.5322 99.1798 17.9757 99.0099C18.4894 98.9492 18.9994 98.7917 19.2274 98.6231C20.6319 97.5842 20.5863 95.7966 19.1301 94.8168C18.4747 94.3756 17.138 94.3953 15.8827 94.8645ZM62.8211 94.687C63.4591 94.9532 64.1875 95.82 64.1875 96.313C64.1875 97.1938 64.9294 98.3631 65.7649 98.7989C66.2537 99.0539 66.9129 99.0518 67.4128 98.7936C67.9762 98.5027 68.6943 97.6388 68.6943 97.2522C68.6943 96.7071 69.1036 95.7221 69.5097 95.2903C70.1591 94.5997 70.5968 94.497 72.8917 94.497C75.8881 94.497 77.1266 94.9314 78.7489 96.5516C79.7079 97.5091 80.1172 98.1783 80.5289 99.4617C80.8521 100.47 80.8556 101.577 80.5411 103.357C80.4038 104.134 80.2617 104.977 79.9606 106.803C79.8713 107.344 79.7448 108.103 79.6797 108.49C79.6147 108.877 79.4976 109.605 79.4198 110.108C79.1741 111.693 78.7378 113.055 78.2311 113.817C76.8137 115.948 74.7531 116.999 71.9881 116.999C70.6552 116.999 70.0836 116.816 69.5097 116.205C69.1036 115.774 68.6943 114.789 68.6943 114.243C68.6943 113.857 67.9762 112.993 67.4128 112.702C66.9129 112.444 66.2537 112.442 65.7649 112.697C64.9294 113.133 64.1875 114.302 64.1875 115.183C64.1875 115.676 63.4591 116.542 62.8211 116.809C62.2181 117.06 59.8052 117.055 58.9644 116.8C57.1188 116.241 55.3773 114.859 54.614 113.349C54.2357 112.601 53.8597 111.304 53.7152 110.248C53.6532 109.796 53.5101 108.913 53.2021 107.084C53.137 106.697 53.0103 105.938 52.9204 105.396C52.8306 104.855 52.6952 104.064 52.6194 103.638C52.372 102.247 52.3168 100.278 52.5059 99.5801C52.8832 98.1886 53.869 96.7245 54.989 95.8918C55.9079 95.2089 56.2301 95.0462 57.216 94.7669C58.3189 94.4546 62.1335 94.4001 62.8211 94.687ZM32.6287 99.3172C31.8987 99.8083 31.5129 100.476 31.5129 101.248C31.5129 102.019 31.8987 102.687 32.6287 103.178C33.61 103.838 34.9521 103.491 35.6995 102.384C36.6309 101.004 35.4856 98.9974 33.7664 98.9974C33.3105 98.9974 32.9555 99.0971 32.6287 99.3172ZM61.3003 101.411C60.7444 101.718 60.207 102.313 59.9461 102.912C59.7231 103.424 59.6807 103.875 59.6807 105.742C59.6807 108.165 59.7995 108.701 60.5036 109.452C61.5368 110.554 62.7098 110.513 63.7441 109.336L64.1875 108.832V105.748V102.664L63.7441 102.159C62.9973 101.31 62.0246 101.012 61.3003 101.411ZM70.314 101.411C69.7581 101.718 69.2206 102.313 68.9598 102.912C68.7367 103.424 68.6943 103.875 68.6943 105.742C68.6943 108.165 68.8132 108.701 69.5173 109.452C70.5505 110.554 71.7235 110.513 72.7578 109.336L73.2012 108.832V105.748V102.664L72.7578 102.159C72.0109 101.31 71.0383 101.012 70.314 101.411ZM28.1218 112.818C27.3919 113.309 27.0061 113.977 27.0061 114.749C27.0061 115.52 27.3919 116.188 28.1218 116.679C29.1032 117.339 30.4452 116.992 31.1927 115.885C32.124 114.505 30.9787 112.498 29.2595 112.498C28.8036 112.498 28.4487 112.598 28.1218 112.818Z" fill="#FDCF55"/>
</svg>
