<svg width="100" height="143" viewBox="0 0 100 143" fill="none" xmlns="http://www.w3.org/2000/svg">
<path fill-rule="evenodd" clip-rule="evenodd" d="M80.005 0.285413C79.3692 0.610646 78.5796 1.06073 75.5977 2.79714C73.8167 3.83437 72.841 4.39455 70.6675 5.62799C70.1334 5.93117 68.856 6.6685 67.8289 7.26667C66.8018 7.86484 65.5244 8.60217 64.9903 8.90535C64.4562 9.20838 63.515 9.74487 62.8987 10.0974C62.2824 10.4499 61.3412 10.9864 60.8071 11.2894C60.273 11.5926 59.0123 12.3199 58.0058 12.9057C56.9993 13.4917 55.352 14.4502 54.3455 15.0362C53.339 15.622 52.0447 16.3735 51.4695 16.7062C49.8102 17.6658 48.4147 18.8812 47.4911 20.1711C46.4976 21.5589 46.2467 22.0292 45.8451 23.2573C45.0898 25.5661 45.12 24.9337 45.12 38.4564C45.12 48.1363 45.0774 51.1999 44.9407 51.3362C44.6769 51.5993 44.2804 51.5585 42.9519 51.1314C40.3776 50.3039 35.5687 49.0849 33.8403 48.8218C33.4294 48.7593 32.6227 48.6289 32.0475 48.5321C30.001 48.1875 26.9988 47.8934 23.2644 47.6715C21.9464 47.5933 21.4674 47.5106 21.3618 47.3435C21.2841 47.2205 21.2195 45.7337 21.2182 44.0391C21.2162 41.435 21.2522 40.9222 21.4507 40.7242C21.6586 40.517 22.6559 40.4902 30.1686 40.4902H38.6516L39.1557 40.1514C40.7453 39.0832 40.7453 37.1297 39.1557 36.0615C38.6821 35.7431 38.5017 35.7225 36.1712 35.7204C34.8071 35.7191 33.5929 35.6564 33.4732 35.5808C33.3486 35.5022 33.2094 35.0728 33.1477 34.5774C32.8956 32.5511 32.8102 32.1462 32.3266 30.6842C32.0469 29.8387 31.6417 28.7995 31.4261 28.3749C29.9193 25.4069 26.9593 22.4839 23.9798 21.0218C23.0945 20.5874 20.7661 19.8153 19.3837 19.4978C18.5222 19.3 14.6661 19.2808 13.9126 19.4704C13.6155 19.5454 13.0026 19.6862 12.5507 19.7836C11.2603 20.0617 10.5726 20.3177 8.99587 21.1069C6.00562 22.6033 3.87159 24.6295 1.92908 27.8167C1.43337 28.6303 0.559527 31.0914 0.166156 32.7823C-0.0776657 33.8307 -0.0456937 38.0666 0.213217 39.0303C0.500515 40.0989 0.963955 41.4954 1.24169 42.129C1.36749 42.4158 1.55693 42.882 1.66285 43.165C1.98974 44.0387 3.49032 46.1768 4.49653 47.2022C6.05567 48.7913 8.3905 50.4514 9.79323 50.9681C10.1185 51.0879 10.7206 51.3136 11.1314 51.4697C11.5423 51.6259 12.2818 51.8388 12.7748 51.9427C13.2678 52.0467 13.9143 52.1942 14.2114 52.2704C14.5086 52.3466 15.0248 52.4089 15.3587 52.4089C16.5312 52.4089 16.4351 50.7622 16.4351 70.8717V88.866L16.7749 89.3687C17.8461 90.9538 19.805 90.9538 20.8762 89.3687L21.2159 88.866V70.8717C21.2159 54.349 21.2361 52.8571 21.4625 52.6314C21.6743 52.4201 21.9631 52.3971 23.5167 52.4684C27.5032 52.6512 31.1169 53.1172 34.5873 53.8964C35.2446 54.0439 36.1523 54.2446 36.6042 54.3421C37.5777 54.5525 38.8446 54.9116 41.385 55.6972C44.6661 56.7119 47.5024 57.4766 49.1538 57.792C49.6058 57.8783 50.2781 58.01 50.6478 58.0848C51.0176 58.1594 51.7571 58.2926 52.2912 58.3808C52.8253 58.4689 53.6321 58.6052 54.084 58.6834C55.413 58.9137 58.146 59.1299 61.0809 59.2369C63.5541 59.327 63.8405 59.3647 64.0316 59.6259C64.2113 59.8714 64.2433 62.4636 64.2433 76.7743V93.6335L64.583 94.1362C65.6542 95.7213 67.6132 95.7213 68.6844 94.1362L69.0241 93.6335V65.5195V37.4056L68.6844 36.9029C67.6132 35.3177 65.6542 35.3177 64.583 36.9029L64.2433 37.4056V45.7159C64.2433 53.0723 64.2164 54.0534 64.0086 54.2606C63.6647 54.6036 60.0411 54.6036 59.6972 54.2606C59.4876 54.0515 59.4625 52.6836 59.4625 41.4411V28.8558L59.7986 28.5221C59.9834 28.3386 60.8071 27.7957 61.6288 27.3158C64.8627 25.427 66.7505 24.3313 67.6795 23.8039C68.2136 23.5007 69.491 22.7633 70.5181 22.1651C71.5452 21.5669 72.8226 20.8295 73.3567 20.5263C73.8908 20.2231 75.1682 19.4856 76.1953 18.8874C77.2225 18.2893 78.4998 17.5518 79.0339 17.2486C79.9858 16.7083 82.1137 15.4729 85.0809 13.7381C88.2491 11.8858 88.7088 10.9931 87.5272 8.98893C87.1861 8.41042 86.6483 7.48463 86.332 6.93145C83.5446 2.05684 83.207 1.50247 82.7201 1.00292C81.6785 -0.065892 81.0277 -0.23782 80.005 0.285413ZM80.5754 6.44726C82.2139 9.10499 82.3881 9.56595 81.9099 9.97923C81.6576 10.1972 79.4812 11.5027 77.3158 12.7348C76.2748 13.3272 75.1249 13.9824 73.1326 15.118C72.5574 15.4459 71.2632 16.1935 70.2567 16.7793C69.2501 17.3653 67.6029 18.3238 66.5963 18.9098C65.5898 19.4956 64.3292 20.2229 63.7951 20.5261C61.5902 21.7774 60.503 22.4047 59.0143 23.2846C58.1515 23.7944 57.1617 24.355 56.8148 24.5301C56.0137 24.9346 55.1769 25.6647 54.8981 26.2024C54.7138 26.5579 54.6817 28.6108 54.6817 40.0252C54.6817 52.2809 54.6606 53.4517 54.4353 53.6762C54.282 53.829 54.0702 53.8871 53.875 53.8301C53.7023 53.7796 53.3258 53.7045 53.0382 53.6632C51.4798 53.4397 50.3287 53.1008 50.1204 52.8043C49.9313 52.535 49.9008 50.6634 49.9008 39.2898C49.9008 26.3213 49.9064 26.071 50.2117 25.1321C50.3828 24.6065 50.6835 23.8994 50.88 23.5609C51.37 22.7166 52.8457 21.2926 53.8091 20.7346C54.2479 20.4802 55.0776 20.0042 55.6528 19.6766C56.2279 19.3491 57.5389 18.5917 58.5661 17.9935C59.5932 17.3954 60.8874 16.6479 61.442 16.3324C61.9966 16.017 62.9044 15.5006 63.4589 15.1852C64.0135 14.8696 65.3078 14.1222 66.3349 13.524C68.1159 12.4868 69.0916 11.9266 71.2651 10.6932C71.7992 10.39 73.0766 9.65265 74.1037 9.05448C75.1308 8.45631 76.4418 7.69947 77.017 7.3726C77.5922 7.04573 78.3654 6.59058 78.7351 6.36114C79.6118 5.8172 80.2042 5.84491 80.5754 6.44726ZM13.9721 24.5861C14.0175 24.7705 14.0356 26.2884 14.0123 27.9594C13.9612 31.6348 13.9812 31.5988 12.4805 30.7207C7.78498 27.9728 7.70117 27.9108 8.00819 27.4168C8.32253 26.911 9.95055 25.709 11.1314 25.1108C13.0342 24.147 13.8279 24.0004 13.9721 24.5861ZM21.6231 25.0547C22.9001 25.6989 24.5359 26.8919 24.8621 27.4168C25.1691 27.9108 25.0853 27.9728 20.3898 30.7207C18.889 31.5988 18.909 31.6348 18.858 27.9594C18.8346 26.2884 18.855 24.7619 18.9029 24.5669C18.9832 24.2416 19.0447 24.2199 19.6511 24.3029C20.0148 24.3525 20.9021 24.6908 21.6231 25.0547ZM6.95298 32.9867C10.5776 35.0898 10.9825 35.358 11.0297 35.6872C11.082 36.0515 11.2705 35.9192 7.77528 37.9694C5.73446 39.1664 5.38651 39.2965 5.11505 38.9631C4.81968 38.6003 4.48308 36.8745 4.48308 35.7227C4.48308 34.5709 4.81968 32.845 5.11505 32.4823C5.36799 32.1716 5.70981 32.2655 6.95298 32.9867ZM27.7552 32.4823C27.8386 32.5848 28.0149 33.093 28.1469 33.6117C28.6854 35.726 28.6649 35.7401 25.1238 35.6887C22.4942 35.6504 22.3364 35.6321 22.3364 35.3638C22.3364 35.1658 22.6999 34.8665 23.5316 34.3794C27.4358 32.0936 27.438 32.0927 27.7552 32.4823ZM16.4002 43.0472C16.4348 46.6472 16.4099 47.1985 16.2027 47.405C15.9343 47.6726 15.4489 47.7041 14.6596 47.5054C14.3625 47.4305 13.7497 47.2873 13.2977 47.1869C12.182 46.9393 10.127 45.8849 9.05324 45.0093C7.39355 43.6559 7.41865 43.5934 10.2653 41.9973C10.906 41.6379 12.2034 40.8906 13.1483 40.3364C15.4766 38.9711 15.7167 38.8519 16.0616 38.8916C16.3513 38.9248 16.3616 39.0514 16.4002 43.0472ZM35.1102 76.8215C34.5761 77.1367 33.6349 77.6825 33.0186 78.0341C32.4023 78.3858 31.1922 79.0907 30.3294 79.6006C29.4666 80.1105 28.4917 80.6647 28.1631 80.8322C27.0941 81.3768 25.9985 82.6583 25.9974 83.3653C25.9968 83.7254 26.4632 84.7248 27.2638 86.0794C27.9284 87.2036 29.6898 90.2137 30.5587 91.7102C32.0467 94.2728 33.0092 94.5156 35.6331 92.9899C36.2905 92.6076 37.6014 91.844 38.5464 91.2929C39.4914 90.7418 40.8222 89.9689 41.5038 89.5753C44.0735 88.0914 44.317 87.1317 42.787 84.515C42.4036 83.8595 41.6188 82.5187 41.0429 81.5354C40.4669 80.5521 39.725 79.2782 39.3942 78.7047C37.9455 76.1922 36.9314 75.7464 35.1102 76.8215ZM36.4274 83.0252C36.7012 83.4349 37.1677 84.2513 37.4643 84.8394C38.09 86.0801 38.0783 86.1154 36.812 86.8219C36.369 87.0691 35.6374 87.4771 35.1862 87.7286C34.711 87.9937 34.2528 88.1503 34.0973 88.1011C33.9495 88.0543 33.6033 87.6306 33.3278 87.1595C33.0525 86.6883 32.6315 85.9743 32.3921 85.5728C31.8565 84.6737 31.8858 84.1713 32.4957 83.7972C34.415 82.6203 35.2269 82.2079 35.5573 82.2418C35.8169 82.2687 36.0807 82.5061 36.4274 83.0252ZM83.4412 85.3138C79.9917 87.1473 78.5526 88.0734 77.4581 89.1632C76.6855 89.9326 75.0001 92.3802 75.0001 92.7329C75.0001 92.8509 74.8936 93.1529 74.7635 93.4039C74.3892 94.1256 74.1037 95.4031 74.1037 96.3559C74.1037 97.4111 73.8781 97.7002 73.0545 97.7002C70.9948 97.7002 68.5418 99.141 67.4133 101.014C66.5781 102.4 66.3349 103.265 66.3349 104.851C66.3349 105.892 66.4133 106.485 66.6289 107.073C67.0044 108.097 67.7938 109.408 68.2865 109.825C68.7991 110.258 69.8028 110.575 70.2844 110.454C70.9206 110.295 71.8152 109.378 72.0746 108.619L72.3097 107.93L71.7127 106.638C70.8024 104.667 70.9435 103.67 72.2591 102.771C72.6729 102.488 72.8973 102.442 73.586 102.499C74.5174 102.576 75.0509 102.895 75.5498 103.673C76.745 105.537 77.1343 105.743 79.4821 105.749C81.765 105.755 83.2116 106.105 85.3088 107.156C86.9991 108.003 88.2313 108.937 89.9178 110.647C91.9203 112.677 93.4941 115.291 94.4436 118.165C95.0858 120.109 95.195 120.757 95.2745 123.102C95.3422 125.095 95.2924 125.592 94.8342 127.497C94.6566 128.236 93.7871 130.055 93.0821 131.164C92.4794 132.112 92.473 132.919 93.0598 133.96C93.7866 135.248 93.896 135.76 93.6065 136.516C93.3332 137.229 92.5408 138.017 91.9462 138.165C91.4061 138.301 90.5334 138.13 90.093 137.803C89.8858 137.649 89.4092 137.094 89.0341 136.57C87.9518 135.058 87.7101 134.947 85.4734 134.942C82.8003 134.935 80.8203 134.361 78.3842 132.885C74.7847 130.704 71.8735 126.991 70.4972 122.826C69.9221 121.086 69.7757 120.336 69.6337 118.409C69.4245 115.57 68.8388 114.686 67.1659 114.685C66.321 114.684 65.6825 115.042 65.1521 115.814C64.8357 116.275 64.8218 116.41 64.8903 118.36C65.0019 121.537 65.1676 122.299 66.5487 125.984C66.9917 127.166 68.0508 129.045 69.3695 130.989C70.4467 132.576 73.0941 135.079 75.0748 136.382C76.0609 137.031 77.1029 137.649 77.3905 137.756C77.6781 137.863 78.1431 138.05 78.4236 138.171C79.2123 138.512 80.9625 139.066 81.8725 139.264C82.3245 139.361 82.9373 139.503 83.2345 139.578C83.5316 139.652 84.0831 139.714 84.4599 139.714C85.106 139.714 85.2028 139.771 86.1606 140.72C86.7192 141.274 87.5274 141.914 87.9566 142.143C90.749 143.631 94.1307 143.101 96.4213 140.816C97.5432 139.698 97.941 138.913 98.4668 136.78C98.6659 135.972 98.5833 135.298 98.071 133.551C97.7903 132.594 97.8016 132.364 98.1641 131.655C98.5385 130.923 99.3416 128.558 99.5256 127.646C100.673 121.958 99.7444 116.717 96.6892 111.63C96.0683 110.596 94.0149 107.913 93.2165 107.093C92.4921 106.349 89.9768 104.473 88.6703 103.702C87.647 103.099 87.203 102.885 85.3835 102.117C84.0895 101.57 84.0321 101.388 84.9166 100.639C85.9149 99.7926 86.9547 98.3829 87.695 96.8718C88.6284 94.9664 88.7819 94.237 88.7759 91.7311C88.7714 89.7976 88.7285 89.4354 88.3827 88.4077C87.4634 85.6771 86.5721 84.5819 85.2789 84.5943C84.9837 84.597 84.2464 84.8857 83.4412 85.3138ZM83.7849 91.0257C84.0317 91.2718 84.0108 93.1415 83.7516 93.9933C83.3955 95.1625 82.9732 95.8301 81.9324 96.8678C80.9569 97.8408 79.7724 98.5941 79.2181 98.5941C78.4934 98.5941 78.4268 97.9466 78.9525 96.0092C79.5123 93.9459 80.6844 92.4325 82.5474 91.3671C83.5715 90.7813 83.5467 90.7882 83.7849 91.0257ZM49.3032 93.2497C48.808 93.5489 42.2396 100.043 41.5568 100.909C41.133 101.446 41.1174 102.645 41.5256 103.312C41.9018 103.928 48.4367 110.444 49.0537 110.82C50.0919 111.451 51.4837 111.063 52.2503 109.928C53.1297 108.627 52.5782 107.682 48.9484 104.266C47.5415 102.942 47.1626 102.39 47.3806 101.984C47.5954 101.584 50.1351 99.041 50.3199 99.041C50.404 99.041 51.255 99.8138 52.2109 100.758C54.3879 102.909 56.0189 104.213 56.6905 104.338C57.3824 104.468 58.1201 104.2 58.6709 103.619C59.5369 102.707 59.6961 101.883 59.1723 101.027C59.0134 100.767 57.2941 98.9692 55.3516 97.0321C53.4091 95.095 51.6065 93.3805 51.3458 93.222C50.7273 92.8458 49.9543 92.8562 49.3032 93.2497ZM17.6187 95.6552C17.3414 95.8414 16.9616 96.2201 16.7749 96.4967L16.4351 96.9993V114.704C16.4351 127.065 16.4847 132.623 16.5996 133.119C16.941 134.592 17.1044 135.055 17.72 136.297C19.0051 138.889 20.5487 140.429 23.1486 141.71C24.3934 142.324 24.8583 142.487 26.335 142.827C27.334 143.058 58.1252 143.058 59.1242 142.827C60.6009 142.487 61.0658 142.324 62.3106 141.71C64.7974 140.484 66.4374 138.897 67.6043 136.586C68.4706 134.871 68.4408 133.951 67.4899 133.054C66.8635 132.463 66.4617 132.265 65.8891 132.265C64.9688 132.265 64.2384 132.862 63.5985 134.137C63.2392 134.854 61.4856 136.777 60.759 137.252C60.5734 137.373 59.8872 137.641 59.2342 137.848L58.0467 138.224H42.7187C27.5976 138.224 27.3778 138.22 26.4323 137.914C25.1198 137.489 24.4006 137.047 23.3985 136.047C22.3964 135.048 21.9528 134.331 21.5268 133.022C21.2191 132.076 21.2159 131.889 21.2159 114.533V96.9993L20.8762 96.4967C20.3545 95.7245 19.6454 95.3164 18.8255 95.3164C18.3419 95.3164 17.9654 95.422 17.6187 95.6552ZM33.9725 113.232C33.1907 113.84 26.5725 120.523 26.2823 120.998C25.9179 121.594 25.9198 122.378 26.2869 122.979C26.6634 123.594 33.4959 130.408 34.1134 130.783C34.7155 131.149 35.5019 131.151 36.0994 130.788C36.5755 130.498 43.2778 123.899 43.8875 123.119C44.3263 122.558 44.3488 121.372 43.9336 120.693C43.5574 120.078 37.0225 113.561 36.4055 113.186C35.7247 112.772 34.5351 112.794 33.9725 113.232ZM36.8226 120.277C37.6194 121.072 38.2476 121.822 38.2476 121.98C38.2476 122.267 36.2022 124.434 35.4965 124.895C35.1371 125.13 35.084 125.13 34.7347 124.902C34.2487 124.585 32.5028 122.844 32.1845 122.359C31.9556 122.011 31.956 121.958 32.1915 121.599C32.6539 120.896 34.8272 118.856 35.1147 118.856C35.2729 118.856 36.0257 119.482 36.8226 120.277Z" fill="#FDCF55"/>
</svg>
