<svg width="30" height="30" viewBox="0 0 30 30" fill="none" xmlns="http://www.w3.org/2000/svg">
<path fill-rule="evenodd" clip-rule="evenodd" d="M15 0C6.71573 0 0 6.71573 0 15C0 23.2843 6.71573 30 15 30C23.2843 30 30 23.2843 30 15C30 6.71573 23.2843 0 15 0ZM11.7021 7.04824C12.5554 7.0094 12.8281 6.9999 15.0008 6.9999H14.9983C17.1717 6.9999 17.4433 7.0094 18.2967 7.04824C19.1483 7.08724 19.73 7.22207 20.24 7.41991C20.7667 7.62408 21.2117 7.89741 21.6567 8.34242C22.1017 8.78709 22.375 9.23343 22.58 9.7596C22.7767 10.2683 22.9117 10.8496 22.9517 11.7013C22.99 12.5546 23 12.8273 23 15C23 17.1727 22.99 17.4447 22.9517 18.298C22.9117 19.1494 22.7767 19.7309 22.58 20.2397C22.375 20.7657 22.1017 21.2121 21.6567 21.6567C21.2122 22.1017 20.7665 22.3757 20.2405 22.5801C19.7315 22.7779 19.1495 22.9127 18.2978 22.9517C17.4445 22.9906 17.1727 23.0001 14.9998 23.0001C12.8273 23.0001 12.5548 22.9906 11.7014 22.9517C10.8499 22.9127 10.2684 22.7779 9.75941 22.5801C9.23357 22.3757 8.78723 22.1017 8.34273 21.6567C7.89789 21.2121 7.62456 20.7657 7.42005 20.2395C7.22238 19.7309 7.08755 19.1495 7.04838 18.2979C7.00972 17.4445 7.00005 17.1727 7.00005 15C7.00005 12.8273 7.01005 12.5545 7.04822 11.7011C7.08655 10.8498 7.22155 10.2683 7.41989 9.75943C7.62489 9.23343 7.89822 8.78709 8.34323 8.34242C8.7879 7.89758 9.23424 7.62424 9.76041 7.41991C10.2691 7.22207 10.8504 7.08724 11.7021 7.04824Z" fill="#FDCF55"/>
<path fill-rule="evenodd" clip-rule="evenodd" d="M14.2831 8.44194C14.4224 8.44172 14.5723 8.44179 14.7341 8.44186L15.0007 8.44194C17.1367 8.44194 17.3899 8.44961 18.2334 8.48794C19.0134 8.52361 19.4368 8.65394 19.7188 8.76344C20.0921 8.90845 20.3583 9.08178 20.6381 9.36178C20.9181 9.64179 21.0915 9.90846 21.2368 10.2818C21.3463 10.5635 21.4768 10.9868 21.5123 11.7668C21.5506 12.6102 21.559 12.8635 21.559 14.9985C21.559 17.1335 21.5506 17.3869 21.5123 18.2302C21.4766 19.0102 21.3463 19.4336 21.2368 19.7152C21.0918 20.0886 20.9181 20.3544 20.6381 20.6342C20.3581 20.9142 20.0923 21.0876 19.7188 21.2326C19.4371 21.3426 19.0134 21.4726 18.2334 21.5082C17.3901 21.5466 17.1367 21.5549 15.0007 21.5549C12.8645 21.5549 12.6114 21.5466 11.768 21.5082C10.988 21.4722 10.5647 21.3419 10.2825 21.2324C9.90917 21.0874 9.6425 20.9141 9.3625 20.6341C9.0825 20.3541 8.90916 20.0881 8.76383 19.7146C8.65432 19.4329 8.52382 19.0096 8.48832 18.2295C8.44999 17.3862 8.44232 17.1329 8.44232 14.9965C8.44232 12.8602 8.44999 12.6082 8.48832 11.7648C8.52399 10.9848 8.65432 10.5615 8.76383 10.2795C8.90883 9.90612 9.0825 9.63945 9.3625 9.35945C9.6425 9.07945 9.90917 8.90611 10.2825 8.76078C10.5645 8.65078 10.988 8.52078 11.768 8.48494C12.506 8.45161 12.792 8.44161 14.2831 8.43994V8.44194ZM19.2711 9.76996C18.7411 9.76996 18.3111 10.1995 18.3111 10.7296C18.3111 11.2596 18.7411 11.6896 19.2711 11.6896C19.8011 11.6896 20.2312 11.2596 20.2312 10.7296C20.2312 10.1996 19.8011 9.76963 19.2711 9.76963V9.76996ZM10.8924 15.0001C10.8924 12.7313 12.7318 10.8918 15.0006 10.8917C17.2694 10.8917 19.1084 12.7312 19.1084 15.0001C19.1084 17.2689 17.2696 19.1076 15.0007 19.1076C12.7319 19.1076 10.8924 17.2689 10.8924 15.0001Z" fill="#FDCF55"/>
<path d="M15.0007 12.3335C16.4734 12.3335 17.6674 13.5273 17.6674 15.0002C17.6674 16.4729 16.4734 17.6669 15.0007 17.6669C13.5279 17.6669 12.334 16.4729 12.334 15.0002C12.334 13.5273 13.5279 12.3335 15.0007 12.3335V12.3335Z" fill="#FDCF55"/>
</svg>
