<svg width="30" height="30" viewBox="0 0 30 30" fill="none" xmlns="http://www.w3.org/2000/svg">
<path fill-rule="evenodd" clip-rule="evenodd" d="M15 0C6.71573 0 0 6.71573 0 15C0 23.2843 6.71573 30 15 30C23.2843 30 30 23.2843 30 15C30 6.71573 23.2843 0 15 0ZM16.2214 19.7352C16.0735 19.8912 15.7847 19.9226 15.7847 19.9226H14.8285C14.8285 19.9226 12.7187 20.0471 10.8601 18.1482C8.83326 16.0765 7.04355 11.9661 7.04355 11.9661C7.04355 11.9661 6.94025 11.6964 7.05216 11.5666C7.17815 11.4199 7.52169 11.4107 7.52169 11.4107L9.80755 11.3961C9.80755 11.3961 10.0228 11.4307 10.1769 11.542C10.3045 11.6342 10.3757 11.8055 10.3757 11.8055C10.3757 11.8055 10.7451 12.7227 11.2342 13.5523C12.1897 15.1724 12.6342 15.5265 12.9581 15.3529C13.4308 15.1001 13.2892 13.063 13.2892 13.063C13.2892 13.063 13.2978 12.324 13.0513 11.9945C12.8603 11.7395 12.5003 11.6649 12.3415 11.6442C12.2124 11.6273 12.4237 11.3339 12.6975 11.2025C13.1092 11.0051 13.8354 10.9936 14.6939 11.002C15.3629 11.0089 15.5555 11.0496 15.8168 11.1119C16.4235 11.2556 16.4045 11.7161 16.3636 12.7099C16.3514 13.0071 16.3372 13.3521 16.3372 13.7505C16.3372 13.84 16.3346 13.9355 16.3318 14.0336C16.3177 14.5428 16.3014 15.1259 16.6432 15.3429C16.8185 15.4535 17.2466 15.359 18.3179 13.5738C18.8258 12.7273 19.2061 11.7325 19.2061 11.7325C19.2061 11.7325 19.2898 11.5551 19.419 11.479C19.5512 11.4015 19.7296 11.4253 19.7296 11.4253L22.1352 11.4107C22.1352 11.4107 22.8583 11.3254 22.9749 11.6465C23.0978 11.9822 22.7049 12.7672 21.722 14.0531C20.7897 15.2733 20.3359 15.7225 20.3776 16.1198C20.408 16.4101 20.703 16.6727 21.2689 17.188C22.4504 18.2648 22.7671 18.8313 22.8432 18.9674C22.8495 18.9787 22.8542 18.987 22.8575 18.9924C23.3873 19.8551 22.2698 19.9226 22.2698 19.9226L20.1327 19.9518C20.1327 19.9518 19.6741 20.0409 19.0699 19.6338C18.7535 19.4207 18.4442 19.0727 18.1497 18.7412C17.6999 18.235 17.2843 17.7673 16.9296 17.8778C16.3341 18.0637 16.3521 19.3227 16.3521 19.3227C16.3521 19.3227 16.3568 19.5923 16.2214 19.7352Z" fill="#FDCF55"/>
</svg>
