<svg width="285" height="180" viewBox="0 0 285 180" fill="none" xmlns="http://www.w3.org/2000/svg">
<path d="M284.646 49.5197C283.819 46.482 279.887 41.5464 273.579 37.1113C268.492 33.5384 260.454 29.3857 249.517 28.1518V24.2469C249.517 22.8792 248.227 22.017 246.582 21.5958V21.1151C246.582 17.5472 243.662 14.6384 240.075 14.6384H201.045C197.457 14.6384 194.532 17.5422 194.532 21.1151V100.585H192.34V34.0191C192.34 30.4512 189.42 27.5423 185.832 27.5423H162.06C158.592 27.5423 155.751 30.2579 155.567 33.6672C154.501 33.5285 153.405 33.4145 152.293 33.3352V30.0448C152.293 29.0537 151.506 28.2509 150.221 27.7901V24.133C150.221 20.5651 147.301 17.6562 143.708 17.6562H105.136C101.549 17.6562 98.624 20.5601 98.624 24.133V100.59H94.1744V67.4038C94.1744 66.5416 93.7957 65.719 93.0482 64.9509C89.1119 60.2829 64.9006 48.93 60.431 46.8586V4.13283C60.431 0.113975 48.4525 0 47.0872 0C45.7219 0 33.7433 0.113975 33.7433 4.13283V46.8586C32.7169 47.3343 30.649 48.3006 28.0231 49.5643L26.9269 47.4086C29.0645 45.9914 29.6624 45.0053 29.1043 43.9052C28.4815 42.6762 26.4286 42.6861 24.0369 43.2312L24.3059 41.2144C24.3657 41.1945 24.4255 41.1747 24.4804 41.145C25.3025 40.7337 25.6214 39.7178 25.1979 38.8853C24.7743 38.0528 23.7628 37.7059 22.9407 38.1172C22.1185 38.5285 21.7996 39.5444 22.2231 40.3769C22.3477 40.6197 22.5221 40.813 22.7264 40.9666L22.3627 43.6723C22.1135 43.7466 21.8644 43.8259 21.6153 43.9052L20.8629 42.4235C20.5739 41.8586 20.0855 41.4374 19.4776 41.2391C18.8697 41.0409 18.227 41.0905 17.6589 41.3779L9.8559 45.3026C9.28787 45.59 8.86436 46.0756 8.66504 46.6802C8.46573 47.2798 8.51555 47.924 8.80455 48.4889L9.55196 49.9657C9.3377 50.1193 9.12842 50.2778 8.92413 50.4315L6.51747 49.1183C6.51249 48.8655 6.45766 48.6079 6.33807 48.365C5.91453 47.5276 4.90305 47.1857 4.08089 47.597C3.25873 48.0083 2.93983 49.0241 3.36337 49.8566C3.78691 50.6891 4.79839 51.036 5.62055 50.6247C5.67536 50.595 5.72519 50.5603 5.78 50.5256L7.57877 51.5068C5.33653 53.4295 4.54925 54.8517 5.11728 55.9617C5.42622 56.5713 5.9245 56.8785 6.71676 56.8785C7.34958 56.8785 8.17672 56.6803 9.24303 56.2937L10.414 58.598C6.04408 61.0658 2.44655 63.38 1.12611 64.9459C0.378695 65.7091 0 66.5366 0 67.3989V140.675C0 143.668 1.97317 146.507 5.69032 148.995L1.9682 151.616C1.62439 151.79 1.44499 152.038 1.3553 152.256C1.3553 152.261 1.35031 152.266 1.35031 152.266C1.32041 152.335 1.30051 152.404 1.28556 152.464C1.28556 152.469 1.28058 152.479 1.28058 152.484C1.26064 152.578 1.25564 152.657 1.25564 152.707V176.889C1.25564 177.528 1.77385 178.044 2.41663 178.044H8.33118C8.97395 178.044 9.49217 177.528 9.49217 176.889V159.629H44.3616V160.383C44.3616 164.466 47.7 167.786 51.8058 167.786H84.2586V176.889C84.2586 177.528 84.7769 178.044 85.4196 178.044H91.3342C91.977 178.044 92.4952 177.528 92.4952 176.889V167.786H96.2024C100.308 167.786 103.647 164.466 103.647 160.383V105.59H111.191V114.708C111.191 115.288 111.28 115.858 111.44 116.423C111.465 116.552 111.499 116.676 111.534 116.775C112.91 120.724 117.329 126.324 122.297 131.706L114.155 137.88C114.125 137.905 114.1 137.93 114.076 137.954C114.061 137.969 114.046 137.979 114.031 137.994C113.981 138.044 113.941 138.093 113.901 138.153C113.896 138.162 113.891 138.172 113.881 138.187C113.851 138.232 113.826 138.281 113.802 138.331C113.792 138.351 113.782 138.376 113.777 138.395C113.762 138.44 113.747 138.485 113.737 138.529C113.732 138.554 113.727 138.574 113.722 138.599C113.712 138.658 113.707 138.717 113.702 138.777C113.702 138.787 113.697 138.792 113.697 138.802V176.889C113.697 177.528 114.215 178.044 114.858 178.044H119.497C120.14 178.044 120.658 177.528 120.658 176.889V144.57H129.069V156.587C129.069 157.226 129.587 157.741 130.23 157.741H133.229C133.872 157.741 134.39 157.226 134.39 156.587V144.57H135.491C136.373 145.343 137.161 146.012 137.828 146.557V159.615C137.828 162.474 142.173 164.629 147.933 164.629C153.694 164.629 158.039 162.474 158.039 159.615V146.557C158.706 146.007 159.494 145.343 160.375 144.57H161.272V156.587C161.272 157.226 161.791 157.741 162.433 157.741H165.433C166.076 157.741 166.594 157.226 166.594 156.587V144.57H175.214V176.889C175.214 177.528 175.732 178.044 176.375 178.044H181.014C181.657 178.044 182.175 177.528 182.175 176.889V138.802C182.175 138.792 182.175 138.787 182.17 138.777C182.17 138.717 182.165 138.658 182.15 138.599C182.145 138.574 182.14 138.554 182.135 138.529C182.125 138.485 182.11 138.44 182.095 138.395C182.085 138.371 182.08 138.351 182.07 138.331C182.045 138.281 182.021 138.232 181.991 138.187C181.986 138.177 181.981 138.167 181.971 138.153C181.931 138.098 181.891 138.044 181.841 137.994C181.826 137.979 181.811 137.969 181.796 137.954C181.771 137.93 181.747 137.905 181.717 137.88L173.575 131.706C178.543 126.324 182.962 120.724 184.338 116.775C184.372 116.671 184.407 116.552 184.432 116.423C184.592 115.863 184.681 115.288 184.681 114.708V105.59H187.322V117.801C187.322 119.614 188.134 121.304 189.55 122.449C190.636 123.321 191.966 123.787 193.326 123.787C193.745 123.787 194.164 123.742 194.577 123.658L197.572 123.029L201.309 122.246V142.984C201.309 143.668 201.438 144.342 201.673 145.001C201.443 145.665 201.309 146.334 201.309 147.018V165.289C201.309 167.276 202.933 168.896 204.936 168.896C206.934 168.896 208.564 167.281 208.564 165.289V157.761C215.525 161.389 226.761 163.713 239.357 164.089V176.151C239.357 178.138 240.982 179.758 242.985 179.758C244.983 179.758 246.612 178.143 246.612 176.151V164.089C259.209 163.713 270.445 161.389 277.406 157.761V165.289C277.406 167.276 279.03 168.896 281.033 168.896C283.031 168.896 284.661 167.281 284.661 165.289V147.018C284.661 146.334 284.531 145.66 284.297 145.001C284.526 144.337 284.661 143.668 284.661 142.984V49.5197H284.646ZM281.018 166.587C280.301 166.587 279.713 166.007 279.713 165.289V153.683L277.934 154.798C271.466 158.846 259.004 161.537 245.411 161.815L244.275 161.84V176.156C244.275 176.869 243.692 177.454 242.97 177.454C242.247 177.454 241.664 176.874 241.664 176.156V161.835L240.528 161.81C226.935 161.532 214.478 158.842 208.006 154.793L206.227 153.678V165.284C206.227 165.997 205.644 166.582 204.921 166.582C204.199 166.582 203.616 166.002 203.616 165.284V148.058C205.719 150.264 209.212 152.246 213.945 153.866C221.713 156.522 232.023 157.984 242.97 157.984C253.917 157.984 264.221 156.522 271.994 153.866C276.728 152.246 280.221 150.264 282.324 148.058V165.289C282.324 166.002 281.741 166.587 281.018 166.587ZM282.324 50.6743C282.324 51.6257 280.017 53.7219 271.382 55.5306C263.808 57.1114 253.718 57.9836 242.975 57.9836C232.232 57.9836 222.142 57.1114 214.568 55.5306C205.928 53.7268 203.626 51.6307 203.626 50.6743C203.626 49.0737 206.586 44.0043 213.711 38.9993C218.858 35.3818 227.174 31.1499 238.625 30.2678V31.3828C238.625 31.5314 238.645 31.6751 238.675 31.8139C235.356 32.0765 232.307 32.6216 229.536 33.36C229.252 33.4442 228.968 33.5235 228.689 33.6177C227.284 34.0686 225.889 34.5889 224.603 35.2976C225.984 34.7971 227.414 34.5047 228.844 34.2767C230.274 34.0488 231.724 33.9299 233.169 33.8407C234.614 33.7515 236.064 33.7267 237.514 33.7267C238.62 33.7316 239.731 33.7614 240.827 33.8159C241.789 34.1677 242.945 34.3412 244.066 34.3412C245.84 34.3412 247.708 33.915 248.73 33.0131C249.104 33.5037 249.168 34.0983 248.775 34.8218C246.453 39.0538 235.531 41.9378 230.05 41.9378C224.568 41.9378 222.67 40.4017 218.609 40.59C215.6 40.7337 212.799 42.0419 210.412 43.6475C207.089 46.7347 205.455 49.4305 205.205 50.5008C205.828 51.1946 208.708 52.9042 216.526 54.3611C223.791 55.714 233.184 56.4573 242.975 56.4573C252.766 56.4573 262.163 55.714 269.423 54.3611C277.251 52.9042 280.131 51.1896 280.744 50.5008C280.415 49.0588 277.486 44.5295 271.118 40.1142C266.503 36.913 259.244 33.2163 249.403 32.0369C249.472 31.8337 249.512 31.6206 249.512 31.3927V30.4908C259.836 31.7098 267.42 35.6296 272.239 39.0092C279.369 44.0043 282.324 49.0737 282.324 50.6743ZM242.975 155.675C219.436 155.675 203.626 149.114 203.626 142.984V121.76L205.171 121.433V142.984C205.171 144.743 207.801 147.697 215.211 150.229C217.742 151.091 220.567 151.82 223.607 152.409V59.2472C224.758 59.376 225.919 59.49 227.09 59.5941V153.009C229.003 153.296 230.986 153.534 233.019 153.713V60.0103C236.477 60.1986 239.871 60.2878 242.98 60.2878C245.631 60.2878 248.481 60.2234 251.411 60.0896V153.827C253.234 153.693 255.023 153.514 256.762 153.296V59.7626C259.393 59.5643 262.014 59.3017 264.545 58.9796V151.953C266.758 151.458 268.84 150.883 270.749 150.229C278.158 147.697 280.789 144.743 280.789 142.984V55.0103C281.362 54.7278 281.88 54.4305 282.334 54.1183V142.984C282.324 149.109 266.513 155.675 242.975 155.675ZM244.071 27.1954C244.913 27.1954 245.775 27.1013 246.557 26.9031C244.704 27.7504 242.741 29.6087 242.496 31.8684C241.62 31.695 241.101 31.4175 240.942 31.2589V26.7048C241.879 27.0369 242.99 27.1954 244.071 27.1954ZM268.985 132.161L267.879 58.4989C268.631 58.38 269.374 58.2561 270.096 58.1223L268.985 132.161ZM203.626 54.1183C204.084 54.4305 204.602 54.7278 205.171 55.0103V116.324L203.626 116.651V54.1183ZM207.154 110.169L207.104 100.387L207.159 90.6052C207.213 87.3445 207.228 84.0838 207.318 80.8232C207.463 74.3018 207.672 67.7804 208.071 61.2541C208.469 67.7755 208.678 74.2968 208.823 80.8232C208.913 84.0838 208.933 87.3445 208.982 90.6052L209.037 100.387L208.987 110.169C208.957 111.958 208.938 113.747 208.913 115.536L207.238 115.888C207.208 113.98 207.189 112.072 207.154 110.169ZM211.389 112.85C211.334 110.719 211.324 108.588 211.294 106.458L211.264 100.065L211.294 93.6726C211.324 91.5418 211.339 89.4109 211.389 87.2801C211.474 83.0184 211.598 78.7567 211.837 74.4951C212.077 78.7567 212.201 83.0184 212.291 87.2801C212.346 89.4109 212.356 91.5418 212.386 93.6726L212.415 100.065L212.386 106.458C212.356 108.588 212.341 110.719 212.291 112.85C212.276 113.509 212.261 114.173 212.246 114.832L211.434 115.001C211.424 114.287 211.404 113.569 211.389 112.85ZM214.229 114.074C214.832 112.374 216.656 111.041 218.44 111.606C221.703 112.642 220.911 116.631 219.949 116.869C220.219 115.283 219.142 113.787 217.548 113.519C216.76 113.39 214.339 114.074 214.229 114.074ZM211.842 125.635C211.738 123.782 211.658 121.933 211.588 120.08L212.097 119.971C212.032 121.864 211.952 123.752 211.842 125.635ZM208.071 139.52C207.687 133.341 207.483 127.156 207.343 120.977L208.808 120.67C208.668 126.953 208.459 133.237 208.071 139.52ZM266.185 42.6316C264.64 42.1509 259.822 40.0597 254.963 39.5196C252.641 39.2619 250.818 38.469 251.58 36.8288C252.158 35.58 254.096 35.7733 256.319 36.1549C258.541 36.5414 264.431 38.9249 266.952 40.9616C268.138 41.918 267.734 43.1123 266.185 42.6316ZM252.641 51.6356C252.447 54.039 247.808 54.9062 245.197 54.8071C242.586 54.713 240.748 52.9736 241.525 51.0063C242.297 49.039 242.781 47.8844 245.197 47.2104C248.371 46.3284 252.836 49.2322 252.641 51.6356ZM232.003 53.3205C231.111 52.6763 231.495 50.6396 232.86 48.7714C234.225 46.9082 236.054 45.9171 236.951 46.5662C237.843 47.2104 237.459 49.2471 236.094 51.1153C234.728 52.9786 232.9 53.9696 232.003 53.3205ZM211.07 49.5197C208.514 48.0182 215.654 42.9834 219.85 42.9834C216.053 44.807 215.699 46.7198 214.01 48.365C213.013 49.3314 211.798 49.9458 211.07 49.5197ZM201.932 118.534C203.566 118.128 205.21 117.766 206.86 117.414C208.509 117.072 210.163 116.745 211.823 116.458C213.482 116.165 215.146 115.903 216.83 115.714C215.216 116.215 213.586 116.646 211.947 117.047C210.313 117.454 208.668 117.815 207.019 118.167C205.37 118.504 203.716 118.836 202.056 119.124C200.397 119.416 198.733 119.679 197.049 119.872C198.663 119.362 200.297 118.935 201.932 118.534ZM243.363 24.2469H242.591L242.98 20.1389L243.363 24.2469ZM241.555 21.1201V21.6007C239.91 22.017 238.62 22.8792 238.62 24.2519V27.9536C226.557 28.8456 217.787 33.3055 212.366 37.1162C206.057 41.5464 202.126 46.4869 201.299 49.5246V100.6H199.56V21.1201C199.56 20.3074 200.223 19.6433 201.045 19.6433H240.075C240.892 19.6483 241.555 20.3074 241.555 21.1201ZM195.967 21.0953C196.027 19.3658 197.034 17.7008 198.534 16.8287C199.276 16.3777 200.143 16.1399 201.01 16.1052C201.847 16.0853 202.634 16.1052 203.447 16.1052L208.29 16.125C211.519 16.1448 214.742 16.1349 217.971 16.1795L227.653 16.2885C230.882 16.3529 234.105 16.3876 237.334 16.4768C234.105 16.566 230.882 16.6007 227.653 16.6651L217.971 16.7741C214.742 16.8187 211.519 16.8088 208.29 16.8287L203.447 16.8485C202.649 16.8584 201.817 16.8435 201.045 16.8683C200.302 16.903 199.565 17.1161 198.932 17.5026C197.642 18.241 196.765 19.6582 196.705 21.1448C196.675 22.7108 196.685 24.3461 196.675 25.9417C196.66 29.1528 196.665 32.359 196.62 35.5701L196.51 45.1985C196.446 48.4096 196.411 51.6158 196.321 54.8269C196.236 51.6158 196.197 48.4096 196.132 45.1985L196.022 35.5701C195.977 32.359 195.982 29.1528 195.967 25.9417C195.972 24.3163 195.947 22.7355 195.967 21.0953ZM195.733 102.018L196.117 69.7081L196.505 102.399C196.505 102.612 196.336 102.786 196.122 102.786C196.112 102.786 196.107 102.781 196.097 102.781H192.345V102.013H195.733V102.018ZM158.422 30.7435C159.135 29.9259 160.072 29.3362 161.103 29.0091L161.497 28.91C161.631 28.8803 161.766 28.8654 161.9 28.8456C162.169 28.8159 162.453 28.8109 162.702 28.8159L164.232 28.8406L167.296 28.8902L179.544 29.0835L167.296 29.2767L164.232 29.3263L162.702 29.351C162.438 29.351 162.214 29.3659 161.975 29.4006C161.86 29.4254 161.741 29.4402 161.626 29.47L161.282 29.5691C160.375 29.8862 159.543 30.4512 158.94 31.1895C158.323 31.918 157.964 32.8347 157.969 33.7465H157.196C157.216 32.6117 157.7 31.5463 158.422 30.7435ZM160.58 34.0191C160.58 33.2064 161.242 32.5423 162.065 32.5423H185.837C186.655 32.5423 187.317 33.2014 187.317 34.0191V100.595H184.676V49.6584C184.676 46.2887 175.543 37.8595 160.585 34.5443V34.0191H160.58ZM179.848 175.74H177.526V143.42C177.526 142.781 177.008 142.266 176.365 142.266H119.502C118.859 142.266 118.341 142.781 118.341 143.42V175.74H116.019V139.956H117.678H120.384H175.722H178.189H179.848V175.74V175.74ZM141.461 144.57C141.506 144.619 141.561 144.654 141.605 144.709C142.019 145.204 144.191 146.289 147.938 146.289C151.685 146.289 153.858 145.204 154.272 144.709C154.316 144.659 154.371 144.619 154.416 144.57H156.828C156.389 144.932 155.996 145.249 155.642 145.516C155.577 145.566 155.512 145.625 155.462 145.69C154.6 146.716 151.88 147.826 147.943 147.826C144.002 147.826 141.281 146.721 140.424 145.69C140.37 145.625 140.31 145.566 140.245 145.516C139.896 145.249 139.498 144.927 139.059 144.57H141.461ZM140.15 159.615V148.395C142.009 149.481 144.829 150.135 147.933 150.135C149.598 150.135 151.177 149.947 152.572 149.605C151.92 149.942 151.242 150.239 150.529 150.477C149.488 150.814 148.397 151.047 147.281 151.156C147.171 151.166 147.061 151.171 146.952 151.18C147.555 151.542 148.417 152.266 148.417 153.46C148.417 154.833 148.417 158.851 148.417 160.774C151.725 160.69 153.659 159.758 154.172 159.302V149.114C154.74 148.901 155.258 148.658 155.717 148.391V159.61C155.717 160.69 152.612 162.32 147.933 162.32C143.255 162.32 140.15 160.695 140.15 159.615ZM159.633 131.255C159.633 130.407 160.49 129.718 161.546 129.718C162.603 129.718 163.46 130.407 163.46 131.255C163.46 132.102 162.603 132.791 161.546 132.791C160.49 132.786 159.633 132.102 159.633 131.255ZM156.484 132.553C156.389 135.021 151.656 136.844 145.905 136.631C140.155 136.413 135.571 134.243 135.666 131.775C135.711 130.61 136.797 129.595 138.526 128.861C141.521 129.163 144.675 129.327 147.938 129.327C149.772 129.327 151.566 129.272 153.32 129.173C155.303 130.065 156.534 131.269 156.484 132.553ZM182.354 114.713C182.354 120.655 168.522 127.023 147.933 127.023C127.345 127.023 113.512 120.66 113.512 114.713V52.4087C113.946 52.6218 114.454 52.8398 115.057 53.0479V114.708C115.057 116.041 116.188 117.508 118.181 118.901V53.935C118.695 54.0539 119.238 54.1728 119.826 54.2868V119.922C120.962 120.551 122.267 121.155 123.732 121.71C124.33 121.933 124.948 122.147 125.581 122.355L126.318 92.295L127.066 122.811C128.012 123.088 128.999 123.346 130.01 123.579V55.6793C131.027 55.7734 132.068 55.8577 133.135 55.932V97.1513C133.678 93.8758 135.362 90.9669 137.774 88.8113C137.774 76.725 137.774 63.7715 137.774 56.2095C141.027 56.3631 144.441 56.4424 147.924 56.4424C150.963 56.4424 153.948 56.3829 156.818 56.264V87.8054C159.533 89.7479 161.551 92.5576 162.423 95.8084V55.9518C163.724 55.8626 164.999 55.7586 166.225 55.6396V123.484C166.983 123.301 167.725 123.113 168.448 122.91L169.404 66.8538L170.351 122.325C170.954 122.127 171.547 121.924 172.115 121.705C177.466 119.679 180.79 116.998 180.79 114.703V53.0529C181.393 52.8398 181.901 52.6267 182.335 52.4136V114.713H182.354ZM173.525 41.8041C179.589 45.2233 182.25 48.7119 182.354 49.6089C182.225 49.8071 180.959 51.3036 172.105 52.6168C165.543 53.593 156.962 54.1282 147.938 54.1282C138.915 54.1282 130.334 53.593 123.772 52.6168C114.918 51.3036 113.652 49.8071 113.522 49.6089C113.622 48.707 116.288 45.2233 122.352 41.8041C126.687 39.361 133.528 36.5216 142.741 35.7138V36.0607C142.741 37.6316 144.71 38.7317 147.52 38.7317C147.649 38.7317 147.774 38.7267 147.904 38.7218C147.714 40.5057 144.127 42.4532 139.493 43.2114C134.545 44.0191 130.279 43.1569 129.971 41.2837C129.896 40.8179 130.07 40.3372 130.449 39.8615C127.873 40.7535 125.7 41.7495 123.956 42.6762C119.238 45.1936 116.612 47.7208 115.555 49.0935C116.741 49.6138 119.452 50.486 125.237 51.2689C129.014 51.7793 133.424 52.151 138.142 52.3641C141.481 52.1906 144.759 51.7199 144.216 50.7585C143.539 49.5544 142.378 47.4433 143.783 46.0955C145.183 44.7476 148.347 43.3898 154.61 43.6425C161.666 43.9299 163.794 46.0112 163.804 48.3205C163.809 50.0598 161.467 51.487 158.019 52.3492C162.628 52.1312 166.938 51.7645 170.635 51.264C176.425 50.481 179.131 49.6089 180.316 49.0885C179.265 47.7109 176.634 45.1837 171.916 42.6713C168.642 40.9269 163.878 38.9547 157.735 37.8595C159.309 38.5582 160.331 39.6336 160.281 40.1787C160.206 40.9616 157.974 39.7674 155.129 39.5047C152.278 39.2421 149.892 40.0102 149.966 39.2272C150.026 38.6128 151.556 37.582 153.584 37.2847C153.046 37.2302 152.498 37.1806 151.94 37.141C152.174 36.8139 152.298 36.4472 152.298 36.0508V35.6246C161.935 36.3432 169.055 39.2867 173.525 41.8041ZM147.515 32.7108C148.048 32.7108 148.551 32.6712 149.015 32.5969C147.699 33.3749 146.459 34.7128 146.209 36.3035C145.626 36.1895 145.223 36.0161 145.053 35.8873V32.3739C145.756 32.5919 146.588 32.7108 147.515 32.7108ZM167.755 46.5117C168.756 45.6148 170.037 45.4067 170.615 46.0459C171.188 46.6852 170.844 47.929 169.838 48.8209C168.836 49.7179 167.556 49.926 166.978 49.2868C166.405 48.6475 166.753 47.4037 167.755 46.5117ZM121.445 124.927C124.878 129.005 129.138 133.366 132.95 137.003H130.713C126.383 132.806 121.669 127.84 118.241 123.415C119.223 123.95 120.294 124.456 121.445 124.927ZM127.414 137.008H121.948L125.068 134.634C125.855 135.442 126.637 136.235 127.414 137.008ZM168.448 137.008C169.225 136.235 170.012 135.442 170.794 134.634L173.914 137.008H168.448ZM165.159 137.008H162.922C166.733 133.371 170.994 129.01 174.427 124.931C175.578 124.461 176.649 123.955 177.631 123.42C174.203 127.845 169.484 132.811 165.159 137.008ZM147.515 30.8724H146.743L147.131 23.4491L147.515 30.8724ZM99.8647 30.1489L99.8747 26.7742L99.8796 25.0894C99.8747 24.5145 99.9195 23.9248 100.029 23.3451C100.243 22.1904 100.782 21.0309 101.728 20.238C102.665 19.4402 103.876 19.0735 105.042 18.9793C105.635 18.9248 106.203 18.9496 106.766 18.9397L108.46 18.9248L111.853 18.9149L125.421 18.8852C129.946 18.905 134.47 18.9 138.994 18.9397C134.47 19.0735 129.951 19.1627 125.426 19.2717L111.858 19.5195L108.465 19.5789L106.771 19.5987C106.203 19.6136 105.635 19.5938 105.102 19.6433C104.025 19.7375 102.969 20.0695 102.182 20.7534C101.389 21.4273 100.921 22.4233 100.727 23.4739C100.627 23.9992 100.592 24.5344 100.597 25.0894L100.602 26.7742L100.612 30.1489L100.627 36.8982C100.597 45.8972 100.602 54.8914 100.537 63.8904L100.428 77.3841C100.363 81.8836 100.328 86.3832 100.238 90.8777C100.154 86.3782 100.114 81.8787 100.049 77.3841L99.9394 63.8904C99.8747 54.8914 99.8796 45.8972 99.8497 36.8982L99.8647 30.1489ZM103.652 24.133C103.652 23.3203 104.314 22.6563 105.131 22.6563H143.708C144.525 22.6563 145.188 23.3153 145.188 24.133V27.6662C143.673 28.0924 142.726 28.9546 142.726 30.0448V33.4095C123.403 35.0944 111.186 45.7634 111.186 49.6584V100.595H103.642V24.133H103.652ZM86.5856 175.74V158.48C86.5856 157.841 86.0674 157.325 85.4246 157.325H58.1838C65.2494 156.726 71.8117 155.546 77.4123 153.861H90.1832V175.735H86.5856V175.74ZM11.56 55.7338L12.4071 55.3076L13.2791 57.0271C13 57.1808 12.721 57.3294 12.442 57.4831L11.56 55.7338ZM16.4083 48.5484C20.6287 46.4275 24.2212 45.4215 26.0798 45.2035C24.1864 46.5315 19.936 48.6673 17.1756 50.0549C14.4102 51.4424 10.1648 53.5831 7.96744 54.3116C9.24802 52.9538 12.1879 50.6693 16.4083 48.5484ZM10.8824 47.4533C10.8674 47.4285 10.8824 47.3839 10.9122 47.369L18.7153 43.4443C18.7203 43.4393 18.7302 43.4393 18.7402 43.4393C18.7651 43.4393 18.79 43.4542 18.8 43.474L19.4228 44.703C17.8084 45.3323 16.3385 46.0013 15.3619 46.4919C14.0116 47.1708 12.7111 47.9092 11.5002 48.6723L10.8824 47.4533ZM15.7406 54.9905C15.4516 54.4206 15.601 53.93 15.905 53.5435L22.4823 50.2332C22.8261 50.2729 23.1649 50.4265 23.3542 50.7982C23.4938 51.0707 23.6333 51.3631 23.7678 51.6307C21.3063 52.8448 18.6455 54.1877 16.0296 55.5603C15.9 55.3076 15.7854 55.0896 15.7406 54.9905ZM34.421 49.0935C34.4459 49.1183 34.4708 49.1381 34.4957 49.1579C34.5306 49.1926 34.5655 49.2223 34.6004 49.2521C34.6602 49.3066 34.7249 49.3561 34.7947 49.4106C34.8346 49.4404 34.8744 49.4701 34.9143 49.4998C34.989 49.5544 35.0687 49.6039 35.1485 49.6535C35.1883 49.6782 35.2232 49.703 35.2581 49.7228C35.3727 49.7922 35.4973 49.8566 35.6218 49.9211C35.6268 49.926 35.6368 49.926 35.6417 49.931C35.7763 50.0003 35.9158 50.0648 36.0603 50.1242C36.1052 50.1441 36.155 50.1639 36.1998 50.1837C36.2995 50.2233 36.4041 50.2679 36.5087 50.3076C36.5685 50.3274 36.6283 50.3522 36.6832 50.372C36.7828 50.4067 36.8825 50.4414 36.9821 50.4761C37.0469 50.4959 37.1067 50.5157 37.1715 50.5355C37.2761 50.5702 37.3807 50.5999 37.4854 50.6297C37.5501 50.6495 37.6149 50.6644 37.6797 50.6842C37.7943 50.7139 37.9089 50.7437 38.0235 50.7734C38.0833 50.7883 38.1381 50.8031 38.1979 50.818C38.3623 50.8576 38.5268 50.8973 38.6962 50.932C38.7061 50.9369 38.7211 50.9369 38.7311 50.9419C38.9104 50.9815 39.0898 51.0162 39.2742 51.0509C39.334 51.0608 39.3988 51.0757 39.4586 51.0856C39.5831 51.1104 39.7027 51.1302 39.8273 51.15C39.897 51.1599 39.9668 51.1748 40.0415 51.1847C40.1561 51.2045 40.2757 51.2243 40.3903 51.2392C40.4651 51.2491 40.5398 51.259 40.6096 51.2739C40.7242 51.2888 40.8388 51.3086 40.9534 51.3234C41.0231 51.3334 41.0979 51.3433 41.1676 51.3532C41.2922 51.368 41.4168 51.3829 41.5414 51.3978C41.6011 51.4027 41.6609 51.4126 41.7207 51.4176C41.8901 51.4374 42.0645 51.4572 42.229 51.4721C42.2389 51.4721 42.2489 51.4721 42.2639 51.4771C42.4432 51.4969 42.6176 51.5118 42.792 51.5266C42.8568 51.5316 42.9166 51.5365 42.9814 51.5415C43.096 51.5514 43.2056 51.5613 43.3152 51.5712C43.385 51.5762 43.4498 51.5811 43.5145 51.5861C43.6192 51.596 43.7188 51.6009 43.8235 51.6059C43.8882 51.6109 43.953 51.6158 44.0178 51.6208C44.1174 51.6257 44.2171 51.6356 44.3168 51.6406C44.3766 51.6455 44.4314 51.6455 44.4911 51.6505C44.5908 51.6555 44.6905 51.6604 44.7901 51.6654C44.84 51.6654 44.8948 51.6703 44.9446 51.6753C45.0741 51.6802 45.1987 51.6852 45.3183 51.6901C45.3382 51.6901 45.3532 51.6901 45.3731 51.6901C45.4977 51.6951 45.6222 51.7001 45.7368 51.705C45.7767 51.705 45.8116 51.705 45.8514 51.71C45.9312 51.71 46.0059 51.7149 46.0757 51.7149C46.1205 51.7149 46.1654 51.7149 46.2102 51.7199C46.27 51.7199 46.3298 51.7248 46.3846 51.7248C46.4245 51.7248 46.4594 51.7248 46.4992 51.7248C46.559 51.7248 46.6138 51.7248 46.6636 51.7248C46.6885 51.7248 46.7135 51.7248 46.7384 51.7248C46.7932 51.7248 46.838 51.7248 46.8829 51.7248C46.9028 51.7248 46.9227 51.7248 46.9427 51.7248C46.9975 51.7248 47.0473 51.7248 47.0872 51.7248C47.127 51.7248 47.1769 51.7248 47.2317 51.7248C47.2516 51.7248 47.2715 51.7248 47.2915 51.7248C47.3363 51.7248 47.3812 51.7248 47.436 51.7248C47.4609 51.7248 47.4858 51.7248 47.5107 51.7248C47.5605 51.7248 47.6154 51.7248 47.6751 51.7248C47.71 51.7248 47.7499 51.7248 47.7897 51.7248C47.8445 51.7248 47.9044 51.7248 47.9642 51.7199C48.009 51.7199 48.0538 51.7199 48.0987 51.7149C48.1684 51.7149 48.2482 51.71 48.3229 51.71C48.3628 51.71 48.3976 51.71 48.4375 51.705C48.5521 51.7001 48.6767 51.6951 48.8062 51.6901C48.8212 51.6901 48.8411 51.6901 48.8561 51.6901C48.9756 51.6852 49.1052 51.6802 49.2348 51.6753C49.2846 51.6753 49.3344 51.6703 49.3892 51.6654C49.4889 51.6604 49.5835 51.6555 49.6882 51.6505C49.743 51.6455 49.8028 51.6455 49.8576 51.6406C49.9573 51.6356 50.0569 51.6307 50.1566 51.6208C50.2213 51.6158 50.2861 51.6109 50.3509 51.6059C50.4505 51.6009 50.5552 51.591 50.6548 51.5861C50.7196 51.5811 50.7894 51.5762 50.8542 51.5712C50.9638 51.5613 51.0734 51.5514 51.188 51.5415C51.2528 51.5365 51.3126 51.5316 51.3773 51.5266C51.5517 51.5118 51.7261 51.4969 51.9055 51.4771C51.9155 51.4771 51.9254 51.4771 51.9404 51.4721C52.1098 51.4572 52.2792 51.4374 52.4486 51.4176C52.5084 51.4126 52.5682 51.4027 52.628 51.3978C52.7526 51.3829 52.8772 51.368 53.0017 51.3532C53.0715 51.3433 53.1462 51.3334 53.216 51.3234C53.3306 51.3086 53.4452 51.2937 53.5598 51.2739C53.6345 51.264 53.7093 51.2541 53.779 51.2392C53.8936 51.2194 54.0132 51.2045 54.1278 51.1847C54.1976 51.1748 54.2674 51.1599 54.3421 51.15C54.4667 51.1302 54.5912 51.1054 54.7158 51.0856C54.7756 51.0757 54.8404 51.0658 54.9002 51.0509C55.0845 51.0162 55.2639 50.9815 55.4433 50.9419C55.4532 50.9369 55.4682 50.9369 55.4781 50.932C55.6476 50.8973 55.812 50.8576 55.9764 50.818C56.0362 50.8031 56.091 50.7883 56.1508 50.7734C56.2654 50.7437 56.385 50.7139 56.4947 50.6842C56.5594 50.6644 56.6242 50.6495 56.689 50.6297C56.7936 50.5999 56.8982 50.5702 57.0029 50.5355C57.0677 50.5157 57.1324 50.4959 57.1922 50.4761C57.2919 50.4414 57.3965 50.4067 57.4912 50.372C57.551 50.3522 57.6108 50.3324 57.6656 50.3076C57.7702 50.2679 57.8749 50.2283 57.9745 50.1837C58.0194 50.1639 58.0692 50.1441 58.1141 50.1242C58.2586 50.0598 58.3981 49.9954 58.5326 49.931C58.5376 49.926 58.5476 49.926 58.5525 49.9211C58.6771 49.8566 58.8017 49.7922 58.9163 49.7228C58.9561 49.6981 58.991 49.6733 59.0309 49.6535C59.1106 49.6039 59.1903 49.5494 59.2651 49.4998C59.3049 49.4701 59.3448 49.4404 59.3847 49.4106C59.4494 49.3611 59.5142 49.3066 59.579 49.2521C59.6139 49.2223 59.6537 49.1877 59.6836 49.1579C59.7085 49.1331 59.7334 49.1133 59.7584 49.0935C68.3686 53.0876 88.2598 62.7854 91.2844 66.4573L91.3591 66.5366C91.5833 66.7596 91.8524 67.0966 91.8524 67.4038C91.8524 68.4098 89.2165 70.6249 79.3406 72.5277C70.7354 74.1829 59.28 75.0996 47.0872 75.0996C34.8894 75.0996 23.4389 74.1878 14.8337 72.5277C4.95784 70.6249 2.32196 68.4147 2.32196 67.4038C2.32196 67.0966 2.59102 66.7646 2.81525 66.5366L2.89 66.4573C5.91953 62.7854 25.8058 53.0876 34.421 49.0935ZM36.0703 4.24185C36.6582 3.52331 40.6993 2.30923 47.0922 2.30923C53.4851 2.30923 57.5261 3.52331 58.1141 4.24185V45.7932V47.4879C57.5261 48.2065 53.4851 49.4206 47.0922 49.4206C40.6993 49.4206 36.6582 48.2065 36.0703 47.4879V45.7932V4.24185ZM2.32695 140.675V70.7933C2.78038 71.1006 3.30356 71.393 3.87159 71.6754V140.675C3.87159 142.583 5.82484 144.753 9.47721 146.775V73.6774C10.5136 73.9549 11.6099 74.2176 12.7659 74.4604V148.356C14.3703 149.03 16.1791 149.674 18.1821 150.269V75.4316C26.887 76.7547 37.2761 77.3494 45.9511 77.3989L47.0922 145.863L48.2332 77.3989C49.0305 77.394 49.8427 77.3841 50.6698 77.3742V153.891C52.1198 153.851 53.5399 153.792 54.9251 153.713V77.2602C57.7154 77.1611 60.5805 77.0124 63.4356 76.7993V152.89C64.771 152.707 66.0665 152.508 67.3172 152.285L68.4632 79.9014L69.6043 151.849C82.7738 149.169 90.3127 144.421 90.3127 140.67V71.6754C90.8857 71.393 91.4039 71.1006 91.8574 70.7933V140.675C91.8574 147.826 73.8696 155.482 47.0922 155.482C20.3148 155.482 2.32695 147.826 2.32695 140.675ZM84.5078 108.955C84.5327 106.458 84.5327 103.955 84.5726 101.458C84.6373 98.96 84.6573 96.4576 84.7669 93.9551C84.9363 88.955 85.1904 83.955 85.6688 78.9549C86.1471 83.955 86.4012 88.955 86.5706 93.9551C86.6753 96.4576 86.7002 98.9551 86.765 101.458C86.8048 103.955 86.8048 106.458 86.8298 108.955C86.8347 113.955 86.745 118.955 86.5756 123.955C86.4062 128.955 86.1521 133.955 85.6688 138.955C85.1854 133.955 84.9313 128.955 84.7619 123.955C84.5925 118.955 84.5028 113.955 84.5078 108.955ZM7.17517 158.48V175.74H3.58261V153.866H16.772C22.3726 155.551 28.93 156.726 36.0005 157.33H8.34115C7.69838 157.325 7.17517 157.841 7.17517 158.48ZM49.3942 160.383V159.629H65.942V162.786H51.8108C50.4804 162.786 49.3942 161.711 49.3942 160.383ZM70.9746 162.786V159.629H84.2686V162.786H70.9746ZM98.624 160.383C98.624 161.706 97.5377 162.786 96.2073 162.786H92.5002V152.707C92.5002 152.657 92.4951 152.578 92.4752 152.484C92.4752 152.479 92.4703 152.469 92.4703 152.464C92.4553 152.404 92.4354 152.335 92.4055 152.266C92.4055 152.261 92.4005 152.256 92.4005 152.256C92.3108 152.033 92.1314 151.79 91.7876 151.616L88.2648 149.139C92.1215 146.616 94.1694 143.727 94.1694 140.68V105.59H98.619V160.383H98.624ZM94.1744 102.786V102.018H111.191V102.786H94.1744ZM184.671 102.786V102.018H187.312V102.786H184.671ZM188.937 105.457L188.827 95.9224C188.767 89.5645 188.767 83.2117 188.737 76.8538C188.767 70.496 188.762 64.1432 188.827 57.7853L188.937 48.2511C189.001 45.0746 189.036 41.8932 189.126 38.7168C189.211 41.8932 189.251 45.0746 189.315 48.2511L189.425 57.7853C189.49 64.1432 189.485 70.496 189.515 76.8538C189.485 83.2117 189.49 89.5645 189.425 95.9224L189.315 105.457C189.251 108.633 189.216 111.814 189.126 114.991C189.041 111.814 189.001 108.638 188.937 105.457ZM193.536 118.767C193.132 118.851 192.848 118.678 192.709 118.569C192.574 118.46 192.345 118.212 192.345 117.806V105.59H201.304V117.132L193.536 118.767Z" fill="#262626"/>
</svg>
