<svg width="138" height="172" viewBox="0 0 138 172" fill="none" xmlns="http://www.w3.org/2000/svg">
<path d="M135.119 131.37C138.888 125.827 138.268 116.451 136.578 112.792L136.442 112.489C135.752 110.972 134.99 109.32 132.564 107.83C133.274 108.211 134.009 108.578 134.771 108.92L136.629 109.753L136.326 107.733C134.571 95.9693 131.403 92.162 127.079 89.5098C127.027 89.2969 126.976 89.0904 126.924 88.8774C128.453 89.1807 129.744 89.2065 130.415 88.7226C128.718 85.4703 126.743 83.2504 124.214 81.6888L124.962 81.6953L124.485 80.224C122.11 72.887 117.845 70.4219 114.689 69.6411C110.895 68.7054 107.055 69.6863 104.152 71.1253C103.113 68.2666 101.525 64.582 99.1699 59.8003C95.5627 52.4762 94.4527 46.9137 95.6401 41.9514C96.5628 42.4805 97.718 42.8225 98.9247 43.171C100.944 43.7582 103.035 44.3584 103.693 45.7586C104.261 46.9718 104.765 48.4495 105.3 50.0176C106.268 52.8634 107.268 55.8059 108.914 57.9677L111.03 60.7489L110.914 57.2514C110.869 55.8124 110.953 54.2895 111.03 52.8182C111.179 50.1015 111.321 47.5397 110.617 45.7199C109.959 44.0293 107.836 42.1063 106.165 40.7834C107.404 40.5382 108.907 40.4091 110.927 40.5253L113.315 40.6608L111.882 38.7443C109.095 35.008 103.893 33.5948 99.4409 34.0659C102.125 30.7168 105.629 28.3614 108.54 26.4062L109.262 25.9222C116.683 20.9018 124.498 8.36365 122.968 3.93691C122.026 1.20085 120.052 0.381319 118.961 0.129653C117.916 -0.109107 116.483 -0.057483 115.825 0.62008L115.522 0.929822L115.502 1.36217C115.496 1.52995 114.631 18.2367 94.9948 21.4438C85.8444 22.9409 79.8302 24.1283 75.055 25.3801C73.3063 24.0315 70.2412 19.9016 68.1698 17.1074L67.4406 16.1266C64.6981 12.4484 57.1545 10.0543 56.8318 9.95108L52.702 8.65404L56.1027 12.2161C59.1936 15.449 62.6976 19.1079 63.2977 22.1472C63.6075 23.6959 64.2399 25.2317 64.8788 26.5094C64.2464 26.5159 63.7688 26.4901 63.5494 26.4384C63.2203 26.3545 62.6331 26.0448 62.0071 25.7157C60.5294 24.9349 58.5226 23.8702 56.3221 23.8702C56.2769 23.8702 56.2382 23.8702 56.193 23.8702L51.2694 23.9605L55.7478 25.9996C57.7611 26.916 59.768 28.555 61.0909 29.6391C61.5103 29.9876 61.8587 30.2651 62.1104 30.4457C62.1233 30.4522 62.1363 30.4586 62.1427 30.4651C58.6968 32.5559 56.0124 35.0532 53.4893 38.1183C53.4247 36.6212 53.2504 35.1822 52.8762 34.1627C51.7404 31.0717 43.0548 24.2315 41.3189 22.8893L37.3633 19.8241L39.6412 24.2767C40.9318 26.7934 42.2094 30.4457 42.8095 34.4401C41.6157 33.0076 40.3639 31.6847 39.2733 30.8716C36.7954 29.0261 32.1944 29.1551 27.7483 29.2713C25.6188 29.3294 23.6055 29.3874 22.1278 29.1939L19.4692 28.8519L21.1082 30.9813C21.2437 31.1556 22.4633 32.7365 23.3022 33.4915C24.1475 34.253 26.8901 35.9759 29.8262 37.4988C28.6001 37.1568 27.4193 36.8729 26.4126 36.718C21.8439 36.0082 18.0301 37.1955 17.8688 37.2472L16.3717 37.7182L18.1657 40.1187C18.9594 41.1899 19.6692 42.1385 20.3209 42.9903C19.0368 43.2807 17.7785 43.6679 16.5718 44.0744C15.2747 44.5132 14.139 44.9327 13.1323 45.3005C10.7576 46.1781 8.87984 46.8686 8.09258 46.5911L5.67917 45.7522L6.70517 48.0882C7.58923 50.1015 8.39585 51.9148 11.0609 53.4248C7.44081 55.664 3.85938 59.9423 1.75571 67.9569L1.40084 69.3185L2.80755 69.3572C2.89789 69.3572 2.99472 69.3636 3.08506 69.3636C3.67228 69.3636 4.2788 69.312 4.87893 69.2346C0.749023 74.9584 -1.61274 82.6439 1.2782 90.8585C-0.496373 96.8598 0.123088 104.61 6.41474 110.811C6.80192 115.599 9.0089 120.297 13.0936 125.059L13.2033 125.188L13.1904 125.214L13.2291 125.221L13.668 125.73L14.3133 125.395L14.752 125.466C14.8359 125.479 15.72 125.614 17.088 125.614C19.082 125.614 22.1084 125.324 25.1865 123.943C25.9867 123.582 26.6255 123.104 27.1482 122.556C31.9685 122.117 35.7436 120.62 38.3957 118.09C40.2929 117.032 42.9709 115.406 44.3067 113.954C45.1456 113.044 46.4038 111.172 47.6364 109.217C50.5596 106.914 52.7794 104.094 54.3475 101.641L54.3668 101.712L55.6768 100.454C56.0575 100.086 64.9691 91.4522 65.0723 85.3541C65.0788 85.0831 65.0788 84.8185 65.0852 84.5539C65.6531 85.1992 66.2468 85.8058 66.8792 86.3672L67.9246 87.2965L68.6021 86.0704C70.2476 83.0956 72.4932 77.1846 70.3766 69.4604C72.2932 70.2219 72.8288 70.4026 72.8546 70.409L74.8357 71.0672L74.2807 69.0539C74.2162 68.828 72.7256 63.5108 70.4412 61.3103C69.5765 60.4779 68.8086 59.8197 68.1246 59.2325C67.2147 58.4517 66.4985 57.8386 66.1629 57.3159C65.95 56.9739 65.6337 55.5478 65.3885 54.3476C65.4401 54.425 65.4918 54.5024 65.5305 54.5863C66.763 56.9997 67.7955 58.7098 70.7574 60.4069L74.1194 62.3299L72.2932 58.9098C71.5899 57.587 71.3575 55.8511 71.1123 54.0185C70.7896 51.5857 70.4154 48.8303 68.828 46.4491C67.1631 43.9518 63.9431 42.3902 59.0775 41.732C61.207 39.609 63.8785 37.3311 66.7888 35.7436C67.2599 35.4855 67.8471 35.2532 68.4601 35.008C68.6408 34.937 68.8151 34.866 68.9958 34.795C69.0926 35.3048 69.1506 35.9501 69.2151 36.6148C69.4539 39.2218 69.7765 42.7903 72.8094 45.6167L76.6038 49.14L74.6034 44.3648C74.1904 43.384 73.9968 42.3579 73.9516 41.3319L76.72 40.9447C79.9787 40.4801 82.134 40.1704 83.4827 41.2867C84.7733 42.3515 86.3413 42.5257 87.4964 42.4612C86.9995 47.7074 88.0191 53.4312 90.5422 59.5035C91.4263 61.633 92.2458 66.7631 92.8266 71.164C84.6119 66.0597 78.843 69.7121 75.268 71.9835C75.268 71.9835 80.14 72.7063 83.6375 74.055C84.2764 74.3002 84.9152 74.7196 85.5411 75.2423C78.2493 76.1973 75.0228 81.9211 74.4227 84.4959C69.7572 87.1932 64.5755 93.1945 62.0459 101.003L61.3167 103.242L63.3623 102.442C61.3941 106.636 60.5294 111.573 63.0913 117.735C62.0394 123.653 62.9235 129.893 69.1248 138.72C69.4152 143.386 71.3704 147.387 77.32 151.349C78.7074 154.543 81.521 157.492 86.7415 160.467L87.2964 160.783L87.5997 160.609C89.9679 163.719 93.7365 165.868 100.415 166.887C103.042 169.469 106.32 171.011 111.392 171.011C113.005 171.011 114.799 170.856 116.806 170.527L117.438 170.424L117.658 169.843C121.316 167.159 125.763 162.841 127.15 159.996C127.569 159.137 127.608 158.131 127.447 157.111C128.505 155.666 129.299 154.078 129.55 152.426C134.906 147.819 136.307 134.674 135.139 131.474C135.152 131.435 135.132 131.403 135.119 131.37ZM64.6593 105.262C64.1173 108.14 64.5948 111.521 66.8469 115.554C68.5376 113.863 68.4666 112.218 72.5707 110.334C68.7053 113.779 67.7697 116.599 67.0082 118.916C66.8985 119.258 66.7888 119.587 66.6726 119.903C63.2719 113.992 63.2719 109.295 64.6593 105.262ZM65.0788 99.2861C67.4083 93.6978 71.022 89.5744 74.2743 87.2706C74.3001 87.7353 74.3582 88.2063 74.4614 88.6774C73.2934 89.6905 72.2416 90.7811 71.2543 91.9103C70.1315 93.2009 69.086 94.5367 68.1181 95.9241C69.3635 94.7819 70.667 93.7172 72.0093 92.7299C73.0353 91.9749 74.0871 91.2715 75.1648 90.6585C75.4745 91.2586 75.8746 91.8652 76.3973 92.4653C75.9908 93.0267 75.6488 93.4591 75.4358 93.6397C74.6227 94.3431 69.2216 97.3631 65.0788 99.2861ZM89.8776 41.5449C89.9357 41.4739 89.9873 41.4029 90.0454 41.3255C90.2454 41.048 90.4067 40.777 90.5487 40.4995C90.839 39.951 91.0778 39.3896 91.2843 38.8282C90.8326 39.1314 90.3615 39.4025 89.8969 39.6348L88.4837 40.0607C88.4644 40.0671 86.2962 40.6931 84.9217 39.5638C83.3923 38.3055 81.5726 38.157 79.2753 38.37C80.3788 37.6731 81.7662 37.2278 83.8376 37.4795C87.2512 37.8925 88.7354 37.0729 89.7227 36.5373C90.097 36.3308 90.2648 36.247 90.3745 36.2663L90.439 36.2792C90.6197 36.4018 90.8003 36.5632 90.9681 36.7374C91.323 37.1246 91.6457 37.5956 91.8586 38.1377C92.0135 37.5698 92.0586 36.9503 92.0006 36.3115C91.9619 35.963 91.8973 35.5952 91.7618 35.2209C93.0331 32.5236 94.8916 30.0521 97.2985 27.871L101.37 24.1863L96.1822 25.9932C93.7365 26.845 89.6904 27.6129 85.4056 28.4195C82.1727 29.0325 78.8365 29.6649 75.6681 30.4199L74.7776 29.2003L74.4614 30.7039H74.455L74.2484 31.2653C74.1645 31.4911 74.042 31.788 73.8936 32.1429C73.2354 33.7174 72.1513 36.2986 71.8222 39.1831C71.6286 38.2216 71.5447 37.2794 71.4608 36.4147C71.3253 34.9047 71.2027 33.6012 70.5703 32.6656L70.4864 32.5494C70.4993 31.5944 70.2282 30.3554 69.2538 29.31L68.5505 28.3292C68.5247 28.2969 66.1371 24.9413 65.4982 21.7149C64.9884 19.1466 63.0783 16.5396 60.794 13.9648C62.7234 14.9199 64.6722 16.1395 65.6596 17.4623L66.3887 18.4432C69.7056 22.9151 72.3965 26.432 74.2936 27.5548L74.7002 27.7936H74.7131C75.0616 27.9872 75.41 28.0904 75.7391 28.1485C76.3586 28.2517 76.9393 28.2259 77.4878 28.1227C77.0877 27.9033 76.7264 27.6387 76.4295 27.3419C81.0047 26.1739 86.7931 25.051 95.3755 23.6508C114.244 20.5727 117.232 5.83408 117.677 2.23978C118.019 2.22042 118.516 2.26559 119.039 2.49144C119.89 2.86572 120.503 3.5949 120.878 4.6661C121.007 5.03392 121.013 5.5437 120.916 6.15028C120.148 6.189 119.187 5.86635 118.322 4.47251C118.322 4.47251 118.89 7.46669 117.987 9.75104C117.083 12.0354 115.489 15.5394 105.623 24.0702C108.514 23.0055 110.972 21.4116 113.05 19.5918C111.482 21.3212 109.772 22.8893 108.03 24.0702L107.314 24.5542C103.803 26.916 98.9956 30.1424 95.9821 35.15L94.4334 37.7247L97.2856 36.789C100.622 35.692 105.171 36.0663 108.262 38.2926C105.662 38.4345 103.984 39.0153 102.467 39.5444C102.093 39.6735 101.732 39.8026 101.357 39.9187C99.7054 40.4414 96.3112 39.7896 95.1368 39.4993L94.1107 39.2411L93.801 40.2478C92.0006 46.0619 93.046 52.3923 97.1759 60.7876C97.3307 61.0974 97.4727 61.3942 97.6212 61.6975C98.3439 63.5301 99.4925 69.0474 99.4925 69.0474C99.4925 69.0474 97.9954 65.479 94.9109 59.1808C99.9119 73.2741 96.6726 71.4415 94.285 65.5564C93.801 62.7042 93.2395 60.1036 92.6394 58.6517C90.0647 52.4697 89.142 46.7201 89.8776 41.5449ZM56.2447 41.461C55.4639 41.4158 54.6508 41.3835 53.799 41.3706C58.2193 35.5759 62.1491 32.472 67.9116 30.0715C68.7828 30.8329 68.9829 31.7428 68.9958 32.3623C68.5763 32.5623 68.1117 32.7495 67.66 32.9301C67.0082 33.1883 66.3307 33.4593 65.7434 33.7819C61.9685 35.8404 58.6387 38.8991 56.2447 41.461ZM66.9953 47.6881C68.2988 49.6369 68.615 52.018 68.9247 54.3153C69.0022 54.9154 69.0861 55.4962 69.1829 56.0705C68.6085 53.8442 67.1954 51.1146 65.9887 49.2949C64.3432 46.8298 61.8394 44.7713 57.6449 43.8034C62.4459 44.2745 65.5821 45.5715 66.9953 47.6881ZM55.5026 97.4599C55.1541 95.9951 54.7153 93.7817 54.4701 91.3167C54.6766 90.6778 54.8573 90.0325 55.0121 89.3937C55.3864 91.5941 55.9349 93.2461 56.3737 93.8527C58.8194 91.6199 62.2911 87.3674 62.8912 82.2309C62.8912 83.3601 62.8719 84.4249 62.859 85.3089C62.7945 88.9355 58.329 94.4464 55.5026 97.4599ZM47.959 105.991C47.9913 105.545 48.03 105.087 48.0752 104.616C48.2301 104.397 48.3785 104.177 48.5333 103.939C50.7338 100.603 51.5275 98.5117 51.0694 97.1824C51.5146 96.8469 51.9083 96.4726 52.2245 96.0531C52.4116 95.8079 52.5858 95.5434 52.7536 95.2659C53.0117 96.692 53.2892 97.8858 53.5022 98.7182C52.3019 100.841 50.4628 103.597 47.959 105.991ZM26.0899 38.9314C27.245 39.1121 28.7162 39.4928 30.2069 39.9316C29.4583 40.2349 28.7033 40.6092 27.9677 41.0673C27.103 40.5317 26.2384 40.0671 25.3607 39.809C23.612 39.2992 22.0439 39.0024 20.7662 38.9185C22.1407 38.7249 24.0314 38.6087 26.0899 38.9314ZM37.9634 32.6656C39.2927 33.6593 40.9511 35.5888 42.4095 37.4859C40.1057 35.9308 37.2987 34.4853 35.6338 33.7432C32.8397 32.4913 29.2777 31.6912 25.4446 31.5621C26.219 31.5556 27.0127 31.5363 27.8322 31.5169C31.7104 31.4008 36.1049 31.2846 37.9634 32.6656ZM51.2888 40.4672C50.9016 40.2672 50.6306 40.1317 50.5274 40.08C50.0047 39.7767 49.4561 39.5057 48.8947 39.254C48.8754 37.3762 48.7204 35.5049 48.2752 34.3046C47.817 33.0592 45.8941 30.0521 43.7001 27.6903C46.9524 30.4393 50.2885 33.569 50.7919 34.937C51.2436 36.1502 51.3339 38.37 51.2888 40.4672ZM29.0066 118.103C29.0518 117.613 29.0647 117.129 29.0518 116.651C31.4717 115.148 33.5495 113.392 35.0595 111.618C35.6209 111.656 36.163 111.682 36.6792 111.682C36.9696 111.682 37.2536 111.676 37.5375 111.663C35.963 114.618 33.214 116.909 29.0066 118.103ZM38.4216 97.8471L38.2086 87.5997C41.2221 86.1156 43.4291 84.4313 44.8681 82.5213C44.7519 84.3991 44.5841 86.2898 44.3389 88.0579L44.1066 89.7228L45.7328 89.2904C46.1393 89.1807 46.5264 89.0646 46.9136 88.9549C46.9136 88.9613 46.9072 88.9678 46.9072 88.9678C46.5264 89.7228 46.0167 90.452 45.4617 91.1553C44.9132 91.8652 44.3002 92.5427 43.6549 93.1945C43.0096 93.8462 42.3385 94.4786 41.6222 95.0723C42.4611 94.6722 43.2742 94.2141 44.0744 93.7301C44.8745 93.2461 45.6618 92.717 46.4168 92.1297C47.1718 91.5425 47.9139 90.9101 48.5785 90.1422C49.1529 89.484 49.6884 88.7355 50.0885 87.8256C50.7661 87.5417 51.4049 87.2513 51.9986 86.948C51.9018 87.2126 51.7985 87.4771 51.6888 87.7353C51.2694 88.7419 50.7661 89.7228 50.1466 90.6326C49.5335 91.5425 48.7979 92.3879 47.959 93.1429C47.1266 93.8979 46.178 94.5496 45.2165 95.1885C46.2812 94.7561 47.346 94.2979 48.3591 93.6914C49.3722 93.0912 50.3272 92.362 51.1855 91.5102C51.6695 91.0327 52.1148 90.5229 52.5407 89.9873C52.0244 91.7748 51.3404 93.5042 50.437 94.7109C48.5398 97.2534 41.8804 97.8213 38.4216 97.8471ZM17.5849 118.6C16.7073 116.98 15.4554 113.889 16.1007 110.276C17.6752 108.327 19.5079 106.113 21.0566 104.255C21.3534 104.997 21.6761 105.752 22.0374 106.526L22.4762 107.468L24.7412 106.604C26.2964 106.01 27.8387 105.423 29.3164 104.784C28.2969 105.887 27.316 107.023 26.3093 108.14C25.2639 109.295 24.2572 110.501 23.2183 111.663C22.7085 112.257 22.1987 112.85 21.676 113.431C21.1598 114.018 20.6436 114.605 20.0693 115.135C21.4631 114.38 22.6892 113.366 23.9346 112.405C25.1477 111.411 26.3738 110.424 27.5482 109.391C28.0387 108.966 28.5291 108.54 29.0195 108.12C27.9419 109.837 27.0901 111.553 26.7804 112.992C28.1484 113.07 29.5358 112.883 30.8909 112.541C27.5354 115.348 22.6827 117.909 17.5849 118.6ZM20.3016 50.5661C20.8178 49.7918 21.4051 49.1142 22.0374 48.5205C20.0757 51.0694 19.0949 54.5282 20.179 58.5484C21.5793 58.0838 25.2123 55.9221 27.716 54.1604C27.6838 54.2056 27.6451 54.2572 27.6064 54.2959C26.1609 56.0511 20.8694 60.8522 18.114 62.801C17.3396 58.2387 18.114 53.8378 20.3016 50.5661ZM29.2325 42.9258C27.9742 44.4422 26.8126 46.3652 26.7416 48.4689C28.6259 47.8946 34.0722 44.7197 35.7887 43.5905C36.3114 43.2484 37.6666 42.4741 38.8087 41.6287C38.0021 43.171 36.6082 45.3392 35.3886 46.1845C33.5237 47.488 27.1288 50.6952 23.9475 51.8309C24.354 48.0043 25.9544 45.1198 28.7163 43.2291C28.8905 43.1194 29.0648 43.029 29.2325 42.9258ZM49.1399 41.861C48.7915 42.2289 48.4753 42.6096 48.1785 42.9968C47.5009 43.8744 46.9653 44.8101 46.4619 45.7393C45.9586 46.675 45.5327 47.6365 45.1391 48.6044C44.7519 49.5724 44.3905 50.5532 44.1001 51.547C44.6035 50.6436 45.1585 49.7724 45.7392 48.9271C46.32 48.0817 46.933 47.2622 47.5912 46.5007C48.2494 45.7393 48.927 45.0037 49.6755 44.3906C50.0691 44.0615 50.4692 43.7647 50.8822 43.5001C50.6306 46.4491 48.9205 50.8049 47.8429 51.9341C51.6502 50.8694 53.799 47.1009 54.5282 44.9262C57.4965 48.0946 60.7424 54.1217 60.7424 54.1217C60.7424 54.1217 60.7295 51.96 60.5036 50.1015C62.3234 52.8311 62.2072 56.2899 61.2134 58.7162C60.6004 57.3159 59.5744 55.2703 57.9676 52.1535C57.5223 51.2953 57.0771 50.4241 56.6448 49.5788L55.651 47.6236L54.6572 49.5788C53.1149 52.6117 48.5462 54.6379 42.0674 55.1864C39.5701 49.7466 39.8412 45.5199 40.6543 42.9387C41.0092 42.274 41.2931 41.6352 41.4738 41.0802C41.7836 40.5705 42.0804 40.2478 42.2869 40.1381C43.1516 39.8477 46.1329 40.2026 49.1399 41.861ZM62.1233 72.3256C62.2653 74.2356 61.0521 77.2685 58.9807 79.6948C60.4133 75.965 60.0132 71.7319 59.6196 67.5697C59.555 66.8663 59.4905 66.163 59.4324 65.4531C59.5421 65.2015 59.6453 64.9498 59.7357 64.6852C60.7682 66.4727 61.9297 69.8605 62.1233 72.3256ZM12.6483 111.024C6.23408 104.319 5.4081 99.5636 6.11793 95.4272C6.13083 95.453 6.14378 95.4788 6.15668 95.5046C6.35027 99.1183 7.93765 103.132 12.5515 107.514C12.8032 105.836 13.8228 103.842 15.0682 101.932C16.7331 100.583 18.0817 99.4152 19.1723 98.0923C19.4175 99.2925 19.7466 100.538 20.1725 101.835C17.9269 104.526 14.7004 108.411 12.6483 111.024ZM15.6167 58.4581C15.6102 58.6711 15.6039 58.884 15.6039 59.097C12.4096 62.6138 9.35088 68.3312 10.9706 77.688C11.9643 77.3331 12.8742 76.7717 13.7196 76.0618C13.6744 76.9911 13.7131 77.9719 13.8615 79.0044C12.7516 79.9981 11.5191 80.8177 10.1446 81.3533C6.20826 70.5316 11.39 62.0589 15.6167 58.4581ZM46.7588 86.6705C47.133 83.2763 47.275 79.6626 47.3072 76.5716C48.3204 75.9779 49.0625 75.3326 49.5529 74.5841C49.7982 74.2098 50.0627 73.6549 50.3208 72.9967C50.6757 72.8741 51.0371 72.745 51.4049 72.5966C51.3985 73.7839 51.3145 75.0035 51.179 76.2102C51.0758 77.133 50.9339 78.0558 50.7597 78.9721C50.5725 79.8884 50.366 80.7983 50.0111 81.6759C50.566 80.908 50.9984 80.0498 51.4049 79.1851C51.805 78.3204 52.1728 77.4299 52.5019 76.5329C53.1085 74.868 53.6441 73.1838 53.9732 71.3512C54.6572 70.9511 55.3348 70.4865 55.9736 69.9638C55.9865 70.5445 55.9607 71.1447 55.9091 71.7383C55.7801 73.0806 55.5091 74.4486 55.1283 75.7843C54.7476 77.1201 54.2571 78.4365 53.6377 79.7013C53.0117 80.9532 52.2761 82.1728 51.2242 83.1536C52.431 82.3728 53.4118 81.2565 54.2765 80.0885C55.1347 78.9076 55.8768 77.6428 56.5157 76.3199C56.9867 75.3456 57.4062 74.3453 57.7547 73.2999C57.7676 78.985 55.9801 83.7667 46.7588 86.6705ZM36.1823 97.2857C33.614 100.848 29.2131 102.525 23.9475 104.526L23.6313 104.649C20.45 97.3954 20.3209 92.0136 21.3792 88.116C22.3536 87.2255 23.1409 86.2382 23.8185 85.0637C24.5089 84.4765 25.122 83.857 25.664 83.1988C26.1351 85.1154 26.8965 87.1932 28 89.4195C27.6709 90.3165 27.387 91.2005 27.1289 92.091C26.832 93.1106 26.5739 94.1302 26.3222 95.1497C25.8254 97.1889 25.3865 99.2345 24.9929 101.287C25.8189 99.37 26.69 97.4793 27.6064 95.6143C28.0645 94.6851 28.5356 93.7623 29.026 92.8654C29.4713 92.0459 29.9424 91.2457 30.4328 90.4971C31.3297 90.239 32.1944 89.9744 33.014 89.697C33.1366 90.3229 33.2204 90.9488 33.2204 91.5812C33.2462 92.6589 33.1236 93.7494 32.7945 94.8077C32.4719 95.866 31.9427 96.8727 31.2716 97.8084C30.6134 98.757 29.781 99.6023 29.0131 100.499C29.9359 99.7701 30.9103 99.099 31.7879 98.2536C32.6655 97.4212 33.4528 96.4532 34.0464 95.3369C34.6466 94.227 35.0402 92.9944 35.2596 91.7361C35.4467 90.7617 35.4661 89.7873 35.4468 88.8065C35.6339 88.729 35.821 88.658 36.0017 88.5806L36.1823 97.2857ZM26.5545 58.5678C26.2964 59.7487 26.0641 60.9296 25.8769 62.1169C25.4188 65.0014 25.109 67.8988 24.9735 70.7962C25.5543 67.9569 26.3093 65.1692 27.1998 62.4396C27.6128 61.1813 28.0645 59.9358 28.5549 58.7098C29.2454 62.5816 30.7296 66.2468 31.704 68.628C30.2392 69.9831 27.8128 71.7577 23.7668 73.8936C21.334 69.9509 20.3016 66.7308 20.4177 63.8786C22.3214 62.4138 24.6832 60.3359 26.5545 58.5678ZM48.8108 65.6983C51.5921 63.2849 54.3023 56.3996 54.0377 53.6184C54.0442 53.6119 54.0507 53.6055 54.0571 53.6055C55.2767 59.3873 51.9018 66.292 49.4497 69.2281C52.2503 68.3763 54.3475 67.731 55.8123 67.0922C52.9924 70.3445 48.4624 71.4092 46.3135 71.7448C46.3587 67.9375 46.7071 61.1361 47.9009 56.4577C48.2946 56.3544 48.6753 56.2447 49.0496 56.1221C48.3914 60.4843 48.4237 65.0272 48.8108 65.6983ZM7.13109 90.0132C7.27951 87.6965 8.58294 85.5412 11.177 83.3343C11.4803 83.2117 11.7772 83.0762 12.0611 82.9342C12.2482 83.4376 12.5515 83.9732 12.9451 84.5475C12.3192 87.6062 11.9966 92.7234 12.1579 94.9497C11.6288 94.6464 10.8867 88.1289 11.1964 84.954C11.1964 84.954 8.8734 87.8966 8.50558 90.1616C8.14421 92.4266 10.8996 96.8533 12.8226 98.6472C13.455 93.3623 14.7714 90.1164 15.8942 88.2063C16.533 88.9613 17.2041 89.755 17.8752 90.5939C18.1914 90.4132 18.4883 90.2326 18.7787 90.0519C18.5851 91.5425 18.5528 93.1493 18.7012 94.8593C17.5203 97.0275 15.7587 98.5311 12.9839 100.744C8.89917 96.7436 6.93105 93.1364 7.13109 90.0132ZM18.94 68.8474C19.1465 69.5185 19.4046 70.2154 19.7015 70.9253C19.3207 71.8674 19.1336 72.7837 18.9917 73.6807C18.8303 74.7067 18.7723 75.7198 18.74 76.72C18.6884 78.7205 18.7915 80.7015 18.998 82.6568C19.2433 80.708 19.5982 78.7785 20.0886 76.9136C20.3339 75.9844 20.6178 75.0681 20.9662 74.2034C21.0179 74.0743 21.0759 73.9517 21.1276 73.8226C21.5147 74.5196 21.9471 75.2294 22.4246 75.9586L22.9731 76.7975L23.8701 76.3393C24.3476 76.0941 24.8122 75.8489 25.2639 75.6101C25.0381 76.9717 24.9864 78.4494 25.1348 80.0433C23.7668 82.4309 21.7471 84.1861 18.5722 85.8574C14.1906 77.5008 15.8684 72.5321 18.94 68.8474ZM37.802 77.6105C36.2985 73.6161 35.7306 70.8349 35.7952 68.8087C37.8924 67.9569 40.8995 66.5308 43.3194 64.5755C43.2871 64.8401 43.2548 65.1111 43.2355 65.3951C42.9451 66.4662 42.6224 67.5374 42.2481 68.5893C41.3705 71.0737 40.3058 73.5194 38.9959 75.8489C40.5962 73.8807 42.0094 71.7448 43.2806 69.5121C43.3967 70.964 43.6032 72.5966 43.9194 74.4744C44.7454 74.3066 45.5198 74.1453 46.249 73.984C46.5523 73.9388 46.9136 73.8807 47.3266 73.7968C45.9844 75.152 42.7515 76.2683 37.802 77.6105ZM44.8099 59.2389C43.5258 62.7687 37.602 65.8855 33.5625 67.2922C32.3622 64.3368 30.3876 59.1873 30.4199 54.5863C30.4199 54.5799 30.4263 54.5734 30.4263 54.5734L30.4199 54.567C30.4263 53.3925 30.5683 52.2633 30.8845 51.205C30.9554 51.1727 31.0264 51.134 31.0974 51.1017C31.4846 52.1148 31.8524 53.0053 32.1428 53.7087C33.2527 53.3732 35.0079 52.7214 36.8858 51.8051C36.7954 52.844 36.6921 53.8894 36.5824 54.9348C36.2598 57.987 35.8855 61.0393 35.4661 64.0851C36.3308 61.1296 37.1568 58.1677 37.9247 55.18C38.1699 54.2379 38.4022 53.2893 38.6345 52.3407C39.0346 53.741 39.596 55.2445 40.3832 56.8513L40.7123 57.5224L41.4544 57.4708C42.7966 57.3805 44.0679 57.232 45.2746 57.0191C45.1972 57.8193 45.0487 58.5743 44.8099 59.2389ZM29.9423 88.316C27.045 82.3922 26.7739 77.7396 27.9355 74.1001C30.3166 72.6611 32.2137 71.2479 33.5947 69.9057C33.7302 72.0094 34.3433 74.6357 35.5629 77.9655C34.4465 80.5466 33.1495 83.0956 31.6395 85.5348C33.5689 83.8635 35.3822 82.0373 37.1116 80.1014L37.4084 80.024C37.9246 79.8884 38.4151 79.7529 38.8991 79.6239C38.5635 80.5015 38.2215 81.5146 37.802 82.8116C40.5445 81.2307 41.9191 80.7596 44.539 78.4043C44.3454 78.9011 44.1389 79.398 43.9001 79.882C42.203 83.2892 37.5117 86.1285 29.9423 88.316ZM32.5235 109.108C34.9047 104.313 36.9502 101.596 39.0281 100.067C41.0027 100.028 44.2357 99.8281 47.1202 99.0086C46.8491 99.2732 46.5846 99.5442 46.3071 99.8023C45.3262 100.738 44.2873 101.622 43.229 102.487C42.1643 103.345 41.0608 104.158 39.9251 104.932C38.7894 105.707 37.6214 106.442 36.4018 107.101C37.7117 106.655 38.9959 106.113 40.2607 105.526C41.5254 104.939 42.7709 104.307 43.9905 103.616C45.1649 102.951 46.32 102.248 47.4428 101.493C47.217 101.861 46.9653 102.267 46.6749 102.713C42.2352 109.45 39.3572 110.063 32.5235 109.108ZM2.92374 93.872L3.48514 93.7365C3.74971 93.672 4.0078 93.5752 4.25301 93.472C3.29152 97.2147 3.11729 101.448 6.51801 106.888C6.4922 107.094 6.46639 107.301 6.44704 107.507C2.55589 102.661 2.36878 97.4534 2.92374 93.872ZM23.7281 44.7391C22.6698 45.2101 21.6696 45.8619 20.7598 46.6685C19.8886 46.8944 18.9916 47.1654 18.0753 47.4816C14.3778 48.7335 11.4545 48.9658 9.57025 48.7915C10.7189 48.5786 12.1063 48.0753 13.9131 47.4106C14.9069 47.0428 16.0361 46.6298 17.3009 46.2039C19.8111 45.3392 21.9084 44.8681 23.7281 44.7391ZM16.4233 53.6442C16.3265 53.9733 16.2362 54.3024 16.1523 54.6379C12.2354 56.2189 7.88607 59.981 4.3692 66.9567C7.17624 57.8322 12.0288 54.5476 16.4233 53.6442ZM6.51801 73.2677C3.82712 78.03 2.15578 83.9538 3.60125 90.6972C0.658694 83.0246 2.86562 75.7973 6.75677 70.4413C6.62771 71.3576 6.54382 72.2997 6.51801 73.2677ZM8.62169 110.443C9.33797 113.199 10.7189 116.006 13.2162 118.722C13.2678 117.045 13.4614 115.367 13.7647 113.708C14.0809 116.812 15.3392 119.245 16.0361 120.381L16.404 120.975L17.1009 120.904C17.2364 120.891 17.3655 120.871 17.501 120.858C16.3911 121.633 15.2747 122.33 14.2229 122.917C10.7254 118.658 8.89916 114.605 8.62169 110.443ZM22.515 119.723C23.9862 119.232 25.4188 118.626 26.7739 117.929C26.6255 119.51 26.0125 121.123 24.2831 121.897C21.8955 122.969 19.5144 123.285 17.7785 123.349C19.3208 122.343 20.9921 121.11 22.515 119.723ZM41.5448 113.437C41.9384 112.463 42.2353 111.424 42.4418 110.321C43.5194 109.714 44.5584 108.875 45.6102 107.752C45.5973 107.978 45.5908 108.159 45.5844 108.307C44.4809 110.05 43.3839 111.663 42.6805 112.431C42.3837 112.753 41.9965 113.089 41.5448 113.437ZM68.0859 70.0735C68.3698 71.5189 68.544 72.9773 68.615 74.4421C68.686 75.9005 68.6537 77.3653 68.4989 78.8108C68.3376 80.2563 68.0536 81.6888 67.5696 83.0504C67.9116 81.6501 68.0471 80.2111 68.06 78.785C68.0729 77.3589 67.9568 75.9328 67.7439 74.526C67.5309 73.1193 67.2212 71.7319 66.8147 70.3832C66.4081 69.0345 65.9048 67.7181 65.2918 66.4792L66.4791 64.5304C67.0147 65.9371 67.8019 68.628 68.0859 70.0735ZM121.439 78.5204C118.619 75.7585 115.16 72.9838 111.837 71.5125C112.611 71.5254 113.392 71.6222 114.16 71.8093C117.316 72.5901 119.755 74.8422 121.439 78.5204ZM125.711 93.9043C122.375 91.8716 115.709 87.6965 111.153 84.0958C111.172 84.0635 111.192 84.0312 111.211 83.999C117.012 85.9542 124.091 90.8585 124.091 90.8585C124.091 90.8585 122.672 85.5929 121.762 83.8764C121.607 83.586 121.433 83.3021 121.246 83.0375C122.201 83.8828 123.027 84.8637 123.64 86.0188C124.427 87.503 125.22 91.2005 125.711 93.9043ZM134.552 113.721C136.1 117.07 136.333 124.691 133.713 129.37C133.364 129.067 132.99 128.808 132.603 128.596C134.003 124.511 134.442 119.949 132.919 115.341C133.254 114.121 133.39 112.799 133.274 111.353C133.771 112.005 134.087 112.689 134.416 113.405L134.552 113.721ZM129.55 148.935C129.447 148.167 129.286 147.419 129.086 146.696C131.577 141.398 132.274 133.739 131.538 131.248C131.603 131.106 131.667 130.957 131.725 130.815C132.254 131.157 132.706 131.628 132.945 132.28C133.784 134.565 132.79 144.128 129.55 148.935ZM127.415 151.794C127.04 155.834 122.02 159.757 119.381 161.551C119.239 159.26 118.858 155.466 117.819 152.775C120.697 150.245 122.697 147.367 123.788 144.167C123.788 144.192 123.794 144.218 123.794 144.244C123.872 144.941 123.846 145.644 123.872 146.348C123.84 147.051 123.833 147.761 123.749 148.471C123.614 149.89 123.381 151.31 123.027 152.71C122.672 154.111 122.226 155.492 121.633 156.827C122.426 155.601 123.091 154.285 123.672 152.93C124.253 151.575 124.724 150.161 125.091 148.709C125.291 147.987 125.421 147.251 125.569 146.509C125.614 146.141 125.672 145.773 125.724 145.406C125.769 145.812 125.808 146.225 125.827 146.638C125.892 147.496 125.872 148.361 125.834 149.232C125.782 150.103 125.679 150.974 125.511 151.839C125.343 152.704 125.13 153.569 124.808 154.407C125.337 153.678 125.769 152.878 126.163 152.052C126.55 151.226 126.885 150.368 127.176 149.49C127.221 149.342 127.26 149.187 127.305 149.032C127.447 149.936 127.505 150.865 127.415 151.794ZM97.0662 74.3002C97.8212 75.907 98.4213 77.6234 98.9118 79.3916C99.5054 81.5598 99.9313 83.8054 100.247 86.0704C100.383 83.786 100.415 81.4823 100.254 79.1657C100.131 77.4686 99.9184 75.765 99.5377 74.0614C99.5958 74.055 99.6474 74.0549 99.7055 74.0485C102.474 74.0291 106.494 74.9132 106.204 78.6237C105.907 82.4116 102.3 87.6965 102.3 87.6965C102.3 87.6965 109.204 83.5795 109.856 78.7398C109.914 78.3075 109.908 77.9074 109.862 77.5266C110.243 78.4623 110.334 79.5916 110.127 80.8951C109.746 83.2892 106.875 85.6445 104.345 87.7224C102.667 89.0968 101.144 90.3487 100.306 91.6264C98.9762 90.6068 97.2921 89.7615 95.5304 88.8839C91.9555 87.0964 88.5806 85.4057 88.6709 82.5406C88.858 76.8943 91.5554 75.0229 97.0662 74.3002ZM111.573 160.873C111.476 160.983 111.379 161.093 111.282 161.202C100.706 159.112 97.6664 156.789 96.5823 154.762C98.2149 155.13 100.08 155.343 102.222 155.343C102.9 155.343 103.603 155.324 104.339 155.279L105.223 155.227L105.326 154.607C105.842 155.175 106.359 155.737 106.913 156.272C107.501 156.84 108.101 157.382 108.74 157.886C109.378 158.382 110.043 158.86 110.759 159.208C110.146 158.699 109.624 158.099 109.133 157.485C108.643 156.872 108.198 156.221 107.772 155.562C107.346 154.904 106.965 154.22 106.591 153.536C106.294 152.981 106.016 152.42 105.752 151.858C105.907 150.736 106.042 149.561 106.133 148.355C108.152 150.336 111.353 153.549 112.618 155.266L113.237 156.105L114.115 155.55C114.315 155.421 114.509 155.285 114.709 155.156C114.521 157.537 113.373 158.841 111.573 160.873ZM104.171 164.616C98.5569 162.596 95.311 160.564 93.4719 158.621C95.6272 160.073 98.4923 161.525 102.274 162.983C102.364 162.409 102.371 161.803 102.325 161.189C102.461 161.235 102.596 161.286 102.738 161.331C103.022 162.216 103.468 163.048 104.048 163.829C104.1 164.093 104.139 164.351 104.171 164.616ZM81.0048 147.064C81.0177 146.18 81.0435 145.296 81.0757 144.438C81.6371 145.451 82.2889 146.393 82.9858 147.277C84.5474 149.251 86.3671 150.916 88.2966 152.368C86.7995 150.471 85.5024 148.445 84.5732 146.309C84.115 145.244 83.7279 144.167 83.4762 143.07C83.3923 142.715 83.3278 142.366 83.2762 142.011C83.8118 142.308 84.3796 142.586 84.9797 142.844C85.767 145.67 87.1608 149.923 91.4392 152.665C91.3488 153.42 91.2585 154.272 91.1875 155.214C85.4895 153.13 82.5728 150.29 81.0048 147.064ZM71.3833 133.719C71.3898 133.371 71.3963 133.022 71.4027 132.674C72.3319 135.784 74.1517 139.069 77.4492 142.218C77.5976 140.411 77.8299 138.565 78.0751 136.894C78.3848 137.526 78.7655 138.127 79.2108 138.694C79.0301 140.74 78.8559 143.347 78.7849 146.07C74.8808 142.463 72.4287 138.372 71.3833 133.719ZM127.066 120.658C126.376 118.161 124.788 114.128 122.168 108.185C122.407 107.881 122.723 107.462 123.085 106.946C124.246 109.837 127.44 116.574 127.569 117.793C129.15 115.49 130.435 113.295 130.964 110.889C131.519 114.954 129.725 117.813 127.066 120.658ZM113.76 153.11C111.637 150.561 107.494 146.548 106.262 145.367C106.281 142.114 105.862 138.811 104.616 135.939C105.674 136.61 106.823 137.294 108.075 137.997L108.817 138.41L109.411 137.804C111.043 136.145 112.502 134.506 113.779 132.88C113.902 133.506 114.012 134.132 114.108 134.765C114.354 136.307 114.522 137.868 114.631 139.437C114.747 141.005 114.786 142.579 114.773 144.16C114.754 145.741 114.676 147.328 114.489 148.903C114.902 147.367 115.206 145.799 115.451 144.218C115.696 142.637 115.883 141.043 115.993 139.437C116.109 137.83 116.167 136.216 116.141 134.597C116.141 133.313 116.064 132.022 115.967 130.731C116.78 132.725 117.541 134.939 118.18 136.978C118.296 138.694 118.264 140.45 118.084 142.198C117.89 144.031 117.574 145.87 117.064 147.671C117.922 146.006 118.606 144.238 119.174 142.424C119.284 142.076 119.381 141.721 119.477 141.366C119.619 141.882 119.748 142.347 119.852 142.728L120.213 144.089L121.452 143.424C121.542 143.379 121.639 143.315 121.736 143.257C120.523 147.064 117.884 150.31 113.76 153.11ZM89.8259 88.187C90.9875 89.0259 92.3297 89.7486 93.659 90.4197C94.2204 92.6653 94.9948 94.7561 95.8466 96.8146C96.3112 97.9116 96.8016 98.9893 97.3307 100.048C97.8728 101.093 98.402 102.171 99.1505 103.087C98.602 102.054 98.2987 100.919 97.9696 99.8023C97.6598 98.6795 97.3889 97.5438 97.1501 96.4081C96.8404 94.8852 96.5823 93.3429 96.4209 91.82C97.8664 92.5879 99.1376 93.3687 99.9249 94.2657L101.79 96.3822L101.88 93.5687C101.912 92.6073 103.964 90.923 105.771 89.4389C106.075 89.1872 106.384 88.9355 106.694 88.6774C107.139 89.4066 107.456 90.168 107.552 90.9488C108.081 95.0723 103.564 103.184 99.9958 107.191C89.058 102.487 85.9348 96.8017 85.1927 92.9686C87.1867 91.2263 88.9096 89.284 89.8259 88.187ZM109.469 86.1543C110.166 86.9157 110.863 87.6643 111.579 88.3999L114.683 91.549C115.696 92.6008 116.677 93.6591 117.464 94.8658C118.245 96.0661 118.793 97.4341 119.064 98.886C119.019 97.4147 118.684 95.9241 118.064 94.5367C117.445 93.1493 116.586 91.8974 115.735 90.6778L115.367 90.1616C118.632 93.2977 122.652 97.3179 122.988 100.351C123.807 99.1506 124.737 97.4986 125.04 96.1887C125.55 98.7053 123.162 103.087 121.123 105.894C118.903 102.332 113.283 97.7567 109.314 95.0594C109.746 93.472 109.933 91.962 109.766 90.652C109.604 89.4066 109.095 88.2386 108.404 87.1803C108.765 86.8577 109.127 86.5092 109.469 86.1543ZM103.319 153.091C92.2006 153.459 89.0129 148.019 87.6061 143.812C88.174 143.986 88.7677 144.154 89.3807 144.302C89.7292 144.954 90.097 145.586 90.5358 146.186C91.0908 146.961 91.7167 147.703 92.4523 148.322C93.1815 148.948 94.014 149.439 94.8787 149.774C95.7434 150.123 96.6274 150.31 97.4985 150.555C96.6983 150.142 95.866 149.774 95.1368 149.284C94.4011 148.806 93.7687 148.219 93.2525 147.548C92.7298 146.883 92.3233 146.128 91.9877 145.354C91.9038 145.18 91.8328 144.993 91.7618 144.812C92.2264 144.896 92.7105 144.98 93.1944 145.057C93.5752 145.631 93.9687 146.193 94.4269 146.69C94.9948 147.335 95.6272 147.909 96.2918 148.419C96.9565 148.935 97.6599 149.381 98.3955 149.755C99.1247 150.129 99.8861 150.445 100.667 150.658C99.9571 150.271 99.3118 149.8 98.7052 149.29C98.1051 148.78 97.5502 148.219 97.0662 147.612C96.5758 147.012 96.1434 146.38 95.7885 145.715C95.7239 145.606 95.6659 145.489 95.6143 145.38C95.7498 145.393 95.8853 145.412 96.0272 145.425L96.8145 145.509L97.1501 144.792C98.8343 141.205 99.5764 134.719 99.7958 132.48C100.125 132.758 100.473 133.029 100.835 133.313C101.099 133.874 101.357 134.448 101.616 135.01L101.686 135.145C104.836 140.075 104.203 147.561 103.319 153.091ZM79.4302 134.158C80.4691 134.681 81.6371 135.184 82.9729 135.668C82.7793 132.074 83.6634 128.221 84.2828 126.008C84.3151 126.105 84.3409 126.208 84.3732 126.311C84.9088 128.105 85.6637 129.822 86.5155 131.467C87.3673 133.113 88.3869 134.655 89.5162 136.1C90.6455 137.539 91.8909 138.888 93.2976 140.037C92.0458 138.727 90.9939 137.249 90.0776 135.713C89.1613 134.177 88.3676 132.571 87.761 130.906C87.148 129.247 86.6511 127.55 86.3607 125.821C86.1606 124.801 86.051 123.769 85.98 122.736L86.3285 122.284C88.0901 123.052 90.0324 123.73 92.1748 124.278L92.9814 124.485L93.1621 124.188C94.0204 126.163 95.3691 128.312 97.7631 130.654L97.6534 131.467L97.6469 131.532C97.6405 131.609 97.0598 138.978 95.4465 143.115C82.96 141.65 80.0561 137.242 79.4302 134.158ZM81.1918 111.366C81.1789 111.353 80.1852 110.017 80.3336 107.539C80.3981 106.436 81.792 103.552 83.0181 101.003C83.1407 100.744 83.2633 100.493 83.3859 100.241C83.5666 102.558 83.8505 104.874 84.3538 107.159C84.7603 109.011 85.3218 110.83 86.0703 112.566C86.8124 114.302 87.7417 115.941 88.8258 117.451C87.9352 115.819 87.2189 114.096 86.7092 112.334C86.1929 110.566 85.8767 108.759 85.7025 106.946C85.4637 104.436 85.4895 101.906 85.6315 99.37C87.7093 102.325 91.2263 105.468 97.0598 108.294C96.5564 111.85 94.1237 117.961 91.9103 121.897C83.302 119.51 78.8559 115.225 77.3588 112.424C78.8817 112.979 80.0432 113.147 80.1658 113.166L82.9083 113.541L81.1918 111.366ZM108.417 135.629C98.4923 129.957 95.8078 125.537 94.5882 121.633C96.5822 117.787 98.5181 112.792 99.157 109.249C99.1763 109.256 99.1892 109.262 99.2086 109.269C99.3312 110.701 99.5183 112.128 99.7764 113.534C100.138 115.425 100.615 117.277 101.196 119.09C101.777 120.904 102.467 122.672 103.242 124.395C104.003 126.124 104.874 127.789 105.674 129.48C105.081 127.699 104.423 125.937 103.881 124.149C103.332 122.368 102.867 120.562 102.519 118.742C102.17 116.922 101.932 115.096 101.809 113.27C101.732 111.915 101.719 110.559 101.764 109.211C102.254 109.682 102.809 110.211 103.403 110.792C106.739 115.141 112.366 122.381 112.599 126.705C114.038 125.014 117.032 121.239 118.271 117.277C118.071 122.743 114.689 129.099 108.417 135.629ZM113.928 119.219C112.056 116.135 107.378 111.514 102.867 107.204C104.732 104.803 106.804 101.499 108.198 98.2214C108.707 98.9054 109.191 99.6216 109.643 100.364C110.379 101.57 111.037 102.835 111.605 104.145C112.747 106.765 113.508 109.572 113.734 112.489C113.967 109.579 113.644 106.591 112.889 103.706C112.515 102.261 112.037 100.841 111.463 99.4474C111.456 99.4345 111.45 99.4152 111.443 99.4022C115.412 102.5 118.974 106.017 119.703 108.069C119.355 109.366 117.748 114.625 113.928 119.219ZM72.8998 113.56C72.9127 115.322 73.1257 117.064 73.5129 118.755C73.842 120.168 74.3001 121.542 74.9196 122.839C75.539 124.13 76.3198 125.356 77.32 126.35C76.4941 125.208 75.9456 123.917 75.5584 122.594C75.1712 121.271 74.9583 119.91 74.868 118.548C74.7454 116.696 74.8615 114.838 75.1971 113.057C76.3457 115.496 79.043 118.348 83.2504 120.736C83.2439 120.755 83.231 120.774 83.2181 120.794L83.16 120.8C83.1665 120.833 83.1729 120.858 83.1729 120.891C82.2373 122.768 80.5724 126.731 80.4304 131.306C74.0678 128.737 70.5315 125.595 69.8991 121.962C69.3377 118.774 71.1575 115.69 72.8998 113.56ZM121.594 140.643C120.678 137.372 119.013 131.861 117.167 127.924C120.155 122.736 121.155 117.838 120.11 113.431C120.478 112.618 120.787 111.856 121.039 111.185C122.052 113.534 122.826 115.425 123.427 116.961C123.801 119.077 124.149 121.187 124.265 123.291C124.324 124.453 124.304 125.614 124.156 126.776C124.014 127.937 123.749 129.105 123.388 130.247C124.033 129.234 124.601 128.15 125.059 127.008C125.298 126.421 125.498 125.821 125.679 125.208L127.131 123.775C127.666 123.246 128.195 122.71 128.699 122.168C128.712 122.491 128.712 122.807 128.686 123.13C128.673 124.659 128.421 126.176 128.06 127.686C127.698 129.196 127.124 130.667 126.414 132.087C125.698 133.5 124.833 134.861 123.743 136.062C125.04 135.087 126.182 133.887 127.195 132.583C128.202 131.273 129.105 129.854 129.802 128.318C130.499 126.789 131.099 125.175 131.441 123.491C131.493 123.311 131.532 123.123 131.564 122.943C130.848 131.138 124.685 138.139 121.594 140.643ZM72.7449 97.8664C72.6481 98.6601 72.6223 99.4474 72.661 100.228C72.732 101.796 73.0805 103.306 73.558 104.726C73.4354 103.222 73.4805 101.725 73.7709 100.306C73.9903 99.1957 74.3646 98.1504 74.8486 97.1695C74.7711 97.8922 74.7389 98.615 74.7582 99.3248C74.8163 101.383 75.2358 103.358 75.8165 105.262C75.5971 103.287 75.5648 101.299 75.8681 99.3958C76.165 97.5244 76.8167 95.7628 77.8105 94.285C77.8815 94.1947 77.946 94.1043 78.017 94.014C78.6688 94.5432 79.4173 95.0658 80.2949 95.5885L80.8176 95.8983L81.3596 95.6273C81.992 95.3111 82.6309 94.911 83.2568 94.4722C83.2891 94.5948 83.3278 94.7238 83.3665 94.8464C82.6954 96.5049 81.7726 98.4278 80.9983 100.035C79.4947 103.164 78.1913 105.868 78.1009 107.404C78.0299 108.591 78.1654 109.598 78.3783 110.411C76.3198 109.701 73.2934 108.146 72.0545 104.913C71.1446 102.545 70.9897 100.435 71.5898 98.4859C71.9963 98.2794 72.3771 98.0729 72.7449 97.8664ZM83.1729 78.1268C82.5664 78.8882 82.0307 79.7078 81.5984 80.5789C81.0821 81.6243 80.7272 82.7407 80.5659 83.8764C80.3981 85.0056 80.4304 86.1478 80.6111 87.2448C80.5982 85.0121 81.308 82.8633 82.5599 81.1532C83.7279 79.54 85.2959 78.2623 87.006 77.3266C87.206 77.3137 87.3996 77.3008 87.5803 77.2943C86.9156 78.643 86.5155 80.3337 86.4446 82.4567C86.3865 84.1797 87.0705 85.5542 88.1417 86.7221C86.864 88.245 83.8182 91.678 80.9079 93.3493C78.5268 91.8458 77.3781 90.4068 76.8555 89.0065C77.7331 89.8647 78.8301 90.5423 79.7593 91.2521C77.8298 87.3803 79.0301 81.1661 82.9858 78.2042C83.0503 78.1784 83.1149 78.1526 83.1729 78.1268ZM68.3698 130.093C68.3698 128.228 68.3892 126.395 68.4279 124.659C68.686 125.221 69.0087 125.769 69.3829 126.305C69.2861 128.641 69.1829 131.525 69.1377 134.635C66.9437 131.022 65.7757 127.905 65.2595 125.13C66.1048 126.692 67.1243 128.337 68.3698 130.093ZM131.596 104.707C130.609 100.622 129.505 97.718 128.247 95.5498C128.163 95.0142 127.995 93.9817 127.763 92.7492C130.441 95.0013 132.435 98.4666 133.777 105.952C133.016 105.552 132.293 105.139 131.596 104.707ZM111.869 76.52C111.643 76.0037 111.353 75.5198 110.998 75.0745C112.792 75.1971 116.277 75.9779 121.613 79.3593C120.994 79.3141 120.29 79.2625 119.574 79.2044C116.987 77.7977 114.173 76.9717 111.869 76.52ZM76.2295 146.683C76.2618 147.07 76.3005 147.451 76.3586 147.832C73.5644 145.502 72.1964 143.16 71.6479 140.572C72.8353 142.74 74.3582 144.786 76.2295 146.683ZM78.9462 149.155C79.0301 149.219 79.1011 149.29 79.185 149.361L80.2756 150.239C81.3726 151.82 82.8051 153.239 84.6829 154.498L84.7345 154.659C85.012 155.53 85.3153 156.369 85.6573 157.163C81.7404 154.549 79.7851 151.988 78.9462 149.155ZM87.6707 156.169C88.3289 156.485 89.0258 156.789 89.7743 157.072C90.8649 159.615 93.1879 161.835 96.8468 163.835C91.6586 162.351 89.2129 159.789 87.6707 156.169ZM104.939 167.242L106.255 167.681L106.404 166.3C106.41 166.255 106.404 166.203 106.41 166.158C107.739 167.152 109.391 168.023 111.36 168.772C108.327 168.759 106.055 168.12 104.19 166.984C104.435 167.068 104.687 167.159 104.939 167.242ZM116.451 167.991C110.908 166.662 107.281 164.713 105.616 162.19C107.314 162.641 109.249 163.087 111.489 163.513L112.121 163.635L112.54 163.151C112.682 162.99 112.811 162.841 112.947 162.687C113.179 163.061 113.418 163.429 113.67 163.771C114.283 164.597 114.954 165.365 115.715 166.016C115.251 165.139 114.922 164.209 114.67 163.28C114.483 162.57 114.367 161.861 114.283 161.151C115.328 159.905 116.18 158.666 116.625 157.04C117.393 160.938 117.064 166.055 117.064 166.055C117.064 166.055 120.239 164.364 123.175 161.809C121.439 163.829 118.935 166.158 116.451 167.991ZM108.54 46.533C109.075 47.9075 108.946 50.237 108.804 52.7021C108.798 52.8311 108.791 52.9602 108.785 53.0892C108.288 51.8825 107.849 50.5855 107.417 49.3078C106.862 47.6816 106.339 46.1458 105.72 44.8165C105.049 43.384 103.764 42.5451 102.319 41.9449C102.609 41.8481 102.906 41.7514 103.197 41.6481C103.287 41.6158 103.384 41.5836 103.474 41.5513C105.384 42.9193 107.991 45.1263 108.54 46.533ZM74.0033 39.8864C74.2227 37.131 75.3132 34.5369 75.952 33.0076C76.0101 32.8591 76.0682 32.7236 76.1198 32.601C79.256 31.8525 82.5922 31.2265 85.8186 30.6135C88.374 30.1295 90.839 29.6649 92.975 29.181C91.7102 30.7168 90.6584 32.3558 89.8259 34.0852C89.3807 34.182 89 34.3885 88.6515 34.5821C87.832 35.0338 86.8059 35.5952 84.1086 35.2661C79.6754 34.7305 77.4749 36.789 75.8746 38.2926C75.5584 38.5894 75.2552 38.8733 74.9712 39.1056L74.0033 39.8864ZM80.4433 71.2092C83.8118 69.8863 87.0641 69.7056 92.3104 73.1193C91.9232 73.2677 91.5553 73.4419 91.2004 73.6226C86.8188 70.6671 83.5601 70.5703 80.4433 71.2092Z" fill="#262626"/>
</svg>
