<svg width="106" height="185" viewBox="0 0 106 185" fill="none" xmlns="http://www.w3.org/2000/svg">
<path d="M100.655 78.8457C100.825 80.1257 100.395 81.2957 99.9551 82.4457C97.9351 87.7057 96.5751 93.1557 95.3751 98.6457C95.1351 99.7557 94.9451 100.896 94.8551 102.026C94.6151 105.116 93.7451 108.006 92.1151 110.646C91.0951 112.306 89.9951 113.916 88.8751 115.636C90.4351 115.696 91.6051 114.736 92.9651 114.586C95.3451 107.816 97.3251 101.046 100.565 94.7657C100.675 94.5557 100.975 94.4357 101.435 94.0957C101.405 94.6657 101.445 95.0157 101.355 95.3157C101.065 96.3157 100.735 97.3157 100.395 98.3057C98.8051 102.886 97.1951 107.466 95.6051 112.056C95.0451 113.676 94.4351 115.286 93.9751 116.926C93.4851 118.656 93.1451 120.426 92.7351 122.186C92.6851 122.466 92.6351 122.746 92.5851 123.026C92.5451 123.296 92.5151 123.566 92.4751 123.846C92.2351 124.186 91.9951 124.536 91.7451 124.876C91.7051 125.156 91.6651 125.436 91.6251 125.716C90.6651 126.686 90.6751 126.686 90.3151 128.116C91.3051 127.386 91.5551 126.616 91.5151 125.686C91.8051 125.436 91.8751 125.166 91.6151 124.846C91.8651 124.506 92.1051 124.156 92.3551 123.816C92.3951 123.546 92.4251 123.276 92.4651 123.006C92.5151 122.726 92.5651 122.446 92.6151 122.166C93.3951 121.656 93.5251 120.766 93.8351 119.996C94.3651 118.686 94.8251 117.346 95.3951 116.056C95.5651 115.676 96.0151 115.426 96.3451 115.126L96.2551 115.116C96.8451 116.076 96.3251 116.976 96.0451 117.846C95.5351 119.476 94.9551 121.096 94.3251 122.686C93.0251 125.966 92.3351 129.426 91.4351 132.816C91.1051 134.066 90.3751 135.246 90.5551 136.626C90.1551 136.876 89.7951 137.156 89.8751 137.706C89.6451 137.976 89.4851 138.246 89.8151 138.556C88.3451 139.246 87.8851 140.736 87.0751 141.976C87.5551 141.836 88.0051 141.626 88.2251 141.276C88.7751 140.396 89.2151 139.456 89.6951 138.536C89.7151 138.256 89.7351 137.966 89.7551 137.686C90.1251 137.416 90.6451 137.236 90.4551 136.606C91.3751 135.976 91.6751 134.936 92.1351 134.016C94.2151 129.856 96.2351 125.666 98.2851 121.486C98.6151 120.806 98.9351 120.106 99.3451 119.466C99.5151 119.196 99.9051 119.076 100.525 118.666C100.315 119.486 100.275 119.956 100.085 120.356C96.6751 127.886 93.4251 135.486 89.3051 142.666C88.7951 143.556 88.4351 144.556 88.0751 145.526C87.0751 148.186 86.1051 150.856 85.1151 153.536C85.5751 153.666 85.7351 153.216 85.9551 152.836C89.2051 147.356 92.0751 141.686 94.9051 135.986C95.4451 134.906 95.7651 133.636 97.0151 133.056L96.9351 133.036C96.9951 133.296 97.1751 133.586 97.1051 133.796C96.8451 134.606 96.5551 135.426 96.1751 136.186C93.2551 141.966 90.3051 147.736 87.3851 153.516C87.0051 154.266 86.6451 155.066 86.4651 155.886C85.5551 160.036 83.1851 163.316 80.4151 166.396C78.4351 168.596 75.8151 169.726 73.1851 170.856C71.8751 171.416 70.5351 171.916 69.2151 172.436C68.0151 172.906 67.0851 173.596 66.7251 174.956C66.4051 176.146 65.8851 177.286 65.4851 178.456C64.9251 180.076 64.4051 181.716 63.8251 183.326C63.3851 184.566 62.8051 184.876 61.6951 184.556C60.5951 184.246 59.8851 183.186 60.2051 182.176C60.5451 181.086 60.9851 180.026 61.4351 178.976C62.4251 176.706 63.3951 174.426 64.4751 172.196C65.0551 170.986 65.0951 169.816 64.6751 168.606C64.1151 166.986 63.5251 165.376 62.4051 164.026C58.2851 159.076 58.6751 153.486 60.1751 147.756C61.1451 146.686 61.0851 145.326 61.2851 144.016C61.6251 141.826 62.4951 139.806 63.4151 137.816C63.8751 136.826 63.9951 135.896 63.9051 134.806C63.4951 129.876 63.1851 124.926 62.8851 119.986C62.7951 118.566 62.8751 117.126 62.9051 115.706C62.9351 114.686 63.1051 113.706 63.8051 112.456C64.5451 114.636 64.0851 116.536 64.2051 118.376C64.3351 120.276 64.3851 122.176 64.5151 124.076C64.6451 125.976 64.8251 127.866 64.9851 129.746C65.6751 129.926 65.5951 129.396 65.6651 129.126C66.1751 127.096 66.6051 125.046 67.1551 123.016C67.4651 121.876 67.4752 120.796 67.1451 119.656C65.2052 113.056 64.1651 106.286 63.5351 99.4457C63.3651 97.5557 63.2851 95.6457 63.2351 93.7457C63.1951 92.0357 63.2651 91.8857 64.0751 90.1757C64.5851 91.3357 64.5151 92.4757 64.5451 93.5757C64.7351 99.8757 65.6551 106.086 66.9751 112.236C67.1551 113.066 67.1951 113.956 68.0051 114.496C67.9151 114.586 67.8151 114.676 67.7251 114.756C67.7651 114.736 67.8251 114.726 67.8451 114.696C67.8751 114.626 67.8851 114.536 67.9051 114.466C68.3551 112.326 68.7851 110.186 69.2751 108.056C69.5151 107.006 69.4751 105.996 69.3351 104.946C68.3351 97.7757 67.4951 90.5957 67.3251 83.3557C67.2951 82.0257 67.2951 80.6957 67.2951 79.3557C67.2951 78.4157 67.4051 77.4857 68.0851 76.4957C68.6851 77.5057 68.6551 78.4257 68.6651 79.3457C68.7151 85.2557 69.1952 91.1257 69.9251 96.9857C70.0552 97.9957 70.2352 98.9957 70.4251 100.156C72.5251 97.1157 72.8151 96.0657 72.3851 93.2157C71.3551 86.3957 71.4351 79.5557 71.8851 72.7057C71.9251 72.1357 72.0351 71.5757 72.1651 71.0157C72.2451 70.6557 72.4251 70.3157 72.6951 69.6357C72.9351 70.2257 73.1451 70.5257 73.1651 70.8457C73.1951 71.6057 73.1052 72.3657 73.1152 73.1257C73.1452 77.8857 73.1851 82.6357 73.2551 87.3957C73.2651 88.1257 73.4351 88.8457 73.5651 89.8457C74.8151 87.1257 75.4051 84.9457 75.5251 82.5957C75.8651 76.2057 76.8051 69.9057 78.2351 63.6757C78.4851 62.5857 78.6851 61.4757 79.5851 60.4357C79.7751 60.7857 79.9951 60.9957 79.9851 61.2057C79.9451 61.9657 79.8551 62.7157 79.7451 63.4657C79.1151 67.7957 78.4651 72.1257 77.8251 76.4557L77.8751 76.5757L77.7551 76.4057C79.1351 75.4457 79.8751 74.0757 80.2751 72.4857C81.0551 69.3457 81.7451 66.1857 82.6051 63.0657C83.7451 58.9357 84.9851 54.8457 86.2451 50.7457C86.5751 49.6757 87.1051 48.6657 87.5351 47.6657C88.3251 47.8257 88.1051 48.2857 88.0351 48.5857C87.8551 49.4157 87.5852 50.2357 87.3652 51.0657C85.8552 56.5757 84.3452 62.0757 82.8652 67.5857C82.7252 68.1057 82.8051 68.6757 82.7851 69.2257C82.7851 69.3057 82.7851 69.3857 82.7851 69.4657C82.7551 69.3857 82.7251 69.2957 82.6951 69.2157C84.6251 67.9957 86.0051 66.1557 87.6751 64.6457C88.1651 64.1957 88.3051 63.3057 88.4951 62.5957C89.7551 57.8357 90.9751 53.0657 92.2451 48.3157C92.4751 47.4357 92.4951 46.3957 93.4951 45.8957L93.4251 45.8757C94.1052 46.3857 93.8551 47.0957 93.7251 47.7057C93.2551 49.8357 92.7151 51.9457 92.2051 54.0657C91.4851 57.0157 90.7851 59.9657 90.0451 62.9057C89.7351 64.1257 89.6251 65.3757 89.9451 66.5657C90.7651 69.6257 90.9351 72.6957 90.4451 75.8157C90.4651 75.8857 90.4851 75.9457 90.5051 76.0157C90.4551 75.9457 90.3951 75.8757 90.3451 75.8057C92.1451 75.1957 93.0251 73.9357 93.3151 72.0557C93.9751 67.8357 94.7551 63.6257 95.5051 59.4157C95.7151 58.2357 95.7652 56.9757 96.8652 55.9157C97.0352 56.2457 97.2351 56.4457 97.2351 56.6457C97.2251 57.4057 97.1951 58.1657 97.0951 58.9157C96.4651 63.2457 95.8451 67.5657 95.1651 71.8857C94.9351 73.3257 94.8852 74.7357 95.3652 76.0957C95.7652 77.2357 95.4451 78.6057 96.4851 79.5357L96.3251 79.6457L96.4051 79.5457C99.8451 69.0257 103.885 58.2257 105.165 56.1257C105.715 56.1757 105.715 56.6157 105.635 56.9457C105.345 58.1457 105.035 59.3457 104.645 60.5057C102.035 68.3557 99.4051 76.1957 96.7751 84.0457C96.3551 85.3057 95.8551 86.5457 96.2851 87.9357C96.9251 87.8557 96.8151 87.2757 96.9551 86.9057C97.7551 84.7657 98.4851 82.6057 99.3151 80.4757C99.5751 79.8057 99.7951 78.9857 100.725 78.8457L100.655 78.8457ZM65.7951 174.006C65.3051 174.196 64.9351 174.466 65.0351 175.066C64.7751 175.316 64.5951 175.566 64.9351 175.876C64.0651 176.236 63.8451 176.896 64.0851 177.766C62.7951 178.626 62.6751 180.146 62.0351 181.376C61.8451 181.736 62.0051 182.106 62.6351 182.176C63.1451 180.736 64.1351 179.436 64.0151 177.756C64.7351 177.326 65.0151 176.696 64.8551 175.876C65.1451 175.626 65.3251 175.366 64.9251 175.056C65.4751 174.916 65.7151 174.556 65.6851 173.996C65.7451 173.856 65.8151 173.716 65.8751 173.576C65.7951 173.586 65.7251 173.586 65.6451 173.596C65.6951 173.716 65.7451 173.866 65.7951 174.006ZM66.0751 164.096C66.1051 163.636 66.2051 163.166 66.1451 162.726C65.7751 160.036 63.4951 153.676 61.8851 150.766C60.6751 154.176 61.0151 157.936 62.7951 160.796C62.9251 159.756 62.1351 158.676 62.9951 157.576C63.8951 158.286 64.1451 159.266 64.5051 160.236C64.9951 161.556 65.1051 163.046 66.1751 164.116C66.1251 164.196 66.0451 164.396 66.0751 164.096ZM88.4251 89.4657C91.2251 87.1657 93.0251 84.2357 93.8851 80.7357C94.2051 79.4257 94.0551 78.0957 93.7151 76.7857C93.5151 76.0157 92.7551 75.8157 92.2151 76.4157C89.9051 78.9657 88.0751 81.8357 86.4751 84.8657C85.9951 85.7757 85.6851 86.7957 85.4351 87.8057C85.2951 88.3757 85.4251 89.0257 85.4351 89.8757C87.5151 88.1857 87.7151 85.2257 90.5151 84.1857C90.3551 84.8757 90.3351 85.3457 90.1451 85.7357C89.7251 86.5857 89.2051 87.3757 88.7551 88.2157C88.5551 88.5957 88.1351 88.9757 88.4851 89.4857C88.2151 89.6757 87.9551 89.8757 87.5551 90.1657C87.9051 90.1557 88.1551 90.2057 88.1951 90.1357C88.3251 89.9357 88.3551 89.6957 88.4251 89.4657ZM69.9351 166.986C70.5351 166.536 71.1751 166.136 71.7251 165.636C73.4851 164.046 75.2151 162.426 76.9451 160.816C77.6651 160.146 78.4351 159.676 79.7551 159.846C76.8851 163.036 73.3951 165.356 70.9151 169.056C73.3451 168.526 75.3151 167.646 77.0851 166.386C79.6051 164.596 81.2751 162.046 82.8451 159.426C83.4251 158.456 84.0551 157.496 83.7651 156.266C79.3651 157.946 75.6651 160.256 72.5051 163.316C71.4251 164.366 70.3651 165.446 70.0451 167.006C70.0151 167.076 69.9751 167.136 69.9551 167.206C69.9451 167.236 69.9751 167.286 69.9951 167.326C69.9651 167.216 69.9551 167.106 69.9351 166.986ZM84.6751 101.486C85.3151 100.676 85.9551 99.8657 86.6051 99.0657C87.4451 98.0357 88.2751 96.9957 89.1551 96.0057C89.3451 95.7857 89.7051 95.4457 90.0951 95.8557C90.1851 96.9157 89.4051 97.5657 88.9151 98.3457C87.5451 100.496 86.1851 102.656 84.8151 104.816C84.7051 104.936 84.5851 105.066 84.4751 105.196C84.4251 105.256 84.4051 105.336 84.3751 105.396C84.4551 105.396 84.6051 105.416 84.6051 105.406C84.6451 105.206 84.6651 104.996 84.6951 104.796C88.3051 102.366 91.1351 99.2257 93.1851 95.4057C94.1651 93.5757 94.2051 91.5657 93.9851 89.5557C93.9451 89.1757 93.5451 88.8357 93.2051 88.3057C89.2551 91.5857 86.1751 95.2257 84.5751 99.9757C84.4551 100.326 84.4351 100.726 84.4451 101.096C84.4451 101.236 84.6551 101.376 84.7651 101.516C84.7351 101.596 84.7051 101.666 84.6751 101.746C84.6651 101.656 84.6651 101.566 84.6751 101.486ZM76.7051 131.216C76.7851 131.166 76.9151 131.136 76.9451 131.066C78.1251 128.186 78.4051 125.236 77.7751 122.176C77.5051 120.846 77.0351 119.636 76.2651 118.526C74.7551 116.336 73.2751 114.126 71.7751 111.936C71.5851 111.656 71.4451 111.246 70.9551 111.386C70.0151 114.326 69.9451 116.586 70.9151 120.576C71.4251 122.686 71.7751 124.896 73.5851 127.056C73.2851 125.526 73.1051 124.506 72.8851 123.496C72.6251 122.286 72.3051 121.096 72.0951 119.886C72.0351 119.516 72.2451 119.096 72.3551 118.586C73.3651 119.326 73.6151 120.226 73.8551 121.156C74.4951 123.636 75.1151 126.126 75.8051 128.596C76.0551 129.496 76.4551 130.346 76.7851 131.226C76.7751 131.306 76.7751 131.386 76.7651 131.466C76.7451 131.396 76.7251 131.306 76.7051 131.216ZM79.8851 116.186C80.7351 113.646 80.7051 109.866 79.7351 107.886C79.4051 107.216 78.9051 106.616 78.4551 106.006C76.9851 104.016 75.4951 102.036 74.0051 100.066C73.7551 99.7457 73.7551 99.1557 73.0151 99.1557C72.1451 101.896 71.6551 104.636 72.3251 107.526C73.1551 111.076 75.2851 113.836 77.6651 116.936C77.8251 114.906 77.1051 113.436 76.7351 111.926C75.9151 108.596 75.8851 108.606 76.2451 107.236C76.9551 107.476 77.2551 108.056 77.4551 108.676C78.0551 110.586 78.5951 112.506 79.2051 114.406C79.4051 115.026 79.7251 115.606 79.9851 116.196C79.9751 116.276 79.9551 116.366 79.9451 116.446C79.9151 116.356 79.9051 116.266 79.8851 116.186ZM69.2251 123.886C67.5451 127.306 67.2651 130.986 67.4351 134.676C67.5751 137.676 69.2551 140.156 70.7951 142.846C71.0851 140.246 69.3351 137.976 70.2751 135.466C71.2851 136.006 71.4351 136.876 71.6251 137.706C72.1051 139.836 72.5451 141.976 73.0451 144.106C73.1351 144.506 73.1051 145.056 73.8851 145.216C74.6451 140.836 74.6751 136.486 73.1851 132.296C72.2051 129.536 70.7851 126.926 69.5551 124.256C69.4851 124.096 69.2851 123.986 69.1551 123.856C69.1751 123.776 69.1951 123.696 69.2151 123.626C69.2051 123.716 69.2151 123.806 69.2251 123.886ZM91.2051 117.756C90.4651 118.336 89.6651 118.846 89.0051 119.506C87.9251 120.576 86.9351 121.746 85.9251 122.876C85.2851 123.586 84.6451 124.286 83.4051 124.546C83.7251 123.916 83.9251 123.416 84.2151 122.976C84.5251 122.506 84.9251 122.076 85.2951 121.646C85.7251 121.136 86.1951 120.666 86.6151 120.146C86.9251 119.756 87.6251 119.566 87.3851 118.836C84.9351 119.686 82.9551 121.506 80.6451 125.026C79.5751 126.646 79.1451 128.516 79.3051 130.816C79.6151 130.416 79.8451 129.976 80.1951 129.696C80.5751 129.396 80.6451 128.576 81.4151 128.856C81.7951 130.416 80.2551 131.406 80.1651 133.076C82.4051 131.766 84.2351 130.316 86.0051 128.746C87.3051 127.586 88.4851 126.316 89.1351 124.726C89.9951 122.616 90.6251 120.416 91.3351 118.256C91.3751 118.126 91.2151 117.926 91.1451 117.756C91.2251 117.716 91.3351 117.706 91.3951 117.636C91.7451 117.246 91.7251 116.996 91.3851 117.146C91.0951 117.266 90.9251 117.466 91.2051 117.756ZM67.1451 158.566C67.7851 158.326 67.5551 157.776 67.5051 157.366C67.2851 155.376 66.9751 153.406 66.7951 151.416C66.7551 150.956 66.4851 150.246 67.3551 149.996C67.9051 150.556 67.9651 151.326 68.1251 152.036C68.2951 152.776 68.3951 153.536 68.5051 154.286C68.6351 155.136 68.7351 155.986 68.8751 156.826C68.9851 157.536 69.1351 158.236 69.3951 159.616C69.9151 158.106 70.1451 157.206 70.5351 156.376C71.6451 153.996 71.5051 151.546 70.9451 149.106C70.6451 147.816 70.2051 146.546 69.6351 145.346C68.6151 143.196 67.4551 141.116 66.3351 139.016C66.1751 138.726 65.8851 138.506 65.6051 138.196C65.2951 138.516 65.0251 138.676 64.9251 138.906C63.5551 141.826 62.9251 144.846 63.6851 148.056C64.5351 151.676 65.6751 155.196 67.2451 158.566C67.1851 158.876 67.0251 159.226 67.7351 159.446C67.4551 159.056 67.2951 158.806 67.1451 158.566ZM77.8051 146.316C84.4451 142.816 90.1951 134.626 89.7151 129.756C88.1851 130.636 86.6951 131.446 85.2451 132.336C82.2951 134.146 79.8651 136.536 77.7051 139.216C77.3551 139.656 77.0351 140.166 76.8851 140.696C76.6451 141.516 76.5651 142.366 76.4251 143.216C76.2951 143.996 76.1951 144.786 76.0751 145.566C77.3851 144.206 78.3251 142.696 79.3851 141.276C80.4151 139.896 81.2251 138.236 83.2951 137.536C82.8551 139.526 81.4451 140.626 80.5551 142.036C79.6551 143.456 78.7251 144.876 77.8051 146.316ZM76.5451 87.5557C75.4051 90.5257 74.8251 94.7557 75.3051 97.0857C75.5151 98.0957 75.8851 99.1157 76.3951 99.9957C77.1851 101.376 78.2651 102.566 79.7751 104.006C79.4451 102.746 79.2351 101.936 79.0251 101.116C78.7851 100.196 78.5151 99.2857 78.3451 98.3457C78.2651 97.9157 78.2851 97.3857 79.1051 97.2957C80.8151 99.1657 80.6351 101.946 81.9551 104.296C82.1151 103.766 82.2251 103.496 82.2651 103.226C82.8951 99.2557 81.7951 95.6857 79.6651 92.3757C78.7051 90.8557 77.7151 89.3657 76.5451 87.5557ZM74.4451 157.796C74.8951 157.726 75.2151 157.766 75.4351 157.636C77.3951 156.486 79.3551 155.336 81.2751 154.126C81.8151 153.786 82.2651 153.246 82.6751 152.736C84.0351 151.026 85.5951 147.216 86.1551 144.216C82.7451 146.396 79.3851 148.336 76.5051 150.966C75.8051 151.596 75.1651 152.306 74.5551 153.026C73.7251 154.006 73.1951 155.136 72.9251 156.716C75.1251 154.726 76.0151 151.906 78.9851 150.596C77.9051 153.506 75.4351 155.116 74.4451 157.796ZM87.8652 66.9957C87.6052 67.0857 87.2751 67.0957 87.1051 67.2657C85.9851 68.4157 84.7851 69.5257 83.8251 70.7957C81.1151 74.3957 81.0951 77.1357 83.6751 81.3757C83.8851 80.6257 84.0751 80.0057 84.2351 79.3757C84.6851 77.6357 85.1051 75.8857 85.5851 74.1457C85.6951 73.7357 85.8651 73.2057 86.5251 73.4457C86.8951 74.5857 86.6851 75.7057 86.4251 76.8157C86.1451 78.0157 85.8551 79.2157 85.6251 80.4257C85.5751 80.7057 85.3451 81.1657 86.0251 81.2757C88.0851 76.7357 89.5152 72.0957 87.8652 66.9957ZM92.5951 102.016C88.2651 104.296 86.1251 107.056 84.1751 110.116C83.2351 111.586 82.1551 113.056 82.3151 115.056C83.1751 114.696 83.3451 113.906 83.7451 113.306C84.8351 111.636 85.7151 109.816 87.2451 108.466C87.5051 108.236 87.8051 107.876 88.2351 108.486C86.6851 111.306 84.5951 113.916 83.3151 117.216C85.8651 115.836 87.3751 114.726 88.3651 113.166C90.1051 110.426 91.6951 107.596 92.2651 104.336C92.3751 103.686 92.4551 103.036 92.5951 102.016ZM79.9251 89.3057C80.2251 87.7857 78.8351 86.6257 79.6951 85.1857C81.9651 86.6657 81.7451 89.4057 83.0951 91.3057C83.5151 89.3457 83.5351 87.3557 82.9051 85.4657C82.2851 83.5857 81.4751 81.7657 80.7451 79.9157C80.5151 79.3257 80.2651 78.7457 80.0151 78.1457C79.6951 78.3257 79.4651 78.3757 79.4151 78.5057C78.5051 80.5257 78.1052 82.6657 78.1152 84.8557C78.1252 86.4457 78.6251 87.9057 79.9251 89.3057ZM93.4151 98.7357C93.3251 98.8757 93.1551 99.0157 93.1551 99.1657C93.1551 99.2657 93.3751 99.3657 93.4951 99.4657C93.5851 99.3157 93.7351 99.1757 93.7451 99.0257C93.7551 98.9257 93.5351 98.8257 93.4151 98.7357Z" fill="#262626"/>
<path d="M6.68373 43.945C6.4573 45.6511 7.03001 47.2105 7.61606 48.7434C10.3065 55.7543 12.118 63.0185 13.7163 70.336C14.036 71.8155 14.289 73.335 14.4089 74.8411C14.7286 78.9597 15.8873 82.8117 18.0584 86.3305C19.4169 88.5431 20.8821 90.689 22.3738 92.9816C20.296 93.0616 18.7377 91.782 16.9263 91.5821C13.7563 82.5585 11.119 73.5349 6.8036 65.1644C6.65709 64.8845 6.25752 64.7246 5.64483 64.2714C5.68479 65.0311 5.63149 65.4976 5.75137 65.8975C6.13763 67.2304 6.57715 68.5633 7.03001 69.8828C9.14777 75.9874 11.2922 82.092 13.41 88.2099C14.1558 90.3691 14.9683 92.5151 15.581 94.701C16.2336 97.0069 16.6865 99.3661 17.2326 101.712C17.2992 102.085 17.3658 102.458 17.4324 102.832C17.4857 103.191 17.5256 103.551 17.5789 103.925C17.8986 104.378 18.2182 104.844 18.5512 105.297C18.6045 105.671 18.6578 106.044 18.711 106.417C19.9897 107.71 19.9764 107.71 20.4559 109.616C19.1373 108.643 18.8043 107.617 18.8575 106.377C18.4713 106.044 18.378 105.684 18.7243 105.257C18.3913 104.804 18.0717 104.338 17.7387 103.885C17.6854 103.525 17.6455 103.165 17.5922 102.805C17.5256 102.432 17.459 102.058 17.3924 101.685C16.3535 101.006 16.1804 99.8193 15.7675 98.7929C15.0616 97.0469 14.4488 95.2608 13.6896 93.5414C13.4632 93.0349 12.8639 92.7017 12.4243 92.3018L12.5442 92.2885C11.7584 93.568 12.451 94.7676 12.8239 95.9272C13.5032 98.0998 14.2757 100.259 15.1148 102.378C16.8463 106.75 17.7654 111.362 18.9641 115.88C19.4036 117.547 20.376 119.119 20.1362 120.959C20.669 121.292 21.1485 121.665 21.0419 122.398C21.3483 122.758 21.5614 123.118 21.1218 123.531C23.0798 124.451 23.6924 126.437 24.7713 128.09C24.132 127.903 23.5326 127.623 23.2396 127.157C22.507 125.984 21.921 124.731 21.2817 123.504C21.255 123.131 21.2284 122.745 21.2017 122.372C20.7089 122.012 20.0163 121.772 20.2694 120.932C19.044 120.092 18.6444 118.706 18.0317 117.48C15.2613 111.935 12.5708 106.35 9.8404 100.779C9.40086 99.8726 8.97465 98.9395 8.42856 98.0865C8.20213 97.7266 7.68269 97.5667 6.85689 97.0202C7.13659 98.1132 7.18988 98.7396 7.44294 99.2728C11.9848 109.309 16.3136 119.439 21.8011 129.009C22.4804 130.196 22.9599 131.528 23.4394 132.821C24.7713 136.367 26.0633 139.926 27.3819 143.498C26.7692 143.671 26.5561 143.071 26.263 142.565C21.9343 135.26 18.1117 127.703 14.3423 120.106C13.6231 118.666 13.1968 116.973 11.5319 116.2L11.6385 116.174C11.5586 116.52 11.3188 116.907 11.4121 117.187C11.7584 118.266 12.1446 119.359 12.6507 120.372C16.54 128.076 20.4692 135.767 24.3584 143.471C24.8645 144.471 25.344 145.537 25.5838 146.63C26.7958 152.161 29.9525 156.533 33.6419 160.638C36.2792 163.571 39.7688 165.077 43.2718 166.583C45.0166 167.33 46.8014 167.996 48.5595 168.689C50.1579 169.316 51.3965 170.235 51.876 172.048C52.3022 173.634 52.9948 175.154 53.5276 176.713C54.2735 178.872 54.9661 181.058 55.7386 183.204C56.3247 184.857 57.0972 185.27 58.5756 184.844C60.0407 184.43 60.9864 183.018 60.5602 181.671C60.1073 180.218 59.5213 178.806 58.9219 177.406C57.6033 174.38 56.3113 171.341 54.8729 168.369C54.1003 166.756 54.0471 165.197 54.6065 163.584C55.3523 161.425 56.1382 159.279 57.63 157.48C63.1175 150.882 62.598 143.431 60.6001 135.794C59.3082 134.367 59.3881 132.555 59.1217 130.809C58.6689 127.89 57.5101 125.197 56.2847 122.545C55.672 121.225 55.5122 119.986 55.6321 118.533C56.1782 111.962 56.591 105.364 56.9906 98.7796C57.1105 96.8869 57.004 94.9676 56.964 93.0749C56.924 91.7154 56.6976 90.4091 55.7653 88.743C54.7796 91.6487 55.3923 94.1812 55.2325 96.6337C55.0593 99.1661 54.9927 101.699 54.8196 104.231C54.6464 106.764 54.4067 109.283 54.1936 111.788C53.2745 112.028 53.3811 111.322 53.2879 110.962C52.6086 108.256 52.0359 105.524 51.3033 102.818C50.8904 101.299 50.8771 99.8592 51.3166 98.3397C53.9005 89.5428 55.2858 80.5192 56.1249 71.4023C56.3513 68.8831 56.4578 66.3374 56.5244 63.8049C56.5777 61.5257 56.4845 61.3257 55.4056 59.0465C54.7263 60.5926 54.8196 62.1121 54.7796 63.5783C54.5266 71.9754 53.3012 80.2526 51.543 88.4498C51.3033 89.5561 51.25 90.7424 50.1712 91.4621C50.291 91.5821 50.4242 91.702 50.5441 91.8086C50.4908 91.782 50.4109 91.7687 50.3843 91.7287C50.3443 91.6354 50.331 91.5154 50.3044 91.4221C49.705 88.5698 49.1323 85.7174 48.4796 82.8784C48.16 81.4788 48.2132 80.1326 48.3997 78.7331C49.7316 69.1764 50.8504 59.6063 51.0769 49.9563C51.1168 48.1835 51.1168 46.4108 51.1168 44.6248C51.1168 43.3719 50.9703 42.1323 50.0646 40.8127C49.2655 42.1589 49.3054 43.3852 49.2921 44.6114C49.2255 52.4887 48.5861 60.3127 47.6138 68.1234C47.4407 69.4696 47.2009 70.8025 46.9479 72.3486C44.1508 68.2967 43.7646 66.8972 44.3373 63.0984C45.7092 54.0082 45.6026 44.8913 45.0033 35.7611C44.95 35.0014 44.8035 34.255 44.6303 33.5086C44.5238 33.0287 44.284 32.5755 43.9244 31.6692C43.6048 32.4556 43.325 32.8554 43.2984 33.282C43.2584 34.295 43.3783 35.3079 43.365 36.3209C43.325 42.6654 43.2718 48.9966 43.1785 55.3411C43.1652 56.3141 42.9388 57.2738 42.7656 58.6067C41.1007 54.9812 40.3149 52.0756 40.1551 48.9433C39.7022 40.4262 38.4502 32.0291 36.5455 23.7252C36.2125 22.2724 35.9462 20.7929 34.7475 19.4067C34.4944 19.8732 34.2013 20.1531 34.2147 20.433C34.2679 21.446 34.3878 22.4457 34.5343 23.4453C35.3735 29.2167 36.2392 34.9881 37.0916 40.7594L37.025 40.9194L37.1849 40.6928C35.3468 39.4132 34.3612 37.5872 33.8284 35.4679C32.7895 31.2827 31.8705 27.0708 30.725 22.9122C29.2066 17.4074 27.555 11.9559 25.8768 6.49111C25.4373 5.06493 24.7313 3.71873 24.1586 2.38585C23.1064 2.59911 23.3994 3.21223 23.4926 3.6121C23.7324 4.71839 24.092 5.81135 24.385 6.91764C26.3962 14.2618 28.4074 21.5926 30.3787 28.9368C30.5652 29.6299 30.4586 30.3896 30.4853 31.1227C30.4853 31.2293 30.4853 31.336 30.4853 31.4426C30.5252 31.336 30.5652 31.216 30.6051 31.1094C28.0345 29.4833 26.1964 27.0308 23.9721 25.0181C23.3195 24.4183 23.133 23.2321 22.88 22.2857C21.2017 15.9412 19.5768 9.58339 17.8852 3.25222C17.5789 2.07929 17.5523 0.693094 16.2203 0.0266549L16.3135 -7.13087e-07C15.4078 0.679767 15.7408 1.62611 15.914 2.43917C16.54 5.2782 17.2592 8.09057 17.9385 10.9163C18.8975 14.8483 19.8298 18.7803 20.8155 22.6989C21.2284 24.325 21.3749 25.9911 20.9487 27.5772C19.8565 31.6559 19.6301 35.7478 20.2827 39.9064C20.2561 39.9997 20.2294 40.0796 20.2028 40.1729C20.2694 40.0796 20.3493 39.9863 20.4159 39.893C18.0184 39.08 16.8463 37.4006 16.4601 34.8948C15.581 29.27 14.5421 23.6586 13.5431 18.0472C13.2634 16.4744 13.1968 14.7949 11.7317 13.3821C11.5053 13.8219 11.2389 14.0885 11.2389 14.3551C11.2522 15.3681 11.2922 16.3811 11.4254 17.3807C12.2645 23.1521 13.0903 28.9101 13.996 34.6682C14.3023 36.5875 14.3689 38.4669 13.7296 40.2796C13.1968 41.7991 13.6231 43.6251 12.2378 44.8647L12.451 45.0113L12.3444 44.878C7.76259 30.8561 2.38159 16.461 0.676723 13.662C-0.0558375 13.7286 -0.0558391 14.3151 0.0507151 14.755C0.436974 16.3544 0.849859 17.9539 1.36931 19.5C4.84564 29.9631 8.34865 40.4129 11.8516 50.876C12.411 52.5554 13.077 54.2082 12.5042 56.0609C11.6518 55.9542 11.7983 55.1812 11.6118 54.688C10.5463 51.8356 9.57401 48.9566 8.46851 46.1176C8.12221 45.2246 7.82918 44.1316 6.59049 43.945L6.68373 43.945ZM53.1147 170.782C53.7674 171.035 54.2602 171.395 54.127 172.195C54.4733 172.528 54.713 172.861 54.2602 173.274C55.419 173.754 55.712 174.634 55.3923 175.793C57.1105 176.94 57.2703 178.966 58.1228 180.605C58.3758 181.085 58.1627 181.578 57.3236 181.671C56.6443 179.752 55.3257 178.019 55.4855 175.78C54.5266 175.207 54.1536 174.367 54.3667 173.274C53.9805 172.941 53.7407 172.594 54.2735 172.181C53.5409 171.995 53.2213 171.515 53.2612 170.768C53.1813 170.582 53.0881 170.395 53.0082 170.209C53.1147 170.222 53.2079 170.222 53.3145 170.235C53.2479 170.395 53.1813 170.595 53.1147 170.782ZM52.7418 157.573C52.7018 156.96 52.5686 156.333 52.6485 155.747C53.1413 152.161 56.1781 143.684 58.3226 139.806C59.9342 144.351 59.4813 149.362 57.1105 153.174C56.9373 151.788 57.9896 150.349 56.8441 148.882C55.6454 149.829 55.3124 151.135 54.8329 152.428C54.1803 154.187 54.0337 156.173 52.6086 157.6C52.6752 157.706 52.7817 157.973 52.7418 157.573ZM22.9732 58.1002C19.2438 55.0345 16.8463 51.1292 15.7009 46.4641C15.2746 44.7181 15.4745 42.9453 15.9273 41.1993C16.1937 40.173 17.206 39.9064 17.9252 40.7061C21.002 44.1049 23.4394 47.9303 25.5705 51.9689C26.2098 53.1818 26.6227 54.5414 26.9557 55.8876C27.1421 56.6473 26.969 57.5137 26.9557 58.6466C24.1853 56.3941 23.9189 52.4488 20.1895 51.0626C20.4026 51.9822 20.4292 52.6087 20.6823 53.1285C21.2417 54.2615 21.9343 55.3144 22.5337 56.4341C22.8 56.9406 23.3594 57.4471 22.8933 58.1268C23.2529 58.3801 23.5992 58.6466 24.132 59.0332C23.6658 59.0198 23.3328 59.0865 23.2795 58.9932C23.1064 58.7266 23.0664 58.4067 22.9732 58.1002ZM47.6006 161.425C46.8014 160.825 45.949 160.292 45.2164 159.625C42.8722 157.506 40.568 155.347 38.2637 153.201C37.3047 152.308 36.2792 151.682 34.521 151.908C38.3437 156.16 42.9921 159.252 46.2952 164.184C43.0587 163.478 40.4348 162.305 38.0773 160.625C34.7208 158.239 32.4965 154.84 30.4054 151.348C29.6328 150.055 28.7937 148.776 29.18 147.136C35.0405 149.376 39.9686 152.455 44.1775 156.533C45.616 157.933 47.0278 159.372 47.454 161.452C47.494 161.545 47.5472 161.625 47.5739 161.718C47.5872 161.758 47.5473 161.825 47.5206 161.878C47.5606 161.731 47.5739 161.585 47.6006 161.425ZM27.9679 74.1214C27.1155 73.0417 26.2631 71.9621 25.3973 70.8958C24.2785 69.5229 23.173 68.1367 22.0009 66.8172C21.7478 66.5239 21.2683 66.0708 20.7489 66.6172C20.629 68.0301 21.6679 68.8965 22.3206 69.9361C24.1453 72.8018 25.9567 75.6808 27.7815 78.5598C27.928 78.7198 28.0878 78.8931 28.2343 79.0663C28.3009 79.1463 28.3276 79.2529 28.3675 79.3329C28.261 79.3329 28.0612 79.3596 28.0612 79.3462C28.0079 79.0797 27.9812 78.7998 27.9413 78.5332C23.133 75.2943 19.3637 71.1091 16.6332 66.0175C15.3279 63.5783 15.2746 60.8992 15.5677 58.2201C15.6209 57.7136 16.1537 57.2604 16.6066 56.554C21.8677 60.9259 25.97 65.7775 28.1011 72.1087C28.2609 72.5752 28.2876 73.1084 28.2743 73.6015C28.2743 73.7881 27.9946 73.9747 27.848 74.1613C27.888 74.268 27.928 74.3613 27.9679 74.4679C27.9812 74.348 27.9812 74.228 27.9679 74.1214ZM38.5834 113.748C38.4768 113.681 38.3037 113.641 38.2637 113.548C36.6921 109.709 36.3191 105.777 37.1582 101.699C37.5179 99.9259 38.1438 98.3131 39.1694 96.8336C41.1806 93.9146 43.1519 90.9689 45.1498 88.0499C45.4029 87.6767 45.5893 87.1303 46.242 87.3169C47.494 91.2355 47.5872 94.2478 46.2952 99.566C45.616 102.378 45.1498 105.324 42.739 108.203C43.1386 106.164 43.3783 104.804 43.6713 103.458C44.0176 101.845 44.4439 100.259 44.7236 98.6463C44.8035 98.1532 44.5238 97.5933 44.3773 96.9136C43.032 97.8999 42.699 99.0995 42.3794 100.339C41.5269 103.645 40.7012 106.963 39.7821 110.256C39.4492 111.455 38.9164 112.588 38.4768 113.761C38.4902 113.868 38.4901 113.974 38.5035 114.081C38.5301 113.988 38.5567 113.868 38.5834 113.748ZM34.3479 93.7147C33.2157 90.3292 33.2557 85.2909 34.5476 82.6518C34.9872 81.7587 35.6531 80.959 36.2525 80.146C38.2104 77.4935 40.195 74.8544 42.1796 72.2287C42.5126 71.8022 42.5126 71.0157 43.4982 71.0157C44.657 74.6678 45.3096 78.3199 44.4172 82.1719C43.3117 86.9037 40.4747 90.5824 37.3047 94.7143C37.0916 92.0086 38.0506 90.0493 38.5434 88.0366C39.6356 83.5981 39.6756 83.6114 39.1961 81.7854C38.2504 82.1053 37.8508 82.8784 37.5844 83.7048C36.7853 86.2506 36.066 88.8097 35.2536 91.3421C34.9872 92.1685 34.561 92.9416 34.2147 93.728C34.228 93.8346 34.2546 93.9546 34.2679 94.0612C34.3079 93.9413 34.3212 93.8213 34.3479 93.7147ZM48.5462 103.978C50.7838 108.536 51.1568 113.441 50.9304 118.36C50.7439 122.358 48.5062 125.664 46.4551 129.249C46.0688 125.784 48.3997 122.758 47.1477 119.413C45.8025 120.132 45.6027 121.292 45.3496 122.398C44.7103 125.237 44.1242 128.09 43.4582 130.929C43.3384 131.462 43.3783 132.195 42.3394 132.408C41.3272 126.57 41.2872 120.772 43.2718 115.187C44.5771 111.509 46.4684 108.03 48.1067 104.471C48.1999 104.258 48.4663 104.111 48.6395 103.938C48.6128 103.831 48.5862 103.725 48.5595 103.631C48.5729 103.751 48.5595 103.871 48.5462 103.978ZM19.2704 95.8073C20.2561 96.5804 21.3216 97.2601 22.2007 98.1398C23.6392 99.566 24.9578 101.125 26.303 102.632C27.1554 103.578 28.0079 104.511 29.6595 104.858C29.2333 104.018 28.9669 103.351 28.5806 102.765C28.1677 102.138 27.6349 101.565 27.1421 100.992C26.5694 100.312 25.9434 99.686 25.384 98.9929C24.9711 98.473 24.0387 98.2198 24.3584 97.2468C27.6216 98.3797 30.2588 100.806 33.3356 105.497C34.7607 107.657 35.3335 110.149 35.1204 113.215C34.7075 112.682 34.4011 112.095 33.935 111.722C33.4288 111.322 33.3356 110.229 32.31 110.602C31.8039 112.682 33.855 114.001 33.9749 116.227C30.9914 114.481 28.554 112.548 26.1965 110.456C24.465 108.909 22.8933 107.217 22.0275 105.097C20.8821 102.285 20.043 99.3527 19.0973 96.4737C19.044 96.3004 19.2571 96.0339 19.3503 95.8073C19.2438 95.754 19.0973 95.7406 19.0174 95.6473C18.5512 95.1275 18.5778 94.7943 19.0307 94.9942C19.4169 95.1542 19.6434 95.4207 19.2704 95.8073ZM51.3166 150.202C50.4642 149.882 50.7705 149.149 50.8371 148.603C51.1302 145.95 51.543 143.324 51.7828 140.672C51.8361 140.059 52.1957 139.112 51.0369 138.779C50.3043 139.526 50.2244 140.552 50.0113 141.498C49.7849 142.485 49.6517 143.498 49.5052 144.497C49.332 145.63 49.1989 146.763 49.0124 147.883C48.8659 148.829 48.6661 149.762 48.3198 151.602C47.6272 149.589 47.3208 148.389 46.8014 147.283C45.3229 144.111 45.5094 140.845 46.2553 137.593C46.6549 135.874 47.2409 134.181 48.0001 132.581C49.3587 129.716 50.9037 126.943 52.3955 124.144C52.6086 123.758 52.9948 123.465 53.3678 123.051C53.7807 123.478 54.1403 123.691 54.2735 123.998C56.0982 127.89 56.9374 131.915 55.9251 136.193C54.793 141.019 53.2746 145.71 51.1834 150.202C51.2634 150.615 51.4764 151.082 50.5308 151.375C50.9037 150.855 51.1168 150.522 51.3166 150.202ZM37.1183 133.874C28.2743 129.209 20.6157 118.293 21.255 111.802C23.2929 112.975 25.2774 114.054 27.2087 115.241C31.1379 117.653 34.3745 120.839 37.2515 124.411C37.7176 124.997 38.1439 125.677 38.3436 126.384C38.6633 127.476 38.7698 128.609 38.9563 129.742C39.1295 130.782 39.2627 131.835 39.4225 132.875C37.6777 131.062 36.4257 129.049 35.0138 127.157C33.6419 125.317 32.5631 123.105 29.806 122.172C30.392 124.824 32.2701 126.29 33.4555 128.17C34.6542 130.062 35.8929 131.955 37.1183 133.874ZM38.7965 55.5544C40.3149 59.513 41.0874 65.1511 40.4481 68.2567C40.1684 69.6029 39.6756 70.9624 38.9963 72.1354C37.944 73.9747 36.5056 75.5609 34.4944 77.4802C34.9339 75.8008 35.2136 74.7212 35.4933 73.6282C35.813 72.4019 36.1726 71.189 36.399 69.9361C36.5056 69.363 36.4789 68.6566 35.3868 68.5366C33.1092 71.0291 33.3489 74.7345 31.5908 77.8667C31.3776 77.1603 31.2311 76.8004 31.1779 76.4406C30.3387 71.149 31.8039 66.3907 34.6409 61.9788C35.9195 59.9529 37.2381 57.9669 38.7965 55.5544ZM41.5935 149.176C40.9942 149.082 40.568 149.136 40.275 148.962C37.6644 147.43 35.0538 145.897 32.4965 144.284C31.7773 143.831 31.1779 143.111 30.6318 142.431C28.8203 140.152 26.7426 135.074 25.9967 131.075C30.5386 133.981 35.0138 136.567 38.8498 140.072C39.7821 140.912 40.6346 141.858 41.4471 142.818C42.5526 144.124 43.2584 145.63 43.6181 147.736C40.6878 145.084 39.5024 141.325 35.5466 139.579C36.9851 143.458 40.2749 145.604 41.5935 149.176ZM23.7191 28.1504C24.0654 28.2703 24.5049 28.2837 24.7313 28.5103C26.2231 30.0431 27.8214 31.5226 29.1001 33.2153C32.7096 38.0137 32.7362 41.6658 29.2998 47.3172C29.0201 46.3175 28.7671 45.4911 28.554 44.6514C27.9546 42.3322 27.3952 39.9997 26.7559 37.6805C26.6094 37.134 26.3829 36.4276 25.5039 36.7475C25.0111 38.2669 25.2907 39.7598 25.637 41.2392C26.01 42.8387 26.3963 44.4382 26.7026 46.0509C26.7692 46.4241 27.0756 47.0373 26.1698 47.1839C23.4261 41.1326 21.5214 34.9481 23.7191 28.1504ZM17.4191 74.8278C23.1863 77.8667 26.0366 81.5455 28.6339 85.6241C29.8859 87.5834 31.3244 89.5428 31.1113 92.2085C29.9658 91.7287 29.7394 90.6757 29.2066 89.876C27.7548 87.6501 26.5827 85.2242 24.5449 83.4248C24.1986 83.1183 23.799 82.6384 23.2263 83.4515C25.2907 87.2102 28.0745 90.689 29.7794 95.0875C26.3829 93.2482 24.3717 91.7687 23.0531 89.6894C20.7355 86.0373 18.6178 82.2652 17.8586 77.9201C17.7121 77.0537 17.6055 76.1873 17.4191 74.8278ZM34.2946 57.8869C33.895 55.8609 35.7464 54.3148 34.6009 52.3954C31.5774 54.3681 31.8705 58.0202 30.0724 60.5527C29.513 57.9402 29.4863 55.2878 30.3254 52.7686C31.1512 50.2628 32.2301 47.837 33.2024 45.3712C33.5088 44.5848 33.8417 43.8117 34.1747 43.012C34.6009 43.2519 34.9073 43.3185 34.9739 43.4918C36.1859 46.1842 36.7187 49.0366 36.7054 51.9556C36.692 54.0749 36.0261 56.0209 34.2946 57.8869ZM16.3269 70.4559C16.4467 70.6425 16.6732 70.8291 16.6732 71.0291C16.6732 71.1624 16.3802 71.2957 16.2203 71.4289C16.1005 71.229 15.9007 71.0424 15.8874 70.8425C15.874 70.7092 16.167 70.5759 16.3269 70.4559Z" fill="#262626"/>
</svg>
