<svg width="159" height="187" viewBox="0 0 159 187" fill="none" xmlns="http://www.w3.org/2000/svg">
<path d="M158.033 183.976C157.944 183.808 149.134 167 148.095 159.409C147.297 153.566 148.056 141.606 150.179 126.585C150.414 124.938 149.916 123.267 148.827 122.01C147.732 120.754 146.151 120.027 144.481 120.027H141.074C141.158 119.731 141.23 119.43 141.308 119.128C147.425 108.565 150.927 96.3093 150.927 83.2492C150.927 46.767 123.595 16.5523 88.3307 12.0053V3.90555L88.1464 3.58156C87.9397 3.22406 85.9399 0.0679673 79.5104 0.000935199C72.8966 -0.0660969 71.0085 3.49219 70.9303 3.64301L70.7795 3.94466V11.9047C35.0737 16.0439 7.26103 46.4597 7.26103 83.2548C7.26103 96.5662 10.9087 109.045 17.2432 119.748C17.2711 119.843 17.2935 119.938 17.3214 120.033H13.7129C12.0426 120.033 10.4618 120.754 9.36695 122.016C8.27209 123.273 7.78051 124.943 8.01513 126.591C10.1378 141.612 10.8975 153.571 10.0987 159.414C9.0653 167 0.250581 183.808 0.161204 183.982C-0.0678218 184.412 -0.0510597 184.937 0.200311 185.356C0.451681 185.775 0.904155 186.032 1.39572 186.032H40.8273C41.3021 186.032 41.749 185.786 42.006 185.389C42.2629 184.987 42.2964 184.484 42.0954 184.049C42.073 184.004 40.5592 180.636 41.6429 177.016H49.67C49.67 177.016 50.1671 171.016 53.5131 171.016C58.4344 171.016 79.1027 171.016 79.1027 171.016C79.1027 171.016 99.7709 171.016 104.692 171.016C108.038 171.016 108.535 177.016 108.535 177.016H116.579C117.652 180.569 116.194 183.864 116.11 184.049C115.909 184.479 115.942 184.987 116.199 185.389C116.456 185.791 116.898 186.032 117.378 186.032H156.81C157.301 186.032 157.754 185.775 158.005 185.356C158.245 184.931 158.262 184.412 158.033 183.976ZM127.086 171.603L126.282 183.228H119.316C120.154 179.887 120.087 174.72 115.78 170.804C115.764 170.787 115.747 170.776 115.73 170.76C111.652 167.408 105.927 167.492 105.72 167.503H59.0712L58.3059 164.095L57.5407 167.503H52.4965C52.2563 167.497 46.5307 167.408 42.4529 170.76C42.4361 170.776 42.4194 170.787 42.4026 170.804C38.0958 174.72 38.0287 179.881 38.8666 183.228H18.528L17.7404 173.402L16.9527 183.228H3.68597C6.12147 178.396 11.9812 166.291 12.8638 159.783C14.0424 151.141 11.7969 133.412 10.7802 126.194C10.6629 125.345 10.9143 124.491 11.4785 123.843C12.0426 123.195 12.8582 122.82 13.7185 122.82H18.1705C20.7736 130.708 24.9854 137.903 30.4374 144.058L31.1915 155.337L31.845 145.6V140.137L32.7556 146.533C35.8781 149.695 39.347 152.532 43.1064 155.001L43.6483 149.091L44.2571 155.739C51.2452 160.124 59.1774 163.23 67.7016 164.721L68.2881 158.331L68.8914 164.917C72.2486 165.442 75.6952 165.715 79.2088 165.715C80.1081 165.715 81.0019 165.693 81.8957 165.66L82.9011 158.336L83.8954 165.553C90.8165 165.073 97.4303 163.537 103.564 161.107L104.128 166.196L104.748 160.627C110.893 158.057 116.54 154.582 121.5 150.387L122.037 144.561L122.495 149.533C130.634 142.355 136.828 133.188 140.247 122.826H144.504C145.364 122.826 146.179 123.2 146.744 123.848C147.308 124.496 147.559 125.351 147.442 126.2C146.42 133.423 144.18 151.147 145.358 159.789C146.246 166.291 152.101 178.401 154.536 183.233H127.919L127.086 171.603ZM132.723 39.8236L129.125 44.1248L133.957 41.3932C136.516 44.7393 138.772 48.3199 140.694 52.1016L128.606 58.0116C126.545 54.4868 124.126 51.2023 121.383 48.2137L125.221 43.4656L119.964 46.7167C119.277 46.0129 118.568 45.3314 117.847 44.6666L127.198 33.7795C129.159 35.6843 131.002 37.7009 132.723 39.8236ZM64.5232 159.001C64.5176 159.548 64.5008 160.09 64.4449 160.638C64.3947 161.185 64.3165 161.727 64.1656 162.274C64.0148 161.727 63.9366 161.185 63.8863 160.638C63.8305 160.09 63.8138 159.548 63.8082 159.001C63.8193 157.912 63.8863 156.822 64.1656 155.733C64.4449 156.817 64.5064 157.912 64.5232 159.001ZM14.5787 58.6708C15.3831 56.5648 16.288 54.5092 17.2879 52.5038L28.2756 60.3633C25.3206 66.0108 23.2761 72.2112 22.3488 78.7636L12.7409 78.9703C12.0706 74.9819 11.836 71.1778 11.7578 67.9603C12.3219 65.4689 13.0258 63.0334 13.8525 60.6538L20.8574 62.6424L14.5787 58.6708ZM41.0173 25.691L48.5472 34.6453L42.9053 24.4844C46.0782 22.5237 49.4242 20.8144 52.9099 19.3788L57.2725 33.8633C51.8206 36.1145 46.7876 39.1868 42.33 42.9238L31.158 33.6175C34.1912 30.6849 37.4925 28.0315 41.0173 25.691ZM77.6559 32.3495V38.2707C72.5503 38.4215 67.6346 39.3599 63.0373 40.9743L60.8811 35.4609C66.1487 33.5952 71.785 32.5059 77.6559 32.3495ZM112.082 22.6187C113.613 23.4566 115.104 24.3503 116.562 25.2944L112.92 33.4444L118.361 26.5009C121.439 28.6404 124.338 31.02 127.025 33.6175L115.859 42.9294C111.395 39.1868 106.362 36.1145 100.905 33.8577L105.267 19.3732C107.005 20.0882 108.714 20.8703 110.379 21.7193L109.256 26.2496L112.082 22.6187ZM126.148 59.3355C124.104 60.5309 122.394 61.5196 121.026 62.3017C118.518 58.0395 115.384 54.1852 111.742 50.8783L115.959 46.7223C119.948 50.3867 123.388 54.6377 126.148 59.3355ZM119.886 133.529C119.64 133.255 119.417 132.976 119.21 132.685C119.003 132.395 118.814 132.088 118.635 131.78C118.467 131.462 118.378 131.104 118.568 130.585C119.115 130.68 119.383 130.943 119.568 131.244C119.741 131.557 119.908 131.87 120.059 132.199C120.204 132.529 120.339 132.864 120.45 133.21C120.568 133.557 120.657 133.914 120.702 134.3C120.394 134.065 120.126 133.803 119.886 133.529ZM101.62 144.69C101.385 144.455 101.218 144.198 101.078 143.936C100.933 143.673 100.827 143.399 100.726 143.12C100.553 142.556 100.43 141.975 100.519 141.327C100.972 141.802 101.218 142.344 101.413 142.897C101.497 143.181 101.575 143.466 101.614 143.762C101.653 144.058 101.67 144.36 101.62 144.69ZM57.3619 141.64C57.2334 141.919 57.0994 142.193 56.9374 142.461C56.7754 142.723 56.6022 142.986 56.4067 143.232C56.2112 143.483 55.9933 143.718 55.7308 143.936C55.7196 143.595 55.7531 143.271 55.8146 142.964C55.8704 142.651 55.9486 142.349 56.0436 142.053C56.1386 141.757 56.2559 141.472 56.3844 141.193C56.5296 140.919 56.753 140.684 57.2558 140.578C57.5016 141.025 57.4736 141.349 57.3619 141.64ZM40.2799 134.294C40.0397 134.545 39.7716 134.78 39.4643 134.992C39.5146 134.624 39.6096 134.277 39.7269 133.948C39.8386 133.618 39.9783 133.3 40.1291 132.993C40.2799 132.685 40.4475 132.389 40.6318 132.099C40.8273 131.82 41.0955 131.585 41.6317 131.512C41.8049 132.021 41.7099 132.367 41.5479 132.669C41.3692 132.959 41.1793 133.244 40.967 133.512C40.7491 133.786 40.5257 134.048 40.2799 134.294ZM12.8973 79.8082L22.036 81.4337C21.8684 83.2212 21.7791 85.0255 21.7791 86.8577C21.7791 91.7176 22.3879 96.4433 23.533 100.951C21.55 99.1358 19.8966 97.1136 18.5224 94.9574L14.858 95.1976L17.7404 93.6671C15.2155 89.2821 13.7464 84.4502 12.8973 79.8082ZM113.781 44.8175L109.541 48.9958C106.01 46.1525 102.078 43.7896 97.8437 42.0133L99.9999 36.4999C105.016 38.5891 109.652 41.4044 113.781 44.8175ZM133.036 78.8865L127.12 79.3446C126.316 74.1943 124.707 69.3065 122.411 64.8209C123.785 64.0389 125.494 63.0502 127.539 61.8548C130.259 67.1 132.147 72.8313 133.036 78.8865ZM144.822 94.9295L139.856 95.058C138.018 98.0074 136.007 100.823 133.946 103.482C135.544 98.2141 136.409 92.6337 136.409 86.8521C136.409 85.0088 136.32 83.1933 136.147 81.3946L147.04 79.4898C145.638 84.3943 143.398 89.1592 140.716 93.6447L144.822 94.9295ZM24.8122 81.7521L30.7111 82.2102C30.5658 83.7407 30.4876 85.2881 30.4876 86.8577C30.4876 91.2874 31.0853 95.5775 32.2025 99.6609C29.7112 100.571 27.7952 101.247 26.6109 101.655C25.2815 96.9461 24.5721 91.9857 24.5721 86.8577C24.5721 85.1372 24.6558 83.4335 24.8122 81.7521ZM127.477 82.2102L133.382 81.7521C133.538 83.4335 133.622 85.1372 133.622 86.8577C133.622 92.0136 132.901 97.0075 131.555 101.739C130.432 101.353 128.511 100.683 125.964 99.7502C127.098 95.6445 127.701 91.3209 127.701 86.8577C127.701 85.2881 127.623 83.7407 127.477 82.2102ZM40.2687 116.061L36.2859 120.586C32.4874 115.776 29.4821 110.319 27.4656 104.403C28.6387 104.001 30.5547 103.325 33.0404 102.415C34.7218 107.37 37.1797 111.967 40.2687 116.061ZM38.1572 122.826L42.1009 118.34C45.5252 122.357 49.5862 125.809 54.1332 128.54L50.9883 133.557C46.1731 130.652 41.8496 127.021 38.1572 122.826ZM51.0386 63.5529L51.6474 72.4961L52.3122 62.6815C55.58 60.503 59.1327 58.7099 62.9256 57.3748L64.5176 45.8956V56.8441V130.183C58.211 128.055 52.5188 124.591 47.7707 120.122V66.1057C48.8209 65.2064 49.9158 64.3573 51.0386 63.5529ZM74.7735 54.8276L75.7734 77.6799L76.7789 54.6935C77.5497 54.66 78.3206 54.6321 79.0971 54.6321C80.7338 54.6321 82.3034 54.7047 83.834 54.8443L84.5378 49.5432L85.2584 55.0007C87.1688 55.2409 89.0402 55.5984 90.9394 56.0844L92.5202 46.2307V56.5034V94.3709C91.727 93.6447 90.6489 93.1979 89.4703 93.1979H84.5937C83.9401 92.3488 82.8006 91.4774 81.1527 91.4774H77.6168C75.9633 91.4774 74.7456 92.3655 74.0361 93.1979H69.2992C68.0703 93.1979 66.9586 93.6782 66.1543 94.4547V56.3693C68.9249 55.604 71.8129 55.0845 74.7735 54.8276ZM97.2572 58.1401L97.9219 67.9547L98.5531 58.6763C102.458 60.3857 106.077 62.581 109.323 65.2008L110.708 55.1125V66.3571V119.849C109.831 120.687 108.926 121.502 107.988 122.267L107.049 104.325L106.027 123.781C102.43 126.412 98.4302 128.529 94.1458 130.026V56.9949C95.1959 57.3357 96.2293 57.7267 97.2572 58.1401ZM92.5202 130.568C91.5929 130.853 90.6489 131.099 89.6993 131.328C90.3752 128.898 91.4645 124.491 91.8611 120.033C92.0566 119.234 92.1572 118.407 92.1572 117.558C92.1572 112.598 88.6771 108.364 83.8061 106.738V105.543C84.5043 105.163 85.0014 104.459 85.0797 103.633H90.4199C91.2075 103.633 91.9281 103.376 92.5146 102.951V130.568H92.5202ZM82.7671 136.193C82.4934 136.797 82.1917 137.121 81.6219 137.333C81.4823 137.389 81.3147 137.433 81.1359 137.473L80.8566 137.528L80.6053 137.562C80.2254 137.607 79.8009 137.623 79.3875 137.629C78.9853 137.635 78.5608 137.629 78.2368 137.584C78.1642 137.573 78.0804 137.562 78.058 137.551C78.0525 137.551 78.0022 137.534 77.9464 137.517L77.7899 137.467C77.5888 137.406 77.4045 137.344 77.2481 137.277C76.6057 137.02 76.3208 136.718 76.0359 136.149C75.7845 135.568 75.6617 134.786 75.6449 133.976C75.6282 133.088 75.5723 132.16 75.5053 131.25C75.3768 129.423 75.1198 127.563 74.5724 125.753C74.2931 124.854 73.9803 123.954 73.5111 123.139C73.0362 122.329 72.4441 121.592 71.6621 121.011C71.7962 122.122 72.081 123.094 72.3603 124.044C70.4108 122.401 69.1931 120.1 69.1931 117.542C69.1931 112.576 73.7792 108.537 79.4099 108.537C84.5825 108.537 88.8614 111.944 89.5261 116.346C88.2916 114.486 86.2527 112.989 84.2529 113.307C81.4823 113.754 79.5104 117.207 79.4043 123.033C79.2982 128.853 79.1808 135.713 79.1808 135.713C79.1808 135.713 81.0801 135.797 81.4879 134.512C81.8956 133.227 82.1079 123.843 84.6272 120.871C86.5655 118.586 88.5095 117.799 89.3362 119.614C88.867 121.362 87.8168 122.915 86.37 124.105C86.4147 123.96 86.4538 123.815 86.5041 123.67C86.7722 122.843 87.0292 121.999 87.0962 121.005C85.4372 122.128 84.8004 123.977 84.2194 125.753C83.9513 126.652 83.7446 127.574 83.5938 128.49C83.4597 129.406 83.3536 130.328 83.2866 131.244C83.214 132.155 83.1693 133.082 83.1469 133.97C83.1413 134.802 83.0184 135.59 82.7671 136.193ZM70.1259 125.317C70.6622 126.122 71.3325 126.742 72.0755 127.267C72.4218 127.518 72.7849 127.747 73.1535 127.965C73.2038 128.479 73.2373 128.999 73.2597 129.524C72.6117 129.054 72.0084 128.518 71.4777 127.915C70.8409 127.155 70.2879 126.278 70.1259 125.317ZM85.6383 127.602C86.7219 126.865 87.7721 126.027 88.8558 125.178C87.99 126.697 86.8784 128.088 85.5098 129.25C85.5377 128.702 85.5768 128.149 85.6383 127.602ZM91.0176 99.6441H85.2249V96.0746H89.4647C90.3194 96.0746 91.0176 96.6891 91.0176 97.4376V99.6441ZM82.3481 98.9235H76.17L76.1979 95.0859C76.4325 94.801 76.9129 94.3486 77.6056 94.3486H81.1415C81.7895 94.3486 82.1694 94.7563 82.3425 95.0077V98.9235H82.3481ZM73.282 99.6441H67.7351V97.4376C67.7351 96.6835 68.4334 96.0746 69.288 96.0746H73.3155L73.282 99.6441ZM77.4604 104.398C78.4938 104.398 79.8791 104.398 80.9237 104.398V106.118C80.4265 106.062 79.9238 106.034 79.4155 106.034C78.7507 106.034 78.0972 106.079 77.4604 106.169V104.398ZM66.1431 102.89C66.7408 103.353 67.5005 103.638 68.3272 103.638H73.3099C73.3937 104.465 73.8853 105.169 74.5836 105.549V106.906C69.9528 108.632 66.6849 112.76 66.6849 117.564C66.6849 118.413 66.7911 119.24 66.981 120.039C67.3888 124.591 68.5116 129.099 69.1875 131.495C68.1597 131.266 67.143 131.004 66.1431 130.708V102.89ZM56.6413 129.954C60.5459 131.998 64.7634 133.523 69.1986 134.445L68.2155 140.288C62.9982 139.227 58.0546 137.417 53.4908 134.981L56.6413 129.954ZM72.0363 134.948C72.4609 135.009 72.891 135.065 73.3211 135.115C73.377 135.758 73.5055 136.422 73.768 137.109C73.9858 137.651 74.321 138.204 74.7902 138.646C75.2539 139.092 75.8125 139.405 76.3208 139.606C76.5778 139.713 76.8179 139.791 77.047 139.863L77.209 139.914C77.2593 139.93 77.3095 139.947 77.4157 139.975C77.6112 140.031 77.7508 140.048 77.9016 140.07C78.4714 140.148 78.9462 140.148 79.4378 140.143C79.9238 140.131 80.3986 140.104 80.9069 140.037C81.0354 140.02 81.1695 140.003 81.3203 139.969L81.7001 139.886C81.9571 139.819 82.2252 139.746 82.5045 139.64C83.0519 139.433 83.6217 139.087 84.0686 138.623C84.5155 138.16 84.8283 137.612 85.0294 137.076C85.2808 136.372 85.3925 135.696 85.4428 135.037C85.588 135.02 85.7388 134.998 85.884 134.976L86.8672 140.813C84.3256 141.176 81.7337 141.372 79.0915 141.372C76.3599 141.372 73.673 141.165 71.0476 140.779L72.0363 134.948ZM89.7105 140.338L88.7273 134.501C90.5093 134.143 92.2577 133.68 93.967 133.132H94.1402V133.076C96.6371 132.261 99.0391 131.255 101.341 130.065L104.491 135.093C99.9105 137.517 94.9446 139.305 89.7105 140.338ZM107.005 133.68L103.86 128.663C108.424 125.949 112.513 122.508 115.959 118.502L119.897 122.982C116.183 127.172 111.837 130.786 107.005 133.68ZM117.797 116.229C120.925 112.118 123.416 107.492 125.115 102.51C127.667 103.443 129.589 104.113 130.689 104.493C128.651 110.442 125.612 115.927 121.769 120.754L117.797 116.229ZM112.323 118.218V67.8318C114.518 69.9321 116.501 72.2448 118.233 74.7249L118.886 91.8963L119.467 76.5962C121.813 80.3333 123.612 84.4222 124.768 88.7626C124.299 100.147 119.651 110.459 112.323 118.218ZM40.1235 68.9658L40.6486 73.7753C41.911 72.066 43.2852 70.4405 44.7766 68.9155L46.1564 56.7883V67.5581V118.519C43.8102 116.084 41.7267 113.391 39.9671 110.487L38.9449 91.0026L38.1014 107.079C35.3475 101.515 33.6884 95.3149 33.4203 88.757C34.6883 84.0089 36.7272 79.5568 39.4029 75.5405L40.1235 68.9658ZM135.002 113.844C134.616 113.631 134.248 113.391 133.896 113.112C133.549 112.827 133.22 112.52 132.941 112.112C133.432 112.123 133.873 112.235 134.304 112.369C134.728 112.509 135.13 112.687 135.516 112.894C135.901 113.101 136.27 113.347 136.622 113.626C136.968 113.911 137.298 114.218 137.577 114.631C137.08 114.62 136.644 114.508 136.214 114.374C135.789 114.235 135.387 114.056 135.002 113.844ZM48.6477 49.0014L44.408 44.823C48.536 41.41 53.178 38.5947 58.1886 36.5055L60.3448 42.0189C56.1106 43.7896 52.1781 46.1525 48.6477 49.0014ZM31.0686 79.3446L25.153 78.8865C26.0412 72.8313 27.9348 67.0944 30.6496 61.8548C32.6941 63.0502 34.409 64.0445 35.7776 64.8209C33.4873 69.3121 31.873 74.1943 31.0686 79.3446ZM29.1414 117.771C28.9459 118.151 28.6945 118.43 28.4264 118.692C28.1583 118.944 27.8678 119.162 27.555 119.346C27.2422 119.53 26.9182 119.681 26.5663 119.798C26.2143 119.91 25.8457 120 25.4211 119.988C25.6166 119.608 25.868 119.329 26.1361 119.072C26.4043 118.821 26.6947 118.603 27.0075 118.419C27.3148 118.234 27.6444 118.078 27.9963 117.961C28.3482 117.849 28.7169 117.76 29.1414 117.771ZM25.058 113.447C24.7396 113.849 24.371 114.145 23.9911 114.419C23.6113 114.687 23.2091 114.916 22.7957 115.106C22.3823 115.302 21.9522 115.464 21.4998 115.587C21.0473 115.704 20.5837 115.799 20.0753 115.788C20.3937 115.391 20.7624 115.095 21.1422 114.821C21.5221 114.553 21.9243 114.324 22.3377 114.129C22.751 113.933 23.1811 113.771 23.6336 113.648C24.0861 113.531 24.5497 113.436 25.058 113.447ZM77.0358 144.969C77.3207 145.561 77.3822 146.148 77.3933 146.74C77.3878 147.036 77.371 147.332 77.3151 147.628C77.2649 147.924 77.1867 148.22 77.0358 148.516C76.885 148.22 76.8068 147.924 76.7565 147.628C76.7007 147.332 76.6839 147.036 76.6783 146.74C76.6839 146.153 76.7509 145.561 77.0358 144.969ZM131.98 122.664C131.477 122.267 131.008 121.826 130.667 121.212C131.349 121.374 131.896 121.709 132.415 122.089C132.667 122.29 132.913 122.496 133.13 122.737C133.354 122.971 133.561 123.228 133.728 123.541C133.382 123.468 133.08 123.334 132.795 123.184C132.505 123.038 132.237 122.854 131.98 122.664ZM135.393 104.325L144.302 105.956C144.09 106.565 143.872 107.168 143.643 107.766L135.393 104.325ZM147.174 79.015L135.84 78.8027C135.376 75.5181 134.633 72.3285 133.633 69.2451L138.784 66.7593L132.974 67.3235C132.097 64.9159 131.064 62.5865 129.891 60.3466L140.889 52.5094C144.554 59.8382 146.95 67.91 147.794 76.4287C147.621 77.2889 147.408 78.1547 147.174 79.015ZM95.1512 40.9799C90.554 39.3655 85.6439 38.4215 80.5327 38.2762V32.3495C86.398 32.5003 92.0398 33.5896 97.3074 35.4609L95.1512 40.9799ZM42.2294 46.7223L46.4469 50.8783C42.8048 54.1852 39.671 58.0395 37.1629 62.3017C35.7943 61.5252 34.085 60.5365 32.0405 59.3355C34.8 54.6377 38.241 50.3867 42.2294 46.7223ZM14.1988 106.833L23.1756 104.772L14.8636 108.582C14.6345 108.006 14.4167 107.42 14.1988 106.833ZM21.6841 124.077C23.5107 126.423 25.4714 128.658 27.5494 130.769L34.4258 124.787L29.0297 132.227C32.5545 135.618 36.3976 138.662 40.4978 141.282L44.5085 137.327L42.168 142.321C43.2293 142.964 44.313 143.572 45.4079 144.159L50.2118 137.618L47.1507 145.058C51.2173 147.086 55.4683 148.723 59.8309 149.94L62.3335 145.315L61.5682 150.404C63.2328 150.823 64.9142 151.186 66.6012 151.482L68.9361 143.986L68.4725 151.784C71.3046 152.208 74.1646 152.465 77.0302 152.538C81.4711 152.689 85.9176 152.404 90.3082 151.711L89.5205 144.399L92.1683 151.393C93.8944 151.074 95.6037 150.695 97.3018 150.253L96.8885 146.729L98.6537 149.89C101.91 148.974 105.105 147.823 108.206 146.449C109.362 145.935 110.507 145.388 111.641 144.818L108.189 137.919L113.384 143.902C118.869 140.925 123.981 137.232 128.583 132.953L123.55 125.379L130.103 131.501C131.438 130.188 132.728 128.831 133.968 127.418C127.511 136.132 118.802 143.254 108.91 147.98C103.972 150.365 98.7263 152.108 93.3525 153.253C87.9732 154.376 82.4598 154.845 76.9688 154.7C71.4778 154.527 65.9979 153.728 60.6968 152.292C55.4012 150.829 50.2621 148.779 45.4805 146.103C35.8725 140.807 27.6052 133.171 21.6841 124.077ZM95.0395 16.0719C98.4917 16.893 101.838 17.9711 105.066 19.2838L98.4302 32.8969C92.7828 30.8636 86.7275 29.6961 80.4209 29.5509L79.2255 14.5022H85.4651C88.0067 14.7368 90.5093 15.1055 92.9615 15.6082L92.2744 23.2387L95.0395 16.0719ZM83.8284 4.57588C84.2976 5.02276 84.3758 5.46964 84.3647 5.91652C84.3647 6.3634 84.3423 6.81028 84.3088 7.25716C84.2697 7.70404 84.2194 8.15092 84.1412 8.5978C84.0686 9.04468 83.9736 9.49156 83.8228 9.93844C83.6776 9.49156 83.577 9.04468 83.5044 8.5978C83.4262 8.15092 83.3759 7.70404 83.3368 7.25716C83.3033 6.81028 83.281 6.3634 83.281 5.91652C83.281 5.46964 83.3648 5.02276 83.8284 4.57588ZM78.963 14.5078L77.7676 29.5565C75.9857 29.5956 74.2205 29.7241 72.4832 29.9252L69.3997 20.887L70.2991 30.2156C66.6626 30.7798 63.1378 31.6848 59.7583 32.9025L53.1221 19.2894C59.2667 16.7869 65.8526 15.1446 72.7234 14.5078H78.963ZM30.9848 33.7851L40.3302 44.6778C36.1239 48.5489 32.4986 53.0345 29.5939 57.9948L17.4946 52.1016C20.9635 45.2643 25.544 39.0806 30.9848 33.7851ZM73.5669 4.70994C73.9635 4.2463 75.2148 3.11793 78.0245 2.8498L78.9183 9.7541L79.8176 2.80511C80.3986 2.82187 80.9348 2.86656 81.4152 2.93918V11.4634C80.6444 11.4411 79.8735 11.4243 79.0971 11.4243C77.2369 11.4243 75.3935 11.4969 73.5725 11.6366V4.70994H73.5669Z" fill="#262626"/>
</svg>
